<?xml version="1.0" encoding="UTF-8" standalone="no"?>
<svg xmlns="http://www.w3.org/2000/svg" width="25.000mm" height="21.152mm" viewBox="0 0 25.000 21.152">
  <path id="hair" d="M 19.150,19.452 L 19.074,19.473 L 19.005,19.449 L 18.940,19.374 L 18.877,19.246 L 18.814,19.063 L 18.752,18.828 L 18.689,18.542 L 18.628,18.212 L 18.570,17.844 L 18.516,17.446 L 18.470,17.025 L 18.432,16.590 L 18.407,16.149 L 18.394,15.707 L 18.396,15.271 L 18.412,14.844 L 18.441,14.430 L 18.481,14.030 L 18.530,13.644 L 18.582,13.272 L 18.635,12.913 L 18.681,12.565 L 18.715,12.227 L 18.731,11.898 L 18.723,11.579 L 18.687,11.270 L 18.618,10.973 L 18.513,10.691 L 18.370,10.427 L 18.189,10.186 L 17.970,9.971 L 17.715,9.786 L 17.427,9.635 L 17.110,9.519 L 16.769,9.440 L 16.409,9.397 L 16.036,9.388 L 15.653,9.409 L 15.266,9.455 L 14.877,9.519 L 14.491,9.594 L 14.107,9.674 L 13.729,9.750 L 13.354,9.816 L 12.983,9.865 L 12.614,9.895 L 12.245,9.902 L 11.875,9.885 L 11.501,9.847 L 11.122,9.789 L 10.737,9.718 L 10.347,9.640 L 9.953,9.561 L 9.557,9.489 L 9.162,9.432 L 8.771,9.396 L 8.390,9.387 L 8.022,9.411 L 7.673,9.469 L 7.348,9.564 L 7.051,9.695 L 6.786,9.862 L 6.556,10.060 L 6.362,10.287 L 6.206,10.539 L 6.086,10.812 L 6.002,11.101 L 5.949,11.404 L 5.924,11.718 L 5.923,12.042 L 5.941,12.375 L 5.973,12.717 L 6.012,13.071 L 6.056,13.436 L 6.098,13.815 L 6.136,14.208 L 6.166,14.615 L 6.187,15.037 L 6.197,15.470 L 6.196,15.910 L 6.185,16.354 L 6.163,16.795 L 6.133,17.225 L 6.095,17.636 L 6.051,18.020 L 6.002,18.368 L 5.949,18.673 L 5.893,18.929 L 5.832,19.131 L 5.767,19.276 L 5.696,19.364 L 5.618,19.397 L 5.530,19.378 L 5.431,19.313 L 5.318,19.211 L 5.189,19.079 L 5.043,18.927 L 4.877,18.765 L 4.692,18.601 L 4.488,18.443 L 4.263,18.298 L 4.021,18.169 L 3.764,18.058 L 3.492,17.967 L 3.211,17.893 L 2.924,17.831 L 2.634,17.777 L 2.346,17.725 L 2.064,17.667 L 1.791,17.597 L 1.532,17.508 L 1.290,17.395 L 1.066,17.254 L 0.865,17.081 L 0.686,16.876 L 0.530,16.640 L 0.399,16.374 L 0.292,16.083 L 0.207,15.771 L 0.145,15.444 L 0.102,15.106 L 0.078,14.762 L 0.070,14.419 L 0.077,14.079 L 0.096,13.746 L 0.125,13.421 L 0.164,13.106 L 0.210,12.799 L 0.262,12.501 L 0.320,12.208 L 0.382,11.920 L 0.449,11.633 L 0.519,11.346 L 0.593,11.057 L 0.671,10.766 L 0.754,10.471 L 0.841,10.174 L 0.932,9.876 L 1.029,9.578 L 1.131,9.283 L 1.239,8.992 L 1.352,8.709 L 1.470,8.435 L 1.594,8.172 L 1.722,7.921 L 1.855,7.681 L 1.992,7.452 L 2.132,7.233 L 2.275,7.022 L 2.421,6.817 L 2.569,6.614 L 2.719,6.412 L 2.870,6.208 L 3.023,5.999 L 3.177,5.786 L 3.332,5.567 L 3.489,5.342 L 3.648,5.112 L 3.809,4.879 L 3.973,4.645 L 4.139,4.413 L 4.307,4.184 L 4.479,3.962 L 4.653,3.748 L 4.831,3.544 L 5.011,3.350 L 5.194,3.166 L 5.380,2.992 L 5.567,2.826 L 5.757,2.667 L 5.948,2.511 L 6.141,2.356 L 6.337,2.201 L 6.534,2.042 L 6.734,1.879 L 6.938,1.710 L 7.145,1.536 L 7.358,1.359 L 7.576,1.179 L 7.802,1.000 L 8.035,0.826 L 8.278,0.660 L 8.530,0.506 L 8.793,0.368 L 9.066,0.250 L 9.349,0.154 L 9.643,0.082 L 9.947,0.036 L 10.259,0.015 L 10.579,0.017 L 10.905,0.041 L 11.236,0.084 L 11.569,0.142 L 11.904,0.211 L 12.240,0.286 L 12.573,0.365 L 12.905,0.444 L 13.233,0.519 L 13.558,0.589 L 13.880,0.652 L 14.197,0.709 L 14.511,0.759 L 14.822,0.804 L 15.131,0.846 L 15.439,0.887 L 15.745,0.928 L 16.050,0.973 L 16.355,1.023 L 16.659,1.081 L 16.962,1.146 L 17.264,1.221 L 17.563,1.306 L 17.859,1.399 L 18.150,1.502 L 18.435,1.613 L 18.712,1.731 L 18.981,1.855 L 19.239,1.986 L 19.486,2.122 L 19.721,2.264 L 19.943,2.412 L 20.153,2.567 L 20.350,2.730 L 20.535,2.902 L 20.708,3.084 L 20.870,3.277 L 21.022,3.483 L 21.166,3.701 L 21.302,3.931 L 21.432,4.175 L 21.556,4.429 L 21.675,4.694 L 21.790,4.967 L 21.902,5.246 L 22.010,5.529 L 22.116,5.814 L 22.220,6.099 L 22.321,6.383 L 22.421,6.663 L 22.519,6.939 L 22.615,7.211 L 22.710,7.480 L 22.805,7.744 L 22.900,8.006 L 22.996,8.267 L 23.092,8.528 L 23.191,8.790 L 23.291,9.054 L 23.394,9.321 L 23.499,9.591 L 23.606,9.864 L 23.716,10.140 L 23.827,10.419 L 23.940,10.699 L 24.052,10.981 L 24.162,11.262 L 24.271,11.543 L 24.375,11.824 L 24.474,12.104 L 24.567,12.384 L 24.653,12.666 L 24.729,12.950 L 24.796,13.239 L 24.853,13.533 L 24.897,13.834 L 24.930,14.143 L 24.949,14.460 L 24.955,14.785 L 24.947,15.117 L 24.922,15.453 L 24.882,15.789 L 24.824,16.123 L 24.749,16.448 L 24.653,16.761 L 24.537,17.054 L 24.400,17.325 L 24.242,17.567 L 24.061,17.778 L 23.859,17.955 L 23.635,18.098 L 23.392,18.207 L 23.131,18.285 L 22.855,18.337 L 22.567,18.366 L 22.271,18.380 L 21.971,18.386 L 21.670,18.390 L 21.375,18.401 L 21.088,18.423 L 20.813,18.461 L 20.555,18.519 L 20.316,18.597 L 20.098,18.694 L 19.903,18.808 L 19.729,18.933 L 19.578,19.062 L 19.446,19.187 L 19.333,19.300 L 19.235,19.391 Z" fill="magenta" stroke="none" />
</svg>
