<?xml version="1.0" standalone="no"?>
<!DOCTYPE svg PUBLIC "-//W3C//DTD SVG 20010904//EN"
 "http://www.w3.org/TR/2001/REC-SVG-20010904/DTD/svg10.dtd">
<svg version="1.0" xmlns="http://www.w3.org/2000/svg"
 width="1086.000000pt" height="1280.000000pt" viewBox="0 0 1086.000000 1280.000000"
 preserveAspectRatio="xMidYMid meet">
<g transform="translate(0.000000,1280.000000) scale(0.100000,-0.100000)"
fill="#000000" stroke="none">
<path d="M5277 12779 c-198 -56 -339 -191 -399 -384 -29 -91 -30 -242 -4 -329
42 -142 143 -275 254 -339 30 -16 56 -36 59 -43 4 -11 -192 -941 -239 -1131
l-10 -43 -1084 0 c-679 0 -1092 -4 -1108 -10 l-26 -10 0 -378 c0 -281 -3 -381
-12 -390 -9 -9 -80 -12 -258 -12 -178 0 -249 -3 -258 -12 -15 -15 -17 -1284
-2 -1308 7 -12 39 -16 147 -20 l138 -5 3 -514 c1 -359 6 -518 13 -528 10 -11
200 -13 1088 -13 824 0 1080 -3 1089 -12 7 -7 12 -43 12 -93 0 -50 -5 -86 -12
-93 -7 -7 -33 -12 -60 -12 -37 0 -50 -4 -58 -19 -5 -11 -10 -74 -10 -140 0
-117 -1 -121 -23 -126 -12 -3 -144 -5 -292 -3 l-270 3 -65 65 c-109 109 -219
172 -366 211 -109 29 -278 29 -389 0 -382 -99 -628 -458 -584 -852 l10 -92
-34 -36 c-19 -20 -144 -220 -277 -446 -255 -431 -267 -459 -240 -525 12 -29 7
-38 -145 -295 -86 -146 -161 -281 -166 -299 -8 -29 -15 -35 -57 -46 -119 -29
-243 -117 -316 -223 -39 -56 -86 -171 -86 -210 0 -44 -12 -48 -221 -79 -176
-26 -210 -28 -251 -18 -90 22 -93 19 -346 -288 -247 -301 -300 -374 -344 -470
-38 -83 -78 -239 -78 -302 0 -75 45 -234 94 -335 51 -104 76 -133 105 -119 10
5 150 170 311 366 160 196 300 360 311 363 25 8 46 -6 177 -113 114 -93 136
-120 125 -148 -4 -10 -136 -177 -295 -371 -202 -247 -288 -359 -288 -376 0
-48 134 -82 315 -81 112 1 141 5 210 28 113 37 214 96 297 174 60 57 385 442
501 595 43 57 48 107 18 178 -21 50 -50 345 -35 358 5 4 33 13 63 19 148 33
291 145 360 283 22 43 45 104 51 136 12 54 9 165 -6 270 -4 28 -2 43 5 43 6 0
83 122 171 271 89 148 167 272 173 273 7 2 32 9 56 16 24 6 53 22 65 35 11 13
119 190 240 394 139 236 226 373 238 377 26 8 91 -5 100 -19 4 -7 8 -559 8
-1228 0 -931 3 -1218 12 -1227 8 -8 58 -12 159 -12 81 0 150 -4 153 -9 3 -5
-1 -15 -10 -22 -32 -26 -73 -97 -89 -154 -32 -109 -3 -206 91 -305 l56 -59
-43 -44 c-127 -127 -133 -315 -14 -443 25 -26 45 -51 45 -54 0 -4 -17 -25 -39
-47 -65 -70 -86 -124 -86 -228 0 -103 17 -145 87 -221 l40 -43 -46 -53 c-26
-30 -55 -77 -66 -108 -30 -82 -31 -82 -105 -97 -103 -21 -267 -79 -381 -133
-266 -128 -486 -332 -597 -555 -64 -127 -102 -281 -95 -380 3 -48 4 -50 43
-63 108 -35 1306 -49 2334 -26 467 10 495 12 509 30 26 35 -1 769 -33 898 -15
61 -15 66 2 98 12 24 18 56 18 113 0 94 -29 168 -89 228 -20 20 -36 40 -36 45
0 5 19 28 41 52 63 66 84 120 84 215 0 94 -29 168 -88 225 -20 19 -37 41 -37
48 0 7 16 28 35 48 19 19 47 58 62 87 23 44 28 64 28 132 -1 102 -26 162 -100
235 l-54 54 45 48 c65 69 94 137 94 219 0 82 -19 137 -70 205 -22 29 -40 56
-40 59 0 3 146 5 325 5 343 0 353 -1 306 -44 -35 -32 -72 -131 -72 -196 -1
-90 24 -151 89 -221 l55 -60 -49 -43 c-29 -26 -62 -68 -79 -102 -26 -51 -30
-70 -30 -139 0 -95 22 -150 84 -218 23 -24 41 -48 41 -52 0 -4 -18 -28 -41
-52 -116 -126 -117 -311 -3 -434 24 -25 44 -50 44 -54 0 -4 -18 -28 -41 -52
-82 -89 -108 -207 -71 -319 19 -54 20 -65 8 -105 -19 -64 -34 -283 -42 -606
-5 -271 -5 -282 14 -301 19 -19 41 -20 448 -27 612 -11 1933 -9 2171 3 130 7
212 15 230 24 28 13 28 15 27 99 -2 107 -31 215 -89 334 -157 321 -496 568
-930 680 l-130 33 -11 39 c-18 61 -49 115 -88 152 -20 19 -36 39 -36 44 0 5
22 34 50 64 109 119 107 303 -6 424 -24 25 -44 50 -44 56 0 5 16 25 36 44 55
53 86 122 92 204 5 93 -21 165 -90 240 l-51 56 52 49 c126 121 142 306 36 432
-14 16 -23 34 -19 39 3 5 45 9 93 9 54 0 94 5 104 13 16 11 17 99 20 1236 1
869 5 1225 13 1228 6 2 109 -163 230 -368 120 -204 229 -381 240 -394 12 -13
41 -29 65 -35 24 -7 49 -14 56 -16 6 -1 84 -125 173 -273 88 -149 165 -271
171 -271 7 0 9 -15 5 -43 -15 -105 -18 -216 -6 -270 41 -198 215 -376 411
-419 30 -6 58 -15 63 -19 15 -13 -14 -308 -35 -358 -30 -71 -25 -121 18 -178
116 -153 441 -538 501 -595 83 -78 184 -137 297 -174 69 -23 98 -27 210 -28
181 -1 315 33 315 81 0 17 -86 129 -288 376 -159 194 -291 361 -295 371 -11
28 11 55 125 148 131 107 152 121 177 113 11 -3 151 -167 311 -363 161 -196
301 -361 311 -366 29 -14 54 15 105 119 49 101 94 260 94 335 0 63 -40 219
-78 302 -44 96 -97 169 -344 470 -253 307 -256 310 -346 288 -41 -10 -75 -8
-251 18 -209 31 -221 35 -221 79 0 39 -47 154 -86 210 -73 106 -197 194 -316
223 -42 11 -49 17 -57 46 -5 18 -80 153 -166 299 -152 257 -157 266 -145 295
27 66 15 94 -240 525 -133 226 -258 426 -277 446 l-34 36 10 92 c44 394 -202
753 -584 852 -111 29 -280 29 -389 0 -147 -39 -257 -102 -366 -211 l-65 -65
-155 -3 c-85 -2 -169 -1 -187 3 l-33 6 0 127 c0 86 -4 132 -12 140 -7 7 -36
12 -65 12 -41 0 -54 4 -63 19 -14 27 -13 164 2 179 9 9 254 12 1039 12 811 0
1030 3 1036 13 4 6 10 244 13 527 l5 515 128 5 c99 4 130 8 137 20 15 24 13
1293 -2 1308 -9 9 -81 12 -264 12 -216 0 -255 2 -268 16 -14 13 -16 63 -16
390 l0 374 -26 10 c-16 6 -462 10 -1204 10 -1114 0 -1179 1 -1184 18 -7 23
-236 1132 -236 1143 0 4 30 23 68 41 88 43 185 140 234 234 120 228 79 512
-97 688 -72 72 -149 115 -262 146 -87 24 -127 24 -216 -1z"/>
</g>
</svg>
