<?xml version="1.0" encoding="UTF-8"?>
<svg xmlns="http://www.w3.org/2000/svg" width="2800.0" height="2601.9512195121956" viewBox="0 0 2800.0 2601.9512195121956">
<path fill="#000" stroke="none" d="M 1394.31,2509.93 L 1382.37,2505.22 L 1369.99,2495.93 L 1356.85,2482.42 L 1342.67,2465.24 L 1327.23,2445.00 L 1310.33,2422.39 L 1291.88,2398.08 L 1271.84,2372.74 L 1250.24,2346.89 L 1227.18,2321.00 L 1202.84,2295.37 L 1177.44,2270.22 L 1151.24,2245.63 L 1124.54,2221.65 L 1097.61,2198.26 L 1070.74,2175.48 L 1044.15,2153.37 L 1018.05,2132.10 L 992.55,2111.93 L 967.72,2093.25 L 943.55,2076.56 L 919.97,2062.45 L 896.89,2051.54 L 874.16,2044.40 L 851.66,2041.55 L 829.28,2043.34 L 806.97,2049.89 L 784.73,2061.05 L 762.69,2076.38 L 741.04,2095.13 L 720.09,2116.24 L 700.22,2138.41 L 681.87,2160.17 L 665.51,2179.94 L 651.60,2196.16 L 640.55,2207.40 L 632.67,2212.45 L 628.12,2210.43 L 626.90,2200.88 L 628.82,2183.75 L 633.48,2159.52 L 640.30,2129.06 L 648.53,2093.69 L 657.31,2055.02 L 665.69,2014.87 L 672.73,1975.15 L 677.56,1937.70 L 679.42,1904.18 L 677.76,1875.93 L 672.26,1853.90 L 662.87,1838.55 L 649.81,1829.84 L 633.57,1827.24 L 614.89,1829.76 L 594.65,1836.04 L 573.87,1844.46 L 553.58,1853.27 L 534.74,1860.72 L 518.17,1865.19 L 504.49,1865.33 L 494.02,1860.17 L 486.82,1849.16 L 482.58,1832.21 L 480.75,1809.73 L 480.51,1782.52 L 480.88,1751.78 L 480.77,1718.94 L 479.10,1685.55 L 474.92,1653.21 L 467.44,1623.38 L 456.16,1597.27 L 440.90,1575.81 L 421.84,1559.49 L 399.50,1548.42 L 374.69,1542.25 L 348.50,1540.28 L 322.15,1541.47 L 296.95,1544.53 L 274.12,1548.08 L 254.73,1550.69 L 239.58,1551.03 L 229.15,1547.96 L 223.52,1540.62 L 222.35,1528.44 L 224.95,1511.23 L 230.27,1489.11 L 237.04,1462.54 L 243.83,1432.25 L 249.19,1399.12 L 251.80,1364.19 L 250.55,1328.49 L 244.66,1293.02 L 233.76,1258.63 L 217.92,1226.03 L 197.67,1195.68 L 173.94,1167.85 L 148.03,1142.58 L 121.47,1119.74 L 95.91,1099.05 L 72.99,1080.15 L 54.21,1062.65 L 40.78,1046.16 L 33.53,1030.38 L 32.85,1015.10 L 38.62,1000.20 L 50.24,985.71 L 66.67,971.71 L 86.50,958.37 L 108.08,945.87 L 129.63,934.37 L 149.40,923.96 L 165.79,914.59 L 177.50,906.10 L 183.62,898.15 L 183.70,890.26 L 177.78,881.81 L 166.40,872.07 L 150.52,860.30 L 131.46,845.75 L 110.81,827.78 L 90.24,805.89 L 71.43,779.80 L 55.90,749.50 L 44.93,715.25 L 39.42,677.61 L 39.86,637.41 L 46.33,595.70 L 58.44,553.71 L 75.46,512.74 L 96.34,474.11 L 119.83,439.03 L 144.58,408.52 L 169.29,383.34 L 192.76,363.93 L 214.02,350.35 L 232.41,342.29 L 247.57,339.06 L 259.49,339.66 L 268.49,342.83 L 275.15,347.14 L 280.24,351.09 L 284.64,353.22 L 289.28,352.23 L 295.00,347.03 L 302.51,336.90 L 312.29,321.47 L 324.60,300.80 L 339.44,275.37 L 356.57,246.06 L 375.51,214.08 L 395.66,180.91 L 416.31,148.20 L 436.73,117.66 L 456.25,90.96 L 474.30,69.60 L 490.51,54.83 L 504.68,47.60 L 516.82,48.43 L 527.16,57.46 L 536.10,74.39 L 544.16,98.54 L 551.93,128.88 L 560.03,164.08 L 569.03,202.65 L 579.40,242.99 L 591.48,283.48 L 605.45,322.63 L 621.32,359.09 L 638.95,391.77 L 658.05,419.88 L 678.27,442.95 L 699.17,460.85 L 720.34,473.76 L 741.41,482.16 L 762.10,486.78 L 782.25,488.51 L 801.83,488.36 L 820.96,487.39 L 839.85,486.62 L 858.82,487.00 L 878.25,489.33 L 898.53,494.24 L 920.00,502.13 L 942.96,513.23 L 967.60,527.52 L 993.96,544.79 L 1021.98,564.66 L 1051.47,586.61 L 1082.13,610.01 L 1113.60,634.18 L 1145.47,658.39 L 1177.33,681.92 L 1208.84,704.09 L 1239.72,724.29 L 1269.79,741.96 L 1299.02,756.66 L 1327.46,768.01 L 1355.30,775.77 L 1382.79,779.75 L 1410.24,779.89 L 1437.97,776.21 L 1466.26,768.81 L 1495.34,757.87 L 1525.31,743.68 L 1556.20,726.59 L 1587.86,707.01 L 1620.08,685.45 L 1652.50,662.48 L 1684.74,638.71 L 1716.36,614.79 L 1746.95,591.39 L 1776.15,569.16 L 1803.69,548.71 L 1829.43,530.58 L 1853.37,515.19 L 1875.61,502.82 L 1896.42,493.59 L 1916.14,487.41 L 1935.17,484.00 L 1953.93,482.87 L 1972.80,483.33 L 1992.11,484.56 L 2012.05,485.58 L 2032.69,485.36 L 2053.96,482.87 L 2075.64,477.14 L 2097.40,467.32 L 2118.82,452.79 L 2139.44,433.16 L 2158.81,408.36 L 2176.56,378.64 L 2192.40,344.61 L 2206.22,307.20 L 2218.06,267.59 L 2228.13,227.25 L 2236.84,187.74 L 2244.69,150.72 L 2252.29,117.79 L 2260.30,90.40 L 2269.33,69.79 L 2279.90,56.85 L 2292.41,52.11 L 2307.05,55.64 L 2323.80,67.11 L 2342.44,85.75 L 2362.54,110.42 L 2383.49,139.66 L 2404.61,171.82 L 2425.14,205.13 L 2444.36,237.86 L 2461.68,268.39 L 2476.65,295.34 L 2489.06,317.68 L 2498.94,334.75 L 2506.59,346.35 L 2512.55,352.72 L 2517.56,354.51 L 2522.46,352.77 L 2528.18,348.80 L 2535.59,344.12 L 2545.42,340.29 L 2558.21,338.87 L 2574.20,341.22 L 2593.31,348.48 L 2615.12,361.45 L 2638.90,380.52 L 2663.63,405.70 L 2688.09,436.58 L 2710.97,472.39 L 2730.93,512.07 L 2746.79,554.32 L 2757.58,597.74 L 2762.64,640.91 L 2761.72,682.47 L 2755.00,721.28 L 2743.09,756.40 L 2726.98,787.21 L 2708.01,813.42 L 2687.75,835.03 L 2667.87,852.37 L 2650.03,865.99 L 2635.71,876.64 L 2626.14,885.15 L 2622.15,892.40 L 2624.12,899.23 L 2631.94,906.36 L 2645.02,914.37 L 2662.30,923.64 L 2682.40,934.38 L 2703.65,946.62 L 2724.30,960.24 L 2742.61,975.02 L 2756.99,990.71 L 2766.16,1007.05 L 2769.24,1023.83 L 2765.80,1040.95 L 2755.92,1058.42 L 2740.15,1076.38 L 2719.49,1095.10 L 2695.28,1114.90 L 2669.09,1136.19 L 2642.60,1159.34 L 2617.44,1184.64 L 2595.10,1212.29 L 2576.72,1242.28 L 2563.10,1274.39 L 2554.59,1308.21 L 2551.06,1343.08 L 2551.95,1378.15 L 2556.30,1412.47 L 2562.87,1444.98 L 2570.21,1474.67 L 2576.83,1500.61 L 2581.30,1522.07 L 2582.40,1538.59 L 2579.17,1550.01 L 2571.06,1556.55 L 2557.91,1558.76 L 2539.99,1557.55 L 2517.97,1554.09 L 2492.84,1549.75 L 2465.81,1546.00 L 2438.26,1544.29 L 2411.56,1545.95 L 2386.97,1552.06 L 2365.54,1563.35 L 2348.06,1580.18 L 2334.91,1602.45 L 2326.14,1629.59 L 2321.40,1660.67 L 2320.00,1694.37 L 2321.01,1729.14 L 2323.28,1763.31 L 2325.61,1795.21 L 2326.82,1823.30 L 2325.85,1846.32 L 2321.85,1863.36 L 2314.28,1873.99 L 2302.93,1878.26 L 2287.90,1876.70 L 2269.65,1870.34 L 2248.93,1860.57 L 2226.70,1849.08 L 2204.06,1837.71 L 2182.17,1828.33 L 2162.15,1822.68 L 2144.97,1822.22 L 2131.41,1828.05 L 2121.98,1840.81 L 2116.91,1860.63 L 2116.10,1887.08 L 2119.17,1919.29 L 2125.49,1955.92 L 2134.22,1995.33 L 2144.38,2035.63 L 2154.94,2074.90 L 2164.85,2111.27 L 2173.19,2143.04 L 2179.13,2168.87 L 2182.05,2187.77 L 2181.53,2199.23 L 2177.36,2203.19 L 2169.56,2200.06 L 2158.31,2190.67 L 2143.97,2176.17 L 2126.98,2157.94 L 2107.85,2137.52 L 2087.13,2116.44 L 2065.29,2096.17 L 2042.79,2078.01 L 2019.95,2063.00 L 1997.02,2051.92 L 1974.14,2045.23 L 1951.33,2043.10 L 1928.56,2045.43 L 1905.70,2051.93 L 1882.62,2062.13 L 1859.17,2075.48 L 1835.21,2091.40 L 1810.65,2109.36 L 1785.46,2128.90 L 1759.66,2149.64 L 1733.36,2171.36 L 1706.71,2193.89 L 1679.93,2217.18 L 1653.29,2241.21 L 1627.05,2265.98 L 1601.50,2291.42 L 1576.92,2317.43 L 1553.53,2343.76 L 1531.52,2370.07 L 1511.02,2395.89 L 1492.09,2420.63 L 1474.72,2443.65 L 1458.82,2464.24 L 1444.25,2481.73 L 1430.79,2495.47 L 1418.19,2504.97 L 1406.13,2509.85 Z"/>
</svg>