<?xml version="1.0" encoding="UTF-8"?>
<svg xmlns="http://www.w3.org/2000/svg" width="2800.0" height="2601.9512195121956" viewBox="0 0 2800.0 2601.9512195121956">
<path fill="#000" stroke="none" d="M 1395.72,2508.08 L 1385.76,2503.67 L 1374.95,2494.68 L 1362.78,2481.47 L 1348.85,2464.53 L 1332.85,2444.45 L 1314.63,2421.87 L 1294.20,2397.47 L 1271.67,2371.85 L 1247.30,2345.58 L 1221.44,2319.10 L 1194.52,2292.74 L 1166.99,2266.75 L 1139.29,2241.26 L 1111.82,2216.35 L 1084.90,2192.10 L 1058.78,2168.58 L 1033.56,2145.94 L 1009.24,2124.41 L 985.73,2104.32 L 962.83,2086.10 L 940.28,2070.29 L 917.81,2057.47 L 895.15,2048.23 L 872.09,2043.10 L 848.49,2042.49 L 824.34,2046.63 L 799.76,2055.48 L 775.00,2068.76 L 750.45,2085.82 L 726.62,2105.77 L 704.08,2127.38 L 683.46,2149.27 L 665.36,2169.86 L 650.33,2187.59 L 638.81,2200.93 L 631.06,2208.55 L 627.17,2209.42 L 626.99,2202.87 L 630.16,2188.70 L 636.11,2167.15 L 644.06,2138.96 L 653.13,2105.30 L 662.32,2067.69 L 670.64,2027.91 L 677.13,1987.88 L 680.96,1949.50 L 681.50,1914.54 L 678.32,1884.48 L 671.28,1860.41 L 660.49,1842.96 L 646.34,1832.25 L 629.46,1827.87 L 610.66,1828.93 L 590.88,1834.14 L 571.08,1841.90 L 552.21,1850.43 L 535.11,1857.94 L 520.43,1862.73 L 508.57,1863.38 L 499.67,1858.79 L 493.58,1848.33 L 489.89,1831.85 L 487.93,1809.67 L 486.86,1782.59 L 485.73,1751.79 L 483.55,1718.72 L 479.43,1684.98 L 472.59,1652.22 L 462.48,1621.94 L 448.83,1595.45 L 431.68,1573.68 L 411.37,1557.17 L 388.53,1546.04 L 364.05,1539.92 L 338.98,1538.06 L 314.46,1539.39 L 291.61,1542.56 L 271.46,1546.10 L 254.83,1548.55 L 242.27,1548.53 L 234.00,1544.86 L 229.90,1536.67 L 229.47,1523.42 L 231.92,1504.95 L 236.20,1481.46 L 241.10,1453.46 L 245.33,1421.76 L 247.65,1387.35 L 246.98,1351.31 L 242.49,1314.74 L 233.67,1278.67 L 220.40,1243.98 L 202.97,1211.34 L 182.05,1181.21 L 158.64,1153.80 L 134.04,1129.11 L 109.69,1106.94 L 87.10,1086.95 L 67.67,1068.75 L 52.66,1051.91 L 42.98,1036.04 L 39.21,1020.82 L 41.47,1006.05 L 49.44,991.66 L 62.36,977.66 L 79.12,964.18 L 98.31,951.36 L 118.34,939.39 L 137.56,928.36 L 154.41,918.30 L 167.53,909.09 L 175.87,900.46 L 178.76,891.98 L 176.00,883.07 L 167.82,873.03 L 154.92,861.10 L 138.36,846.55 L 119.50,828.67 L 99.90,806.94 L 81.17,781.02 L 64.86,750.85 L 52.34,716.66 L 44.70,678.97 L 42.65,638.61 L 46.51,596.64 L 56.18,554.31 L 71.14,512.97 L 90.54,473.96 L 113.26,438.55 L 138.02,407.81 L 163.49,382.51 L 188.39,363.09 L 211.59,349.62 L 232.22,341.74 L 249.71,338.72 L 263.83,339.50 L 274.67,342.74 L 282.64,346.96 L 288.42,350.59 L 292.85,352.14 L 296.88,350.28 L 301.45,343.99 L 307.42,332.55 L 315.48,315.69 L 326.09,293.59 L 339.47,266.84 L 355.55,236.45 L 374.02,203.76 L 394.34,170.36 L 415.82,137.99 L 437.68,108.41 L 459.13,83.29 L 479.45,64.11 L 498.04,52.05 L 514.49,47.91 L 528.63,52.10 L 540.49,64.58 L 550.35,84.88 L 558.66,112.14 L 566.01,145.18 L 573.10,182.55 L 580.61,222.67 L 589.21,263.87 L 599.45,304.56 L 611.70,343.23 L 626.20,378.64 L 642.95,409.79 L 661.82,436.00 L 682.47,456.93 L 704.49,472.58 L 727.39,483.28 L 750.68,489.59 L 773.91,492.35 L 796.74,492.52 L 818.94,491.16 L 840.46,489.36 L 861.38,488.15 L 881.95,488.49 L 902.50,491.17 L 923.44,496.81 L 945.20,505.82 L 968.16,518.39 L 992.63,534.53 L 1018.77,554.03 L 1046.60,576.52 L 1075.95,601.50 L 1106.49,628.35 L 1137.76,656.38 L 1169.16,684.90 L 1200.07,713.18 L 1229.85,740.53 L 1257.93,766.33 L 1283.84,790.00 L 1307.30,811.07 L 1328.19,829.13 L 1346.62,843.87 L 1362.91,855.06 L 1377.53,862.55 L 1391.12,866.25 L 1404.40,866.15 L 1418.10,862.28 L 1432.93,854.75 L 1449.51,843.68 L 1468.29,829.28 L 1489.54,811.79 L 1513.35,791.49 L 1539.57,768.75 L 1567.87,743.98 L 1597.77,717.65 L 1628.69,690.29 L 1659.97,662.49 L 1691.00,634.87 L 1721.20,608.06 L 1750.12,582.72 L 1777.46,559.43 L 1803.09,538.75 L 1827.05,521.11 L 1849.54,506.82 L 1870.88,496.02 L 1891.50,488.67 L 1911.82,484.51 L 1932.25,483.10 L 1953.14,483.76 L 1974.72,485.66 L 1997.05,487.82 L 2020.06,489.17 L 2043.51,488.61 L 2067.04,485.07 L 2090.19,477.63 L 2112.46,465.50 L 2133.35,448.17 L 2152.45,425.43 L 2169.43,397.40 L 2184.16,364.56 L 2196.67,327.74 L 2207.19,288.09 L 2216.11,247.01 L 2223.99,206.11 L 2231.47,167.08 L 2239.26,131.61 L 2248.01,101.30 L 2258.32,77.50 L 2270.61,61.27 L 2285.13,53.31 L 2301.90,53.84 L 2320.72,62.65 L 2341.16,79.08 L 2362.63,102.07 L 2384.42,130.18 L 2405.75,161.76 L 2425.86,195.02 L 2444.12,228.13 L 2460.01,259.39 L 2473.27,287.33 L 2483.88,310.80 L 2492.09,329.05 L 2498.38,341.78 L 2503.47,349.18 L 2508.20,351.85 L 2513.51,350.80 L 2520.29,347.36 L 2529.34,343.04 L 2541.26,339.47 L 2556.40,338.21 L 2574.79,340.69 L 2596.10,348.07 L 2619.73,361.18 L 2644.74,380.43 L 2669.99,405.82 L 2694.22,436.94 L 2716.11,472.99 L 2734.43,512.88 L 2748.15,555.30 L 2756.49,598.80 L 2759.06,641.97 L 2755.86,683.45 L 2747.29,722.10 L 2734.16,757.02 L 2717.62,787.63 L 2699.07,813.67 L 2680.08,835.20 L 2662.22,852.59 L 2646.98,866.41 L 2635.64,877.43 L 2629.14,886.49 L 2628.04,894.43 L 2632.45,902.04 L 2642.03,910.00 L 2655.99,918.81 L 2673.19,928.79 L 2692.21,940.10 L 2711.47,952.71 L 2729.35,966.48 L 2744.33,981.22 L 2755.09,996.70 L 2760.64,1012.71 L 2760.40,1029.16 L 2754.20,1046.03 L 2742.34,1063.46 L 2725.52,1081.68 L 2704.81,1101.02 L 2681.52,1121.88 L 2657.13,1144.65 L 2633.14,1169.66 L 2610.94,1197.13 L 2591.72,1227.08 L 2576.37,1259.35 L 2565.39,1293.53 L 2558.89,1328.98 L 2556.56,1364.88 L 2557.72,1400.22 L 2561.38,1433.94 L 2566.35,1464.95 L 2571.31,1492.29 L 2574.96,1515.15 L 2576.09,1533.01 L 2573.74,1545.65 L 2567.24,1553.23 L 2556.25,1556.30 L 2540.84,1555.74 L 2521.42,1552.72 L 2498.73,1548.65 L 2473.78,1545.02 L 2447.72,1543.34 L 2421.81,1544.97 L 2397.24,1551.04 L 2375.08,1562.33 L 2356.15,1579.19 L 2341.00,1601.54 L 2329.86,1628.81 L 2322.57,1660.02 L 2318.70,1693.85 L 2317.49,1728.69 L 2318.00,1762.85 L 2319.15,1794.61 L 2319.83,1822.44 L 2319.00,1845.06 L 2315.76,1861.61 L 2309.45,1871.69 L 2299.71,1875.40 L 2286.47,1873.38 L 2270.00,1866.71 L 2250.85,1856.87 L 2229.85,1845.62 L 2207.99,1834.86 L 2186.35,1826.46 L 2166.07,1822.15 L 2148.16,1823.36 L 2133.51,1831.12 L 2122.76,1845.94 L 2116.31,1867.81 L 2114.21,1896.21 L 2116.24,1930.08 L 2121.86,1967.97 L 2130.33,2008.12 L 2140.67,2048.59 L 2151.81,2087.40 L 2162.64,2122.68 L 2172.07,2152.82 L 2179.14,2176.53 L 2183.04,2192.98 L 2183.19,2201.80 L 2179.24,2203.11 L 2171.09,2197.48 L 2158.87,2185.89 L 2142.95,2169.61 L 2123.83,2150.15 L 2102.15,2129.07 L 2078.59,2107.95 L 2053.84,2088.23 L 2028.54,2071.14 L 2003.21,2057.65 L 1978.27,2048.43 L 1953.97,2043.84 L 1930.39,2043.94 L 1907.49,2048.55 L 1885.11,2057.28 L 1862.97,2069.62 L 1840.78,2085.00 L 1818.19,2102.82 L 1794.94,2122.58 L 1770.80,2143.80 L 1745.64,2166.17 L 1719.48,2189.44 L 1692.42,2213.46 L 1664.72,2238.16 L 1636.72,2263.46 L 1608.85,2289.31 L 1581.57,2315.55 L 1555.36,2341.98 L 1530.65,2368.27 L 1507.82,2393.99 L 1487.13,2418.58 L 1468.71,2441.44 L 1452.55,2461.91 L 1438.49,2479.33 L 1426.24,2493.09 L 1415.38,2502.69 L 1405.40,2507.75 Z"/>
</svg>