<?xml version="1.0" encoding="UTF-8"?>
<svg xmlns="http://www.w3.org/2000/svg" width="2800.0" height="2601.9512195121956" viewBox="0 0 2800.0 2601.9512195121956">
<path fill="#000" stroke="none" d="M 1396.33,2508.20 L 1387.36,2503.78 L 1377.34,2494.73 L 1365.66,2481.39 L 1351.84,2464.27 L 1335.54,2443.97 L 1316.63,2421.15 L 1295.13,2396.47 L 1271.28,2370.58 L 1245.43,2344.03 L 1218.07,2317.27 L 1189.77,2290.65 L 1161.08,2264.42 L 1132.55,2238.71 L 1104.65,2213.63 L 1077.73,2189.25 L 1052.00,2165.68 L 1027.51,2143.06 L 1004.17,2121.64 L 981.76,2101.79 L 959.94,2083.95 L 938.34,2068.67 L 916.57,2056.53 L 894.28,2048.11 L 871.20,2043.94 L 847.21,2044.37 L 822.34,2049.59 L 796.79,2059.51 L 770.93,2073.74 L 745.29,2091.58 L 720.52,2112.04 L 697.34,2133.83 L 676.47,2155.48 L 658.60,2175.40 L 644.30,2191.99 L 633.98,2203.76 L 627.83,2209.42 L 625.80,2208.04 L 627.59,2199.05 L 632.66,2182.39 L 640.24,2158.47 L 649.41,2128.17 L 659.13,2092.81 L 668.31,2054.03 L 675.92,2013.71 L 681.04,1973.81 L 682.94,1936.24 L 681.11,1902.70 L 675.33,1874.57 L 665.65,1852.80 L 652.44,1837.83 L 636.28,1829.57 L 617.98,1827.41 L 598.47,1830.25 L 578.74,1836.65 L 559.76,1844.88 L 542.39,1853.09 L 527.30,1859.50 L 514.95,1862.46 L 505.51,1860.67 L 498.86,1853.22 L 494.61,1839.70 L 492.14,1820.18 L 490.62,1795.26 L 489.13,1765.93 L 486.72,1733.58 L 482.48,1699.79 L 475.65,1666.24 L 465.69,1634.55 L 452.31,1606.17 L 435.53,1582.23 L 415.65,1563.47 L 393.29,1550.19 L 369.27,1542.21 L 344.60,1538.92 L 320.37,1539.33 L 297.67,1542.13 L 277.49,1545.85 L 260.63,1548.97 L 247.63,1550.00 L 238.72,1547.67 L 233.81,1540.95 L 232.45,1529.17 L 233.93,1512.04 L 237.24,1489.67 L 241.26,1462.51 L 244.78,1431.31 L 246.61,1397.05 L 245.73,1360.86 L 241.32,1323.88 L 232.89,1287.20 L 220.29,1251.78 L 203.74,1218.36 L 183.85,1187.46 L 161.55,1159.35 L 138.00,1134.03 L 114.56,1111.34 L 92.63,1090.93 L 73.55,1072.38 L 58.50,1055.23 L 48.40,1039.05 L 43.81,1023.50 L 44.90,1008.37 L 51.43,993.56 L 62.74,979.10 L 77.84,965.13 L 95.45,951.85 L 114.09,939.44 L 132.23,928.07 L 148.41,917.80 L 161.31,908.52 L 169.89,899.98 L 173.48,891.73 L 171.79,883.19 L 164.99,873.60 L 153.65,862.16 L 138.68,848.05 L 121.34,830.53 L 103.04,809.00 L 85.29,783.10 L 69.56,752.74 L 57.20,718.13 L 49.27,679.85 L 46.55,638.75 L 49.42,595.97 L 57.87,552.83 L 71.53,510.78 L 89.67,471.23 L 111.29,435.51 L 135.23,404.72 L 160.22,379.66 L 185.04,360.76 L 208.58,348.01 L 229.92,340.99 L 248.45,338.87 L 263.81,340.48 L 276.01,344.36 L 285.34,348.94 L 292.34,352.57 L 297.76,353.72 L 302.47,351.07 L 307.36,343.60 L 313.27,330.71 L 320.93,312.24 L 330.87,288.50 L 343.36,260.24 L 358.46,228.64 L 375.96,195.18 L 395.42,161.56 L 416.25,129.60 L 437.74,101.08 L 459.14,77.64 L 479.71,60.67 L 498.86,51.22 L 516.11,49.93 L 531.20,57.02 L 544.07,72.23 L 554.90,94.93 L 564.05,124.08 L 572.05,158.39 L 579.54,196.35 L 587.20,236.36 L 595.68,276.81 L 605.59,316.20 L 617.40,353.19 L 631.40,386.69 L 647.71,415.91 L 666.29,440.34 L 686.90,459.80 L 709.17,474.43 L 732.65,484.60 L 756.84,490.93 L 781.28,494.18 L 805.53,495.24 L 829.30,495.03 L 852.42,494.51 L 874.86,494.53 L 896.76,495.91 L 918.35,499.30 L 940.00,505.26 L 962.10,514.16 L 985.04,526.23 L 1009.15,541.57 L 1034.68,560.11 L 1061.71,581.65 L 1090.18,605.90 L 1119.85,632.45 L 1150.32,660.80 L 1181.05,690.41 L 1211.41,720.65 L 1240.73,750.89 L 1268.36,780.46 L 1293.71,808.71 L 1316.36,835.00 L 1336.03,858.73 L 1352.67,879.36 L 1366.43,896.41 L 1377.69,909.51 L 1387.03,918.35 L 1395.14,922.78 L 1402.84,922.70 L 1410.96,918.16 L 1420.32,909.31 L 1431.60,896.37 L 1445.37,879.68 L 1462.00,859.64 L 1481.64,836.70 L 1504.21,811.37 L 1529.45,784.18 L 1556.90,755.68 L 1586.01,726.43 L 1616.12,697.00 L 1646.58,667.93 L 1676.75,639.76 L 1706.14,613.00 L 1734.35,588.10 L 1761.16,565.50 L 1786.52,545.54 L 1810.53,528.50 L 1833.43,514.57 L 1855.57,503.79 L 1877.31,496.09 L 1899.06,491.23 L 1921.13,488.83 L 1943.76,488.33 L 1967.06,489.02 L 1990.99,490.08 L 2015.35,490.57 L 2039.84,489.52 L 2064.02,485.95 L 2087.43,478.95 L 2109.58,467.76 L 2130.02,451.78 L 2148.42,430.71 L 2164.57,404.51 L 2178.43,373.50 L 2190.16,338.34 L 2200.07,299.99 L 2208.65,259.73 L 2216.50,219.06 L 2224.28,179.60 L 2232.67,143.06 L 2242.28,111.06 L 2253.60,85.08 L 2266.99,66.32 L 2282.56,55.63 L 2300.25,53.43 L 2319.76,59.69 L 2340.61,73.91 L 2362.16,95.15 L 2383.70,122.09 L 2404.50,153.10 L 2423.86,186.39 L 2441.22,220.08 L 2456.20,252.37 L 2468.63,281.67 L 2478.59,306.67 L 2486.42,326.50 L 2492.67,340.71 L 2498.08,349.37 L 2503.48,353.00 L 2509.77,352.56 L 2517.76,349.35 L 2528.15,344.93 L 2541.43,340.97 L 2557.83,339.11 L 2577.25,340.87 L 2599.30,347.52 L 2623.28,359.95 L 2648.24,378.68 L 2673.05,403.74 L 2696.47,434.74 L 2717.28,470.91 L 2734.35,511.11 L 2746.76,553.98 L 2753.88,598.05 L 2755.43,641.80 L 2751.50,683.84 L 2742.58,722.96 L 2729.53,758.22 L 2713.49,789.03 L 2695.84,815.11 L 2678.07,836.55 L 2661.65,853.73 L 2647.97,867.30 L 2638.16,878.04 L 2633.05,886.85 L 2633.07,894.62 L 2638.25,902.18 L 2648.18,910.21 L 2662.05,919.21 L 2678.74,929.51 L 2696.86,941.21 L 2714.92,954.29 L 2731.40,968.57 L 2744.87,983.80 L 2754.16,999.75 L 2758.38,1016.19 L 2757.02,1033.03 L 2750.02,1050.26 L 2737.70,1068.02 L 2720.77,1086.59 L 2700.28,1106.32 L 2677.50,1127.63 L 2653.83,1150.93 L 2630.68,1176.54 L 2609.35,1204.67 L 2590.95,1235.31 L 2576.26,1268.25 L 2565.74,1303.02 L 2559.43,1338.91 L 2557.02,1375.02 L 2557.82,1410.29 L 2560.89,1443.63 L 2565.07,1473.93 L 2569.10,1500.24 L 2571.75,1521.80 L 2571.90,1538.16 L 2568.66,1549.22 L 2561.40,1555.27 L 2549.86,1556.97 L 2534.11,1555.36 L 2514.58,1551.72 L 2492.02,1547.54 L 2467.39,1544.38 L 2441.84,1543.74 L 2416.55,1546.93 L 2392.67,1554.99 L 2371.21,1568.54 L 2352.96,1587.77 L 2338.40,1612.38 L 2327.71,1641.62 L 2320.73,1674.31 L 2316.98,1708.97 L 2315.71,1743.89 L 2315.97,1777.32 L 2316.70,1807.57 L 2316.79,1833.20 L 2315.25,1853.09 L 2311.21,1866.58 L 2304.05,1873.52 L 2293.46,1874.29 L 2279.42,1869.79 L 2262.25,1861.34 L 2242.57,1850.62 L 2221.23,1839.51 L 2199.26,1829.93 L 2177.81,1823.75 L 2158.00,1822.55 L 2140.86,1827.56 L 2127.26,1839.53 L 2117.83,1858.68 L 2112.87,1884.67 L 2112.39,1916.63 L 2116.07,1953.25 L 2123.28,1992.83 L 2133.14,2033.46 L 2144.59,2073.12 L 2156.47,2109.86 L 2167.56,2141.95 L 2176.73,2167.96 L 2182.98,2186.87 L 2185.51,2198.17 L 2183.77,2201.81 L 2177.49,2198.24 L 2166.67,2188.33 L 2151.58,2173.31 L 2132.71,2154.63 L 2110.73,2133.88 L 2086.40,2112.66 L 2060.54,2092.48 L 2033.94,2074.66 L 2007.28,2060.25 L 1981.13,2050.02 L 1955.87,2044.39 L 1931.70,2043.50 L 1908.61,2047.23 L 1886.44,2055.22 L 1864.89,2066.99 L 1843.55,2081.96 L 1822.00,2099.54 L 1799.81,2119.18 L 1776.62,2140.41 L 1752.20,2162.87 L 1726.44,2186.29 L 1699.39,2210.50 L 1671.29,2235.41 L 1642.50,2260.94 L 1613.49,2287.01 L 1584.86,2313.49 L 1557.17,2340.16 L 1531.02,2366.69 L 1506.90,2392.65 L 1485.18,2417.50 L 1466.08,2440.61 L 1449.65,2461.31 L 1435.73,2478.95 L 1424.00,2492.90 L 1413.94,2502.65 L 1404.95,2507.82 Z"/>
</svg>