<?xml version="1.0" encoding="UTF-8" standalone="no"?>
<svg xmlns="http://www.w3.org/2000/svg" width="25.000mm" height="21.152mm" viewBox="0 0 25.000 21.152">
  <path id="face" d="M 15.292,16.753 L 15.167,16.807 L 15.035,16.849 L 14.895,16.881 L 14.749,16.904 L 14.596,16.917 L 14.434,16.923 L 14.266,16.921 L 14.089,16.914 L 13.906,16.903 L 13.715,16.890 L 13.518,16.875 L 13.315,16.860 L 13.108,16.847 L 12.896,16.837 L 12.681,16.830 L 12.465,16.826 L 12.248,16.827 L 12.031,16.832 L 11.816,16.841 L 11.603,16.852 L 11.394,16.866 L 11.190,16.881 L 10.991,16.896 L 10.798,16.909 L 10.611,16.918 L 10.431,16.923 L 10.258,16.922 L 10.092,16.914 L 9.933,16.897 L 9.781,16.870 L 9.635,16.833 L 9.497,16.786 L 9.365,16.727 L 9.239,16.657 L 9.119,16.578 L 9.006,16.488 L 8.898,16.389 L 8.797,16.282 L 8.701,16.169 L 8.610,16.049 L 8.524,15.926 L 8.443,15.800 L 8.367,15.672 L 8.294,15.544 L 8.224,15.418 L 8.156,15.293 L 8.089,15.171 L 8.022,15.054 L 7.953,14.941 L 7.882,14.833 L 7.806,14.731 L 7.725,14.635 L 7.637,14.545 L 7.540,14.461 L 7.435,14.384 L 7.320,14.313 L 7.195,14.248 L 7.060,14.188 L 6.914,14.134 L 6.760,14.085 L 6.597,14.040 L 6.428,13.999 L 6.254,13.961 L 6.077,13.926 L 5.899,13.893 L 5.723,13.860 L 5.552,13.827 L 5.387,13.793 L 5.232,13.757 L 5.089,13.718 L 4.959,13.674 L 4.843,13.625 L 4.745,13.569 L 4.663,13.505 L 4.598,13.433 L 4.551,13.353 L 4.520,13.262 L 4.505,13.162 L 4.505,13.051 L 4.517,12.931 L 4.541,12.801 L 4.574,12.662 L 4.614,12.514 L 4.660,12.359 L 4.709,12.198 L 4.761,12.033 L 4.813,11.863 L 4.865,11.692 L 4.917,11.520 L 4.966,11.348 L 5.014,11.179 L 5.061,11.014 L 5.107,10.852 L 5.153,10.697 L 5.199,10.547 L 5.246,10.403 L 5.295,10.266 L 5.348,10.135 L 5.404,10.011 L 5.464,9.893 L 5.529,9.779 L 5.598,9.670 L 5.673,9.565 L 5.752,9.461 L 5.835,9.360 L 5.921,9.258 L 6.010,9.157 L 6.101,9.054 L 6.193,8.950 L 6.285,8.843 L 6.376,8.733 L 6.465,8.620 L 6.553,8.505 L 6.637,8.386 L 6.719,8.266 L 6.798,8.143 L 6.874,8.019 L 6.948,7.894 L 7.019,7.769 L 7.090,7.644 L 7.160,7.521 L 7.230,7.399 L 7.301,7.280 L 7.374,7.164 L 7.449,7.052 L 7.527,6.943 L 7.608,6.837 L 7.693,6.735 L 7.782,6.636 L 7.875,6.540 L 7.971,6.447 L 8.070,6.356 L 8.171,6.266 L 8.275,6.178 L 8.380,6.089 L 8.487,6.001 L 8.593,5.912 L 8.700,5.821 L 8.806,5.730 L 8.912,5.636 L 9.017,5.542 L 9.120,5.446 L 9.224,5.349 L 9.327,5.251 L 9.429,5.154 L 9.533,5.058 L 9.637,4.964 L 9.744,4.873 L 9.852,4.786 L 9.964,4.704 L 10.078,4.628 L 10.197,4.560 L 10.320,4.500 L 10.447,4.449 L 10.579,4.408 L 10.715,4.378 L 10.855,4.357 L 11.000,4.348 L 11.148,4.349 L 11.299,4.360 L 11.452,4.381 L 11.608,4.410 L 11.765,4.447 L 11.923,4.490 L 12.082,4.538 L 12.241,4.591 L 12.400,4.646 L 12.559,4.701 L 12.717,4.757 L 12.875,4.811 L 13.033,4.863 L 13.190,4.911 L 13.348,4.955 L 13.506,4.994 L 13.665,5.029 L 13.826,5.058 L 13.988,5.082 L 14.151,5.102 L 14.317,5.117 L 14.484,5.130 L 14.654,5.140 L 14.825,5.148 L 14.999,5.156 L 15.173,5.165 L 15.349,5.176 L 15.524,5.189 L 15.699,5.206 L 15.873,5.227 L 16.044,5.254 L 16.212,5.286 L 16.376,5.325 L 16.535,5.371 L 16.688,5.423 L 16.834,5.483 L 16.972,5.550 L 17.102,5.623 L 17.223,5.704 L 17.335,5.792 L 17.438,5.886 L 17.532,5.986 L 17.616,6.092 L 17.692,6.205 L 17.760,6.322 L 17.821,6.445 L 17.875,6.573 L 17.924,6.705 L 17.968,6.842 L 18.009,6.983 L 18.048,7.128 L 18.086,7.275 L 18.124,7.425 L 18.162,7.578 L 18.203,7.731 L 18.246,7.886 L 18.291,8.041 L 18.340,8.195 L 18.393,8.348 L 18.449,8.500 L 18.507,8.649 L 18.569,8.796 L 18.632,8.939 L 18.698,9.079 L 18.763,9.215 L 18.829,9.348 L 18.895,9.477 L 18.959,9.604 L 19.021,9.728 L 19.081,9.851 L 19.139,9.972 L 19.193,10.094 L 19.245,10.216 L 19.295,10.340 L 19.343,10.466 L 19.389,10.595 L 19.435,10.728 L 19.481,10.866 L 19.527,11.008 L 19.575,11.155 L 19.625,11.307 L 19.678,11.462 L 19.734,11.621 L 19.792,11.783 L 19.854,11.947 L 19.918,12.111 L 19.984,12.274 L 20.050,12.435 L 20.116,12.592 L 20.179,12.744 L 20.238,12.890 L 20.291,13.029 L 20.335,13.159 L 20.370,13.280 L 20.393,13.391 L 20.401,13.491 L 20.395,13.582 L 20.372,13.662 L 20.331,13.731 L 20.272,13.792 L 20.194,13.844 L 20.099,13.888 L 19.987,13.926 L 19.858,13.958 L 19.715,13.985 L 19.560,14.010 L 19.394,14.032 L 19.219,14.053 L 19.039,14.075 L 18.856,14.098 L 18.672,14.123 L 18.489,14.150 L 18.310,14.181 L 18.136,14.217 L 17.970,14.256 L 17.811,14.301 L 17.662,14.351 L 17.522,14.407 L 17.392,14.469 L 17.271,14.536 L 17.160,14.610 L 17.057,14.690 L 16.962,14.775 L 16.873,14.867 L 16.790,14.965 L 16.711,15.067 L 16.635,15.175 L 16.560,15.287 L 16.487,15.403 L 16.414,15.522 L 16.339,15.642 L 16.263,15.764 L 16.184,15.885 L 16.102,16.004 L 16.017,16.121 L 15.928,16.233 L 15.834,16.340 L 15.736,16.440 L 15.633,16.533 L 15.525,16.616 L 15.412,16.690 Z" fill="brown" stroke="none" />
</svg>
