<?xml version="1.0" encoding="UTF-8" standalone="no"?>
<svg xmlns="http://www.w3.org/2000/svg" width="25.000mm" height="21.152mm" viewBox="0 0 25.000 21.152">
  <path id="hair" d="M 23.702,17.614 L 23.471,17.676 L 23.224,17.714 L 22.960,17.733 L 22.682,17.736 L 22.389,17.727 L 22.082,17.711 L 21.760,17.692 L 21.426,17.673 L 21.080,17.657 L 20.723,17.646 L 20.358,17.643 L 19.986,17.648 L 19.610,17.660 L 19.233,17.677 L 18.859,17.698 L 18.490,17.720 L 18.132,17.739 L 17.786,17.751 L 17.458,17.751 L 17.150,17.736 L 16.865,17.701 L 16.607,17.642 L 16.375,17.556 L 16.173,17.440 L 16.000,17.292 L 15.856,17.112 L 15.742,16.898 L 15.654,16.652 L 15.593,16.375 L 15.555,16.069 L 15.538,15.738 L 15.539,15.385 L 15.555,15.014 L 15.582,14.630 L 15.618,14.238 L 15.659,13.842 L 15.701,13.449 L 15.741,13.062 L 15.775,12.685 L 15.800,12.324 L 15.813,11.982 L 15.810,11.662 L 15.788,11.366 L 15.744,11.096 L 15.675,10.853 L 15.578,10.639 L 15.452,10.452 L 15.295,10.292 L 15.107,10.158 L 14.886,10.047 L 14.634,9.959 L 14.353,9.889 L 14.044,9.837 L 13.711,9.800 L 13.357,9.775 L 12.988,9.760 L 12.609,9.754 L 12.225,9.756 L 11.842,9.766 L 11.465,9.782 L 11.101,9.807 L 10.754,9.841 L 10.429,9.887 L 10.130,9.946 L 9.860,10.020 L 9.622,10.114 L 9.415,10.228 L 9.242,10.367 L 9.101,10.532 L 8.991,10.725 L 8.910,10.947 L 8.856,11.199 L 8.826,11.480 L 8.816,11.789 L 8.823,12.124 L 8.844,12.481 L 8.875,12.858 L 8.912,13.248 L 8.952,13.648 L 8.991,14.051 L 9.027,14.453 L 9.057,14.846 L 9.076,15.227 L 9.083,15.589 L 9.074,15.929 L 9.047,16.242 L 8.998,16.526 L 8.926,16.778 L 8.828,16.998 L 8.702,17.185 L 8.548,17.340 L 8.364,17.465 L 8.150,17.561 L 7.907,17.633 L 7.635,17.683 L 7.338,17.715 L 7.017,17.733 L 6.676,17.740 L 6.318,17.740 L 5.949,17.735 L 5.571,17.728 L 5.189,17.721 L 4.809,17.715 L 4.434,17.710 L 4.067,17.706 L 3.713,17.701 L 3.372,17.695 L 3.049,17.684 L 2.742,17.666 L 2.454,17.639 L 2.185,17.599 L 1.933,17.544 L 1.698,17.471 L 1.480,17.379 L 1.277,17.264 L 1.089,17.127 L 0.915,16.967 L 0.755,16.783 L 0.609,16.577 L 0.476,16.350 L 0.358,16.104 L 0.256,15.841 L 0.170,15.565 L 0.100,15.277 L 0.049,14.982 L 0.015,14.681 L -0.001,14.379 L 0.000,14.076 L 0.019,13.776 L 0.052,13.479 L 0.098,13.188 L 0.156,12.901 L 0.223,12.620 L 0.295,12.345 L 0.372,12.074 L 0.449,11.807 L 0.527,11.543 L 0.602,11.280 L 0.674,11.018 L 0.744,10.757 L 0.810,10.496 L 0.874,10.234 L 0.938,9.972 L 1.002,9.710 L 1.070,9.450 L 1.142,9.192 L 1.221,8.938 L 1.308,8.688 L 1.405,8.443 L 1.512,8.206 L 1.629,7.976 L 1.757,7.754 L 1.892,7.540 L 2.035,7.334 L 2.184,7.135 L 2.335,6.942 L 2.488,6.753 L 2.640,6.567 L 2.789,6.383 L 2.935,6.198 L 3.075,6.013 L 3.211,5.824 L 3.341,5.632 L 3.469,5.436 L 3.593,5.236 L 3.717,5.033 L 3.842,4.828 L 3.970,4.621 L 4.103,4.415 L 4.243,4.210 L 4.390,4.010 L 4.546,3.814 L 4.709,3.625 L 4.881,3.444 L 5.060,3.270 L 5.244,3.104 L 5.432,2.946 L 5.622,2.795 L 5.812,2.649 L 6.000,2.507 L 6.186,2.367 L 6.367,2.227 L 6.544,2.085 L 6.718,1.941 L 6.888,1.794 L 7.057,1.642 L 7.226,1.486 L 7.398,1.328 L 7.575,1.167 L 7.759,1.007 L 7.954,0.850 L 8.160,0.699 L 8.380,0.556 L 8.613,0.425 L 8.862,0.308 L 9.124,0.209 L 9.399,0.128 L 9.685,0.068 L 9.980,0.028 L 10.281,0.010 L 10.587,0.011 L 10.894,0.031 L 11.200,0.067 L 11.503,0.117 L 11.803,0.177 L 12.097,0.244 L 12.385,0.316 L 12.669,0.389 L 12.947,0.460 L 13.223,0.529 L 13.496,0.592 L 13.768,0.650 L 14.041,0.702 L 14.316,0.748 L 14.595,0.790 L 14.877,0.827 L 15.163,0.863 L 15.453,0.899 L 15.746,0.936 L 16.040,0.976 L 16.335,1.021 L 16.629,1.072 L 16.919,1.129 L 17.205,1.194 L 17.484,1.267 L 17.755,1.347 L 18.017,1.434 L 18.270,1.528 L 18.513,1.627 L 18.746,1.732 L 18.970,1.843 L 19.185,1.958 L 19.392,2.077 L 19.593,2.202 L 19.787,2.331 L 19.976,2.467 L 20.160,2.609 L 20.339,2.759 L 20.513,2.917 L 20.682,3.084 L 20.845,3.261 L 21.002,3.448 L 21.151,3.645 L 21.293,3.852 L 21.426,4.069 L 21.549,4.295 L 21.664,4.529 L 21.769,4.769 L 21.866,5.014 L 21.955,5.263 L 22.038,5.514 L 22.117,5.766 L 22.192,6.018 L 22.265,6.270 L 22.339,6.520 L 22.414,6.768 L 22.493,7.015 L 22.575,7.260 L 22.662,7.504 L 22.754,7.747 L 22.851,7.990 L 22.951,8.233 L 23.055,8.476 L 23.161,8.720 L 23.267,8.964 L 23.374,9.209 L 23.478,9.455 L 23.581,9.700 L 23.680,9.945 L 23.776,10.189 L 23.869,10.432 L 23.958,10.674 L 24.043,10.915 L 24.127,11.155 L 24.208,11.396 L 24.288,11.637 L 24.367,11.880 L 24.445,12.126 L 24.522,12.377 L 24.599,12.634 L 24.673,12.899 L 24.745,13.171 L 24.812,13.452 L 24.872,13.742 L 24.925,14.039 L 24.967,14.343 L 24.996,14.652 L 25.011,14.963 L 25.010,15.273 L 24.991,15.578 L 24.952,15.875 L 24.894,16.160 L 24.814,16.428 L 24.715,16.675 L 24.594,16.900 L 24.453,17.099 L 24.293,17.270 L 24.114,17.413 L 23.917,17.527 Z" fill="magenta" stroke="none" />
</svg>
