<?xml version="1.0" encoding="UTF-8" standalone="no"?>
<svg xmlns="http://www.w3.org/2000/svg" width="25.000mm" height="21.152mm" viewBox="0 0 25.000 21.152">
  <path d="M 20.968,21.049 L 20.870,21.078 L 20.728,21.102 L 20.547,21.121 L 20.332,21.134 L 20.090,21.143 L 19.829,21.147 L 19.555,21.148 L 19.275,21.145 L 18.994,21.141 L 18.716,21.135 L 18.444,21.128 L 18.179,21.121 L 17.923,21.116 L 17.674,21.112 L 17.431,21.109 L 17.192,21.108 L 16.954,21.109 L 16.717,21.112 L 16.477,21.115 L 16.235,21.118 L 15.988,21.122 L 15.736,21.125 L 15.481,21.128 L 15.221,21.129 L 14.959,21.130 L 14.696,21.130 L 14.432,21.129 L 14.169,21.127 L 13.909,21.126 L 13.651,21.123 L 13.397,21.121 L 13.146,21.119 L 12.899,21.118 L 12.654,21.116 L 12.412,21.115 L 12.171,21.115 L 11.929,21.115 L 11.686,21.116 L 11.441,21.118 L 11.192,21.120 L 10.940,21.122 L 10.683,21.125 L 10.423,21.127 L 10.159,21.129 L 9.894,21.131 L 9.629,21.132 L 9.364,21.131 L 9.103,21.129 L 8.846,21.127 L 8.594,21.123 L 8.347,21.118 L 8.106,21.114 L 7.869,21.110 L 7.634,21.107 L 7.400,21.106 L 7.163,21.107 L 6.922,21.110 L 6.673,21.115 L 6.415,21.122 L 6.148,21.130 L 5.872,21.138 L 5.589,21.145 L 5.303,21.150 L 5.019,21.152 L 4.744,21.150 L 4.484,21.143 L 4.246,21.131 L 4.039,21.112 L 3.869,21.087 L 3.740,21.055 L 3.657,21.017 L 3.621,20.971 L 3.631,20.917 L 3.685,20.854 L 3.777,20.780 L 3.901,20.695 L 4.048,20.596 L 4.211,20.482 L 4.379,20.352 L 4.545,20.204 L 4.701,20.040 L 4.839,19.859 L 4.955,19.665 L 5.044,19.460 L 5.103,19.250 L 5.132,19.040 L 5.130,18.835 L 5.099,18.643 L 5.038,18.470 L 4.951,18.319 L 4.840,18.196 L 4.705,18.102 L 4.550,18.038 L 4.376,18.002 L 4.186,17.991 L 3.983,17.999 L 3.768,18.020 L 3.545,18.048 L 3.317,18.074 L 3.088,18.092 L 2.860,18.096 L 2.638,18.083 L 2.424,18.048 L 2.221,17.991 L 2.030,17.914 L 1.854,17.817 L 1.691,17.705 L 1.543,17.581 L 1.407,17.449 L 1.282,17.314 L 1.165,17.177 L 1.055,17.041 L 0.950,16.907 L 0.847,16.774 L 0.747,16.640 L 0.648,16.502 L 0.551,16.359 L 0.457,16.207 L 0.368,16.043 L 0.284,15.867 L 0.209,15.676 L 0.144,15.471 L 0.091,15.253 L 0.049,15.025 L 0.021,14.788 L 0.004,14.548 L 0.000,14.306 L 0.006,14.066 L 0.022,13.831 L 0.045,13.602 L 0.075,13.380 L 0.109,13.166 L 0.148,12.958 L 0.190,12.756 L 0.234,12.559 L 0.281,12.363 L 0.331,12.168 L 0.383,11.973 L 0.438,11.776 L 0.495,11.577 L 0.554,11.375 L 0.614,11.173 L 0.674,10.969 L 0.735,10.765 L 0.794,10.562 L 0.851,10.360 L 0.906,10.160 L 0.958,9.962 L 1.009,9.767 L 1.058,9.573 L 1.108,9.381 L 1.158,9.191 L 1.211,9.002 L 1.268,8.814 L 1.330,8.628 L 1.399,8.445 L 1.474,8.264 L 1.557,8.087 L 1.647,7.915 L 1.743,7.748 L 1.844,7.588 L 1.950,7.434 L 2.059,7.286 L 2.170,7.144 L 2.283,7.006 L 2.395,6.871 L 2.507,6.739 L 2.619,6.606 L 2.730,6.472 L 2.839,6.336 L 2.948,6.196 L 3.056,6.052 L 3.162,5.904 L 3.268,5.752 L 3.371,5.597 L 3.473,5.439 L 3.573,5.280 L 3.671,5.120 L 3.766,4.961 L 3.861,4.803 L 3.954,4.647 L 4.047,4.494 L 4.142,4.343 L 4.239,4.195 L 4.339,4.051 L 4.445,3.909 L 4.557,3.770 L 4.675,3.635 L 4.800,3.504 L 4.931,3.376 L 5.068,3.252 L 5.209,3.132 L 5.354,3.016 L 5.500,2.904 L 5.647,2.794 L 5.792,2.687 L 5.935,2.581 L 6.075,2.476 L 6.212,2.369 L 6.346,2.261 L 6.478,2.151 L 6.609,2.037 L 6.738,1.920 L 6.869,1.799 L 7.000,1.676 L 7.132,1.551 L 7.267,1.426 L 7.404,1.301 L 7.543,1.178 L 7.683,1.058 L 7.826,0.943 L 7.970,0.833 L 8.117,0.729 L 8.267,0.631 L 8.421,0.540 L 8.580,0.455 L 8.746,0.377 L 8.920,0.305 L 9.104,0.240 L 9.299,0.182 L 9.505,0.130 L 9.721,0.086 L 9.948,0.051 L 10.184,0.024 L 10.426,0.007 L 10.672,0.000 L 10.919,0.003 L 11.163,0.017 L 11.404,0.041 L 11.637,0.074 L 11.862,0.115 L 12.078,0.163 L 12.284,0.216 L 12.483,0.273 L 12.675,0.333 L 12.862,0.393 L 13.047,0.453 L 13.233,0.512 L 13.421,0.568 L 13.613,0.621 L 13.811,0.671 L 14.016,0.717 L 14.227,0.760 L 14.444,0.800 L 14.666,0.836 L 14.892,0.868 L 15.121,0.898 L 15.351,0.926 L 15.580,0.952 L 15.808,0.976 L 16.034,1.000 L 16.257,1.024 L 16.477,1.050 L 16.694,1.079 L 16.907,1.111 L 17.118,1.148 L 17.324,1.191 L 17.528,1.241 L 17.727,1.297 L 17.922,1.360 L 18.112,1.429 L 18.297,1.505 L 18.477,1.585 L 18.651,1.670 L 18.819,1.758 L 18.981,1.849 L 19.139,1.942 L 19.292,2.036 L 19.441,2.132 L 19.588,2.230 L 19.732,2.329 L 19.875,2.431 L 20.016,2.536 L 20.156,2.645 L 20.296,2.758 L 20.433,2.876 L 20.569,2.999 L 20.701,3.126 L 20.830,3.258 L 20.955,3.394 L 21.074,3.533 L 21.188,3.676 L 21.296,3.823 L 21.398,3.972 L 21.493,4.126 L 21.582,4.283 L 21.664,4.446 L 21.741,4.615 L 21.812,4.789 L 21.879,4.971 L 21.940,5.160 L 21.998,5.355 L 22.052,5.557 L 22.103,5.762 L 22.153,5.970 L 22.203,6.179 L 22.253,6.386 L 22.304,6.589 L 22.360,6.788 L 22.419,6.979 L 22.483,7.163 L 22.553,7.340 L 22.629,7.511 L 22.709,7.676 L 22.795,7.839 L 22.883,7.999 L 22.973,8.161 L 23.063,8.326 L 23.151,8.495 L 23.235,8.670 L 23.315,8.851 L 23.389,9.037 L 23.457,9.228 L 23.519,9.422 L 23.577,9.619 L 23.631,9.815 L 23.684,10.011 L 23.736,10.204 L 23.790,10.393 L 23.848,10.579 L 23.909,10.761 L 23.975,10.941 L 24.045,11.119 L 24.120,11.296 L 24.197,11.474 L 24.276,11.653 L 24.354,11.835 L 24.431,12.020 L 24.504,12.209 L 24.573,12.400 L 24.637,12.595 L 24.696,12.792 L 24.749,12.992 L 24.797,13.194 L 24.840,13.398 L 24.878,13.605 L 24.912,13.816 L 24.942,14.030 L 24.966,14.249 L 24.984,14.473 L 24.996,14.700 L 25.000,14.932 L 24.995,15.166 L 24.979,15.401 L 24.952,15.634 L 24.913,15.863 L 24.863,16.085 L 24.802,16.298 L 24.730,16.498 L 24.650,16.686 L 24.562,16.859 L 24.468,17.018 L 24.370,17.164 L 24.268,17.300 L 24.162,17.427 L 24.053,17.549 L 23.939,17.667 L 23.820,17.785 L 23.694,17.903 L 23.559,18.021 L 23.414,18.139 L 23.258,18.254 L 23.090,18.364 L 22.909,18.463 L 22.716,18.549 L 22.513,18.616 L 22.301,18.663 L 22.083,18.686 L 21.861,18.686 L 21.637,18.664 L 21.414,18.622 L 21.194,18.565 L 20.980,18.501 L 20.773,18.435 L 20.574,18.376 L 20.386,18.332 L 20.209,18.309 L 20.045,18.312 L 19.897,18.347 L 19.766,18.414 L 19.656,18.514 L 19.570,18.644 L 19.510,18.801 L 19.480,18.980 L 19.481,19.173 L 19.515,19.375 L 19.582,19.579 L 19.681,19.778 L 19.807,19.968 L 19.957,20.145 L 20.124,20.306 L 20.299,20.449 L 20.474,20.574 L 20.639,20.682 L 20.784,20.773 L 20.902,20.850 L 20.984,20.914 L 21.024,20.968 L 21.020,21.012 Z" fill="black" stroke="none" />
  <circle cx="9.723" cy="12.531" r="1.317" fill="black" stroke="none" />
  <circle cx="14.911" cy="12.486" r="1.349" fill="black" stroke="none" />
</svg>
