<?xml version="1.0" encoding="UTF-8"?>
<svg xmlns="http://www.w3.org/2000/svg" width="2500.0" height="1699.7167138810198" viewBox="0 0 2500.0 1699.7167138810198">
<path fill="#5fa520" stroke="none" d="M 2379.17,1193.43 L 2375.30,1193.01 L 2368.74,1189.82 L 2359.62,1184.09 L 2348.17,1176.09 L 2334.71,1166.17 L 2319.62,1154.71 L 2303.31,1142.09 L 2286.24,1128.72 L 2268.83,1114.95 L 2251.50,1101.13 L 2234.59,1087.53 L 2218.37,1074.38 L 2203.01,1061.87 L 2188.60,1050.09 L 2175.11,1039.10 L 2162.41,1028.92 L 2150.29,1019.50 L 2138.47,1010.80 L 2126.64,1002.74 L 2114.43,995.24 L 2101.53,988.24 L 2087.63,981.68 L 2072.50,975.53 L 2055.98,969.79 L 2038.02,964.48 L 2018.70,959.63 L 1998.18,955.30 L 1976.76,951.54 L 1954.83,948.39 L 1932.85,945.90 L 1911.36,944.06 L 1890.91,942.85 L 1872.05,942.17 L 1855.30,941.92 L 1841.12,941.93 L 1829.86,941.97 L 1821.77,941.83 L 1816.97,941.22 L 1815.42,939.88 L 1816.95,937.57 L 1821.25,934.05 L 1827.88,929.16 L 1836.29,922.79 L 1845.88,914.90 L 1855.96,905.56 L 1865.85,894.91 L 1874.88,883.19 L 1882.41,870.73 L 1887.88,857.91 L 1890.85,845.18 L 1890.98,832.99 L 1888.04,821.81 L 1881.97,812.08 L 1872.81,804.18 L 1860.75,798.38 L 1846.07,794.88 L 1829.14,793.75 L 1810.42,794.91 L 1790.39,798.16 L 1769.55,803.17 L 1748.40,809.47 L 1727.41,816.54 L 1707.00,823.75 L 1687.51,830.47 L 1669.22,836.06 L 1652.32,839.93 L 1636.92,841.55 L 1623.04,840.51 L 1610.63,836.54 L 1599.58,829.53 L 1589.74,819.52 L 1580.91,806.72 L 1572.88,791.51 L 1565.44,774.39 L 1558.39,755.97 L 1551.55,736.95 L 1544.78,718.05 L 1537.95,699.99 L 1531.00,683.43 L 1523.89,668.95 L 1516.63,657.01 L 1509.26,647.92 L 1501.83,641.81 L 1494.41,638.65 L 1487.08,638.23 L 1479.90,640.19 L 1472.93,644.03 L 1466.22,649.16 L 1459.75,654.91 L 1453.52,660.60 L 1447.47,665.57 L 1441.51,669.21 L 1435.52,671.02 L 1429.38,670.62 L 1422.92,667.78 L 1415.99,662.43 L 1408.41,654.64 L 1400.03,644.65 L 1390.70,632.81 L 1380.32,619.59 L 1368.78,605.50 L 1356.04,591.10 L 1342.08,576.93 L 1326.93,563.46 L 1310.67,551.11 L 1293.41,540.18 L 1275.28,530.82 L 1256.49,523.06 L 1237.23,516.81 L 1217.74,511.82 L 1198.27,507.75 L 1179.07,504.20 L 1160.41,500.69 L 1142.53,496.77 L 1125.67,491.98 L 1110.06,485.95 L 1095.90,478.39 L 1083.37,469.14 L 1072.62,458.16 L 1063.77,445.55 L 1056.92,431.52 L 1052.13,416.44 L 1049.42,400.74 L 1048.80,384.92 L 1050.22,369.53 L 1053.64,355.09 L 1058.95,342.08 L 1066.03,330.90 L 1074.73,321.87 L 1084.87,315.14 L 1096.25,310.75 L 1108.62,308.58 L 1121.74,308.37 L 1135.32,309.76 L 1149.07,312.28 L 1162.68,315.38 L 1175.83,318.49 L 1188.20,321.06 L 1199.48,322.58 L 1209.37,322.60 L 1217.60,320.79 L 1223.94,316.95 L 1228.16,311.02 L 1230.13,303.08 L 1229.74,293.37 L 1226.96,282.21 L 1221.79,270.08 L 1214.32,257.48 L 1204.70,244.98 L 1193.12,233.16 L 1179.81,222.54 L 1165.07,213.63 L 1149.20,206.80 L 1132.51,202.36 L 1115.32,200.47 L 1097.95,201.18 L 1080.66,204.43 L 1063.69,210.03 L 1047.25,217.71 L 1031.45,227.13 L 1016.39,237.89 L 1002.08,249.59 L 988.50,261.82 L 975.58,274.19 L 963.20,286.37 L 951.24,298.07 L 939.56,309.08 L 928.02,319.23 L 916.52,328.43 L 904.99,336.63 L 893.38,343.80 L 881.74,349.95 L 870.15,355.10 L 858.74,359.24 L 847.71,362.35 L 837.31,364.38 L 827.81,365.24 L 819.50,364.82 L 812.67,362.99 L 807.60,359.59 L 804.51,354.49 L 803.58,347.55 L 804.93,338.71 L 808.59,327.93 L 814.50,315.26 L 822.52,300.82 L 832.43,284.84 L 843.92,267.63 L 856.64,249.55 L 870.19,231.07 L 884.16,212.67 L 898.14,194.87 L 911.75,178.18 L 924.66,163.08 L 936.60,149.98 L 947.39,139.21 L 956.96,130.98 L 965.31,125.38 L 972.56,122.39 L 978.92,121.82 L 984.66,123.40 L 990.12,126.73 L 995.67,131.33 L 1001.68,136.68 L 1008.53,142.23 L 1016.53,147.46 L 1025.95,151.87 L 1036.97,155.08 L 1049.69,156.77 L 1064.11,156.77 L 1080.13,155.04 L 1097.56,151.68 L 1116.15,146.90 L 1135.56,141.04 L 1155.46,134.54 L 1175.47,127.87 L 1195.24,121.57 L 1214.48,116.16 L 1232.93,112.12 L 1250.43,109.85 L 1266.90,109.70 L 1282.34,111.85 L 1296.88,116.38 L 1310.68,123.24 L 1324.00,132.24 L 1337.14,143.07 L 1350.39,155.32 L 1364.05,168.51 L 1378.39,182.11 L 1393.57,195.56 L 1409.71,208.32 L 1426.79,219.90 L 1444.68,229.85 L 1463.12,237.82 L 1481.75,243.56 L 1500.09,246.93 L 1517.60,247.88 L 1533.67,246.47 L 1547.67,242.84 L 1559.01,237.24 L 1567.14,229.93 L 1571.59,221.23 L 1572.04,211.46 L 1568.31,200.97 L 1560.38,190.05 L 1548.43,178.98 L 1532.82,167.98 L 1514.06,157.25 L 1492.84,146.92 L 1469.96,137.10 L 1446.33,127.85 L 1422.87,119.20 L 1400.56,111.17 L 1380.31,103.80 L 1362.96,97.08 L 1349.22,91.07 L 1339.67,85.80 L 1334.69,81.35 L 1334.50,77.79 L 1339.10,75.22 L 1348.29,73.74 L 1361.71,73.45 L 1378.83,74.42 L 1399.01,76.71 L 1421.49,80.36 L 1445.49,85.35 L 1470.18,91.63 L 1494.80,99.12 L 1518.61,107.67 L 1541.00,117.11 L 1561.46,127.25 L 1579.62,137.88 L 1595.26,148.76 L 1608.31,159.69 L 1618.86,170.47 L 1627.09,180.93 L 1633.33,190.94 L 1637.97,200.43 L 1641.49,209.35 L 1644.35,217.70 L 1647.06,225.55 L 1650.07,232.97 L 1653.78,240.07 L 1658.54,246.98 L 1664.60,253.84 L 1672.09,260.76 L 1681.07,267.85 L 1691.48,275.19 L 1703.18,282.85 L 1715.94,290.83 L 1729.46,299.14 L 1743.41,307.74 L 1757.40,316.58 L 1771.05,325.60 L 1784.01,334.72 L 1795.92,343.89 L 1806.49,353.05 L 1815.50,362.20 L 1822.79,371.33 L 1828.27,380.47 L 1831.94,389.67 L 1833.89,399.00 L 1834.29,408.56 L 1833.35,418.41 L 1831.38,428.63 L 1828.71,439.25 L 1825.73,450.29 L 1822.82,461.69 L 1820.39,473.37 L 1818.82,485.17 L 1818.48,496.89 L 1819.69,508.26 L 1822.71,519.00 L 1827.75,528.80 L 1834.94,537.35 L 1844.34,544.36 L 1855.93,549.60 L 1869.62,552.88 L 1885.24,554.14 L 1902.57,553.38 L 1921.32,550.75 L 1941.17,546.50 L 1961.77,541.00 L 1982.75,534.74 L 2003.74,528.27 L 2024.40,522.22 L 2044.41,517.25 L 2063.48,514.01 L 2081.39,513.13 L 2097.96,515.13 L 2113.08,520.45 L 2126.68,529.37 L 2138.77,542.01 L 2149.39,558.32 L 2158.63,578.06 L 2166.59,600.79 L 2173.41,625.93 L 2179.22,652.74 L 2184.15,680.37 L 2188.28,707.90 L 2191.71,734.37 L 2194.46,758.85 L 2196.53,780.48 L 2197.90,798.49 L 2198.49,812.26 L 2198.21,821.35 L 2196.94,825.52 L 2194.58,824.76 L 2191.02,819.24 L 2186.19,809.36 L 2180.04,795.71 L 2172.59,779.01 L 2163.90,760.13 L 2154.09,740.00 L 2143.36,719.58 L 2131.96,699.84 L 2120.20,681.65 L 2108.42,665.83 L 2096.99,653.04 L 2086.30,643.78 L 2076.72,638.39 L 2068.60,637.03 L 2062.24,639.66 L 2057.88,646.09 L 2055.69,655.99 L 2055.75,668.89 L 2058.06,684.25 L 2062.54,701.47 L 2069.03,719.95 L 2077.29,739.08 L 2087.05,758.34 L 2098.00,777.26 L 2109.80,795.48 L 2122.13,812.75 L 2134.69,828.96 L 2147.23,844.08 L 2159.55,858.23 L 2171.49,871.58 L 2183.01,884.40 L 2194.08,897.00 L 2204.77,909.69 L 2215.17,922.81 L 2225.44,936.63 L 2235.72,951.37 L 2246.17,967.18 L 2256.91,984.12 L 2268.04,1002.15 L 2279.59,1021.13 L 2291.53,1040.82 L 2303.74,1060.91 L 2316.05,1081.01 L 2328.21,1100.68 L 2339.91,1119.48 L 2350.80,1136.95 L 2360.50,1152.64 L 2368.63,1166.17 L 2374.85,1177.21 L 2378.82,1185.52 L 2380.32,1190.95 Z"/>
<path fill="#5fa520" stroke="none" d="M 699.85,300.20 L 697.49,298.53 L 694.40,294.83 L 690.80,289.97 L 687.14,285.54 L 683.31,282.83 L 678.75,281.62 L 673.23,280.42 L 667.27,278.10 L 661.67,275.24 L 656.83,273.57 L 652.59,274.14 L 648.59,276.09 L 644.63,277.39 L 640.58,276.75 L 636.21,274.51 L 631.49,271.75 L 626.88,268.95 L 623.04,265.61 L 620.25,261.24 L 618.11,256.20 L 616.19,251.41 L 614.87,247.44 L 615.32,244.06 L 618.33,240.81 L 623.19,237.50 L 627.99,234.10 L 631.08,230.29 L 632.41,225.49 L 633.25,219.66 L 634.89,213.64 L 637.60,208.59 L 640.86,204.88 L 644.21,201.82 L 647.69,198.49 L 651.50,194.77 L 655.58,191.26 L 659.75,188.48 L 664.01,186.21 L 668.73,184.02 L 674.19,181.97 L 680.30,180.60 L 686.60,180.02 L 692.64,179.49 L 698.12,177.93 L 702.88,175.11 L 707.02,171.87 L 711.09,169.28 L 715.98,167.64 L 722.30,166.58 L 729.65,165.91 L 736.78,166.02 L 742.68,167.39 L 747.39,169.78 L 751.85,172.38 L 756.65,174.70 L 761.40,177.08 L 765.32,180.16 L 768.40,183.97 L 771.55,187.85 L 775.50,191.32 L 779.64,194.75 L 782.27,198.95 L 782.11,204.04 L 779.43,209.15 L 775.66,213.27 L 771.94,216.28 L 768.27,218.94 L 764.09,221.83 L 759.21,224.74 L 754.10,227.05 L 749.25,228.78 L 744.71,230.72 L 740.34,233.60 L 736.24,237.28 L 732.66,241.03 L 729.53,244.38 L 726.27,247.61 L 722.50,251.21 L 718.52,255.12 L 715.01,258.83 L 712.00,262.09 L 708.68,265.26 L 704.49,268.85 L 700.38,272.83 L 698.55,276.62 L 700.41,279.86 L 704.94,282.90 L 709.12,286.39 L 710.35,290.48 L 708.40,294.60 L 705.05,297.92 L 702.09,299.90 Z"/>
</svg>