<?xml version="1.0" encoding="UTF-8"?>
<svg xmlns="http://www.w3.org/2000/svg" width="2500.0" height="1699.7167138810198" viewBox="0 0 2500.0 1699.7167138810198">
<path fill="#e6c41e" stroke="none" d="M 2050.89,1687.67 L 2037.94,1684.95 L 2025.43,1680.95 L 2013.25,1675.70 L 2001.32,1669.21 L 1989.54,1661.56 L 1977.81,1652.85 L 1966.02,1643.20 L 1954.10,1632.79 L 1941.94,1621.78 L 1929.48,1610.37 L 1916.66,1598.76 L 1903.41,1587.14 L 1889.70,1575.71 L 1875.51,1564.64 L 1860.82,1554.09 L 1845.64,1544.19 L 1829.99,1535.05 L 1813.87,1526.73 L 1797.34,1519.27 L 1780.44,1512.65 L 1763.22,1506.86 L 1745.72,1501.81 L 1728.02,1497.42 L 1710.16,1493.57 L 1692.21,1490.14 L 1674.22,1486.97 L 1656.24,1483.93 L 1638.31,1480.88 L 1620.49,1477.67 L 1602.79,1474.20 L 1585.25,1470.38 L 1567.88,1466.11 L 1550.69,1461.37 L 1533.68,1456.12 L 1516.84,1450.38 L 1500.16,1444.18 L 1483.63,1437.57 L 1467.21,1430.63 L 1450.88,1423.44 L 1434.62,1416.11 L 1418.38,1408.74 L 1402.13,1401.43 L 1385.84,1394.28 L 1369.49,1387.37 L 1353.05,1380.78 L 1336.48,1374.55 L 1319.78,1368.71 L 1302.93,1363.27 L 1285.92,1358.21 L 1268.74,1353.51 L 1251.41,1349.10 L 1233.93,1344.91 L 1216.31,1340.88 L 1198.58,1336.89 L 1180.75,1332.88 L 1162.85,1328.74 L 1144.90,1324.39 L 1126.95,1319.77 L 1109.00,1314.82 L 1091.10,1309.51 L 1073.26,1303.81 L 1055.50,1297.74 L 1037.85,1291.30 L 1020.31,1284.56 L 1002.90,1277.55 L 985.60,1270.37 L 968.42,1263.09 L 951.35,1255.80 L 934.37,1248.59 L 917.46,1241.55 L 900.60,1234.74 L 883.76,1228.24 L 866.91,1222.09 L 850.04,1216.33 L 833.10,1210.95 L 816.08,1205.96 L 798.96,1201.32 L 781.72,1196.98 L 764.35,1192.88 L 746.85,1188.93 L 729.22,1185.05 L 711.47,1181.14 L 693.61,1177.12 L 675.67,1172.90 L 657.66,1168.40 L 639.63,1163.56 L 621.60,1158.34 L 603.60,1152.70 L 585.66,1146.65 L 567.82,1140.21 L 550.10,1133.41 L 532.51,1126.31 L 515.08,1119.00 L 497.80,1111.56 L 480.67,1104.09 L 463.69,1096.68 L 446.83,1089.46 L 430.06,1082.49 L 413.36,1075.88 L 396.68,1069.68 L 379.98,1063.93 L 363.22,1058.66 L 346.37,1053.86 L 329.38,1049.50 L 312.22,1045.52 L 294.89,1041.84 L 277.37,1038.35 L 259.66,1034.91 L 241.81,1031.41 L 223.83,1027.68 L 205.80,1023.58 L 187.79,1018.96 L 169.90,1013.68 L 152.22,1007.62 L 134.89,1000.67 L 118.04,992.75 L 101.80,983.80 L 86.33,973.80 L 71.76,962.76 L 58.24,950.71 L 45.91,937.70 L 34.88,923.83 L 25.26,909.20 L 17.14,893.94 L 10.58,878.18 L 5.62,862.07 L 2.29,845.75 L 0.57,829.37 L 0.42,813.06 L 1.79,796.93 L 4.59,781.09 L 8.73,765.61 L 14.09,750.56 L 20.54,735.98 L 27.94,721.88 L 36.14,708.26 L 45.02,695.10 L 54.42,682.37 L 64.23,670.02 L 74.32,658.01 L 84.60,646.27 L 94.99,634.76 L 105.42,623.44 L 115.86,612.26 L 126.27,601.21 L 136.65,590.26 L 147.02,579.42 L 157.40,568.70 L 167.83,558.13 L 178.36,547.74 L 189.04,537.57 L 199.91,527.66 L 211.02,518.05 L 222.42,508.79 L 234.12,499.90 L 246.15,491.41 L 258.52,483.30 L 271.19,475.56 L 284.15,468.17 L 297.33,461.05 L 310.70,454.15 L 324.16,447.35 L 337.63,440.57 L 351.02,433.67 L 364.25,426.55 L 377.21,419.06 L 389.82,411.10 L 401.99,402.55 L 413.68,393.31 L 424.81,383.32 L 435.37,372.53 L 445.34,360.91 L 454.73,348.48 L 463.57,335.28 L 471.92,321.40 L 479.85,306.93 L 487.44,292.02 L 494.79,276.82 L 502.03,261.52 L 509.27,246.30 L 516.62,231.37 L 524.21,216.92 L 532.15,203.12 L 540.53,190.16 L 549.43,178.18 L 558.93,167.30 L 569.07,157.61 L 579.86,149.15 L 591.32,141.94 L 603.41,135.95 L 616.10,131.11 L 629.32,127.33 L 642.99,124.48 L 657.04,122.41 L 671.34,120.94 L 685.81,119.89 L 700.35,119.07 L 714.84,118.29 L 729.19,117.40 L 743.34,116.22 L 757.22,114.64 L 770.78,112.54 L 783.99,109.86 L 796.84,106.56 L 809.36,102.65 L 821.56,98.15 L 833.51,93.13 L 845.26,87.68 L 856.89,81.92 L 868.48,75.99 L 880.12,70.03 L 891.89,64.17 L 903.89,58.58 L 916.19,53.38 L 928.84,48.68 L 941.91,44.59 L 955.44,41.17 L 969.43,38.46 L 983.89,36.48 L 998.82,35.21 L 1014.16,34.60 L 1029.89,34.58 L 1045.93,35.05 L 1062.23,35.89 L 1078.70,36.99 L 1095.28,38.20 L 1111.88,39.41 L 1128.44,40.49 L 1144.90,41.32 L 1161.21,41.81 L 1177.32,41.90 L 1193.23,41.53 L 1208.92,40.70 L 1224.40,39.40 L 1239.71,37.68 L 1254.87,35.60 L 1269.96,33.24 L 1285.02,30.71 L 1300.12,28.12 L 1315.35,25.59 L 1330.76,23.27 L 1346.42,21.26 L 1362.40,19.68 L 1378.73,18.65 L 1395.44,18.23 L 1412.56,18.49 L 1430.07,19.48 L 1447.95,21.22 L 1466.16,23.69 L 1484.63,26.87 L 1503.29,30.71 L 1522.04,35.16 L 1540.77,40.13 L 1559.38,45.55 L 1577.74,51.33 L 1595.73,57.40 L 1613.24,63.69 L 1630.16,70.14 L 1646.39,76.70 L 1661.84,83.35 L 1676.46,90.08 L 1690.19,96.92 L 1703.02,103.89 L 1714.93,111.04 L 1725.95,118.44 L 1736.11,126.16 L 1745.48,134.28 L 1754.13,142.89 L 1762.15,152.05 L 1769.65,161.83 L 1776.74,172.28 L 1783.54,183.44 L 1790.17,195.29 L 1796.73,207.84 L 1803.36,221.02 L 1810.15,234.76 L 1817.19,248.97 L 1824.57,263.52 L 1832.36,278.26 L 1840.61,293.04 L 1849.36,307.68 L 1858.63,322.02 L 1868.44,335.87 L 1878.79,349.09 L 1889.65,361.52 L 1901.01,373.05 L 1912.84,383.58 L 1925.10,393.04 L 1937.74,401.40 L 1950.72,408.68 L 1963.99,414.91 L 1977.49,420.17 L 1991.19,424.58 L 2005.03,428.27 L 2018.97,431.41 L 2032.95,434.18 L 2046.94,436.78 L 2060.88,439.41 L 2074.73,442.27 L 2088.45,445.54 L 2102.00,449.42 L 2115.32,454.05 L 2128.37,459.57 L 2141.11,466.08 L 2153.48,473.66 L 2165.43,482.36 L 2176.93,492.17 L 2187.92,503.10 L 2198.37,515.08 L 2208.23,528.05 L 2217.48,541.92 L 2226.10,556.59 L 2234.06,571.93 L 2241.37,587.83 L 2248.03,604.18 L 2254.06,620.84 L 2259.50,637.71 L 2264.38,654.71 L 2268.75,671.73 L 2272.69,688.72 L 2276.28,705.63 L 2279.58,722.41 L 2282.70,739.04 L 2285.72,755.51 L 2288.73,771.82 L 2291.83,787.97 L 2295.10,803.98 L 2298.62,819.84 L 2302.45,835.57 L 2306.67,851.16 L 2311.30,866.62 L 2316.38,881.94 L 2321.92,897.09 L 2327.93,912.05 L 2334.38,926.78 L 2341.25,941.26 L 2348.48,955.45 L 2356.03,969.31 L 2363.84,982.82 L 2371.82,995.95 L 2379.91,1008.69 L 2388.04,1021.04 L 2396.12,1033.03 L 2404.10,1044.69 L 2411.90,1056.08 L 2419.47,1067.27 L 2426.76,1078.35 L 2433.73,1089.44 L 2440.37,1100.63 L 2446.64,1112.07 L 2452.55,1123.88 L 2458.09,1136.18 L 2463.27,1149.10 L 2468.10,1162.74 L 2472.59,1177.18 L 2476.76,1192.50 L 2480.61,1208.74 L 2484.16,1225.90 L 2487.40,1243.96 L 2490.31,1262.88 L 2492.88,1282.56 L 2495.08,1302.89 L 2496.85,1323.74 L 2498.16,1344.94 L 2498.92,1366.32 L 2499.08,1387.67 L 2498.54,1408.82 L 2497.23,1429.55 L 2495.06,1449.70 L 2491.95,1469.09 L 2487.80,1487.57 L 2482.56,1505.02 L 2476.16,1521.35 L 2468.55,1536.50 L 2459.70,1550.43 L 2449.60,1563.16 L 2438.24,1574.72 L 2425.67,1585.18 L 2411.92,1594.62 L 2397.06,1603.15 L 2381.19,1610.90 L 2364.40,1617.98 L 2346.82,1624.54 L 2328.57,1630.68 L 2309.81,1636.51 L 2290.67,1642.12 L 2271.32,1647.58 L 2251.89,1652.92 L 2232.53,1658.16 L 2213.38,1663.27 L 2194.55,1668.20 L 2176.15,1672.89 L 2158.27,1677.23 L 2140.98,1681.12 L 2124.33,1684.42 L 2108.34,1687.00 L 2093.03,1688.73 L 2078.37,1689.49 L 2064.34,1689.16 Z"/>
</svg>