<?xml version="1.0" encoding="UTF-8"?>
<svg xmlns="http://www.w3.org/2000/svg" width="2500.0" height="1699.7167138810198" viewBox="0 0 2500.0 1699.7167138810198">
<rect x="0" y="0" width="1" height="1" fill="#921209"/>
<rect x="2499.0" y="1698.7167138810198" width="1" height="1" fill="#921209"/>
<path fill="#921209" stroke="none" d="M 2089.24,881.73 L 2082.15,881.73 L 2075.07,881.73 L 2067.99,881.73 L 2060.91,881.73 L 2057.37,878.19 L 2053.82,874.65 L 2046.74,874.65 L 2043.20,871.10 L 2043.20,864.02 L 2039.66,860.48 L 2036.12,856.94 L 2032.58,853.40 L 2029.04,849.86 L 2025.50,846.32 L 2021.95,842.78 L 2021.95,835.69 L 2018.41,832.15 L 2014.87,828.61 L 2014.87,821.53 L 2011.33,817.99 L 2007.79,814.45 L 2007.79,807.37 L 2004.25,803.82 L 2000.71,800.28 L 1997.17,796.74 L 1993.63,793.20 L 1993.63,786.12 L 1993.63,779.04 L 1990.08,775.50 L 1986.54,771.95 L 1986.54,764.87 L 1983.00,761.33 L 1979.46,757.79 L 1975.92,754.25 L 1972.38,750.71 L 1972.38,743.63 L 1972.38,736.54 L 1968.84,733.00 L 1965.30,729.46 L 1965.30,722.38 L 1961.76,718.84 L 1958.22,715.30 L 1954.67,711.76 L 1951.13,708.22 L 1947.59,704.67 L 1944.05,701.13 L 1944.05,694.05 L 1940.51,690.51 L 1936.97,686.97 L 1936.97,679.89 L 1936.97,672.80 L 1936.97,665.72 L 1933.43,662.18 L 1929.89,658.64 L 1929.89,651.56 L 1929.89,644.48 L 1926.35,640.93 L 1922.80,637.39 L 1922.80,630.31 L 1922.80,623.23 L 1922.80,616.15 L 1922.80,609.07 L 1926.35,605.52 L 1933.43,605.52 L 1936.97,601.98 L 1940.51,598.44 L 1944.05,601.98 L 1947.59,605.52 L 1954.67,605.52 L 1961.76,605.52 L 1965.30,609.07 L 1968.84,612.61 L 1972.38,616.15 L 1972.38,623.23 L 1968.84,626.77 L 1965.30,630.31 L 1965.30,637.39 L 1961.76,640.93 L 1958.22,644.48 L 1958.22,651.56 L 1958.22,658.64 L 1958.22,665.72 L 1958.22,672.80 L 1961.76,676.35 L 1965.30,679.89 L 1968.84,683.43 L 1975.92,683.43 L 1979.46,686.97 L 1983.00,690.51 L 1986.54,694.05 L 1990.08,697.59 L 1997.17,697.59 L 2000.71,701.13 L 2004.25,704.67 L 2011.33,704.67 L 2014.87,708.22 L 2018.41,711.76 L 2021.95,715.30 L 2025.50,718.84 L 2029.04,722.38 L 2029.04,729.46 L 2029.04,736.54 L 2029.04,743.63 L 2029.04,750.71 L 2025.50,754.25 L 2021.95,757.79 L 2021.95,764.87 L 2021.95,771.95 L 2021.95,779.04 L 2021.95,786.12 L 2025.50,789.66 L 2029.04,793.20 L 2029.04,800.28 L 2032.58,803.82 L 2039.66,803.82 L 2043.20,807.37 L 2046.74,810.91 L 2050.28,814.45 L 2053.82,817.99 L 2060.91,817.99 L 2064.45,821.53 L 2067.99,825.07 L 2071.53,828.61 L 2075.07,832.15 L 2082.15,832.15 L 2085.69,835.69 L 2085.69,842.78 L 2089.24,846.32 L 2092.78,849.86 L 2096.32,853.40 L 2099.86,856.94 L 2099.86,864.02 L 2099.86,871.10 L 2096.32,874.65 L 2092.78,878.19 L 2089.24,881.73 Z"/>
<path fill="#921209" stroke="none" d="M 1997.17,1264.16 L 1993.63,1260.62 L 1990.08,1257.08 L 1986.54,1253.54 L 1983.00,1250.00 L 1979.46,1253.54 L 1975.92,1257.08 L 1972.38,1253.54 L 1972.38,1246.46 L 1968.84,1242.92 L 1965.30,1239.38 L 1965.30,1232.29 L 1961.76,1228.75 L 1958.22,1225.21 L 1958.22,1218.13 L 1954.67,1214.59 L 1947.59,1214.59 L 1944.05,1211.05 L 1944.05,1203.97 L 1940.51,1200.42 L 1936.97,1196.88 L 1933.43,1193.34 L 1929.89,1189.80 L 1929.89,1182.72 L 1926.35,1179.18 L 1922.80,1175.64 L 1922.80,1168.56 L 1919.26,1165.01 L 1915.72,1161.47 L 1912.18,1157.93 L 1908.64,1154.39 L 1908.64,1147.31 L 1908.64,1140.23 L 1905.10,1136.69 L 1901.56,1133.14 L 1901.56,1126.06 L 1905.10,1122.52 L 1908.64,1118.98 L 1912.18,1115.44 L 1919.26,1115.44 L 1926.35,1115.44 L 1933.43,1115.44 L 1940.51,1115.44 L 1947.59,1115.44 L 1954.67,1115.44 L 1961.76,1115.44 L 1965.30,1118.98 L 1968.84,1122.52 L 1972.38,1126.06 L 1975.92,1129.60 L 1979.46,1133.14 L 1983.00,1136.69 L 1986.54,1140.23 L 1990.08,1143.77 L 1993.63,1147.31 L 1997.17,1150.85 L 2000.71,1154.39 L 2004.25,1157.93 L 2007.79,1154.39 L 2007.79,1147.31 L 2011.33,1143.77 L 2014.87,1147.31 L 2014.87,1154.39 L 2014.87,1161.47 L 2014.87,1168.56 L 2014.87,1175.64 L 2018.41,1179.18 L 2021.95,1182.72 L 2021.95,1189.80 L 2021.95,1196.88 L 2025.50,1200.42 L 2029.04,1203.97 L 2032.58,1207.51 L 2036.12,1211.05 L 2039.66,1214.59 L 2043.20,1218.13 L 2043.20,1225.21 L 2043.20,1232.29 L 2043.20,1239.38 L 2039.66,1242.92 L 2032.58,1242.92 L 2025.50,1242.92 L 2021.95,1246.46 L 2018.41,1250.00 L 2011.33,1250.00 L 2007.79,1253.54 L 2004.25,1257.08 L 2000.71,1260.62 L 1997.17,1264.16 Z"/>
<path fill="#921209" stroke="none" d="M 2344.19,1441.22 L 2337.11,1441.22 L 2333.57,1437.68 L 2330.03,1434.14 L 2326.49,1430.59 L 2326.49,1423.51 L 2326.49,1416.43 L 2322.95,1412.89 L 2319.41,1409.35 L 2319.41,1402.27 L 2319.41,1395.18 L 2319.41,1388.10 L 2315.86,1384.56 L 2312.32,1381.02 L 2312.32,1373.94 L 2312.32,1366.86 L 2312.32,1359.77 L 2315.86,1356.23 L 2319.41,1352.69 L 2319.41,1345.61 L 2319.41,1338.53 L 2319.41,1331.44 L 2322.95,1327.90 L 2326.49,1324.36 L 2326.49,1317.28 L 2330.03,1313.74 L 2333.57,1310.20 L 2333.57,1303.12 L 2333.57,1296.03 L 2333.57,1288.95 L 2330.03,1285.41 L 2326.49,1281.87 L 2322.95,1278.33 L 2315.86,1278.33 L 2312.32,1274.79 L 2308.78,1271.25 L 2301.70,1271.25 L 2298.16,1267.71 L 2294.62,1264.16 L 2291.08,1260.62 L 2287.54,1257.08 L 2283.99,1253.54 L 2283.99,1246.46 L 2283.99,1239.38 L 2280.45,1235.84 L 2276.91,1232.29 L 2276.91,1225.21 L 2273.37,1221.67 L 2269.83,1218.13 L 2266.29,1214.59 L 2262.75,1211.05 L 2262.75,1203.97 L 2262.75,1196.88 L 2262.75,1189.80 L 2262.75,1182.72 L 2259.21,1179.18 L 2255.67,1175.64 L 2255.67,1168.56 L 2255.67,1161.47 L 2255.67,1154.39 L 2259.21,1150.85 L 2262.75,1147.31 L 2266.29,1143.77 L 2269.83,1140.23 L 2273.37,1136.69 L 2280.45,1136.69 L 2287.54,1136.69 L 2291.08,1140.23 L 2291.08,1147.31 L 2291.08,1154.39 L 2287.54,1157.93 L 2283.99,1161.47 L 2283.99,1168.56 L 2283.99,1175.64 L 2283.99,1182.72 L 2283.99,1189.80 L 2283.99,1196.88 L 2283.99,1203.97 L 2283.99,1211.05 L 2287.54,1214.59 L 2294.62,1214.59 L 2298.16,1218.13 L 2301.70,1221.67 L 2305.24,1225.21 L 2308.78,1228.75 L 2312.32,1232.29 L 2315.86,1235.84 L 2322.95,1235.84 L 2330.03,1235.84 L 2337.11,1235.84 L 2344.19,1235.84 L 2351.27,1235.84 L 2354.82,1239.38 L 2358.36,1242.92 L 2365.44,1242.92 L 2372.52,1242.92 L 2379.60,1242.92 L 2383.14,1246.46 L 2386.69,1250.00 L 2390.23,1253.54 L 2393.77,1257.08 L 2397.31,1260.62 L 2397.31,1267.71 L 2397.31,1274.79 L 2397.31,1281.87 L 2397.31,1288.95 L 2397.31,1296.03 L 2397.31,1303.12 L 2397.31,1310.20 L 2393.77,1313.74 L 2390.23,1317.28 L 2390.23,1324.36 L 2390.23,1331.44 L 2390.23,1338.53 L 2386.69,1342.07 L 2383.14,1345.61 L 2383.14,1352.69 L 2383.14,1359.77 L 2379.60,1363.31 L 2376.06,1366.86 L 2376.06,1373.94 L 2376.06,1381.02 L 2376.06,1388.10 L 2376.06,1395.18 L 2376.06,1402.27 L 2376.06,1409.35 L 2372.52,1412.89 L 2368.98,1416.43 L 2368.98,1423.51 L 2365.44,1427.05 L 2361.90,1430.59 L 2358.36,1434.14 L 2351.27,1434.14 L 2347.73,1437.68 L 2344.19,1441.22 Z"/>
</svg>