<?xml version="1.0" encoding="UTF-8"?>
<svg xmlns="http://www.w3.org/2000/svg" width="2500.0" height="1699.7167138810198" viewBox="0 0 2500.0 1699.7167138810198">
<path fill="#3ea332" stroke="none" d="M 2100.84,1429.28 L 2091.10,1429.35 L 2081.72,1428.55 L 2072.75,1426.82 L 2064.20,1424.09 L 2056.10,1420.34 L 2048.46,1415.55 L 2041.29,1409.73 L 2034.59,1402.91 L 2028.35,1395.13 L 2022.57,1386.48 L 2017.23,1377.03 L 2012.30,1366.89 L 2007.74,1356.17 L 2003.53,1344.98 L 1999.62,1333.45 L 1995.96,1321.70 L 1992.49,1309.85 L 1989.18,1298.01 L 1985.95,1286.27 L 1982.77,1274.73 L 1979.58,1263.44 L 1976.33,1252.47 L 1972.97,1241.84 L 1969.47,1231.58 L 1965.80,1221.68 L 1961.92,1212.13 L 1957.83,1202.90 L 1953.51,1193.94 L 1948.96,1185.21 L 1944.19,1176.66 L 1939.21,1168.22 L 1934.04,1159.85 L 1928.70,1151.47 L 1923.23,1143.05 L 1917.65,1134.54 L 1912.01,1125.91 L 1906.33,1117.13 L 1900.66,1108.19 L 1895.02,1099.09 L 1889.45,1089.83 L 1883.96,1080.43 L 1878.58,1070.91 L 1873.32,1061.31 L 1868.19,1051.65 L 1863.17,1041.98 L 1858.27,1032.32 L 1853.47,1022.72 L 1848.74,1013.21 L 1844.06,1003.81 L 1839.40,994.55 L 1834.72,985.45 L 1829.99,976.52 L 1825.16,967.77 L 1820.20,959.18 L 1815.08,950.77 L 1809.76,942.52 L 1804.21,934.41 L 1798.41,926.43 L 1792.35,918.57 L 1786.01,910.80 L 1779.40,903.12 L 1772.52,895.51 L 1765.38,887.95 L 1758.00,880.45 L 1750.41,873.00 L 1742.65,865.58 L 1734.74,858.21 L 1726.74,850.88 L 1718.67,843.60 L 1710.60,836.35 L 1702.57,829.15 L 1694.61,822.00 L 1686.77,814.87 L 1679.09,807.77 L 1671.60,800.68 L 1664.33,793.59 L 1657.29,786.47 L 1650.51,779.30 L 1643.98,772.05 L 1637.72,764.70 L 1631.70,757.22 L 1625.91,749.58 L 1620.34,741.76 L 1614.94,733.76 L 1609.69,725.54 L 1604.55,717.12 L 1599.47,708.51 L 1594.41,699.71 L 1589.33,690.76 L 1584.17,681.70 L 1578.88,672.56 L 1573.43,663.42 L 1567.77,654.34 L 1561.86,645.38 L 1555.67,636.62 L 1549.17,628.13 L 1542.33,619.98 L 1535.13,612.25 L 1527.57,604.99 L 1519.65,598.24 L 1511.35,592.06 L 1502.71,586.46 L 1493.72,581.44 L 1484.42,577.00 L 1474.84,573.10 L 1465.01,569.71 L 1454.97,566.77 L 1444.78,564.18 L 1434.46,561.87 L 1424.09,559.75 L 1413.71,557.69 L 1403.38,555.59 L 1393.16,553.35 L 1383.09,550.85 L 1373.22,548.00 L 1363.61,544.70 L 1354.30,540.87 L 1345.32,536.46 L 1336.70,531.42 L 1328.48,525.72 L 1320.66,519.35 L 1313.25,512.32 L 1306.24,504.67 L 1299.64,496.45 L 1293.40,487.71 L 1287.51,478.53 L 1281.92,469.00 L 1276.59,459.22 L 1271.45,449.29 L 1266.45,439.31 L 1261.51,429.39 L 1256.57,419.61 L 1251.54,410.08 L 1246.36,400.87 L 1240.94,392.05 L 1235.22,383.70 L 1229.13,375.84 L 1222.61,368.51 L 1215.60,361.73 L 1208.06,355.51 L 1199.96,349.83 L 1191.28,344.68 L 1182.01,340.02 L 1172.16,335.82 L 1161.75,332.03 L 1150.81,328.59 L 1139.40,325.45 L 1127.58,322.54 L 1115.42,319.82 L 1103.00,317.21 L 1090.43,314.65 L 1077.79,312.09 L 1065.21,309.47 L 1052.79,306.74 L 1040.64,303.85 L 1028.88,300.75 L 1017.61,297.41 L 1006.94,293.79 L 996.96,289.87 L 987.76,285.62 L 979.41,281.03 L 971.99,276.09 L 965.55,270.80 L 960.12,265.17 L 955.73,259.22 L 952.40,252.97 L 950.12,246.47 L 948.90,239.75 L 948.70,232.88 L 949.49,225.92 L 951.24,218.95 L 953.90,212.04 L 957.42,205.29 L 961.73,198.78 L 966.79,192.60 L 972.54,186.85 L 978.91,181.62 L 985.85,176.98 L 993.31,173.01 L 1001.25,169.77 L 1009.60,167.30 L 1018.35,165.64 L 1027.44,164.78 L 1036.85,164.73 L 1046.55,165.44 L 1056.52,166.86 L 1066.74,168.91 L 1077.18,171.51 L 1087.82,174.52 L 1098.65,177.84 L 1109.66,181.31 L 1120.81,184.80 L 1132.08,188.15 L 1143.46,191.21 L 1154.91,193.86 L 1166.40,195.95 L 1177.90,197.37 L 1189.38,198.04 L 1200.79,197.89 L 1212.11,196.87 L 1223.30,194.97 L 1234.32,192.21 L 1245.13,188.63 L 1255.71,184.30 L 1266.04,179.34 L 1276.10,173.86 L 1285.86,167.99 L 1295.34,161.91 L 1304.53,155.77 L 1313.44,149.74 L 1322.09,144.00 L 1330.50,138.69 L 1338.72,133.97 L 1346.78,129.96 L 1354.72,126.78 L 1362.60,124.50 L 1370.46,123.18 L 1378.35,122.83 L 1386.33,123.47 L 1394.44,125.05 L 1402.71,127.52 L 1411.20,130.80 L 1419.92,134.78 L 1428.90,139.35 L 1438.13,144.39 L 1447.63,149.77 L 1457.38,155.35 L 1467.36,161.02 L 1477.54,166.67 L 1487.86,172.20 L 1498.30,177.53 L 1508.79,182.62 L 1519.27,187.41 L 1529.67,191.91 L 1539.95,196.14 L 1550.04,200.12 L 1559.87,203.91 L 1569.41,207.58 L 1578.60,211.21 L 1587.42,214.90 L 1595.83,218.72 L 1603.84,222.79 L 1611.43,227.17 L 1618.63,231.94 L 1625.45,237.16 L 1631.94,242.88 L 1638.13,249.10 L 1644.08,255.84 L 1649.86,263.07 L 1655.52,270.76 L 1661.13,278.84 L 1666.77,287.25 L 1672.49,295.90 L 1678.36,304.69 L 1684.43,313.52 L 1690.75,322.30 L 1697.35,330.94 L 1704.25,339.35 L 1711.46,347.46 L 1718.99,355.22 L 1726.82,362.58 L 1734.93,369.54 L 1743.28,376.10 L 1751.82,382.28 L 1760.51,388.13 L 1769.28,393.70 L 1778.08,399.08 L 1786.84,404.34 L 1795.51,409.59 L 1804.03,414.90 L 1812.35,420.37 L 1820.44,426.08 L 1828.25,432.11 L 1835.78,438.50 L 1843.02,445.29 L 1849.97,452.50 L 1856.66,460.13 L 1863.11,468.15 L 1869.37,476.50 L 1875.49,485.12 L 1881.54,493.93 L 1887.57,502.83 L 1893.65,511.70 L 1899.86,520.44 L 1906.26,528.93 L 1912.91,537.07 L 1919.87,544.74 L 1927.18,551.88 L 1934.88,558.41 L 1942.97,564.28 L 1951.48,569.47 L 1960.39,573.98 L 1969.68,577.84 L 1979.30,581.10 L 1989.20,583.83 L 1999.32,586.14 L 2009.58,588.13 L 2019.90,589.93 L 2030.18,591.68 L 2040.32,593.51 L 2050.24,595.59 L 2059.84,598.03 L 2069.03,600.97 L 2077.74,604.53 L 2085.88,608.79 L 2093.41,613.86 L 2100.27,619.77 L 2106.45,626.56 L 2111.91,634.26 L 2116.68,642.84 L 2120.75,652.28 L 2124.17,662.52 L 2126.98,673.51 L 2129.24,685.16 L 2131.01,697.38 L 2132.37,710.07 L 2133.41,723.14 L 2134.20,736.49 L 2134.83,750.02 L 2135.39,763.64 L 2135.96,777.27 L 2136.61,790.85 L 2137.41,804.31 L 2138.42,817.60 L 2139.68,830.69 L 2141.25,843.54 L 2143.15,856.14 L 2145.39,868.47 L 2147.99,880.54 L 2150.94,892.34 L 2154.25,903.88 L 2157.89,915.16 L 2161.84,926.17 L 2166.09,936.93 L 2170.60,947.44 L 2175.36,957.68 L 2180.33,967.66 L 2185.49,977.37 L 2190.82,986.81 L 2196.30,995.96 L 2201.91,1004.82 L 2207.64,1013.39 L 2213.48,1021.67 L 2219.42,1029.67 L 2225.45,1037.41 L 2231.59,1044.91 L 2237.82,1052.19 L 2244.14,1059.32 L 2250.54,1066.32 L 2257.02,1073.26 L 2263.57,1080.20 L 2270.18,1087.21 L 2276.82,1094.36 L 2283.46,1101.70 L 2290.08,1109.31 L 2296.64,1117.25 L 2303.10,1125.56 L 2309.40,1134.28 L 2315.50,1143.44 L 2321.33,1153.05 L 2326.84,1163.10 L 2331.97,1173.57 L 2336.65,1184.43 L 2340.83,1195.62 L 2344.44,1207.07 L 2347.44,1218.71 L 2349.77,1230.44 L 2351.40,1242.18 L 2352.27,1253.83 L 2352.38,1265.28 L 2351.68,1276.45 L 2350.18,1287.25 L 2347.87,1297.61 L 2344.74,1307.45 L 2340.82,1316.74 L 2336.11,1325.44 L 2330.66,1333.53 L 2324.48,1341.03 L 2317.61,1347.94 L 2310.11,1354.31 L 2302.00,1360.19 L 2293.35,1365.61 L 2284.19,1370.66 L 2274.59,1375.39 L 2264.58,1379.88 L 2254.24,1384.18 L 2243.60,1388.35 L 2232.71,1392.44 L 2221.64,1396.46 L 2210.43,1400.44 L 2199.12,1404.38 L 2187.77,1408.24 L 2176.42,1412.01 L 2165.12,1415.61 L 2153.92,1418.98 L 2142.86,1422.04 L 2131.98,1424.70 L 2121.32,1426.86 L 2110.93,1428.42 Z"/>
</svg>