<?xml version="1.0" encoding="UTF-8"?>
<svg xmlns="http://www.w3.org/2000/svg" width="2500.0" height="1699.7167138810198" viewBox="0 0 2500.0 1699.7167138810198">
<path fill="#e6c41e" stroke="none" d="M 1891.80,1380.33 L 1888.54,1378.11 L 1883.84,1374.47 L 1877.71,1369.75 L 1870.18,1364.29 L 1861.31,1358.46 L 1851.20,1352.62 L 1839.99,1347.12 L 1827.83,1342.25 L 1814.88,1338.22 L 1801.32,1335.20 L 1787.33,1333.26 L 1773.08,1332.37 L 1758.74,1332.44 L 1744.45,1333.32 L 1730.31,1334.77 L 1716.42,1336.54 L 1702.82,1338.36 L 1689.53,1339.94 L 1676.56,1341.04 L 1663.85,1341.43 L 1651.37,1340.94 L 1639.03,1339.48 L 1626.77,1337.01 L 1614.51,1333.55 L 1602.17,1329.21 L 1589.69,1324.12 L 1577.04,1318.49 L 1564.17,1312.52 L 1551.07,1306.44 L 1537.76,1300.48 L 1524.25,1294.83 L 1510.58,1289.66 L 1496.78,1285.09 L 1482.91,1281.18 L 1469.00,1277.94 L 1455.09,1275.33 L 1441.21,1273.26 L 1427.38,1271.61 L 1413.59,1270.22 L 1399.85,1268.93 L 1386.12,1267.55 L 1372.40,1265.95 L 1358.63,1263.99 L 1344.80,1261.58 L 1330.87,1258.67 L 1316.83,1255.26 L 1302.68,1251.37 L 1288.41,1247.10 L 1274.05,1242.53 L 1259.64,1237.81 L 1245.24,1233.08 L 1230.90,1228.45 L 1216.69,1224.06 L 1202.68,1219.99 L 1188.94,1216.29 L 1175.51,1212.97 L 1162.43,1210.00 L 1149.74,1207.30 L 1137.41,1204.75 L 1125.44,1202.20 L 1113.78,1199.47 L 1102.37,1196.39 L 1091.15,1192.79 L 1080.03,1188.51 L 1068.94,1183.43 L 1057.80,1177.49 L 1046.58,1170.66 L 1035.23,1162.98 L 1023.74,1154.56 L 1012.15,1145.55 L 1000.51,1136.16 L 988.90,1126.64 L 977.44,1117.26 L 966.25,1108.32 L 955.48,1100.08 L 945.27,1092.82 L 935.76,1086.76 L 927.06,1082.07 L 919.26,1078.85 L 912.42,1077.17 L 906.54,1076.98 L 901.58,1078.19 L 897.46,1080.64 L 894.04,1084.10 L 891.13,1088.32 L 888.52,1093.00 L 885.98,1097.84 L 883.25,1102.52 L 880.09,1106.77 L 876.24,1110.33 L 871.50,1112.99 L 865.70,1114.61 L 858.71,1115.08 L 850.46,1114.38 L 840.92,1112.52 L 830.14,1109.61 L 818.22,1105.75 L 805.29,1101.12 L 791.54,1095.89 L 777.18,1090.28 L 762.43,1084.45 L 747.53,1078.60 L 732.68,1072.86 L 718.09,1067.36 L 703.92,1062.15 L 690.29,1057.28 L 677.29,1052.73 L 664.95,1048.45 L 653.25,1044.34 L 642.15,1040.31 L 631.57,1036.21 L 621.40,1031.93 L 611.50,1027.34 L 601.75,1022.33 L 592.02,1016.81 L 582.19,1010.74 L 572.17,1004.09 L 561.90,996.91 L 551.33,989.25 L 540.46,981.21 L 529.33,972.93 L 517.97,964.57 L 506.47,956.31 L 494.91,948.33 L 483.40,940.82 L 472.03,933.94 L 460.90,927.84 L 450.07,922.64 L 439.62,918.43 L 429.57,915.25 L 419.93,913.10 L 410.69,911.95 L 401.80,911.72 L 393.21,912.30 L 384.84,913.54 L 376.58,915.29 L 368.36,917.37 L 360.06,919.59 L 351.60,921.76 L 342.88,923.72 L 333.84,925.30 L 324.41,926.37 L 314.56,926.83 L 304.26,926.59 L 293.52,925.59 L 282.33,923.82 L 270.74,921.28 L 258.77,918.00 L 246.48,914.03 L 233.94,909.43 L 221.20,904.26 L 208.36,898.62 L 195.49,892.56 L 182.68,886.15 L 170.03,879.46 L 157.65,872.52 L 145.66,865.38 L 134.16,858.03 L 123.28,850.49 L 113.16,842.74 L 103.92,834.76 L 95.69,826.52 L 88.58,817.98 L 82.72,809.13 L 78.20,799.92 L 75.09,790.34 L 73.45,780.39 L 73.29,770.06 L 74.60,759.38 L 77.36,748.39 L 81.47,737.14 L 86.84,725.69 L 93.34,714.13 L 100.80,702.55 L 109.06,691.04 L 117.94,679.68 L 127.26,668.59 L 136.85,657.83 L 146.55,647.49 L 156.23,637.61 L 165.78,628.26 L 175.13,619.44 L 184.24,611.16 L 193.10,603.40 L 201.74,596.14 L 210.20,589.30 L 218.57,582.83 L 226.92,576.64 L 235.36,570.65 L 243.98,564.76 L 252.87,558.90 L 262.10,552.97 L 271.71,546.89 L 281.76,540.63 L 292.23,534.12 L 303.11,527.34 L 314.35,520.29 L 325.90,513.00 L 337.68,505.49 L 349.60,497.83 L 361.59,490.09 L 373.57,482.37 L 385.47,474.78 L 397.25,467.43 L 408.86,460.45 L 420.31,453.95 L 431.61,448.05 L 442.79,442.87 L 453.90,438.49 L 465.00,435.00 L 476.16,432.45 L 487.46,430.87 L 498.95,430.27 L 510.68,430.63 L 522.69,431.89 L 535.00,433.96 L 547.61,436.75 L 560.49,440.11 L 573.60,443.89 L 586.89,447.92 L 600.27,452.02 L 613.69,456.00 L 627.05,459.69 L 640.31,462.91 L 653.39,465.51 L 666.27,467.37 L 678.91,468.40 L 691.32,468.55 L 703.52,467.80 L 715.55,466.19 L 727.46,463.79 L 739.32,460.72 L 751.21,457.14 L 763.19,453.24 L 775.33,449.22 L 787.68,445.31 L 800.29,441.73 L 813.16,438.72 L 826.29,436.47 L 839.66,435.15 L 853.22,434.91 L 866.89,435.82 L 880.62,437.93 L 894.30,441.23 L 907.87,445.64 L 921.23,451.06 L 934.32,457.34 L 947.08,464.28 L 959.49,471.67 L 971.53,479.29 L 983.20,486.94 L 994.54,494.42 L 1005.59,501.55 L 1016.40,508.23 L 1027.03,514.37 L 1037.55,519.96 L 1048.00,525.03 L 1058.43,529.68 L 1068.86,534.05 L 1079.30,538.32 L 1089.71,542.71 L 1100.07,547.44 L 1110.29,552.74 L 1120.30,558.83 L 1130.01,565.88 L 1139.31,574.03 L 1148.11,583.37 L 1156.33,593.92 L 1163.88,605.62 L 1170.72,618.36 L 1176.84,631.97 L 1182.25,646.20 L 1187.00,660.79 L 1191.17,675.43 L 1194.88,689.81 L 1198.25,703.63 L 1201.46,716.58 L 1204.65,728.44 L 1208.02,739.00 L 1211.71,748.13 L 1215.90,755.77 L 1220.69,761.91 L 1226.21,766.62 L 1232.52,770.02 L 1239.66,772.29 L 1247.63,773.63 L 1256.41,774.26 L 1265.93,774.39 L 1276.11,774.22 L 1286.84,773.93 L 1298.01,773.63 L 1309.49,773.39 L 1321.15,773.22 L 1332.87,773.07 L 1344.54,772.84 L 1356.05,772.37 L 1367.31,771.49 L 1378.25,770.00 L 1388.81,767.70 L 1398.93,764.41 L 1408.60,759.99 L 1417.76,754.37 L 1426.41,747.51 L 1434.51,739.46 L 1442.06,730.35 L 1449.02,720.39 L 1455.39,709.84 L 1461.14,699.03 L 1466.27,688.32 L 1470.76,678.10 L 1474.62,668.75 L 1477.85,660.64 L 1480.48,654.09 L 1482.54,649.37 L 1484.09,646.68 L 1485.21,646.13 L 1485.97,647.73 L 1486.47,651.42 L 1486.82,657.06 L 1487.13,664.43 L 1487.50,673.27 L 1488.04,683.26 L 1488.83,694.10 L 1489.96,705.46 L 1491.46,717.05 L 1493.38,728.63 L 1495.72,740.01 L 1498.47,751.05 L 1501.57,761.70 L 1504.98,771.97 L 1508.63,781.93 L 1512.43,791.70 L 1516.31,801.42 L 1520.19,811.28 L 1524.02,821.43 L 1527.75,832.02 L 1531.36,843.17 L 1534.85,854.93 L 1538.24,867.29 L 1541.58,880.20 L 1544.95,893.50 L 1548.42,907.01 L 1552.09,920.48 L 1556.05,933.63 L 1560.39,946.17 L 1565.20,957.81 L 1570.52,968.29 L 1576.41,977.40 L 1582.86,985.00 L 1589.86,991.00 L 1597.36,995.43 L 1605.27,998.40 L 1613.50,1000.09 L 1621.93,1000.78 L 1630.42,1000.81 L 1638.85,1000.55 L 1647.09,1000.41 L 1655.03,1000.78 L 1662.55,1002.05 L 1669.61,1004.54 L 1676.14,1008.50 L 1682.14,1014.12 L 1687.63,1021.48 L 1692.66,1030.55 L 1697.30,1041.23 L 1701.64,1053.32 L 1705.79,1066.55 L 1709.86,1080.59 L 1713.98,1095.10 L 1718.25,1109.70 L 1722.78,1124.06 L 1727.63,1137.87 L 1732.88,1150.87 L 1738.56,1162.91 L 1744.69,1173.89 L 1751.26,1183.80 L 1758.26,1192.72 L 1765.63,1200.81 L 1773.33,1208.28 L 1781.30,1215.39 L 1789.46,1222.42 L 1797.76,1229.63 L 1806.12,1237.28 L 1814.49,1245.57 L 1822.79,1254.64 L 1830.98,1264.55 L 1839.00,1275.27 L 1846.77,1286.70 L 1854.25,1298.66 L 1861.37,1310.88 L 1868.04,1323.06 L 1874.18,1334.85 L 1879.71,1345.90 L 1884.50,1355.86 L 1888.46,1364.43 L 1891.46,1371.36 L 1893.40,1376.46 L 1894.17,1379.64 L 1893.66,1380.90 Z"/>
</svg>