<?xml version="1.0" encoding="UTF-8"?>
<svg xmlns="http://www.w3.org/2000/svg" width="2500.0" height="1699.7167138810198" viewBox="0 0 2500.0 1699.7167138810198">
<path fill="#d68a00" stroke="none" d="M 1295.16,405.85 L 1291.95,404.22 L 1288.65,401.20 L 1285.33,397.29 L 1281.95,393.05 L 1278.49,388.98 L 1274.94,385.33 L 1271.31,382.08 L 1267.65,379.02 L 1264.05,375.85 L 1260.53,372.34 L 1257.10,368.49 L 1253.69,364.47 L 1250.18,360.61 L 1246.47,357.18 L 1242.50,354.28 L 1238.26,351.81 L 1233.86,349.47 L 1229.43,346.92 L 1225.07,343.95 L 1220.83,340.61 L 1216.66,337.17 L 1212.41,334.08 L 1207.94,331.82 L 1203.21,330.75 L 1198.28,331.04 L 1193.40,332.64 L 1188.90,335.41 L 1185.11,339.12 L 1182.30,343.56 L 1180.59,348.54 L 1179.98,353.89 L 1180.37,359.42 L 1181.64,364.95 L 1183.61,370.34 L 1186.06,375.55 L 1188.66,380.61 L 1190.93,385.65 L 1192.32,390.72 L 1192.27,395.74 L 1190.40,400.42 L 1186.69,404.30 L 1181.51,406.86 L 1175.59,407.69 L 1169.80,406.67 L 1164.88,403.95 L 1161.24,399.95 L 1158.84,395.17 L 1157.28,390.03 L 1156.02,384.72 L 1154.61,379.24 L 1152.95,373.49 L 1151.30,367.41 L 1150.16,361.07 L 1150.05,354.73 L 1151.27,348.70 L 1153.71,343.20 L 1156.88,338.27 L 1160.08,333.74 L 1162.58,329.31 L 1163.81,324.76 L 1163.55,320.02 L 1161.82,315.31 L 1158.86,310.98 L 1154.98,307.39 L 1150.45,304.68 L 1145.51,302.69 L 1140.37,301.04 L 1135.23,299.24 L 1130.27,296.98 L 1125.60,294.22 L 1121.20,291.22 L 1116.92,288.41 L 1112.46,286.14 L 1107.58,284.49 L 1102.17,283.19 L 1096.39,281.74 L 1090.72,279.60 L 1085.83,276.45 L 1082.40,272.33 L 1080.89,267.64 L 1081.43,262.94 L 1083.74,258.73 L 1087.29,255.25 L 1091.49,252.41 L 1095.86,249.87 L 1100.17,247.27 L 1104.47,244.43 L 1108.99,241.47 L 1113.98,238.76 L 1119.59,236.79 L 1125.77,235.93 L 1132.32,236.26 L 1138.96,237.57 L 1145.41,239.39 L 1151.53,241.22 L 1157.30,242.68 L 1162.84,243.66 L 1168.37,244.31 L 1174.05,244.94 L 1179.98,245.88 L 1186.05,247.37 L 1192.00,249.50 L 1197.39,252.20 L 1201.67,255.30 L 1204.32,258.64 L 1205.01,262.07 L 1203.72,265.55 L 1200.79,269.03 L 1196.92,272.55 L 1193.03,276.11 L 1190.06,279.71 L 1188.70,283.36 L 1189.31,287.00 L 1191.78,290.58 L 1195.70,293.99 L 1200.46,297.14 L 1205.51,299.95 L 1210.45,302.41 L 1215.13,304.63 L 1219.56,306.77 L 1223.83,309.08 L 1228.00,311.75 L 1232.08,314.88 L 1235.99,318.44 L 1239.68,322.24 L 1243.20,326.01 L 1246.68,329.52 L 1250.34,332.62 L 1254.35,335.34 L 1258.73,337.83 L 1263.36,340.35 L 1267.94,343.14 L 1272.15,346.36 L 1275.77,350.04 L 1278.75,354.11 L 1281.26,358.39 L 1283.63,362.72 L 1286.19,366.98 L 1289.15,371.12 L 1292.49,375.21 L 1295.98,379.33 L 1299.21,383.62 L 1301.75,388.10 L 1303.25,392.69 L 1303.54,397.17 L 1302.65,401.16 L 1300.77,404.18 L 1298.18,405.84 Z"/>
<path fill="#d68a00" stroke="none" d="M 1903.43,1430.92 L 1902.38,1429.08 L 1900.42,1424.95 L 1897.45,1418.78 L 1893.42,1410.93 L 1888.26,1401.80 L 1881.96,1391.86 L 1874.51,1381.58 L 1865.95,1371.44 L 1856.34,1361.89 L 1845.77,1353.29 L 1834.34,1345.98 L 1822.19,1340.16 L 1809.47,1335.96 L 1796.32,1333.40 L 1782.90,1332.39 L 1769.34,1332.76 L 1755.78,1334.26 L 1742.33,1336.59 L 1729.06,1339.41 L 1716.03,1342.35 L 1703.29,1345.08 L 1690.83,1347.27 L 1678.63,1348.67 L 1666.65,1349.08 L 1654.84,1348.37 L 1643.13,1346.50 L 1631.45,1343.50 L 1619.73,1339.48 L 1607.90,1334.58 L 1595.91,1329.04 L 1583.73,1323.08 L 1571.33,1316.95 L 1558.69,1310.90 L 1545.83,1305.13 L 1532.78,1299.83 L 1519.55,1295.13 L 1506.19,1291.09 L 1492.75,1287.74 L 1479.27,1285.02 L 1465.77,1282.86 L 1452.29,1281.11 L 1438.85,1279.63 L 1425.45,1278.25 L 1412.08,1276.79 L 1398.74,1275.12 L 1385.39,1273.10 L 1372.00,1270.64 L 1358.54,1267.71 L 1344.99,1264.30 L 1331.32,1260.45 L 1317.51,1256.24 L 1303.57,1251.80 L 1289.50,1247.24 L 1275.32,1242.71 L 1261.09,1238.33 L 1246.86,1234.23 L 1232.67,1230.49 L 1218.61,1227.17 L 1204.74,1224.26 L 1191.12,1221.74 L 1177.81,1219.53 L 1164.85,1217.52 L 1152.25,1215.56 L 1140.04,1213.48 L 1128.19,1211.12 L 1116.68,1208.30 L 1105.44,1204.87 L 1094.43,1200.72 L 1083.56,1195.75 L 1072.76,1189.94 L 1061.97,1183.28 L 1051.12,1175.84 L 1040.17,1167.74 L 1029.10,1159.11 L 1017.91,1150.15 L 1006.63,1141.05 L 995.32,1132.05 L 984.06,1123.37 L 972.96,1115.21 L 962.15,1107.77 L 951.75,1101.20 L 941.90,1095.62 L 932.72,1091.12 L 924.32,1087.74 L 916.77,1085.47 L 910.14,1084.26 L 904.41,1084.04 L 899.57,1084.70 L 895.51,1086.11 L 892.13,1088.13 L 889.25,1090.60 L 886.68,1093.39 L 884.20,1096.33 L 881.56,1099.30 L 878.53,1102.16 L 874.87,1104.79 L 870.39,1107.10 L 864.90,1109.00 L 858.26,1110.40 L 850.40,1111.23 L 841.27,1111.45 L 830.91,1110.99 L 819.38,1109.83 L 806.81,1107.94 L 793.37,1105.30 L 779.25,1101.90 L 764.69,1097.78 L 749.92,1092.96 L 735.15,1087.51 L 720.61,1081.49 L 706.48,1075.01 L 692.92,1068.17 L 680.02,1061.11 L 667.86,1053.97 L 656.44,1046.87 L 645.72,1039.96 L 635.62,1033.35 L 626.03,1027.14 L 616.80,1021.40 L 607.78,1016.15 L 598.79,1011.39 L 589.68,1007.08 L 580.31,1003.12 L 570.57,999.39 L 560.36,995.73 L 549.66,991.98 L 538.47,987.95 L 526.84,983.46 L 514.84,978.35 L 502.61,972.50 L 490.30,965.82 L 478.07,958.30 L 466.11,949.94 L 454.59,940.86 L 443.68,931.22 L 433.51,921.22 L 424.21,911.14 L 415.85,901.27 L 408.47,891.95 L 402.07,883.49 L 396.60,876.21 L 391.97,870.38 L 388.06,866.23 L 384.74,863.91 L 381.85,863.50 L 379.19,864.99 L 376.60,868.29 L 373.91,873.22 L 370.96,879.53 L 367.61,886.90 L 363.74,894.96 L 359.26,903.33 L 354.11,911.60 L 348.25,919.38 L 341.67,926.33 L 334.39,932.13 L 326.42,936.54 L 317.80,939.41 L 308.59,940.65 L 298.83,940.25 L 288.57,938.28 L 277.87,934.89 L 266.77,930.26 L 255.31,924.63 L 243.55,918.25 L 231.51,911.37 L 219.24,904.24 L 206.79,897.06 L 194.23,890.00 L 181.61,883.18 L 169.02,876.66 L 156.56,870.45 L 144.34,864.51 L 132.50,858.73 L 121.18,852.99 L 110.52,847.14 L 100.68,841.02 L 91.81,834.48 L 84.07,827.38 L 77.57,819.61 L 72.43,811.11 L 68.74,801.84 L 66.54,791.82 L 65.85,781.12 L 66.67,769.84 L 68.93,758.11 L 72.56,746.09 L 77.43,733.95 L 83.41,721.85 L 90.34,709.96 L 98.05,698.41 L 106.36,687.32 L 115.11,676.76 L 124.13,666.78 L 133.29,657.39 L 142.47,648.56 L 151.57,640.24 L 160.53,632.36 L 169.32,624.83 L 177.94,617.56 L 186.39,610.46 L 194.73,603.45 L 203.02,596.47 L 211.30,589.47 L 219.67,582.42 L 228.18,575.33 L 236.91,568.19 L 245.90,561.04 L 255.18,553.91 L 264.79,546.83 L 274.71,539.83 L 284.94,532.94 L 295.45,526.17 L 306.19,519.53 L 317.11,512.99 L 328.16,506.55 L 339.29,500.16 L 350.43,493.80 L 361.56,487.43 L 372.63,481.04 L 383.63,474.61 L 394.55,468.18 L 405.38,461.77 L 416.16,455.47 L 426.91,449.37 L 437.67,443.58 L 448.46,438.25 L 459.34,433.52 L 470.34,429.55 L 481.49,426.47 L 492.82,424.40 L 504.33,423.42 L 516.03,423.58 L 527.91,424.88 L 539.96,427.27 L 552.15,430.62 L 564.44,434.79 L 576.81,439.57 L 589.23,444.70 L 601.66,449.93 L 614.08,454.98 L 626.49,459.58 L 638.86,463.47 L 651.22,466.44 L 663.57,468.32 L 675.93,469.01 L 688.33,468.47 L 700.82,466.74 L 713.40,463.91 L 726.13,460.15 L 739.02,455.69 L 752.09,450.78 L 765.34,445.74 L 778.76,440.85 L 792.34,436.42 L 806.04,432.73 L 819.83,430.00 L 833.64,428.44 L 847.42,428.16 L 861.11,429.22 L 874.66,431.61 L 888.01,435.27 L 901.12,440.06 L 913.95,445.79 L 926.49,452.27 L 938.74,459.25 L 950.69,466.49 L 962.37,473.76 L 973.82,480.87 L 985.07,487.65 L 996.17,493.98 L 1007.17,499.78 L 1018.11,505.06 L 1029.02,509.84 L 1039.91,514.23 L 1050.80,518.34 L 1061.67,522.35 L 1072.49,526.44 L 1083.22,530.80 L 1093.81,535.60 L 1104.17,541.03 L 1114.24,547.21 L 1123.92,554.26 L 1133.15,562.23 L 1141.85,571.16 L 1149.96,581.01 L 1157.44,591.73 L 1164.27,603.20 L 1170.45,615.32 L 1176.02,627.91 L 1181.01,640.81 L 1185.50,653.85 L 1189.58,666.85 L 1193.36,679.64 L 1196.95,692.08 L 1200.48,704.01 L 1204.07,715.33 L 1207.83,725.93 L 1211.87,735.73 L 1216.28,744.68 L 1221.14,752.71 L 1226.50,759.81 L 1232.40,765.95 L 1238.84,771.11 L 1245.84,775.28 L 1253.38,778.48 L 1261.42,780.70 L 1269.94,781.96 L 1278.88,782.30 L 1288.22,781.74 L 1297.91,780.34 L 1307.91,778.18 L 1318.20,775.34 L 1328.75,771.93 L 1339.53,768.09 L 1350.53,763.96 L 1361.73,759.72 L 1373.12,755.54 L 1384.65,751.63 L 1396.30,748.16 L 1408.02,745.35 L 1419.75,743.39 L 1431.42,742.44 L 1442.95,742.65 L 1454.25,744.17 L 1465.20,747.08 L 1475.72,751.45 L 1485.70,757.30 L 1495.04,764.63 L 1503.67,773.36 L 1511.52,783.43 L 1518.56,794.70 L 1524.78,807.02 L 1530.20,820.22 L 1534.89,834.08 L 1538.93,848.40 L 1542.43,862.95 L 1545.55,877.50 L 1548.45,891.84 L 1551.28,905.73 L 1554.25,919.01 L 1557.50,931.47 L 1561.20,942.99 L 1565.49,953.45 L 1570.45,962.77 L 1576.16,970.91 L 1582.64,977.88 L 1589.88,983.73 L 1597.81,988.54 L 1606.35,992.44 L 1615.36,995.60 L 1624.69,998.21 L 1634.18,1000.51 L 1643.64,1002.72 L 1652.91,1005.09 L 1661.83,1007.88 L 1670.25,1011.30 L 1678.07,1015.56 L 1685.22,1020.84 L 1691.66,1027.26 L 1697.41,1034.90 L 1702.51,1043.77 L 1707.04,1053.85 L 1711.13,1065.03 L 1714.91,1077.18 L 1718.54,1090.08 L 1722.18,1103.51 L 1725.99,1117.23 L 1730.12,1130.95 L 1734.69,1144.41 L 1739.80,1157.39 L 1745.51,1169.67 L 1751.86,1181.10 L 1758.83,1191.57 L 1766.40,1201.07 L 1774.47,1209.62 L 1782.96,1217.33 L 1791.75,1224.36 L 1800.70,1230.93 L 1809.69,1237.31 L 1818.58,1243.75 L 1827.25,1250.55 L 1835.60,1257.95 L 1843.53,1266.19 L 1850.99,1275.43 L 1857.93,1285.76 L 1864.34,1297.20 L 1870.22,1309.68 L 1875.57,1323.04 L 1880.43,1337.04 L 1884.82,1351.36 L 1888.76,1365.62 L 1892.29,1379.41 L 1895.39,1392.31 L 1898.06,1403.89 L 1900.28,1413.77 L 1902.00,1421.62 L 1903.15,1427.19 L 1903.66,1430.30 Z"/>
<path fill="#d68a00" stroke="none" d="M 1904.36,702.94 L 1900.77,701.63 L 1896.70,699.49 L 1892.27,696.87 L 1887.63,694.06 L 1882.89,691.31 L 1878.11,688.83 L 1873.21,686.73 L 1868.10,685.00 L 1862.76,683.48 L 1857.27,681.93 L 1851.81,680.16 L 1846.52,678.16 L 1841.41,676.08 L 1836.32,674.15 L 1831.04,672.53 L 1825.41,671.22 L 1819.50,670.05 L 1813.53,668.81 L 1807.73,667.36 L 1802.23,665.73 L 1796.95,664.00 L 1791.73,662.30 L 1786.44,660.61 L 1781.14,658.79 L 1776.04,656.68 L 1771.35,654.15 L 1767.17,651.23 L 1763.42,648.01 L 1759.87,644.62 L 1756.34,641.13 L 1752.76,637.55 L 1749.21,633.88 L 1745.75,630.16 L 1742.34,626.52 L 1738.87,623.04 L 1735.21,619.74 L 1731.39,616.48 L 1727.64,613.04 L 1724.23,609.24 L 1721.33,605.02 L 1718.81,600.53 L 1716.35,596.04 L 1713.56,591.80 L 1710.30,587.93 L 1706.73,584.32 L 1703.23,580.71 L 1700.13,576.76 L 1697.59,572.25 L 1695.50,567.15 L 1693.77,561.65 L 1692.47,556.16 L 1692.00,551.20 L 1692.83,547.29 L 1695.20,544.89 L 1698.87,544.27 L 1703.13,545.49 L 1707.09,548.39 L 1710.12,552.62 L 1712.16,557.69 L 1713.69,563.10 L 1715.43,568.36 L 1717.89,573.12 L 1721.12,577.24 L 1724.80,580.80 L 1728.43,584.07 L 1731.76,587.43 L 1734.85,591.12 L 1738.04,595.12 L 1741.71,599.11 L 1746.05,602.51 L 1751.00,604.74 L 1756.32,605.44 L 1761.67,604.56 L 1766.75,602.39 L 1771.27,599.29 L 1775.00,595.53 L 1777.78,591.18 L 1779.66,586.22 L 1781.00,580.72 L 1782.41,575.04 L 1784.56,569.82 L 1787.90,565.84 L 1792.39,563.74 L 1797.53,563.78 L 1802.56,565.78 L 1806.84,569.21 L 1810.13,573.46 L 1812.65,577.97 L 1814.91,582.42 L 1817.43,586.68 L 1820.43,590.74 L 1823.82,594.65 L 1827.34,598.47 L 1830.74,602.23 L 1833.99,605.94 L 1837.31,609.50 L 1841.00,612.77 L 1845.29,615.61 L 1850.18,617.95 L 1855.44,619.90 L 1860.70,621.74 L 1865.64,623.80 L 1870.12,626.28 L 1874.24,629.19 L 1878.23,632.31 L 1882.31,635.38 L 1886.58,638.27 L 1890.88,641.07 L 1894.93,644.10 L 1898.39,647.67 L 1901.12,651.95 L 1903.17,656.91 L 1904.83,662.30 L 1906.40,667.89 L 1908.08,673.52 L 1909.80,679.16 L 1911.30,684.77 L 1912.24,690.20 L 1912.35,695.13 L 1911.53,699.14 L 1909.84,701.86 L 1907.41,703.10 Z"/>
<path fill="#d68a00" stroke="none" d="M 2067.28,1270.28 L 2064.50,1268.38 L 2061.18,1265.03 L 2057.51,1260.92 L 2053.86,1256.62 L 2050.63,1252.36 L 2048.13,1248.02 L 2046.41,1243.27 L 2045.27,1237.87 L 2044.33,1231.84 L 2043.19,1225.57 L 2041.49,1219.64 L 2039.11,1214.55 L 2036.13,1210.46 L 2032.78,1207.12 L 2029.38,1203.95 L 2026.21,1200.34 L 2023.45,1195.90 L 2021.16,1190.64 L 2019.32,1184.88 L 2017.85,1179.04 L 2016.68,1173.35 L 2015.78,1167.75 L 2015.11,1161.92 L 2014.67,1155.47 L 2014.43,1148.24 L 2014.35,1140.40 L 2014.42,1132.42 L 2014.66,1124.90 L 2015.10,1118.21 L 2015.80,1112.38 L 2016.76,1107.07 L 2017.98,1101.77 L 2019.36,1096.06 L 2020.81,1089.82 L 2022.22,1083.29 L 2023.53,1076.88 L 2024.67,1070.98 L 2025.60,1065.74 L 2026.24,1060.99 L 2026.45,1056.39 L 2026.08,1051.59 L 2024.98,1046.44 L 2023.12,1041.07 L 2020.60,1035.77 L 2017.62,1030.88 L 2014.43,1026.57 L 2011.21,1022.80 L 2008.02,1019.37 L 2004.76,1016.06 L 2001.26,1012.77 L 1997.37,1009.51 L 1993.09,1006.37 L 1988.55,1003.42 L 1984.04,1000.61 L 1979.82,997.79 L 1975.98,994.81 L 1972.43,991.62 L 1968.88,988.32 L 1965.02,985.14 L 1960.68,982.22 L 1955.97,979.53 L 1951.29,976.78 L 1947.26,973.49 L 1944.44,969.21 L 1943.19,963.78 L 1943.55,957.45 L 1945.25,950.84 L 1947.85,944.75 L 1950.94,939.89 L 1954.27,936.64 L 1957.80,934.99 L 1961.60,934.67 L 1965.74,935.31 L 1970.18,936.68 L 1974.73,938.72 L 1979.13,941.46 L 1983.16,944.91 L 1986.77,948.88 L 1990.10,953.00 L 1993.42,956.86 L 1997.01,960.16 L 2001.01,962.85 L 2005.40,965.18 L 2009.96,967.56 L 2014.44,970.32 L 2018.62,973.59 L 2022.42,977.24 L 2025.89,981.01 L 2029.12,984.72 L 2032.17,988.36 L 2035.03,992.19 L 2037.61,996.51 L 2039.82,1001.55 L 2041.67,1007.23 L 2043.27,1013.16 L 2044.86,1018.84 L 2046.68,1023.89 L 2048.84,1028.28 L 2051.30,1032.34 L 2053.80,1036.69 L 2055.99,1041.88 L 2057.57,1048.16 L 2058.33,1055.32 L 2058.29,1062.81 L 2057.59,1069.96 L 2056.48,1076.33 L 2055.16,1081.87 L 2053.79,1086.93 L 2052.46,1092.09 L 2051.25,1097.85 L 2050.23,1104.42 L 2049.52,1111.67 L 2049.26,1119.19 L 2049.52,1126.52 L 2050.25,1133.37 L 2051.32,1139.64 L 2052.56,1145.49 L 2053.80,1151.13 L 2054.99,1156.74 L 2056.20,1162.37 L 2057.57,1167.98 L 2059.23,1173.46 L 2061.21,1178.78 L 2063.42,1183.94 L 2065.66,1188.99 L 2067.76,1194.00 L 2069.63,1198.98 L 2071.37,1203.92 L 2073.22,1208.77 L 2075.46,1213.53 L 2078.24,1218.20 L 2081.49,1222.77 L 2084.86,1227.20 L 2087.79,1231.42 L 2089.69,1235.34 L 2090.15,1238.99 L 2089.04,1242.52 L 2086.61,1246.19 L 2083.34,1250.28 L 2079.85,1254.88 L 2076.64,1259.80 L 2073.93,1264.48 L 2071.67,1268.19 L 2069.58,1270.25 Z"/>
</svg>