<?xml version="1.0" encoding="UTF-8"?>
<svg xmlns="http://www.w3.org/2000/svg" width="2500.0" height="1699.7167138810198" viewBox="0 0 2500.0 1699.7167138810198">
<path fill="#c41e1e" stroke="none" d="M 2098.80,1482.29 L 2086.73,1480.55 L 2075.01,1478.32 L 2063.68,1475.61 L 2052.75,1472.43 L 2042.25,1468.76 L 2032.19,1464.61 L 2022.58,1459.96 L 2013.42,1454.81 L 2004.71,1449.14 L 1996.44,1442.94 L 1988.62,1436.19 L 1981.23,1428.89 L 1974.25,1421.03 L 1967.66,1412.59 L 1961.44,1403.57 L 1955.56,1393.97 L 1949.99,1383.79 L 1944.70,1373.04 L 1939.66,1361.74 L 1934.84,1349.90 L 1930.19,1337.55 L 1925.68,1324.73 L 1921.28,1311.47 L 1916.94,1297.81 L 1912.64,1283.82 L 1908.33,1269.54 L 1903.99,1255.02 L 1899.59,1240.35 L 1895.09,1225.57 L 1890.48,1210.77 L 1885.72,1195.99 L 1880.80,1181.32 L 1875.70,1166.82 L 1870.41,1152.54 L 1864.92,1138.55 L 1859.22,1124.89 L 1853.31,1111.62 L 1847.19,1098.76 L 1840.87,1086.35 L 1834.34,1074.41 L 1827.62,1062.95 L 1820.71,1051.98 L 1813.63,1041.49 L 1806.40,1031.46 L 1799.03,1021.86 L 1791.53,1012.67 L 1783.92,1003.85 L 1776.23,995.34 L 1768.46,987.10 L 1760.63,979.06 L 1752.76,971.17 L 1744.87,963.37 L 1736.96,955.58 L 1729.05,947.76 L 1721.14,939.84 L 1713.26,931.77 L 1705.39,923.49 L 1697.55,914.97 L 1689.73,906.17 L 1681.94,897.06 L 1674.18,887.62 L 1666.42,877.85 L 1658.68,867.75 L 1650.94,857.32 L 1643.20,846.59 L 1635.43,835.59 L 1627.63,824.36 L 1619.78,812.95 L 1611.87,801.41 L 1603.89,789.80 L 1595.82,778.18 L 1587.64,766.64 L 1579.35,755.23 L 1570.93,744.02 L 1562.37,733.09 L 1553.66,722.49 L 1544.80,712.30 L 1535.76,702.56 L 1526.56,693.32 L 1517.18,684.62 L 1507.63,676.49 L 1497.92,668.94 L 1488.03,661.99 L 1477.99,655.63 L 1467.80,649.84 L 1457.47,644.60 L 1447.02,639.87 L 1436.47,635.61 L 1425.82,631.74 L 1415.11,628.22 L 1404.35,624.97 L 1393.57,621.90 L 1382.79,618.94 L 1372.04,616.00 L 1361.33,613.00 L 1350.71,609.84 L 1340.18,606.46 L 1329.78,602.77 L 1319.52,598.70 L 1309.43,594.19 L 1299.53,589.18 L 1289.83,583.63 L 1280.35,577.51 L 1271.10,570.79 L 1262.08,563.46 L 1253.31,555.54 L 1244.77,547.03 L 1236.47,537.96 L 1228.39,528.38 L 1220.52,518.34 L 1212.85,507.89 L 1205.35,497.11 L 1197.99,486.07 L 1190.74,474.86 L 1183.57,463.57 L 1176.44,452.29 L 1169.30,441.11 L 1162.11,430.12 L 1154.81,419.41 L 1147.37,409.06 L 1139.72,399.15 L 1131.83,389.76 L 1123.62,380.94 L 1115.06,372.74 L 1106.10,365.21 L 1096.68,358.38 L 1086.78,352.26 L 1076.34,346.86 L 1065.33,342.18 L 1053.74,338.19 L 1041.54,334.87 L 1028.71,332.19 L 1015.25,330.08 L 1001.17,328.49 L 986.48,327.36 L 971.20,326.62 L 955.36,326.19 L 939.00,325.99 L 922.18,325.95 L 904.95,325.99 L 887.37,326.03 L 869.53,326.00 L 851.52,325.82 L 833.41,325.45 L 815.30,324.82 L 797.31,323.88 L 779.53,322.59 L 762.07,320.94 L 745.04,318.89 L 728.56,316.43 L 712.72,313.57 L 697.63,310.31 L 683.41,306.67 L 670.13,302.67 L 657.89,298.35 L 646.78,293.74 L 636.87,288.90 L 628.21,283.85 L 620.87,278.66 L 614.88,273.38 L 610.27,268.07 L 607.06,262.76 L 605.24,257.51 L 604.82,252.37 L 605.77,247.39 L 608.06,242.59 L 611.64,238.02 L 616.45,233.69 L 622.42,229.63 L 629.49,225.85 L 637.56,222.36 L 646.55,219.15 L 656.35,216.23 L 666.88,213.57 L 678.02,211.16 L 689.67,208.97 L 701.73,206.98 L 714.09,205.16 L 726.66,203.46 L 739.35,201.87 L 752.06,200.33 L 764.72,198.82 L 777.25,197.30 L 789.58,195.74 L 801.68,194.11 L 813.48,192.37 L 824.96,190.52 L 836.09,188.52 L 846.86,186.37 L 857.26,184.05 L 867.31,181.56 L 877.02,178.91 L 886.42,176.09 L 895.53,173.12 L 904.40,170.02 L 913.06,166.79 L 921.58,163.46 L 930.00,160.05 L 938.37,156.59 L 946.75,153.10 L 955.20,149.61 L 963.76,146.15 L 972.48,142.73 L 981.42,139.39 L 990.61,136.15 L 1000.08,133.02 L 1009.88,130.02 L 1020.01,127.17 L 1030.50,124.47 L 1041.35,121.93 L 1052.56,119.55 L 1064.14,117.33 L 1076.06,115.28 L 1088.31,113.37 L 1100.86,111.60 L 1113.68,109.97 L 1126.74,108.45 L 1140.00,107.03 L 1153.42,105.69 L 1166.95,104.43 L 1180.56,103.22 L 1194.19,102.06 L 1207.81,100.92 L 1221.38,99.80 L 1234.86,98.70 L 1248.22,97.59 L 1261.42,96.50 L 1274.44,95.40 L 1287.26,94.32 L 1299.88,93.26 L 1312.26,92.22 L 1324.43,91.23 L 1336.37,90.30 L 1348.09,89.45 L 1359.61,88.70 L 1370.94,88.09 L 1382.09,87.64 L 1393.10,87.37 L 1403.99,87.31 L 1414.78,87.50 L 1425.50,87.96 L 1436.18,88.72 L 1446.84,89.81 L 1457.51,91.24 L 1468.21,93.05 L 1478.95,95.25 L 1489.76,97.86 L 1500.64,100.89 L 1511.59,104.36 L 1522.63,108.27 L 1533.75,112.63 L 1544.94,117.43 L 1556.19,122.68 L 1567.48,128.37 L 1578.79,134.48 L 1590.10,141.02 L 1601.38,147.96 L 1612.61,155.28 L 1623.74,162.97 L 1634.75,171.01 L 1645.61,179.37 L 1656.30,188.03 L 1666.77,196.97 L 1677.01,206.15 L 1686.99,215.56 L 1696.69,225.17 L 1706.11,234.94 L 1715.24,244.85 L 1724.06,254.88 L 1732.59,264.99 L 1740.84,275.17 L 1748.81,285.37 L 1756.54,295.58 L 1764.05,305.76 L 1771.37,315.90 L 1778.54,325.96 L 1785.60,335.92 L 1792.59,345.76 L 1799.56,355.45 L 1806.57,364.96 L 1813.65,374.29 L 1820.87,383.39 L 1828.25,392.26 L 1835.86,400.88 L 1843.73,409.22 L 1851.91,417.29 L 1860.41,425.05 L 1869.26,432.52 L 1878.50,439.67 L 1888.12,446.51 L 1898.14,453.04 L 1908.54,459.27 L 1919.32,465.21 L 1930.46,470.86 L 1941.93,476.26 L 1953.69,481.43 L 1965.70,486.39 L 1977.92,491.17 L 1990.28,495.82 L 2002.74,500.38 L 2015.22,504.89 L 2027.67,509.41 L 2040.00,513.97 L 2052.16,518.64 L 2064.09,523.48 L 2075.70,528.53 L 2086.94,533.85 L 2097.76,539.50 L 2108.09,545.53 L 2117.89,551.98 L 2127.13,558.92 L 2135.76,566.37 L 2143.76,574.37 L 2151.12,582.95 L 2157.83,592.14 L 2163.89,601.95 L 2169.31,612.40 L 2174.12,623.47 L 2178.33,635.17 L 2182.00,647.48 L 2185.16,660.37 L 2187.86,673.81 L 2190.16,687.77 L 2192.13,702.19 L 2193.82,717.02 L 2195.32,732.21 L 2196.68,747.69 L 2197.99,763.39 L 2199.31,779.26 L 2200.72,795.21 L 2202.27,811.18 L 2204.04,827.10 L 2206.09,842.91 L 2208.46,858.53 L 2211.20,873.91 L 2214.36,889.00 L 2217.97,903.76 L 2222.04,918.13 L 2226.60,932.10 L 2231.66,945.63 L 2237.21,958.72 L 2243.24,971.35 L 2249.74,983.53 L 2256.68,995.28 L 2264.03,1006.61 L 2271.74,1017.55 L 2279.77,1028.14 L 2288.07,1038.41 L 2296.57,1048.41 L 2305.23,1058.20 L 2313.96,1067.82 L 2322.70,1077.33 L 2331.39,1086.80 L 2339.95,1096.26 L 2348.31,1105.78 L 2356.40,1115.41 L 2364.15,1125.19 L 2371.50,1135.17 L 2378.37,1145.37 L 2384.71,1155.83 L 2390.47,1166.57 L 2395.59,1177.60 L 2400.02,1188.93 L 2403.72,1200.54 L 2406.65,1212.44 L 2408.78,1224.59 L 2410.10,1236.97 L 2410.56,1249.54 L 2410.17,1262.27 L 2408.91,1275.10 L 2406.78,1287.98 L 2403.79,1300.86 L 2399.93,1313.67 L 2395.23,1326.36 L 2389.70,1338.86 L 2383.37,1351.12 L 2376.26,1363.06 L 2368.40,1374.64 L 2359.82,1385.79 L 2350.57,1396.48 L 2340.69,1406.66 L 2330.22,1416.28 L 2319.20,1425.31 L 2307.69,1433.72 L 2295.73,1441.50 L 2283.39,1448.62 L 2270.70,1455.09 L 2257.72,1460.88 L 2244.52,1466.01 L 2231.13,1470.49 L 2217.62,1474.31 L 2204.04,1477.50 L 2190.44,1480.08 L 2176.88,1482.05 L 2163.40,1483.44 L 2150.04,1484.26 L 2136.87,1484.55 L 2123.91,1484.30 L 2111.21,1483.55 Z"/>
</svg>