<?xml version="1.0" encoding="UTF-8"?>
<svg xmlns="http://www.w3.org/2000/svg" width="2500.0" height="1699.7167138810198" viewBox="0 0 2500.0 1699.7167138810198">
<rect x="0" y="0" width="1" height="1" fill="#3ea332"/>
<rect x="2499.0" y="1698.7167138810198" width="1" height="1" fill="#3ea332"/>
<path fill="#3ea332" stroke="none" d="M 2110.48,1497.88 L 2096.32,1497.88 L 2082.15,1497.88 L 2067.99,1490.79 L 2057.37,1487.25 L 2046.74,1476.63 L 2039.66,1469.55 L 2029.04,1458.92 L 2021.95,1451.84 L 2007.79,1444.76 L 1997.17,1441.22 L 1983.00,1448.30 L 1975.92,1441.22 L 1961.76,1434.14 L 1951.13,1430.59 L 1944.05,1416.43 L 1944.05,1402.27 L 1944.05,1381.02 L 1944.05,1366.86 L 1944.05,1345.61 L 1940.51,1334.99 L 1933.43,1320.82 L 1929.89,1310.20 L 1922.80,1296.03 L 1922.80,1281.87 L 1915.72,1267.71 L 1915.72,1253.54 L 1908.64,1239.38 L 1905.10,1228.75 L 1901.56,1211.05 L 1894.48,1203.97 L 1887.39,1189.80 L 1880.31,1182.72 L 1873.23,1168.56 L 1869.69,1157.93 L 1862.61,1143.77 L 1855.52,1136.69 L 1848.44,1122.52 L 1841.36,1115.44 L 1834.28,1101.27 L 1827.20,1094.19 L 1816.57,1083.57 L 1813.03,1072.95 L 1805.95,1058.78 L 1802.41,1048.16 L 1795.33,1033.99 L 1788.24,1026.91 L 1784.70,1009.21 L 1781.16,998.58 L 1774.08,984.42 L 1767.00,977.34 L 1759.92,963.17 L 1756.37,952.55 L 1745.75,941.93 L 1742.21,931.30 L 1731.59,920.68 L 1724.50,913.60 L 1713.88,902.97 L 1706.80,895.89 L 1699.72,888.81 L 1689.09,878.19 L 1682.01,871.10 L 1671.39,860.48 L 1664.31,853.40 L 1643.06,853.40 L 1628.90,853.40 L 1614.73,846.32 L 1604.11,842.78 L 1593.48,832.15 L 1589.94,821.53 L 1582.86,807.37 L 1579.32,796.74 L 1575.78,779.04 L 1568.70,771.95 L 1568.70,750.71 L 1561.61,743.63 L 1554.53,729.46 L 1547.45,722.38 L 1540.37,708.22 L 1536.83,697.59 L 1526.20,686.97 L 1522.66,676.35 L 1512.04,665.72 L 1504.96,658.64 L 1494.33,648.02 L 1487.25,640.93 L 1476.63,630.31 L 1469.55,623.23 L 1451.84,619.69 L 1441.22,616.15 L 1423.51,612.61 L 1409.35,612.61 L 1395.18,619.69 L 1381.02,619.69 L 1366.86,612.61 L 1356.23,609.07 L 1342.07,601.98 L 1331.44,598.44 L 1317.28,591.36 L 1303.12,591.36 L 1288.95,598.44 L 1274.79,598.44 L 1264.16,609.07 L 1253.54,612.61 L 1235.84,609.07 L 1232.29,598.44 L 1228.75,580.74 L 1228.75,566.57 L 1228.75,545.33 L 1228.75,531.16 L 1228.75,509.92 L 1228.75,495.75 L 1228.75,474.50 L 1228.75,460.34 L 1221.67,446.18 L 1218.13,435.55 L 1211.05,428.47 L 1200.42,417.85 L 1193.34,410.76 L 1182.72,400.14 L 1168.56,400.14 L 1154.39,393.06 L 1140.23,393.06 L 1126.06,385.98 L 1111.90,385.98 L 1090.65,385.98 L 1080.03,382.44 L 1065.86,375.35 L 1055.24,371.81 L 1041.08,364.73 L 1030.45,361.19 L 1016.29,354.11 L 1005.67,350.57 L 991.50,343.48 L 984.42,336.40 L 970.25,329.32 L 959.63,325.78 L 941.93,322.24 L 934.84,315.16 L 920.68,308.07 L 906.52,308.07 L 892.35,300.99 L 878.19,300.99 L 856.94,300.99 L 842.78,300.99 L 828.61,308.07 L 814.45,308.07 L 793.20,308.07 L 779.04,308.07 L 761.33,311.61 L 750.71,315.16 L 729.46,315.16 L 715.30,315.16 L 701.13,308.07 L 690.51,304.53 L 672.80,300.99 L 658.64,300.99 L 644.48,308.07 L 630.31,308.07 L 609.07,308.07 L 594.90,308.07 L 580.74,300.99 L 570.11,297.45 L 577.20,283.29 L 584.28,276.20 L 591.36,262.04 L 598.44,254.96 L 605.52,240.79 L 609.07,230.17 L 619.69,219.55 L 623.23,208.92 L 637.39,201.84 L 644.48,194.76 L 655.10,191.22 L 669.26,184.14 L 679.89,180.59 L 697.59,177.05 L 708.22,173.51 L 722.38,166.43 L 736.54,166.43 L 750.71,173.51 L 764.87,173.51 L 779.04,180.59 L 786.12,187.68 L 796.74,198.30 L 803.82,205.38 L 814.45,216.01 L 821.53,223.09 L 832.15,233.71 L 842.78,237.25 L 860.48,233.71 L 871.10,230.17 L 881.73,219.55 L 892.35,216.01 L 902.97,205.38 L 910.06,198.30 L 920.68,187.68 L 924.22,177.05 L 931.30,162.89 L 931.30,148.73 L 934.84,131.02 L 938.39,120.40 L 949.01,109.77 L 956.09,102.69 L 970.25,95.61 L 977.34,88.53 L 998.58,88.53 L 1005.67,95.61 L 1016.29,106.23 L 1023.37,113.31 L 1041.08,116.86 L 1051.70,113.31 L 1062.32,102.69 L 1076.49,102.69 L 1094.19,106.23 L 1104.82,109.77 L 1118.98,116.86 L 1129.60,120.40 L 1147.31,123.94 L 1154.39,131.02 L 1175.64,131.02 L 1189.80,131.02 L 1203.97,138.10 L 1218.13,138.10 L 1232.29,131.02 L 1246.46,131.02 L 1260.62,123.94 L 1271.25,120.40 L 1281.87,109.77 L 1288.95,102.69 L 1296.03,95.61 L 1306.66,84.99 L 1317.28,81.44 L 1331.44,74.36 L 1338.53,67.28 L 1352.69,60.20 L 1359.77,53.12 L 1377.48,49.58 L 1388.10,46.03 L 1402.27,53.12 L 1409.35,60.20 L 1419.97,70.82 L 1427.05,77.90 L 1437.68,88.53 L 1444.76,95.61 L 1458.92,102.69 L 1466.01,109.77 L 1483.71,113.31 L 1494.33,116.86 L 1508.50,123.94 L 1522.66,123.94 L 1536.83,131.02 L 1550.99,131.02 L 1568.70,134.56 L 1579.32,138.10 L 1593.48,145.18 L 1600.57,152.27 L 1614.73,159.35 L 1621.81,152.27 L 1643.06,152.27 L 1653.68,155.81 L 1664.31,166.43 L 1671.39,173.51 L 1685.55,180.59 L 1689.09,191.22 L 1689.09,212.46 L 1689.09,226.63 L 1689.09,247.88 L 1696.18,254.96 L 1703.26,269.12 L 1710.34,276.20 L 1720.96,286.83 L 1728.05,293.91 L 1738.67,304.53 L 1749.29,308.07 L 1759.92,318.70 L 1767.00,325.78 L 1777.62,336.40 L 1788.24,339.94 L 1798.87,350.57 L 1809.49,354.11 L 1823.65,361.19 L 1830.74,368.27 L 1841.36,378.90 L 1848.44,385.98 L 1859.07,396.60 L 1866.15,403.68 L 1873.23,410.76 L 1883.85,421.39 L 1890.93,428.47 L 1898.02,442.63 L 1905.10,449.72 L 1915.72,460.34 L 1919.26,470.96 L 1929.89,481.59 L 1936.97,488.67 L 1947.59,499.29 L 1954.67,506.37 L 1968.84,513.46 L 1975.92,520.54 L 1990.08,527.62 L 2000.71,531.16 L 2018.41,534.70 L 2032.58,534.70 L 2053.82,534.70 L 2060.91,527.62 L 2078.61,524.08 L 2089.24,520.54 L 2103.40,513.46 L 2117.56,513.46 L 2131.73,520.54 L 2142.35,524.08 L 2149.43,538.24 L 2149.43,552.41 L 2149.43,573.65 L 2149.43,587.82 L 2152.97,605.52 L 2156.52,616.15 L 2163.60,630.31 L 2167.14,640.93 L 2174.22,655.10 L 2177.76,665.72 L 2184.84,679.89 L 2191.93,686.97 L 2199.01,701.13 L 2199.01,715.30 L 2206.09,729.46 L 2206.09,743.63 L 2206.09,764.87 L 2206.09,779.04 L 2206.09,800.28 L 2206.09,814.45 L 2206.09,835.69 L 2206.09,849.86 L 2206.09,871.10 L 2206.09,885.27 L 2206.09,906.52 L 2209.63,917.14 L 2216.71,931.30 L 2223.80,938.39 L 2234.42,949.01 L 2241.50,956.09 L 2248.58,970.25 L 2255.67,977.34 L 2259.21,987.96 L 2269.83,998.58 L 2273.37,1009.21 L 2280.45,1023.37 L 2287.54,1030.45 L 2294.62,1044.62 L 2301.70,1051.70 L 2312.32,1062.32 L 2319.41,1069.41 L 2330.03,1080.03 L 2337.11,1087.11 L 2347.73,1097.73 L 2347.73,1111.90 L 2354.82,1126.06 L 2361.90,1133.14 L 2372.52,1143.77 L 2379.60,1150.85 L 2390.23,1161.47 L 2397.31,1168.56 L 2400.85,1186.26 L 2404.39,1196.88 L 2411.47,1211.05 L 2411.47,1225.21 L 2415.01,1242.92 L 2418.56,1253.54 L 2418.56,1274.79 L 2418.56,1288.95 L 2418.56,1310.20 L 2411.47,1317.28 L 2407.93,1334.99 L 2400.85,1342.07 L 2390.23,1352.69 L 2383.14,1359.77 L 2372.52,1370.40 L 2368.98,1381.02 L 2358.36,1391.64 L 2347.73,1395.18 L 2330.03,1398.73 L 2322.95,1405.81 L 2308.78,1412.89 L 2301.70,1419.97 L 2291.08,1430.59 L 2280.45,1434.14 L 2266.29,1441.22 L 2255.67,1444.76 L 2241.50,1451.84 L 2230.88,1455.38 L 2213.17,1458.92 L 2202.55,1462.46 L 2188.39,1469.55 L 2181.30,1476.63 L 2160.06,1476.63 L 2152.97,1483.71 L 2135.27,1487.25 L 2124.65,1490.79 L 2110.48,1497.88 Z"/>
</svg>