<?xml version="1.0" encoding="UTF-8"?>
<svg xmlns="http://www.w3.org/2000/svg" width="2500.0" height="1699.7167138810198" viewBox="0 0 2500.0 1699.7167138810198">
<path fill="#921209" stroke="none" d="M 2065.35,1617.99 L 2054.61,1615.14 L 2044.36,1611.32 L 2034.49,1606.54 L 2024.88,1600.78 L 2015.40,1594.08 L 2005.94,1586.47 L 1996.37,1578.05 L 1986.58,1568.89 L 1976.46,1559.11 L 1965.93,1548.84 L 1954.93,1538.23 L 1943.38,1527.44 L 1931.26,1516.61 L 1918.55,1505.90 L 1905.25,1495.47 L 1891.37,1485.45 L 1876.95,1475.96 L 1862.04,1467.10 L 1846.68,1458.95 L 1830.93,1451.56 L 1814.87,1444.95 L 1798.56,1439.11 L 1782.07,1434.00 L 1765.45,1429.57 L 1748.78,1425.74 L 1732.09,1422.38 L 1715.43,1419.40 L 1698.83,1416.66 L 1682.33,1414.03 L 1665.92,1411.37 L 1649.62,1408.57 L 1633.42,1405.50 L 1617.32,1402.09 L 1601.31,1398.24 L 1585.37,1393.91 L 1569.48,1389.07 L 1553.62,1383.71 L 1537.77,1377.87 L 1521.93,1371.57 L 1506.07,1364.89 L 1490.18,1357.92 L 1474.26,1350.74 L 1458.31,1343.45 L 1442.33,1336.18 L 1426.31,1329.01 L 1410.27,1322.05 L 1394.20,1315.38 L 1378.13,1309.07 L 1362.05,1303.18 L 1345.97,1297.72 L 1329.90,1292.72 L 1313.84,1288.16 L 1297.79,1284.00 L 1281.75,1280.19 L 1265.72,1276.65 L 1249.69,1273.31 L 1233.66,1270.06 L 1217.61,1266.82 L 1201.54,1263.49 L 1185.45,1259.97 L 1169.32,1256.19 L 1153.16,1252.07 L 1136.96,1247.57 L 1120.73,1242.65 L 1104.47,1237.31 L 1088.18,1231.56 L 1071.88,1225.42 L 1055.57,1218.95 L 1039.28,1212.20 L 1023.02,1205.27 L 1006.79,1198.24 L 990.62,1191.20 L 974.51,1184.25 L 958.48,1177.47 L 942.52,1170.95 L 926.65,1164.74 L 910.84,1158.91 L 895.11,1153.48 L 879.42,1148.47 L 863.77,1143.87 L 848.15,1139.64 L 832.51,1135.74 L 816.85,1132.10 L 801.14,1128.65 L 785.36,1125.30 L 769.49,1121.95 L 753.51,1118.51 L 737.42,1114.89 L 721.22,1111.00 L 704.90,1106.78 L 688.48,1102.17 L 671.98,1097.15 L 655.41,1091.68 L 638.80,1085.79 L 622.19,1079.51 L 605.60,1072.87 L 589.07,1065.95 L 572.63,1058.84 L 556.31,1051.62 L 540.13,1044.39 L 524.11,1037.26 L 508.26,1030.33 L 492.57,1023.69 L 477.03,1017.42 L 461.63,1011.57 L 446.32,1006.21 L 431.08,1001.34 L 415.85,996.97 L 400.58,993.06 L 385.23,989.58 L 369.74,986.44 L 354.07,983.56 L 338.17,980.84 L 322.02,978.14 L 305.61,975.36 L 288.93,972.35 L 272.00,969.00 L 254.87,965.19 L 237.59,960.81 L 220.26,955.77 L 202.96,950.00 L 185.83,943.44 L 168.99,936.07 L 152.60,927.88 L 136.81,918.88 L 121.79,909.11 L 107.70,898.62 L 94.70,887.48 L 82.94,875.77 L 72.55,863.56 L 63.65,850.96 L 56.33,838.05 L 50.65,824.91 L 46.66,811.63 L 44.36,798.27 L 43.74,784.88 L 44.75,771.52 L 47.32,758.21 L 51.36,744.98 L 56.74,731.83 L 63.33,718.76 L 70.99,705.77 L 79.56,692.84 L 88.91,679.97 L 98.88,667.14 L 109.32,654.35 L 120.12,641.62 L 131.17,628.94 L 142.37,616.34 L 153.65,603.87 L 164.96,591.56 L 176.28,579.46 L 187.59,567.65 L 198.90,556.17 L 210.24,545.10 L 221.64,534.49 L 233.13,524.40 L 244.77,514.87 L 256.60,505.93 L 268.64,497.59 L 280.94,489.82 L 293.49,482.60 L 306.32,475.87 L 319.39,469.54 L 332.67,463.50 L 346.12,457.64 L 359.67,451.81 L 373.25,445.87 L 386.76,439.64 L 400.11,432.99 L 413.22,425.76 L 425.97,417.82 L 438.30,409.05 L 450.12,399.36 L 461.39,388.70 L 472.06,377.04 L 482.11,364.41 L 491.57,350.85 L 500.46,336.45 L 508.83,321.35 L 516.78,305.71 L 524.41,289.71 L 531.83,273.59 L 539.18,257.56 L 546.59,241.87 L 554.22,226.75 L 562.20,212.43 L 570.65,199.12 L 579.70,187.00 L 589.43,176.23 L 599.93,166.91 L 611.22,159.12 L 623.32,152.87 L 636.22,148.14 L 649.87,144.85 L 664.18,142.89 L 679.05,142.11 L 694.37,142.30 L 709.98,143.26 L 725.72,144.74 L 741.45,146.50 L 757.00,148.29 L 772.22,149.86 L 786.97,151.01 L 801.14,151.53 L 814.64,151.26 L 827.40,150.09 L 839.39,147.92 L 850.61,144.72 L 861.10,140.51 L 870.93,135.34 L 880.19,129.31 L 889.00,122.54 L 897.52,115.21 L 905.90,107.51 L 914.31,99.62 L 922.91,91.76 L 931.86,84.15 L 941.34,76.96 L 951.45,70.38 L 962.33,64.55 L 974.04,59.60 L 986.65,55.60 L 1000.18,52.60 L 1014.60,50.59 L 1029.87,49.54 L 1045.93,49.37 L 1062.65,49.98 L 1079.92,51.23 L 1097.59,52.96 L 1115.51,55.01 L 1133.52,57.19 L 1151.45,59.33 L 1169.16,61.25 L 1186.51,62.82 L 1203.39,63.91 L 1219.70,64.40 L 1235.39,64.24 L 1250.42,63.39 L 1264.78,61.85 L 1278.50,59.66 L 1291.64,56.89 L 1304.28,53.64 L 1316.52,50.03 L 1328.48,46.20 L 1340.29,42.31 L 1352.09,38.53 L 1364.00,35.02 L 1376.16,31.93 L 1388.68,29.42 L 1401.66,27.60 L 1415.17,26.59 L 1429.26,26.45 L 1443.96,27.25 L 1459.24,29.01 L 1475.09,31.73 L 1491.44,35.36 L 1508.19,39.87 L 1525.24,45.19 L 1542.47,51.21 L 1559.73,57.86 L 1576.89,65.04 L 1593.80,72.64 L 1610.31,80.58 L 1626.31,88.77 L 1641.66,97.15 L 1656.28,105.68 L 1670.09,114.31 L 1683.04,123.04 L 1695.10,131.87 L 1706.28,140.83 L 1716.60,149.96 L 1726.12,159.31 L 1734.91,168.92 L 1743.07,178.87 L 1750.69,189.21 L 1757.90,199.98 L 1764.83,211.22 L 1771.59,222.97 L 1778.33,235.21 L 1785.15,247.94 L 1792.16,261.11 L 1799.48,274.66 L 1807.17,288.51 L 1815.31,302.56 L 1823.94,316.69 L 1833.11,330.76 L 1842.83,344.64 L 1853.10,358.17 L 1863.91,371.23 L 1875.24,383.66 L 1887.05,395.37 L 1899.29,406.24 L 1911.93,416.19 L 1924.91,425.18 L 1938.18,433.18 L 1951.68,440.19 L 1965.36,446.26 L 1979.17,451.45 L 1993.07,455.88 L 2007.00,459.64 L 2020.92,462.91 L 2034.80,465.84 L 2048.58,468.60 L 2062.23,471.39 L 2075.71,474.38 L 2088.96,477.77 L 2101.96,481.72 L 2114.64,486.40 L 2126.97,491.93 L 2138.90,498.44 L 2150.36,506.02 L 2161.33,514.73 L 2171.74,524.60 L 2181.55,535.65 L 2190.74,547.85 L 2199.26,561.16 L 2207.09,575.51 L 2214.24,590.81 L 2220.69,606.96 L 2226.46,623.85 L 2231.59,641.35 L 2236.12,659.33 L 2240.11,677.66 L 2243.63,696.21 L 2246.76,714.87 L 2249.61,733.52 L 2252.26,752.06 L 2254.82,770.41 L 2257.42,788.48 L 2260.14,806.21 L 2263.09,823.56 L 2266.36,840.50 L 2270.05,856.99 L 2274.20,873.03 L 2278.89,888.62 L 2284.13,903.78 L 2289.96,918.52 L 2296.36,932.88 L 2303.32,946.88 L 2310.80,960.58 L 2318.75,974.00 L 2327.09,987.21 L 2335.76,1000.25 L 2344.66,1013.18 L 2353.70,1026.05 L 2362.80,1038.93 L 2371.85,1051.87 L 2380.77,1064.94 L 2389.47,1078.18 L 2397.88,1091.65 L 2405.94,1105.41 L 2413.59,1119.50 L 2420.79,1133.97 L 2427.51,1148.84 L 2433.71,1164.13 L 2439.39,1179.88 L 2444.53,1196.07 L 2449.13,1212.70 L 2453.19,1229.74 L 2456.70,1247.15 L 2459.67,1264.90 L 2462.06,1282.91 L 2463.88,1301.10 L 2465.09,1319.40 L 2465.67,1337.71 L 2465.57,1355.93 L 2464.74,1373.95 L 2463.14,1391.66 L 2460.69,1408.97 L 2457.34,1425.77 L 2453.03,1441.98 L 2447.70,1457.50 L 2441.30,1472.29 L 2433.79,1486.27 L 2425.13,1499.41 L 2415.32,1511.70 L 2404.36,1523.12 L 2392.27,1533.69 L 2379.09,1543.42 L 2364.90,1552.37 L 2349.78,1560.57 L 2333.83,1568.08 L 2317.17,1574.96 L 2299.94,1581.26 L 2282.30,1587.03 L 2264.39,1592.33 L 2246.37,1597.20 L 2228.40,1601.66 L 2210.62,1605.72 L 2193.19,1609.39 L 2176.23,1612.64 L 2159.83,1615.45 L 2144.10,1617.77 L 2129.09,1619.55 L 2114.85,1620.73 L 2101.37,1621.22 L 2088.66,1620.98 L 2076.68,1619.92 Z"/>
</svg>