<?xml version="1.0" encoding="UTF-8"?>
<svg xmlns="http://www.w3.org/2000/svg" width="2500.0" height="1699.7167138810198" viewBox="0 0 2500.0 1699.7167138810198">
<path fill="#3ea332" stroke="none" d="M 2106.85,1484.25 L 2094.42,1484.40 L 2081.99,1484.06 L 2069.62,1483.19 L 2057.39,1481.71 L 2045.38,1479.55 L 2033.69,1476.64 L 2022.41,1472.91 L 2011.63,1468.28 L 2001.43,1462.71 L 1991.88,1456.14 L 1983.04,1448.55 L 1974.95,1439.93 L 1967.62,1430.28 L 1961.05,1419.65 L 1955.21,1408.09 L 1950.06,1395.67 L 1945.52,1382.48 L 1941.50,1368.65 L 1937.91,1354.30 L 1934.63,1339.57 L 1931.53,1324.61 L 1928.50,1309.56 L 1925.42,1294.56 L 1922.17,1279.74 L 1918.66,1265.22 L 1914.80,1251.11 L 1910.53,1237.46 L 1905.81,1224.35 L 1900.61,1211.79 L 1894.95,1199.78 L 1888.84,1188.30 L 1882.34,1177.30 L 1875.51,1166.70 L 1868.42,1156.42 L 1861.16,1146.36 L 1853.82,1136.41 L 1846.49,1126.46 L 1839.26,1116.41 L 1832.19,1106.17 L 1825.35,1095.66 L 1818.79,1084.81 L 1812.51,1073.60 L 1806.53,1062.01 L 1800.81,1050.06 L 1795.33,1037.78 L 1790.00,1025.25 L 1784.75,1012.56 L 1779.50,999.79 L 1774.14,987.09 L 1768.57,974.55 L 1762.68,962.32 L 1756.39,950.51 L 1749.62,939.21 L 1742.31,928.53 L 1734.41,918.53 L 1725.91,909.23 L 1716.82,900.64 L 1707.18,892.75 L 1697.04,885.48 L 1686.51,878.76 L 1675.68,872.46 L 1664.67,866.44 L 1653.62,860.55 L 1642.67,854.62 L 1631.95,848.49 L 1621.60,841.98 L 1611.72,834.94 L 1602.41,827.25 L 1593.75,818.80 L 1585.76,809.53 L 1578.46,799.38 L 1571.83,788.39 L 1565.80,776.59 L 1560.28,764.08 L 1555.16,750.99 L 1550.29,737.48 L 1545.51,723.75 L 1540.64,710.01 L 1535.50,696.49 L 1529.93,683.43 L 1523.74,671.03 L 1516.79,659.53 L 1508.96,649.09 L 1500.16,639.87 L 1490.32,631.97 L 1479.42,625.47 L 1467.50,620.38 L 1454.60,616.65 L 1440.83,614.20 L 1426.33,612.89 L 1411.27,612.54 L 1395.83,612.93 L 1380.23,613.81 L 1364.70,614.92 L 1349.44,615.96 L 1334.67,616.68 L 1320.61,616.80 L 1307.40,616.07 L 1295.22,614.29 L 1284.15,611.29 L 1274.26,606.93 L 1265.59,601.15 L 1258.11,593.92 L 1251.76,585.28 L 1246.43,575.30 L 1241.99,564.13 L 1238.25,551.93 L 1235.03,538.91 L 1232.12,525.31 L 1229.28,511.38 L 1226.31,497.36 L 1222.99,483.52 L 1219.13,470.08 L 1214.56,457.25 L 1209.13,445.21 L 1202.73,434.10 L 1195.30,424.01 L 1186.81,415.00 L 1177.25,407.05 L 1166.68,400.15 L 1155.17,394.20 L 1142.82,389.10 L 1129.76,384.69 L 1116.14,380.83 L 1102.10,377.34 L 1087.81,374.06 L 1073.40,370.81 L 1059.02,367.46 L 1044.77,363.88 L 1030.76,359.98 L 1017.05,355.72 L 1003.67,351.07 L 990.63,346.05 L 977.89,340.72 L 965.42,335.18 L 953.13,329.54 L 940.93,323.95 L 928.69,318.55 L 916.31,313.52 L 903.67,309.00 L 890.65,305.14 L 877.16,302.04 L 863.11,299.81 L 848.45,298.49 L 833.16,298.10 L 817.24,298.59 L 800.74,299.89 L 783.74,301.88 L 766.35,304.40 L 748.71,307.25 L 731.00,310.21 L 713.43,313.04 L 696.19,315.51 L 679.52,317.36 L 663.66,318.37 L 648.82,318.35 L 635.22,317.12 L 623.07,314.55 L 612.54,310.59 L 603.79,305.20 L 596.91,298.42 L 592.01,290.36 L 589.11,281.16 L 588.23,271.02 L 589.33,260.18 L 592.34,248.91 L 597.17,237.52 L 603.68,226.31 L 611.72,215.60 L 621.13,205.67 L 631.71,196.79 L 643.28,189.20 L 655.64,183.08 L 668.60,178.55 L 681.99,175.68 L 695.62,174.49 L 709.35,174.90 L 723.03,176.80 L 736.55,180.00 L 749.81,184.27 L 762.73,189.34 L 775.25,194.90 L 787.33,200.63 L 798.96,206.21 L 810.12,211.30 L 820.82,215.62 L 831.07,218.88 L 840.91,220.87 L 850.35,221.40 L 859.45,220.37 L 868.23,217.72 L 876.75,213.46 L 885.05,207.68 L 893.16,200.49 L 901.15,192.11 L 909.04,182.75 L 916.90,172.70 L 924.77,162.25 L 932.70,151.71 L 940.73,141.40 L 948.92,131.60 L 957.33,122.60 L 965.99,114.63 L 974.96,107.89 L 984.28,102.52 L 994.01,98.60 L 1004.16,96.18 L 1014.79,95.22 L 1025.90,95.63 L 1037.51,97.28 L 1049.61,99.98 L 1062.21,103.52 L 1075.27,107.66 L 1088.74,112.13 L 1102.60,116.67 L 1116.75,121.01 L 1131.15,124.91 L 1145.70,128.16 L 1160.31,130.57 L 1174.90,132.00 L 1189.36,132.35 L 1203.63,131.58 L 1217.60,129.69 L 1231.21,126.74 L 1244.41,122.80 L 1257.14,118.03 L 1269.38,112.59 L 1281.12,106.67 L 1292.38,100.49 L 1303.17,94.26 L 1313.55,88.20 L 1323.58,82.52 L 1333.34,77.40 L 1342.92,73.03 L 1352.40,69.52 L 1361.89,67.00 L 1371.49,65.51 L 1381.29,65.10 L 1391.36,65.75 L 1401.79,67.43 L 1412.62,70.08 L 1423.89,73.59 L 1435.61,77.85 L 1447.78,82.75 L 1460.38,88.15 L 1473.35,93.91 L 1486.63,99.93 L 1500.15,106.07 L 1513.79,112.26 L 1527.47,118.41 L 1541.08,124.47 L 1554.50,130.42 L 1567.63,136.23 L 1580.39,141.94 L 1592.68,147.57 L 1604.45,153.17 L 1615.63,158.81 L 1626.21,164.55 L 1636.18,170.48 L 1645.54,176.66 L 1654.33,183.16 L 1662.61,190.03 L 1670.43,197.33 L 1677.89,205.07 L 1685.07,213.28 L 1692.06,221.94 L 1698.97,231.03 L 1705.87,240.52 L 1712.86,250.36 L 1720.02,260.47 L 1727.39,270.80 L 1735.04,281.27 L 1742.99,291.80 L 1751.24,302.32 L 1759.81,312.76 L 1768.66,323.06 L 1777.76,333.17 L 1787.08,343.07 L 1796.55,352.71 L 1806.11,362.10 L 1815.73,371.23 L 1825.33,380.10 L 1834.86,388.75 L 1844.30,397.18 L 1853.61,405.44 L 1862.78,413.53 L 1871.80,421.49 L 1880.71,429.34 L 1889.51,437.08 L 1898.27,444.72 L 1907.03,452.25 L 1915.86,459.65 L 1924.81,466.91 L 1933.96,473.98 L 1943.38,480.82 L 1953.11,487.41 L 1963.21,493.70 L 1973.70,499.65 L 1984.60,505.23 L 1995.91,510.43 L 2007.60,515.24 L 2019.62,519.67 L 2031.92,523.75 L 2044.41,527.54 L 2056.99,531.09 L 2069.56,534.50 L 2081.98,537.87 L 2094.13,541.32 L 2105.89,544.99 L 2117.13,549.00 L 2127.75,553.51 L 2137.64,558.66 L 2146.72,564.57 L 2154.93,571.37 L 2162.22,579.16 L 2168.59,588.02 L 2174.04,598.02 L 2178.60,609.18 L 2182.32,621.51 L 2185.29,634.97 L 2187.60,649.50 L 2189.34,665.01 L 2190.65,681.40 L 2191.65,698.51 L 2192.45,716.21 L 2193.18,734.32 L 2193.96,752.67 L 2194.90,771.08 L 2196.08,789.37 L 2197.58,807.39 L 2199.47,824.98 L 2201.78,842.01 L 2204.55,858.38 L 2207.78,874.00 L 2211.47,888.81 L 2215.60,902.80 L 2220.14,915.96 L 2225.07,928.30 L 2230.34,939.90 L 2235.91,950.80 L 2241.75,961.11 L 2247.82,970.92 L 2254.08,980.34 L 2260.53,989.48 L 2267.13,998.46 L 2273.88,1007.38 L 2280.78,1016.35 L 2287.83,1025.45 L 2295.03,1034.76 L 2302.38,1044.34 L 2309.90,1054.24 L 2317.56,1064.49 L 2325.37,1075.10 L 2333.31,1086.07 L 2341.34,1097.38 L 2349.41,1109.02 L 2357.48,1120.95 L 2365.48,1133.13 L 2373.30,1145.52 L 2380.86,1158.07 L 2388.06,1170.74 L 2394.76,1183.48 L 2400.87,1196.27 L 2406.25,1209.05 L 2410.80,1221.80 L 2414.40,1234.50 L 2416.95,1247.11 L 2418.38,1259.62 L 2418.63,1272.01 L 2417.64,1284.26 L 2415.40,1296.35 L 2411.91,1308.27 L 2407.20,1319.99 L 2401.31,1331.48 L 2394.31,1342.73 L 2386.29,1353.71 L 2377.35,1364.37 L 2367.60,1374.69 L 2357.17,1384.63 L 2346.17,1394.16 L 2334.73,1403.24 L 2322.95,1411.85 L 2310.96,1419.96 L 2298.84,1427.55 L 2286.66,1434.60 L 2274.50,1441.12 L 2262.39,1447.10 L 2250.37,1452.55 L 2238.43,1457.48 L 2226.57,1461.92 L 2214.78,1465.90 L 2203.03,1469.44 L 2191.28,1472.56 L 2179.50,1475.30 L 2167.66,1477.67 L 2155.72,1479.70 L 2143.68,1481.38 L 2131.51,1482.71 L 2119.23,1483.67 Z"/>
</svg>