<?xml version="1.0" encoding="UTF-8"?>
<svg xmlns="http://www.w3.org/2000/svg" width="2500.0" height="1699.7167138810198" viewBox="0 0 2500.0 1699.7167138810198">
<path fill="#3ea332" stroke="none" d="M 2102.23,1546.80 L 2089.33,1546.37 L 2076.71,1545.50 L 2064.45,1544.17 L 2052.64,1542.35 L 2041.37,1540.00 L 2030.72,1537.07 L 2020.77,1533.52 L 2011.58,1529.31 L 2003.21,1524.38 L 1995.70,1518.71 L 1989.05,1512.26 L 1983.27,1505.01 L 1978.32,1496.94 L 1974.15,1488.08 L 1970.70,1478.43 L 1967.87,1468.03 L 1965.55,1456.94 L 1963.62,1445.21 L 1961.95,1432.92 L 1960.39,1420.17 L 1958.81,1407.06 L 1957.08,1393.68 L 1955.07,1380.14 L 1952.67,1366.54 L 1949.78,1352.98 L 1946.33,1339.55 L 1942.28,1326.32 L 1937.60,1313.36 L 1932.30,1300.71 L 1926.40,1288.40 L 1919.96,1276.45 L 1913.03,1264.83 L 1905.72,1253.53 L 1898.12,1242.51 L 1890.34,1231.71 L 1882.49,1221.07 L 1874.67,1210.52 L 1866.98,1200.00 L 1859.50,1189.44 L 1852.30,1178.77 L 1845.43,1167.95 L 1838.91,1156.94 L 1832.75,1145.71 L 1826.90,1134.26 L 1821.33,1122.61 L 1815.97,1110.77 L 1810.74,1098.80 L 1805.53,1086.76 L 1800.24,1074.72 L 1794.76,1062.76 L 1788.99,1050.96 L 1782.82,1039.40 L 1776.18,1028.18 L 1768.99,1017.35 L 1761.23,1006.97 L 1752.85,997.08 L 1743.89,987.70 L 1734.36,978.82 L 1724.33,970.43 L 1713.89,962.46 L 1703.13,954.85 L 1692.19,947.52 L 1681.19,940.35 L 1670.26,933.23 L 1659.55,926.04 L 1649.17,918.66 L 1639.25,910.97 L 1629.87,902.86 L 1621.10,894.25 L 1612.99,885.07 L 1605.54,875.28 L 1598.72,864.86 L 1592.49,853.85 L 1586.75,842.28 L 1581.39,830.24 L 1576.27,817.84 L 1571.25,805.21 L 1566.15,792.51 L 1560.80,779.90 L 1555.04,767.57 L 1548.71,755.69 L 1541.67,744.42 L 1533.80,733.92 L 1525.03,724.32 L 1515.29,715.72 L 1504.57,708.19 L 1492.90,701.76 L 1480.34,696.42 L 1466.98,692.13 L 1452.95,688.80 L 1438.42,686.30 L 1423.56,684.46 L 1408.57,683.12 L 1393.66,682.05 L 1379.02,681.03 L 1364.85,679.86 L 1351.33,678.30 L 1338.61,676.14 L 1326.82,673.22 L 1316.05,669.36 L 1306.34,664.45 L 1297.70,658.41 L 1290.11,651.20 L 1283.49,642.82 L 1277.74,633.34 L 1272.72,622.84 L 1268.26,611.46 L 1264.17,599.36 L 1260.25,586.74 L 1256.30,573.79 L 1252.12,560.74 L 1247.52,547.80 L 1242.34,535.19 L 1236.41,523.09 L 1229.63,511.67 L 1221.92,501.07 L 1213.22,491.39 L 1203.53,482.69 L 1192.88,474.98 L 1181.32,468.25 L 1168.93,462.43 L 1155.85,457.44 L 1142.19,453.15 L 1128.11,449.41 L 1113.74,446.08 L 1099.25,442.97 L 1084.77,439.94 L 1070.42,436.84 L 1056.31,433.52 L 1042.50,429.88 L 1029.06,425.86 L 1016.00,421.40 L 1003.31,416.51 L 990.95,411.21 L 978.85,405.59 L 966.92,399.73 L 955.06,393.77 L 943.14,387.86 L 931.05,382.16 L 918.66,376.84 L 905.85,372.05 L 892.53,367.94 L 878.61,364.64 L 864.05,362.23 L 848.82,360.78 L 832.92,360.30 L 816.40,360.75 L 799.34,362.08 L 781.85,364.15 L 764.06,366.81 L 746.15,369.87 L 728.30,373.09 L 710.71,376.23 L 693.61,379.04 L 677.20,381.26 L 661.69,382.66 L 647.30,383.00 L 634.21,382.10 L 622.58,379.80 L 612.56,376.01 L 604.25,370.67 L 597.72,363.80 L 593.04,355.45 L 590.20,345.77 L 589.19,334.91 L 589.96,323.12 L 592.43,310.65 L 596.50,297.80 L 602.05,284.88 L 608.94,272.23 L 617.04,260.14 L 626.19,248.94 L 636.24,238.88 L 647.04,230.20 L 658.46,223.09 L 670.35,217.66 L 682.60,213.98 L 695.10,212.05 L 707.75,211.81 L 720.47,213.14 L 733.18,215.85 L 745.83,219.72 L 758.37,224.46 L 770.75,229.78 L 782.95,235.36 L 794.93,240.87 L 806.67,245.99 L 818.16,250.43 L 829.36,253.91 L 840.28,256.21 L 850.89,257.15 L 861.18,256.61 L 871.16,254.52 L 880.81,250.89 L 890.13,245.77 L 899.15,239.28 L 907.87,231.60 L 916.32,222.94 L 924.54,213.54 L 932.58,203.68 L 940.48,193.66 L 948.32,183.75 L 956.17,174.25 L 964.09,165.41 L 972.18,157.46 L 980.51,150.60 L 989.17,144.96 L 998.23,140.64 L 1007.76,137.68 L 1017.81,136.08 L 1028.43,135.75 L 1039.65,136.59 L 1051.46,138.45 L 1063.87,141.13 L 1076.85,144.41 L 1090.34,148.07 L 1104.29,151.85 L 1118.61,155.53 L 1133.21,158.87 L 1147.98,161.67 L 1162.82,163.76 L 1177.62,165.00 L 1192.26,165.29 L 1206.66,164.58 L 1220.71,162.85 L 1234.35,160.15 L 1247.52,156.54 L 1260.17,152.15 L 1272.30,147.11 L 1283.91,141.60 L 1295.03,135.81 L 1305.71,129.93 L 1316.02,124.17 L 1326.03,118.73 L 1335.85,113.78 L 1345.57,109.49 L 1355.29,106.00 L 1365.12,103.42 L 1375.16,101.83 L 1385.48,101.27 L 1396.15,101.76 L 1407.23,103.28 L 1418.74,105.79 L 1430.70,109.21 L 1443.07,113.45 L 1455.83,118.40 L 1468.91,123.96 L 1482.24,129.99 L 1495.73,136.38 L 1509.26,143.02 L 1522.73,149.80 L 1536.03,156.64 L 1549.04,163.47 L 1561.67,170.23 L 1573.82,176.89 L 1585.42,183.44 L 1596.41,189.89 L 1606.78,196.24 L 1616.49,202.55 L 1625.57,208.84 L 1634.05,215.18 L 1641.99,221.62 L 1649.46,228.21 L 1656.56,235.01 L 1663.38,242.05 L 1670.03,249.38 L 1676.61,257.02 L 1683.24,264.98 L 1690.01,273.28 L 1697.00,281.89 L 1704.30,290.80 L 1711.94,299.98 L 1719.98,309.39 L 1728.42,319.00 L 1737.25,328.74 L 1746.45,338.58 L 1755.99,348.47 L 1765.80,358.36 L 1775.82,368.20 L 1785.97,377.98 L 1796.18,387.64 L 1806.37,397.18 L 1816.47,406.58 L 1826.43,415.81 L 1836.20,424.88 L 1845.75,433.78 L 1855.06,442.51 L 1864.14,451.06 L 1873.00,459.45 L 1881.70,467.65 L 1890.28,475.67 L 1898.81,483.50 L 1907.35,491.12 L 1916.00,498.52 L 1924.82,505.68 L 1933.90,512.59 L 1943.29,519.23 L 1953.06,525.58 L 1963.22,531.64 L 1973.81,537.39 L 1984.81,542.85 L 1996.19,548.03 L 2007.92,552.95 L 2019.91,557.67 L 2032.07,562.22 L 2044.30,566.67 L 2056.48,571.12 L 2068.47,575.64 L 2080.14,580.34 L 2091.36,585.32 L 2102.00,590.71 L 2111.94,596.59 L 2121.09,603.10 L 2129.37,610.32 L 2136.72,618.34 L 2143.10,627.25 L 2148.52,637.09 L 2152.99,647.90 L 2156.57,659.69 L 2159.31,672.45 L 2161.33,686.15 L 2162.73,700.72 L 2163.63,716.08 L 2164.18,732.12 L 2164.52,748.73 L 2164.78,765.76 L 2165.11,783.06 L 2165.64,800.48 L 2166.47,817.87 L 2167.71,835.08 L 2169.44,851.97 L 2171.71,868.39 L 2174.58,884.25 L 2178.05,899.45 L 2182.13,913.93 L 2186.79,927.62 L 2192.01,940.53 L 2197.73,952.64 L 2203.90,963.99 L 2210.46,974.63 L 2217.34,984.64 L 2224.47,994.09 L 2231.79,1003.09 L 2239.24,1011.76 L 2246.78,1020.21 L 2254.36,1028.55 L 2261.95,1036.90 L 2269.52,1045.38 L 2277.06,1054.07 L 2284.55,1063.07 L 2292.00,1072.46 L 2299.40,1082.28 L 2306.75,1092.59 L 2314.04,1103.41 L 2321.26,1114.75 L 2328.41,1126.61 L 2335.46,1138.96 L 2342.37,1151.79 L 2349.12,1165.04 L 2355.64,1178.67 L 2361.88,1192.62 L 2367.77,1206.85 L 2373.23,1221.30 L 2378.19,1235.89 L 2382.57,1250.58 L 2386.28,1265.32 L 2389.25,1280.04 L 2391.41,1294.70 L 2392.69,1309.25 L 2393.05,1323.65 L 2392.45,1337.86 L 2390.86,1351.84 L 2388.27,1365.55 L 2384.69,1378.95 L 2380.14,1392.02 L 2374.66,1404.71 L 2368.29,1417.00 L 2361.08,1428.84 L 2353.10,1440.20 L 2344.42,1451.06 L 2335.10,1461.38 L 2325.22,1471.14 L 2314.85,1480.30 L 2304.04,1488.86 L 2292.87,1496.79 L 2281.36,1504.09 L 2269.58,1510.76 L 2257.55,1516.79 L 2245.31,1522.20 L 2232.87,1527.01 L 2220.25,1531.22 L 2207.47,1534.87 L 2194.54,1537.99 L 2181.49,1540.59 L 2168.33,1542.72 L 2155.09,1544.38 L 2141.81,1545.61 L 2128.54,1546.42 L 2115.32,1546.82 Z"/>
</svg>