<?xml version="1.0" encoding="UTF-8"?>
<svg xmlns="http://www.w3.org/2000/svg" width="2500.0" height="1699.7167138810198" viewBox="0 0 2500.0 1699.7167138810198">
<path fill="#3ea332" stroke="none" d="M 2100.17,1522.96 L 2089.32,1521.64 L 2078.97,1519.66 L 2069.14,1517.00 L 2059.86,1513.64 L 2051.15,1509.55 L 2043.00,1504.71 L 2035.43,1499.10 L 2028.42,1492.70 L 2021.97,1485.51 L 2016.04,1477.53 L 2010.62,1468.76 L 2005.66,1459.24 L 2001.11,1448.99 L 1996.92,1438.05 L 1993.02,1426.50 L 1989.36,1414.39 L 1985.86,1401.81 L 1982.44,1388.85 L 1979.05,1375.60 L 1975.59,1362.16 L 1972.02,1348.65 L 1968.26,1335.15 L 1964.26,1321.77 L 1959.98,1308.58 L 1955.38,1295.67 L 1950.44,1283.10 L 1945.15,1270.91 L 1939.52,1259.13 L 1933.56,1247.78 L 1927.29,1236.84 L 1920.76,1226.29 L 1914.01,1216.09 L 1907.10,1206.18 L 1900.07,1196.50 L 1893.00,1186.97 L 1885.93,1177.53 L 1878.93,1168.07 L 1872.03,1158.55 L 1865.27,1148.88 L 1858.69,1139.01 L 1852.29,1128.90 L 1846.08,1118.52 L 1840.04,1107.87 L 1834.16,1096.96 L 1828.38,1085.81 L 1822.67,1074.48 L 1816.97,1063.02 L 1811.21,1051.51 L 1805.32,1040.03 L 1799.25,1028.67 L 1792.92,1017.52 L 1786.29,1006.66 L 1779.30,996.17 L 1771.92,986.11 L 1764.14,976.52 L 1755.95,967.44 L 1747.36,958.87 L 1738.40,950.79 L 1729.12,943.16 L 1719.58,935.92 L 1709.86,928.99 L 1700.04,922.27 L 1690.21,915.65 L 1680.47,909.00 L 1670.89,902.22 L 1661.58,895.17 L 1652.61,887.76 L 1644.03,879.88 L 1635.90,871.46 L 1628.23,862.45 L 1621.05,852.83 L 1614.32,842.59 L 1608.01,831.77 L 1602.05,820.43 L 1596.38,808.67 L 1590.89,796.60 L 1585.46,784.36 L 1579.99,772.10 L 1574.35,759.98 L 1568.41,748.17 L 1562.06,736.83 L 1555.19,726.10 L 1547.72,716.12 L 1539.56,707.00 L 1530.68,698.81 L 1521.05,691.60 L 1510.67,685.38 L 1499.58,680.12 L 1487.83,675.75 L 1475.52,672.18 L 1462.73,669.27 L 1449.61,666.87 L 1436.29,664.79 L 1422.90,662.85 L 1409.62,660.84 L 1396.57,658.57 L 1383.90,655.85 L 1371.74,652.50 L 1360.18,648.39 L 1349.32,643.40 L 1339.21,637.44 L 1329.87,630.47 L 1321.31,622.50 L 1313.49,613.55 L 1306.35,603.71 L 1299.81,593.08 L 1293.76,581.80 L 1288.07,570.05 L 1282.61,558.00 L 1277.22,545.85 L 1271.76,533.78 L 1266.07,522.00 L 1260.03,510.66 L 1253.51,499.92 L 1246.41,489.91 L 1238.65,480.71 L 1230.18,472.39 L 1220.96,464.95 L 1211.00,458.39 L 1200.32,452.64 L 1188.98,447.63 L 1177.04,443.25 L 1164.60,439.35 L 1151.76,435.80 L 1138.63,432.44 L 1125.33,429.12 L 1111.96,425.70 L 1098.64,422.06 L 1085.45,418.10 L 1072.46,413.73 L 1059.74,408.93 L 1047.31,403.69 L 1035.19,398.02 L 1023.35,392.00 L 1011.77,385.72 L 1000.37,379.28 L 989.09,372.84 L 977.83,366.55 L 966.49,360.55 L 954.96,355.01 L 943.15,350.07 L 930.95,345.86 L 918.29,342.47 L 905.08,339.97 L 891.30,338.39 L 876.91,337.72 L 861.93,337.92 L 846.39,338.89 L 830.35,340.51 L 813.92,342.62 L 797.22,345.04 L 780.39,347.55 L 763.60,349.94 L 747.04,351.99 L 730.91,353.49 L 715.41,354.25 L 700.74,354.10 L 687.09,352.91 L 674.66,350.57 L 663.62,347.06 L 654.10,342.36 L 646.23,336.54 L 640.10,329.68 L 635.78,321.94 L 633.29,313.51 L 632.64,304.59 L 633.80,295.44 L 636.70,286.32 L 641.25,277.49 L 647.34,269.20 L 654.84,261.71 L 663.61,255.21 L 673.48,249.89 L 684.28,245.89 L 695.86,243.27 L 708.03,242.08 L 720.64,242.28 L 733.53,243.80 L 746.55,246.48 L 759.59,250.16 L 772.52,254.61 L 785.24,259.57 L 797.67,264.76 L 809.75,269.90 L 821.44,274.70 L 832.68,278.88 L 843.48,282.19 L 853.82,284.41 L 863.71,285.37 L 873.17,284.93 L 882.23,283.01 L 890.92,279.61 L 899.27,274.77 L 907.35,268.56 L 915.20,261.16 L 922.87,252.74 L 930.41,243.53 L 937.89,233.80 L 945.37,223.83 L 952.89,213.89 L 960.52,204.27 L 968.32,195.23 L 976.33,187.01 L 984.61,179.81 L 993.20,173.81 L 1002.15,169.10 L 1011.48,165.77 L 1021.24,163.81 L 1031.43,163.18 L 1042.06,163.79 L 1053.15,165.51 L 1064.68,168.15 L 1076.63,171.51 L 1088.96,175.35 L 1101.65,179.44 L 1114.64,183.53 L 1127.88,187.38 L 1141.30,190.76 L 1154.83,193.49 L 1168.40,195.39 L 1181.94,196.36 L 1195.38,196.29 L 1208.64,195.16 L 1221.68,192.97 L 1234.44,189.78 L 1246.88,185.68 L 1258.96,180.80 L 1270.68,175.30 L 1282.02,169.37 L 1293.01,163.19 L 1303.66,156.99 L 1314.02,150.95 L 1324.12,145.29 L 1334.04,140.18 L 1343.83,135.78 L 1353.56,132.23 L 1363.29,129.62 L 1373.10,128.02 L 1383.05,127.48 L 1393.19,127.98 L 1403.56,129.51 L 1414.19,132.01 L 1425.09,135.38 L 1436.28,139.54 L 1447.74,144.37 L 1459.43,149.75 L 1471.31,155.56 L 1483.33,161.67 L 1495.42,167.98 L 1507.51,174.38 L 1519.52,180.80 L 1531.36,187.17 L 1542.98,193.45 L 1554.28,199.60 L 1565.22,205.64 L 1575.73,211.56 L 1585.78,217.41 L 1595.36,223.21 L 1604.44,229.02 L 1613.04,234.90 L 1621.20,240.90 L 1628.95,247.06 L 1636.35,253.45 L 1643.47,260.10 L 1650.38,267.04 L 1657.17,274.29 L 1663.92,281.84 L 1670.72,289.70 L 1677.63,297.85 L 1684.73,306.24 L 1692.08,314.85 L 1699.73,323.64 L 1707.69,332.54 L 1715.99,341.52 L 1724.62,350.53 L 1733.56,359.52 L 1742.79,368.45 L 1752.25,377.31 L 1761.89,386.06 L 1771.65,394.70 L 1781.46,403.22 L 1791.25,411.63 L 1800.97,419.95 L 1810.54,428.19 L 1819.94,436.37 L 1829.11,444.51 L 1838.05,452.65 L 1846.73,460.78 L 1855.18,468.93 L 1863.42,477.10 L 1871.49,485.28 L 1879.43,493.46 L 1887.32,501.62 L 1895.23,509.72 L 1903.22,517.72 L 1911.38,525.59 L 1919.76,533.27 L 1928.45,540.72 L 1937.47,547.90 L 1946.88,554.76 L 1956.70,561.28 L 1966.91,567.44 L 1977.51,573.23 L 1988.46,578.68 L 1999.68,583.81 L 2011.12,588.67 L 2022.66,593.33 L 2034.20,597.86 L 2045.62,602.38 L 2056.81,606.99 L 2067.63,611.81 L 2077.96,616.96 L 2087.69,622.56 L 2096.72,628.74 L 2104.96,635.60 L 2112.35,643.25 L 2118.84,651.76 L 2124.42,661.20 L 2129.08,671.60 L 2132.86,682.98 L 2135.81,695.31 L 2138.01,708.57 L 2139.54,722.67 L 2140.53,737.54 L 2141.10,753.06 L 2141.38,769.11 L 2141.51,785.53 L 2141.63,802.17 L 2141.87,818.89 L 2142.34,835.52 L 2143.18,851.92 L 2144.46,867.94 L 2146.27,883.46 L 2148.68,898.39 L 2151.70,912.62 L 2155.38,926.11 L 2159.70,938.82 L 2164.64,950.74 L 2170.17,961.89 L 2176.24,972.30 L 2182.78,982.03 L 2189.74,991.16 L 2197.02,999.78 L 2204.56,1008.01 L 2212.28,1015.95 L 2220.11,1023.71 L 2227.99,1031.42 L 2235.85,1039.17 L 2243.65,1047.09 L 2251.35,1055.25 L 2258.92,1063.74 L 2266.34,1072.62 L 2273.58,1081.95 L 2280.66,1091.76 L 2287.56,1102.07 L 2294.28,1112.89 L 2300.82,1124.20 L 2307.19,1135.98 L 2313.38,1148.20 L 2319.37,1160.82 L 2325.16,1173.79 L 2330.72,1187.07 L 2336.02,1200.59 L 2341.02,1214.31 L 2345.66,1228.16 L 2349.91,1242.10 L 2353.69,1256.07 L 2356.94,1270.03 L 2359.60,1283.92 L 2361.60,1297.72 L 2362.87,1311.37 L 2363.36,1324.85 L 2363.00,1338.11 L 2361.75,1351.13 L 2359.57,1363.87 L 2356.45,1376.30 L 2352.35,1388.39 L 2347.29,1400.11 L 2341.27,1411.43 L 2334.32,1422.32 L 2326.47,1432.75 L 2317.77,1442.70 L 2308.27,1452.14 L 2298.05,1461.04 L 2287.17,1469.39 L 2275.72,1477.17 L 2263.77,1484.36 L 2251.41,1490.96 L 2238.73,1496.95 L 2225.81,1502.34 L 2212.74,1507.12 L 2199.59,1511.30 L 2186.44,1514.86 L 2173.38,1517.83 L 2160.46,1520.20 L 2147.75,1521.96 L 2135.31,1523.13 L 2123.21,1523.69 L 2111.48,1523.64 Z"/>
</svg>