<?xml version="1.0" encoding="UTF-8"?>
<svg xmlns="http://www.w3.org/2000/svg" width="2500.0" height="1699.7167138810198" viewBox="0 0 2500.0 1699.7167138810198">
<path fill="#d68a00" stroke="none" d="M 1295.75,405.25 L 1292.27,403.86 L 1288.61,401.26 L 1284.94,397.79 L 1281.38,393.82 L 1277.97,389.69 L 1274.67,385.66 L 1271.39,381.87 L 1268.06,378.33 L 1264.61,374.95 L 1261.02,371.64 L 1257.32,368.30 L 1253.54,364.90 L 1249.72,361.48 L 1245.89,358.11 L 1242.04,354.86 L 1238.13,351.77 L 1234.12,348.83 L 1229.98,345.98 L 1225.67,343.14 L 1221.21,340.28 L 1216.63,337.45 L 1211.98,334.83 L 1207.31,332.68 L 1202.66,331.33 L 1198.08,331.11 L 1193.66,332.21 L 1189.49,334.71 L 1185.76,338.49 L 1182.69,343.27 L 1180.52,348.67 L 1179.48,354.31 L 1179.68,359.90 L 1181.11,365.26 L 1183.50,370.39 L 1186.44,375.39 L 1189.35,380.40 L 1191.59,385.51 L 1192.60,390.70 L 1192.02,395.77 L 1189.73,400.40 L 1185.94,404.16 L 1181.06,406.66 L 1175.69,407.57 L 1170.41,406.77 L 1165.71,404.32 L 1161.87,400.47 L 1158.94,395.58 L 1156.78,390.07 L 1155.14,384.27 L 1153.79,378.44 L 1152.61,372.68 L 1151.62,367.00 L 1151.01,361.34 L 1151.02,355.64 L 1151.87,349.87 L 1153.64,344.10 L 1156.16,338.43 L 1159.04,333.01 L 1161.72,327.97 L 1163.56,323.40 L 1164.03,319.29 L 1162.82,315.60 L 1159.90,312.21 L 1155.55,309.03 L 1150.29,305.97 L 1144.69,303.03 L 1139.29,300.23 L 1134.39,297.63 L 1130.06,295.30 L 1126.11,293.24 L 1122.18,291.40 L 1117.91,289.68 L 1113.01,287.92 L 1107.45,285.97 L 1101.44,283.71 L 1095.42,281.07 L 1089.96,278.07 L 1085.60,274.76 L 1082.77,271.25 L 1081.67,267.63 L 1082.24,263.96 L 1084.24,260.30 L 1087.30,256.64 L 1091.04,253.02 L 1095.18,249.47 L 1099.56,246.10 L 1104.17,243.05 L 1109.08,240.49 L 1114.38,238.57 L 1120.10,237.40 L 1126.20,237.01 L 1132.53,237.32 L 1138.91,238.16 L 1145.15,239.32 L 1151.15,240.60 L 1156.93,241.83 L 1162.59,242.96 L 1168.30,244.01 L 1174.19,245.09 L 1180.30,246.35 L 1186.47,247.93 L 1192.38,249.93 L 1197.58,252.37 L 1201.56,255.21 L 1203.93,258.38 L 1204.45,261.76 L 1203.21,265.27 L 1200.55,268.85 L 1197.10,272.48 L 1193.59,276.16 L 1190.78,279.89 L 1189.29,283.62 L 1189.47,287.28 L 1191.42,290.79 L 1194.94,294.05 L 1199.63,297.00 L 1204.97,299.63 L 1210.47,302.03 L 1215.71,304.32 L 1220.47,306.67 L 1224.66,309.24 L 1228.39,312.12 L 1231.83,315.32 L 1235.21,318.77 L 1238.71,322.32 L 1242.47,325.82 L 1246.53,329.12 L 1250.82,332.18 L 1255.24,335.03 L 1259.64,337.76 L 1263.88,340.54 L 1267.86,343.50 L 1271.52,346.76 L 1274.87,350.35 L 1277.98,354.21 L 1280.95,358.26 L 1283.89,362.41 L 1286.89,366.58 L 1289.96,370.77 L 1293.08,375.02 L 1296.11,379.39 L 1298.85,383.91 L 1301.08,388.56 L 1302.56,393.16 L 1303.11,397.47 L 1302.64,401.14 L 1301.16,403.83 L 1298.79,405.25 Z"/>
<path fill="#d68a00" stroke="none" d="M 1904.68,1410.88 L 1902.49,1410.88 L 1899.40,1409.75 L 1895.41,1407.56 L 1890.51,1404.41 L 1884.72,1400.42 L 1878.06,1395.71 L 1870.55,1390.43 L 1862.23,1384.74 L 1853.13,1378.78 L 1843.29,1372.71 L 1832.78,1366.68 L 1821.66,1360.83 L 1809.99,1355.28 L 1797.83,1350.14 L 1785.28,1345.50 L 1772.40,1341.43 L 1759.28,1337.96 L 1745.98,1335.11 L 1732.59,1332.88 L 1719.18,1331.22 L 1705.80,1330.10 L 1692.51,1329.43 L 1679.35,1329.13 L 1666.36,1329.10 L 1653.56,1329.23 L 1640.95,1329.39 L 1628.54,1329.49 L 1616.32,1329.41 L 1604.26,1329.05 L 1592.31,1328.31 L 1580.46,1327.13 L 1568.64,1325.44 L 1556.80,1323.20 L 1544.91,1320.41 L 1532.89,1317.05 L 1520.72,1313.16 L 1508.34,1308.79 L 1495.73,1303.98 L 1482.85,1298.83 L 1469.71,1293.41 L 1456.28,1287.84 L 1442.59,1282.21 L 1428.65,1276.63 L 1414.49,1271.20 L 1400.15,1266.02 L 1385.67,1261.17 L 1371.12,1256.72 L 1356.53,1252.73 L 1341.97,1249.23 L 1327.49,1246.23 L 1313.14,1243.73 L 1298.96,1241.69 L 1284.99,1240.07 L 1271.25,1238.80 L 1257.77,1237.78 L 1244.53,1236.93 L 1231.55,1236.12 L 1218.79,1235.24 L 1206.25,1234.18 L 1193.88,1232.81 L 1181.65,1231.02 L 1169.52,1228.71 L 1157.45,1225.81 L 1145.40,1222.23 L 1133.34,1217.94 L 1121.24,1212.92 L 1109.09,1207.16 L 1096.88,1200.70 L 1084.62,1193.59 L 1072.32,1185.90 L 1060.03,1177.74 L 1047.78,1169.23 L 1035.64,1160.50 L 1023.66,1151.69 L 1011.92,1142.95 L 1000.49,1134.45 L 989.46,1126.31 L 978.88,1118.70 L 968.83,1111.74 L 959.37,1105.53 L 950.54,1100.17 L 942.37,1095.72 L 934.87,1092.23 L 928.02,1089.71 L 921.82,1088.14 L 916.19,1087.47 L 911.09,1087.65 L 906.42,1088.58 L 902.09,1090.14 L 897.98,1092.21 L 893.97,1094.66 L 889.94,1097.32 L 885.75,1100.06 L 881.28,1102.72 L 876.41,1105.18 L 871.04,1107.29 L 865.08,1108.95 L 858.44,1110.07 L 851.08,1110.57 L 842.95,1110.41 L 834.06,1109.56 L 824.41,1108.01 L 814.03,1105.80 L 802.98,1102.95 L 791.32,1099.52 L 779.15,1095.58 L 766.55,1091.22 L 753.62,1086.51 L 740.48,1081.55 L 727.23,1076.41 L 713.96,1071.17 L 700.77,1065.90 L 687.73,1060.66 L 674.92,1055.48 L 662.38,1050.38 L 650.15,1045.37 L 638.25,1040.44 L 626.67,1035.56 L 615.40,1030.68 L 604.43,1025.77 L 593.70,1020.75 L 583.18,1015.57 L 572.81,1010.17 L 562.56,1004.48 L 552.37,998.47 L 542.21,992.09 L 532.04,985.34 L 521.84,978.20 L 511.61,970.69 L 501.36,962.87 L 491.11,954.78 L 480.88,946.51 L 470.74,938.16 L 460.73,929.85 L 450.93,921.70 L 441.41,913.85 L 432.24,906.43 L 423.49,899.59 L 415.23,893.46 L 407.50,888.14 L 400.36,883.75 L 393.83,880.36 L 387.92,878.02 L 382.61,876.77 L 377.87,876.59 L 373.64,877.47 L 369.85,879.34 L 366.40,882.10 L 363.17,885.65 L 360.05,889.85 L 356.90,894.55 L 353.57,899.56 L 349.93,904.73 L 345.84,909.86 L 341.16,914.77 L 335.79,919.31 L 329.62,923.31 L 322.58,926.63 L 314.62,929.15 L 305.71,930.79 L 295.85,931.46 L 285.07,931.13 L 273.43,929.78 L 261.02,927.42 L 247.94,924.09 L 234.32,919.82 L 220.33,914.71 L 206.11,908.82 L 191.84,902.26 L 177.70,895.12 L 163.87,887.50 L 150.52,879.49 L 137.82,871.19 L 125.92,862.67 L 114.96,854.00 L 105.06,845.22 L 96.32,836.40 L 88.80,827.53 L 82.57,818.64 L 77.64,809.72 L 74.04,800.77 L 71.74,791.76 L 70.70,782.67 L 70.89,773.48 L 72.23,764.15 L 74.65,754.69 L 78.06,745.06 L 82.36,735.27 L 87.48,725.32 L 93.31,715.23 L 99.76,705.03 L 106.74,694.76 L 114.18,684.46 L 121.99,674.19 L 130.12,664.00 L 138.51,653.96 L 147.10,644.13 L 155.87,634.57 L 164.77,625.32 L 173.78,616.43 L 182.89,607.91 L 192.08,599.80 L 201.35,592.09 L 210.69,584.75 L 220.10,577.78 L 229.59,571.12 L 239.14,564.72 L 248.78,558.52 L 258.49,552.45 L 268.28,546.45 L 278.15,540.44 L 288.11,534.37 L 298.14,528.18 L 308.27,521.83 L 318.47,515.30 L 328.76,508.58 L 339.13,501.68 L 349.59,494.63 L 360.13,487.49 L 370.76,480.32 L 381.47,473.21 L 392.27,466.25 L 403.16,459.56 L 414.15,453.24 L 425.22,447.41 L 436.40,442.17 L 447.66,437.62 L 459.02,433.84 L 470.47,430.91 L 482.01,428.85 L 493.64,427.69 L 505.35,427.42 L 517.14,428.00 L 529.00,429.36 L 540.93,431.43 L 552.93,434.09 L 564.98,437.21 L 577.09,440.65 L 589.25,444.25 L 601.46,447.85 L 613.73,451.31 L 626.05,454.49 L 638.42,457.24 L 650.85,459.45 L 663.35,461.06 L 675.91,461.98 L 688.55,462.20 L 701.27,461.71 L 714.08,460.55 L 726.97,458.79 L 739.94,456.52 L 753.01,453.85 L 766.15,450.91 L 779.37,447.87 L 792.65,444.87 L 805.99,442.09 L 819.36,439.66 L 832.75,437.75 L 846.13,436.48 L 859.49,435.96 L 872.79,436.27 L 886.02,437.47 L 899.16,439.60 L 912.17,442.63 L 925.03,446.55 L 937.74,451.30 L 950.26,456.78 L 962.60,462.90 L 974.72,469.55 L 986.64,476.59 L 998.34,483.91 L 1009.82,491.38 L 1021.08,498.88 L 1032.12,506.32 L 1042.94,513.61 L 1053.53,520.71 L 1063.91,527.57 L 1074.05,534.21 L 1083.97,540.63 L 1093.64,546.90 L 1103.06,553.07 L 1112.22,559.25 L 1121.10,565.54 L 1129.68,572.04 L 1137.93,578.88 L 1145.85,586.17 L 1153.40,594.00 L 1160.59,602.46 L 1167.38,611.60 L 1173.78,621.46 L 1179.79,632.03 L 1185.40,643.29 L 1190.66,655.16 L 1195.57,667.54 L 1200.18,680.29 L 1204.54,693.24 L 1208.72,706.22 L 1212.77,719.01 L 1216.78,731.39 L 1220.84,743.14 L 1225.03,754.05 L 1229.45,763.91 L 1234.19,772.53 L 1239.34,779.77 L 1244.98,785.50 L 1251.19,789.65 L 1258.02,792.16 L 1265.53,793.07 L 1273.74,792.42 L 1282.67,790.33 L 1292.31,786.93 L 1302.63,782.43 L 1313.59,777.05 L 1325.12,771.04 L 1337.15,764.68 L 1349.56,758.24 L 1362.25,752.03 L 1375.11,746.32 L 1388.01,741.37 L 1400.81,737.44 L 1413.40,734.73 L 1425.66,733.43 L 1437.48,733.65 L 1448.75,735.51 L 1459.41,739.02 L 1469.39,744.19 L 1478.65,750.96 L 1487.16,759.25 L 1494.93,768.90 L 1501.99,779.76 L 1508.37,791.62 L 1514.14,804.28 L 1519.38,817.51 L 1524.17,831.08 L 1528.62,844.76 L 1532.83,858.35 L 1536.92,871.63 L 1540.98,884.45 L 1545.11,896.65 L 1549.41,908.12 L 1553.96,918.80 L 1558.82,928.62 L 1564.04,937.59 L 1569.65,945.73 L 1575.67,953.09 L 1582.08,959.74 L 1588.87,965.79 L 1596.01,971.36 L 1603.44,976.56 L 1611.10,981.53 L 1618.93,986.40 L 1626.84,991.29 L 1634.78,996.31 L 1642.66,1001.58 L 1650.43,1007.16 L 1658.01,1013.13 L 1665.36,1019.53 L 1672.45,1026.38 L 1679.24,1033.70 L 1685.72,1041.46 L 1691.91,1049.65 L 1697.81,1058.23 L 1703.45,1067.14 L 1708.87,1076.33 L 1714.13,1085.75 L 1719.27,1095.35 L 1724.35,1105.07 L 1729.44,1114.88 L 1734.61,1124.73 L 1739.89,1134.61 L 1745.36,1144.50 L 1751.05,1154.41 L 1757.00,1164.34 L 1763.24,1174.31 L 1769.77,1184.34 L 1776.61,1194.48 L 1783.73,1204.74 L 1791.12,1215.15 L 1798.74,1225.75 L 1806.55,1236.55 L 1814.50,1247.55 L 1822.52,1258.76 L 1830.56,1270.13 L 1838.54,1281.65 L 1846.38,1293.26 L 1854.03,1304.88 L 1861.40,1316.43 L 1868.42,1327.82 L 1875.03,1338.93 L 1881.15,1349.65 L 1886.73,1359.85 L 1891.71,1369.41 L 1896.03,1378.22 L 1899.66,1386.14 L 1902.55,1393.10 L 1904.65,1398.99 L 1905.94,1403.75 L 1906.39,1407.33 L 1905.98,1409.71 Z"/>
<path fill="#d68a00" stroke="none" d="M 1904.32,703.09 L 1900.44,701.91 L 1896.31,699.72 L 1892.07,696.90 L 1887.74,693.90 L 1883.23,691.09 L 1878.43,688.71 L 1873.31,686.77 L 1867.94,685.14 L 1862.47,683.60 L 1857.06,681.95 L 1851.80,680.11 L 1846.69,678.10 L 1841.61,676.08 L 1836.41,674.20 L 1830.98,672.56 L 1825.29,671.17 L 1819.44,669.94 L 1813.56,668.73 L 1807.80,667.40 L 1802.24,665.88 L 1796.87,664.19 L 1791.62,662.37 L 1786.43,660.48 L 1781.28,658.53 L 1776.25,656.45 L 1771.47,654.13 L 1767.07,651.45 L 1763.12,648.34 L 1759.57,644.84 L 1756.28,641.09 L 1753.03,637.25 L 1749.65,633.51 L 1746.06,629.97 L 1742.27,626.62 L 1738.43,623.38 L 1734.69,620.10 L 1731.16,616.63 L 1727.88,612.89 L 1724.81,608.88 L 1721.85,604.68 L 1718.90,600.41 L 1715.93,596.21 L 1712.91,592.15 L 1709.87,588.24 L 1706.83,584.42 L 1703.79,580.54 L 1700.77,576.43 L 1697.86,571.95 L 1695.21,567.04 L 1693.12,561.79 L 1691.93,556.47 L 1691.94,551.50 L 1693.28,547.42 L 1695.83,544.77 L 1699.24,543.97 L 1702.98,545.17 L 1706.55,548.23 L 1709.58,552.71 L 1712.01,558.01 L 1714.02,563.46 L 1715.98,568.55 L 1718.25,573.02 L 1721.05,576.89 L 1724.35,580.40 L 1727.96,583.88 L 1731.60,587.57 L 1735.12,591.51 L 1738.52,595.53 L 1742.04,599.28 L 1745.99,602.33 L 1750.60,604.32 L 1755.88,605.04 L 1761.52,604.46 L 1766.99,602.63 L 1771.73,599.72 L 1775.33,595.86 L 1777.74,591.21 L 1779.28,585.94 L 1780.55,580.32 L 1782.21,574.78 L 1784.76,569.86 L 1788.35,566.12 L 1792.78,564.06 L 1797.59,563.93 L 1802.26,565.68 L 1806.39,568.97 L 1809.83,573.24 L 1812.70,577.92 L 1815.27,582.53 L 1817.85,586.85 L 1820.64,590.84 L 1823.69,594.63 L 1826.96,598.39 L 1830.36,602.18 L 1833.84,605.95 L 1837.47,609.55 L 1841.37,612.78 L 1845.64,615.54 L 1850.30,617.85 L 1855.27,619.87 L 1860.34,621.83 L 1865.31,623.97 L 1870.01,626.42 L 1874.41,629.16 L 1878.58,632.11 L 1882.64,635.13 L 1886.69,638.14 L 1890.71,641.19 L 1894.56,644.39 L 1898.05,647.95 L 1901.01,652.02 L 1903.37,656.70 L 1905.22,661.95 L 1906.75,667.63 L 1908.15,673.53 L 1909.55,679.44 L 1910.88,685.12 L 1911.91,690.39 L 1912.32,695.04 L 1911.82,698.83 L 1910.27,701.55 L 1907.69,703.00 Z"/>
<path fill="#d68a00" stroke="none" d="M 2066.56,1269.41 L 2063.72,1268.45 L 2060.67,1266.08 L 2057.48,1262.48 L 2054.31,1257.92 L 2051.36,1252.75 L 2048.82,1247.26 L 2046.76,1241.71 L 2045.15,1236.26 L 2043.81,1231.00 L 2042.49,1225.92 L 2040.93,1221.02 L 2038.92,1216.27 L 2036.36,1211.66 L 2033.32,1207.21 L 2029.98,1202.89 L 2026.62,1198.69 L 2023.51,1194.50 L 2020.87,1190.18 L 2018.82,1185.56 L 2017.37,1180.47 L 2016.42,1174.79 L 2015.82,1168.47 L 2015.40,1161.60 L 2015.06,1154.34 L 2014.75,1146.92 L 2014.50,1139.57 L 2014.37,1132.47 L 2014.47,1125.72 L 2014.87,1119.31 L 2015.59,1113.18 L 2016.64,1107.18 L 2017.93,1101.21 L 2019.40,1095.21 L 2020.92,1089.17 L 2022.41,1083.16 L 2023.75,1077.28 L 2024.88,1071.61 L 2025.71,1066.21 L 2026.16,1061.04 L 2026.17,1056.04 L 2025.66,1051.10 L 2024.59,1046.14 L 2022.97,1041.15 L 2020.79,1036.17 L 2018.13,1031.32 L 2015.06,1026.75 L 2011.68,1022.58 L 2008.08,1018.87 L 2004.33,1015.60 L 2000.49,1012.64 L 1996.60,1009.82 L 1992.69,1006.97 L 1988.76,1003.96 L 1984.80,1000.76 L 1980.79,997.45 L 1976.73,994.14 L 1972.57,991.00 L 1968.32,988.12 L 1964.00,985.47 L 1959.66,982.91 L 1955.44,980.20 L 1951.53,977.05 L 1948.15,973.20 L 1945.58,968.54 L 1944.04,963.11 L 1943.71,957.16 L 1944.64,951.09 L 1946.76,945.39 L 1949.90,940.54 L 1953.76,936.92 L 1958.05,934.74 L 1962.48,934.03 L 1966.81,934.68 L 1970.94,936.44 L 1974.84,939.01 L 1978.57,942.13 L 1982.23,945.54 L 1985.92,949.09 L 1989.73,952.64 L 1993.65,956.12 L 1997.69,959.46 L 2001.79,962.63 L 2005.90,965.62 L 2010.00,968.43 L 2014.05,971.15 L 2018.04,973.88 L 2021.94,976.79 L 2025.71,980.03 L 2029.26,983.72 L 2032.51,987.91 L 2035.36,992.57 L 2037.78,997.57 L 2039.81,1002.74 L 2041.54,1007.91 L 2043.15,1012.95 L 2044.82,1017.82 L 2046.71,1022.57 L 2048.86,1027.34 L 2051.23,1032.29 L 2053.64,1037.56 L 2055.83,1043.24 L 2057.52,1049.32 L 2058.49,1055.69 L 2058.63,1062.21 L 2057.97,1068.71 L 2056.68,1075.05 L 2055.05,1081.20 L 2053.36,1087.18 L 2051.89,1093.09 L 2050.80,1099.10 L 2050.15,1105.31 L 2049.90,1111.80 L 2049.95,1118.55 L 2050.20,1125.47 L 2050.59,1132.42 L 2051.15,1139.21 L 2051.91,1145.71 L 2052.96,1151.84 L 2054.36,1157.57 L 2056.07,1162.96 L 2058.03,1168.13 L 2060.08,1173.19 L 2062.06,1178.25 L 2063.88,1183.37 L 2065.52,1188.58 L 2067.07,1193.84 L 2068.70,1199.10 L 2070.62,1204.27 L 2072.99,1209.27 L 2075.84,1214.05 L 2079.07,1218.56 L 2082.39,1222.81 L 2085.44,1226.83 L 2087.79,1230.72 L 2089.13,1234.56 L 2089.28,1238.49 L 2088.24,1242.57 L 2086.23,1246.87 L 2083.54,1251.35 L 2080.53,1255.86 L 2077.49,1260.19 L 2074.59,1264.02 L 2071.87,1267.03 L 2069.24,1268.90 Z"/>
</svg>