<?xml version="1.0" encoding="UTF-8"?>
<svg xmlns="http://www.w3.org/2000/svg" width="2500.0" height="1699.7167138810198" viewBox="0 0 2500.0 1699.7167138810198">
<path fill="#2ea332" stroke="none" d="M 2108.07,1561.10 L 2090.60,1556.39 L 2073.31,1549.71 L 2056.52,1541.17 L 2040.57,1530.92 L 2025.82,1519.15 L 2012.61,1506.07 L 2001.25,1491.90 L 1992.01,1476.87 L 1985.10,1461.23 L 1980.63,1445.20 L 1978.66,1428.98 L 1979.12,1412.75 L 1981.88,1396.68 L 1986.71,1380.89 L 1993.30,1365.48 L 2001.32,1350.50 L 2010.37,1336.01 L 2020.07,1322.02 L 2030.05,1308.52 L 2039.95,1295.49 L 2049.50,1282.91 L 2058.47,1270.72 L 2066.73,1258.88 L 2074.21,1247.34 L 2080.93,1236.04 L 2086.96,1224.92 L 2092.45,1213.92 L 2097.53,1202.97 L 2102.38,1192.01 L 2107.16,1180.98 L 2111.97,1169.80 L 2116.87,1158.41 L 2121.86,1146.76 L 2126.86,1134.81 L 2131.70,1122.54 L 2136.15,1109.93 L 2139.94,1097.02 L 2142.73,1083.86 L 2144.20,1070.55 L 2144.02,1057.20 L 2141.90,1043.99 L 2137.65,1031.09 L 2131.13,1018.74 L 2122.34,1007.15 L 2111.38,996.58 L 2098.46,987.27 L 2083.94,979.43 L 2068.24,973.26 L 2051.89,968.92 L 2035.43,966.51 L 2019.44,966.07 L 2004.48,967.59 L 1991.04,970.96 L 1979.52,976.04 L 1970.22,982.60 L 1963.29,990.38 L 1958.73,999.05 L 1956.40,1008.27 L 1956.02,1017.68 L 1957.17,1026.91 L 1959.36,1035.61 L 1962.00,1043.48 L 1964.51,1050.24 L 1966.29,1055.68 L 1966.81,1059.63 L 1965.61,1062.02 L 1962.37,1062.82 L 1956.87,1062.06 L 1949.05,1059.85 L 1939.00,1056.33 L 1926.95,1051.68 L 1913.25,1046.10 L 1898.33,1039.80 L 1882.69,1033.02 L 1866.88,1025.95 L 1851.40,1018.78 L 1836.72,1011.67 L 1823.24,1004.75 L 1811.24,998.10 L 1800.88,991.78 L 1792.20,985.82 L 1785.10,980.19 L 1779.37,974.88 L 1774.69,969.81 L 1770.67,964.91 L 1766.90,960.11 L 1762.92,955.31 L 1758.32,950.42 L 1752.74,945.35 L 1745.91,940.02 L 1737.64,934.36 L 1727.88,928.28 L 1716.66,921.73 L 1704.16,914.66 L 1690.63,907.02 L 1676.38,898.77 L 1661.82,889.89 L 1647.32,880.37 L 1633.28,870.23 L 1620.04,859.48 L 1607.87,848.17 L 1596.98,836.36 L 1587.45,824.14 L 1579.29,811.61 L 1572.37,798.92 L 1566.50,786.19 L 1561.40,773.59 L 1556.76,761.29 L 1552.22,749.43 L 1547.43,738.17 L 1542.07,727.64 L 1535.87,717.95 L 1528.62,709.17 L 1520.22,701.33 L 1510.62,694.42 L 1499.89,688.40 L 1488.17,683.18 L 1475.66,678.62 L 1462.63,674.59 L 1449.36,670.91 L 1436.15,667.42 L 1423.26,663.95 L 1410.95,660.36 L 1399.39,656.54 L 1388.71,652.43 L 1378.98,648.02 L 1370.17,643.33 L 1362.23,638.46 L 1355.03,633.54 L 1348.41,628.74 L 1342.21,624.27 L 1336.25,620.31 L 1330.39,617.09 L 1324.50,614.76 L 1318.50,613.45 L 1312.36,613.22 L 1306.10,614.08 L 1299.76,615.95 L 1293.43,618.64 L 1287.20,621.93 L 1281.17,625.50 L 1275.42,628.97 L 1269.98,631.95 L 1264.85,634.01 L 1259.95,634.74 L 1255.15,633.77 L 1250.26,630.79 L 1245.03,625.58 L 1239.18,617.98 L 1232.42,608.00 L 1224.45,595.71 L 1215.04,581.32 L 1203.98,565.14 L 1191.20,547.57 L 1176.71,529.06 L 1160.64,510.09 L 1143.26,491.19 L 1124.97,472.82 L 1106.28,455.42 L 1087.79,439.34 L 1070.17,424.85 L 1054.11,412.08 L 1040.30,401.07 L 1029.35,391.73 L 1021.81,383.88 L 1018.05,377.21 L 1018.32,371.39 L 1022.65,366.01 L 1030.88,360.66 L 1042.68,354.95 L 1057.49,348.53 L 1074.63,341.13 L 1093.28,332.58 L 1112.52,322.80 L 1131.43,311.83 L 1149.07,299.83 L 1164.59,287.06 L 1177.25,273.87 L 1186.44,260.68 L 1191.76,247.95 L 1192.98,236.13 L 1190.09,225.68 L 1183.28,217.00 L 1172.91,210.43 L 1159.50,206.20 L 1143.67,204.46 L 1126.12,205.23 L 1107.56,208.44 L 1088.68,213.90 L 1070.11,221.35 L 1052.36,230.45 L 1035.81,240.83 L 1020.71,252.10 L 1007.11,263.85 L 994.96,275.73 L 984.04,287.41 L 974.02,298.64 L 964.53,309.21 L 955.13,319.02 L 945.39,328.00 L 934.92,336.14 L 923.44,343.50 L 910.73,350.13 L 896.73,356.12 L 881.50,361.52 L 865.27,366.37 L 848.37,370.66 L 831.24,374.35 L 814.43,377.33 L 798.51,379.45 L 784.07,380.52 L 771.70,380.31 L 761.88,378.60 L 755.03,375.17 L 751.43,369.84 L 751.23,362.46 L 754.44,352.97 L 760.91,341.40 L 770.36,327.86 L 782.40,312.54 L 796.53,295.77 L 812.20,277.90 L 828.85,259.40 L 845.90,240.74 L 862.82,222.44 L 879.17,205.00 L 894.56,188.87 L 908.75,174.45 L 921.59,162.07 L 933.05,151.92 L 943.22,144.13 L 952.28,138.66 L 960.48,135.39 L 968.14,134.10 L 975.59,134.46 L 983.20,136.10 L 991.29,138.58 L 1000.16,141.47 L 1010.04,144.35 L 1021.12,146.82 L 1033.50,148.57 L 1047.21,149.32 L 1062.23,148.93 L 1078.48,147.30 L 1095.82,144.47 L 1114.10,140.51 L 1133.13,135.61 L 1152.73,129.98 L 1172.74,123.88 L 1192.99,117.58 L 1213.36,111.36 L 1233.74,105.46 L 1254.05,100.10 L 1274.25,95.45 L 1294.30,91.64 L 1314.19,88.73 L 1333.90,86.76 L 1353.42,85.71 L 1372.76,85.54 L 1391.87,86.20 L 1410.73,87.63 L 1429.30,89.79 L 1447.54,92.62 L 1465.40,96.14 L 1482.82,100.35 L 1499.78,105.30 L 1516.26,111.05 L 1532.26,117.69 L 1547.80,125.28 L 1562.92,133.92 L 1577.71,143.63 L 1592.25,154.45 L 1606.64,166.34 L 1620.98,179.24 L 1635.38,193.00 L 1649.92,207.47 L 1664.64,222.43 L 1679.57,237.63 L 1694.67,252.82 L 1709.87,267.72 L 1725.04,282.11 L 1740.01,295.77 L 1754.58,308.56 L 1768.51,320.37 L 1781.56,331.20 L 1793.48,341.11 L 1804.04,350.20 L 1813.04,358.69 L 1820.35,366.80 L 1825.90,374.81 L 1829.66,382.98 L 1831.73,391.59 L 1832.26,400.84 L 1831.47,410.90 L 1829.68,421.85 L 1827.24,433.68 L 1824.54,446.29 L 1822.01,459.49 L 1820.08,472.98 L 1819.15,486.42 L 1819.58,499.41 L 1821.71,511.53 L 1825.77,522.36 L 1831.95,531.54 L 1840.34,538.75 L 1850.94,543.79 L 1863.70,546.58 L 1878.47,547.13 L 1895.03,545.64 L 1913.12,542.39 L 1932.45,537.82 L 1952.69,532.45 L 1973.49,526.88 L 1994.52,521.74 L 2015.47,517.69 L 2036.01,515.32 L 2055.88,515.19 L 2074.84,517.75 L 2092.68,523.33 L 2109.24,532.10 L 2124.38,544.11 L 2138.02,559.24 L 2150.10,577.24 L 2160.61,597.75 L 2169.57,620.30 L 2177.04,644.37 L 2183.12,669.40 L 2187.92,694.85 L 2191.62,720.20 L 2194.42,745.04 L 2196.55,769.01 L 2198.28,791.89 L 2199.88,813.58 L 2201.65,834.08 L 2203.89,853.51 L 2206.89,872.09 L 2210.91,890.07 L 2216.19,907.78 L 2222.89,925.52 L 2231.12,943.58 L 2240.90,962.18 L 2252.19,981.49 L 2264.83,1001.53 L 2278.57,1022.24 L 2293.09,1043.44 L 2307.98,1064.84 L 2322.79,1086.05 L 2337.02,1106.62 L 2350.14,1126.05 L 2361.66,1143.82 L 2371.11,1159.45 L 2378.09,1172.49 L 2382.27,1182.62 L 2383.47,1189.59 L 2381.59,1193.29 L 2376.69,1193.77 L 2368.94,1191.22 L 2358.64,1185.96 L 2346.22,1178.44 L 2332.18,1169.22 L 2317.10,1158.94 L 2301.59,1148.28 L 2286.28,1137.94 L 2271.76,1128.58 L 2258.57,1120.84 L 2247.18,1115.26 L 2237.94,1112.27 L 2231.11,1112.21 L 2226.79,1115.26 L 2224.97,1121.50 L 2225.53,1130.88 L 2228.22,1143.23 L 2232.72,1158.28 L 2238.63,1175.71 L 2245.50,1195.13 L 2252.88,1216.13 L 2260.31,1238.29 L 2267.39,1261.20 L 2273.72,1284.48 L 2278.99,1307.81 L 2282.98,1330.88 L 2285.49,1353.47 L 2286.43,1375.39 L 2285.76,1396.51 L 2283.50,1416.71 L 2279.70,1435.93 L 2274.44,1454.10 L 2267.81,1471.18 L 2259.91,1487.11 L 2250.83,1501.83 L 2240.63,1515.26 L 2229.38,1527.30 L 2217.13,1537.85 L 2203.91,1546.81 L 2189.77,1554.04 L 2174.76,1559.44 L 2158.96,1562.91 L 2142.47,1564.37 L 2125.44,1563.77 Z"/>
<path fill="#2ea332" stroke="none" d="M 607.57,390.28 L 604.81,389.99 L 600.95,389.12 L 595.86,387.51 L 590.04,385.07 L 584.35,381.81 L 579.56,378.04 L 575.96,374.27 L 573.25,371.16 L 570.73,369.18 L 567.68,368.42 L 563.77,368.45 L 559.22,368.43 L 554.77,367.48 L 551.33,365.02 L 549.64,361.06 L 550.00,356.13 L 552.21,351.07 L 555.65,346.54 L 559.56,342.79 L 563.25,339.51 L 566.34,336.08 L 568.71,331.93 L 570.53,326.83 L 572.10,321.02 L 573.70,315.05 L 575.57,309.50 L 577.78,304.65 L 580.31,300.43 L 583.06,296.49 L 585.91,292.44 L 588.74,288.07 L 591.48,283.41 L 594.07,278.62 L 596.47,273.85 L 598.66,269.13 L 600.62,264.31 L 602.43,259.26 L 604.22,253.97 L 606.17,248.64 L 608.43,243.54 L 611.06,238.94 L 614.00,234.84 L 617.06,231.03 L 620.01,227.14 L 622.72,222.88 L 625.22,218.21 L 627.71,213.40 L 630.44,208.84 L 633.64,204.88 L 637.35,201.62 L 641.45,198.86 L 645.73,196.25 L 649.99,193.48 L 654.19,190.45 L 658.40,187.36 L 662.84,184.53 L 667.69,182.26 L 673.01,180.64 L 678.71,179.52 L 684.64,178.58 L 690.58,177.50 L 696.43,176.10 L 702.13,174.41 L 707.72,172.57 L 713.24,170.82 L 718.70,169.33 L 724.11,168.27 L 729.50,167.75 L 734.88,167.90 L 740.27,168.80 L 745.65,170.50 L 750.93,172.86 L 755.97,175.64 L 760.67,178.48 L 765.05,181.11 L 769.25,183.43 L 773.48,185.62 L 777.84,188.05 L 782.20,191.13 L 786.14,195.14 L 789.04,200.02 L 790.28,205.44 L 789.53,210.86 L 786.87,215.72 L 782.76,219.66 L 777.87,222.63 L 772.82,224.84 L 768.00,226.69 L 763.49,228.62 L 759.17,230.93 L 754.93,233.76 L 750.76,237.05 L 746.75,240.64 L 743.06,244.34 L 739.71,247.99 L 736.59,251.56 L 733.45,255.07 L 730.06,258.56 L 726.29,262.03 L 722.21,265.44 L 717.98,268.67 L 713.76,271.64 L 709.62,274.34 L 705.53,276.91 L 701.42,279.56 L 697.33,282.55 L 693.42,286.04 L 689.91,290.04 L 686.97,294.44 L 684.57,299.02 L 682.47,303.61 L 680.33,308.12 L 677.87,312.57 L 675.03,317.03 L 671.97,321.53 L 668.97,326.02 L 666.21,330.40 L 663.69,334.61 L 661.24,338.69 L 658.67,342.83 L 655.97,347.29 L 653.33,352.26 L 651.11,357.75 L 649.50,363.53 L 648.37,369.20 L 647.16,374.32 L 645.08,378.57 L 641.47,381.87 L 636.20,384.32 L 629.76,386.16 L 623.13,387.59 L 617.34,388.71 L 612.98,389.57 L 609.97,390.11 Z"/>
</svg>