<?xml version="1.0" encoding="UTF-8"?>
<svg xmlns="http://www.w3.org/2000/svg" width="2500.0" height="1699.7167138810198" viewBox="0 0 2500.0 1699.7167138810198">
<rect x="0" y="0" width="1" height="1" fill="#374806"/>
<rect x="2499.0" y="1698.7167138810198" width="1" height="1" fill="#374806"/>
<path fill="#374806" stroke="none" d="M 1095.32,483.59 L 1093.59,482.94 L 1091.06,481.90 L 1087.77,480.51 L 1083.76,478.83 L 1079.08,476.91 L 1073.83,474.80 L 1068.06,472.55 L 1061.89,470.21 L 1055.39,467.81 L 1048.66,465.38 L 1041.80,462.95 L 1034.87,460.52 L 1027.98,458.10 L 1021.17,455.70 L 1014.50,453.29 L 1008.01,450.87 L 1001.73,448.43 L 995.67,445.94 L 989.84,443.39 L 984.22,440.76 L 978.78,438.05 L 973.50,435.26 L 968.33,432.38 L 963.24,429.43 L 958.17,426.42 L 953.07,423.39 L 947.90,420.36 L 942.61,417.37 L 937.16,414.47 L 931.52,411.71 L 925.67,409.12 L 919.58,406.77 L 913.24,404.68 L 906.65,402.90 L 899.82,401.46 L 892.74,400.39 L 885.45,399.69 L 877.96,399.36 L 870.28,399.41 L 862.46,399.80 L 854.51,400.50 L 846.47,401.49 L 838.36,402.70 L 830.20,404.09 L 822.02,405.59 L 813.84,407.14 L 805.68,408.68 L 797.57,410.14 L 789.51,411.47 L 781.53,412.61 L 773.66,413.52 L 765.90,414.16 L 758.30,414.48 L 750.87,414.48 L 743.65,414.14 L 736.68,413.45 L 730.00,412.41 L 723.65,411.02 L 717.70,409.31 L 712.19,407.29 L 707.18,404.97 L 702.73,402.38 L 698.88,399.52 L 695.70,396.43 L 693.23,393.11 L 691.50,389.57 L 690.54,385.82 L 690.38,381.86 L 691.00,377.70 L 692.41,373.34 L 694.57,368.77 L 697.43,363.99 L 700.94,359.01 L 705.01,353.83 L 709.56,348.46 L 714.48,342.91 L 719.65,337.20 L 724.94,331.37 L 730.23,325.46 L 735.38,319.50 L 740.27,313.55 L 744.76,307.68 L 748.73,301.94 L 752.09,296.42 L 754.74,291.18 L 756.61,286.30 L 757.64,281.85 L 757.81,277.90 L 757.10,274.52 L 755.54,271.76 L 753.15,269.67 L 750.00,268.28 L 746.16,267.62 L 741.74,267.69 L 736.82,268.50 L 731.55,270.02 L 726.03,272.22 L 720.41,275.07 L 714.80,278.52 L 709.32,282.50 L 704.09,286.96 L 699.21,291.82 L 694.75,297.01 L 690.77,302.47 L 687.33,308.12 L 684.43,313.90 L 682.08,319.75 L 680.25,325.62 L 678.90,331.47 L 677.96,337.25 L 677.35,342.93 L 676.98,348.49 L 676.74,353.92 L 676.51,359.18 L 676.19,364.29 L 675.66,369.22 L 674.80,373.96 L 673.53,378.52 L 671.74,382.88 L 669.38,387.03 L 666.38,390.95 L 662.70,394.62 L 658.34,398.02 L 653.30,401.12 L 647.60,403.89 L 641.29,406.30 L 634.45,408.31 L 627.14,409.90 L 619.48,411.03 L 611.56,411.68 L 603.51,411.83 L 595.44,411.47 L 587.47,410.59 L 579.74,409.19 L 572.34,407.29 L 565.40,404.90 L 558.99,402.06 L 553.21,398.80 L 548.13,395.17 L 543.79,391.22 L 540.22,386.99 L 537.45,382.54 L 535.48,377.93 L 534.29,373.19 L 533.85,368.38 L 534.13,363.53 L 535.06,358.67 L 536.60,353.83 L 538.67,349.00 L 541.20,344.20 L 544.12,339.42 L 547.35,334.63 L 550.84,329.81 L 554.51,324.95 L 558.31,319.99 L 562.17,314.92 L 566.07,309.70 L 569.95,304.30 L 573.78,298.71 L 577.56,292.92 L 581.24,286.93 L 584.84,280.75 L 588.34,274.41 L 591.73,267.94 L 595.03,261.42 L 598.23,254.88 L 601.34,248.42 L 604.36,242.12 L 607.29,236.06 L 610.12,230.34 L 612.87,225.05 L 615.53,220.27 L 618.08,216.09 L 620.52,212.57 L 622.83,209.78 L 625.02,207.74 L 627.07,206.49 L 628.97,206.03 L 630.71,206.35 L 632.30,207.41 L 633.72,209.17 L 634.99,211.56 L 636.12,214.49 L 637.13,217.88 L 638.03,221.63 L 638.86,225.63 L 639.64,229.78 L 640.43,233.97 L 641.26,238.10 L 642.17,242.08 L 643.22,245.83 L 644.45,249.29 L 645.91,252.38 L 647.64,255.08 L 649.69,257.36 L 652.08,259.20 L 654.83,260.61 L 657.98,261.59 L 661.52,262.17 L 665.46,262.37 L 669.78,262.23 L 674.46,261.78 L 679.46,261.04 L 684.76,260.05 L 690.29,258.83 L 696.01,257.40 L 701.85,255.78 L 707.74,253.97 L 713.62,251.96 L 719.42,249.77 L 725.08,247.36 L 730.53,244.75 L 735.73,241.90 L 740.61,238.82 L 745.15,235.51 L 749.30,231.96 L 753.06,228.20 L 756.42,224.24 L 759.37,220.12 L 761.94,215.89 L 764.14,211.61 L 766.01,207.35 L 767.60,203.20 L 768.94,199.24 L 770.11,195.57 L 771.14,192.28 L 772.12,189.47 L 773.09,187.21 L 774.11,185.59 L 775.25,184.67 L 776.55,184.50 L 778.06,185.08 L 779.82,186.44 L 781.86,188.54 L 784.20,191.34 L 786.87,194.76 L 789.87,198.73 L 793.20,203.12 L 796.85,207.80 L 800.82,212.64 L 805.07,217.48 L 809.60,222.17 L 814.37,226.56 L 819.36,230.52 L 824.52,233.92 L 829.84,236.64 L 835.28,238.60 L 840.80,239.74 L 846.38,240.03 L 851.98,239.47 L 857.58,238.09 L 863.14,235.95 L 868.64,233.14 L 874.05,229.76 L 879.34,225.95 L 884.48,221.85 L 889.45,217.63 L 894.20,213.44 L 898.70,209.45 L 902.92,205.81 L 906.82,202.65 L 910.36,200.11 L 913.50,198.28 L 916.20,197.22 L 918.41,197.00 L 920.10,197.63 L 921.22,199.09 L 921.74,201.34 L 921.63,204.33 L 920.87,207.97 L 919.44,212.14 L 917.34,216.75 L 914.57,221.66 L 911.14,226.74 L 907.08,231.89 L 902.42,236.97 L 897.23,241.91 L 891.55,246.60 L 885.46,250.99 L 879.04,255.04 L 872.38,258.72 L 865.58,262.06 L 858.74,265.06 L 851.95,267.79 L 845.33,270.29 L 838.97,272.65 L 832.96,274.95 L 827.40,277.27 L 822.36,279.69 L 817.92,282.30 L 814.11,285.15 L 811.00,288.30 L 808.60,291.77 L 806.94,295.58 L 806.00,299.71 L 805.77,304.13 L 806.24,308.78 L 807.35,313.58 L 809.06,318.44 L 811.31,323.25 L 814.05,327.90 L 817.20,332.26 L 820.70,336.22 L 824.48,339.67 L 828.48,342.49 L 832.65,344.60 L 836.92,345.94 L 841.26,346.46 L 845.64,346.13 L 850.01,344.97 L 854.37,343.00 L 858.71,340.28 L 863.02,336.88 L 867.31,332.90 L 871.59,328.46 L 875.88,323.69 L 880.20,318.71 L 884.56,313.66 L 889.00,308.67 L 893.52,303.86 L 898.15,299.35 L 902.90,295.22 L 907.78,291.56 L 912.79,288.41 L 917.94,285.81 L 923.20,283.75 L 928.57,282.23 L 934.04,281.20 L 939.59,280.61 L 945.19,280.38 L 950.81,280.45 L 956.45,280.71 L 962.06,281.08 L 967.64,281.46 L 973.16,281.79 L 978.62,281.99 L 984.00,281.99 L 989.30,281.77 L 994.52,281.30 L 999.66,280.58 L 1004.74,279.62 L 1009.75,278.47 L 1014.72,277.17 L 1019.66,275.79 L 1024.58,274.42 L 1029.48,273.14 L 1034.37,272.04 L 1039.25,271.21 L 1044.12,270.74 L 1048.95,270.71 L 1053.73,271.18 L 1058.44,272.22 L 1063.02,273.86 L 1067.44,276.12 L 1071.66,279.01 L 1075.61,282.50 L 1079.25,286.58 L 1082.52,291.19 L 1085.36,296.28 L 1087.72,301.77 L 1089.57,307.59 L 1090.87,313.67 L 1091.58,319.91 L 1091.71,326.24 L 1091.26,332.60 L 1090.24,338.91 L 1088.68,345.12 L 1086.64,351.20 L 1084.17,357.12 L 1081.36,362.85 L 1078.28,368.41 L 1075.03,373.79 L 1071.72,379.01 L 1068.45,384.11 L 1065.33,389.11 L 1062.47,394.06 L 1059.95,398.97 L 1057.87,403.88 L 1056.30,408.83 L 1055.30,413.82 L 1054.91,418.87 L 1055.16,423.98 L 1056.04,429.13 L 1057.53,434.31 L 1059.61,439.49 L 1062.20,444.61 L 1065.23,449.64 L 1068.61,454.52 L 1072.23,459.19 L 1075.98,463.59 L 1079.74,467.66 L 1083.38,471.35 L 1086.77,474.62 L 1089.81,477.42 L 1092.38,479.73 L 1094.39,481.52 L 1095.74,482.79 L 1096.37,483.55 L 1096.24,483.81 Z"/>
<path fill="#374806" stroke="none" d="M 1711.55,746.13 L 1707.14,745.83 L 1702.45,744.75 L 1697.57,743.03 L 1692.61,740.81 L 1687.67,738.23 L 1682.85,735.45 L 1678.21,732.56 L 1673.79,729.67 L 1669.61,726.80 L 1665.62,723.96 L 1661.79,721.13 L 1658.05,718.26 L 1654.36,715.30 L 1650.66,712.19 L 1646.94,708.90 L 1643.19,705.42 L 1639.44,701.77 L 1635.72,697.98 L 1632.06,694.10 L 1628.49,690.19 L 1625.04,686.32 L 1621.70,682.53 L 1618.47,678.83 L 1615.31,675.23 L 1612.21,671.66 L 1609.15,668.07 L 1606.15,664.37 L 1603.22,660.45 L 1600.42,656.23 L 1597.80,651.63 L 1595.44,646.62 L 1593.38,641.21 L 1591.64,635.46 L 1590.18,629.47 L 1588.92,623.40 L 1587.72,617.43 L 1586.41,611.75 L 1584.77,606.53 L 1582.61,601.95 L 1579.75,598.10 L 1576.09,595.03 L 1571.58,592.73 L 1566.27,591.11 L 1560.30,590.01 L 1553.90,589.22 L 1547.30,588.52 L 1540.78,587.65 L 1534.61,586.41 L 1528.98,584.62 L 1524.02,582.16 L 1519.79,579.00 L 1516.27,575.20 L 1513.38,570.89 L 1511.00,566.28 L 1509.03,561.62 L 1507.39,557.21 L 1506.05,553.31 L 1505.08,550.18 L 1504.57,548.01 L 1504.71,546.91 L 1505.68,546.90 L 1507.65,547.90 L 1510.73,549.74 L 1514.95,552.19 L 1520.22,554.95 L 1526.32,557.69 L 1532.96,560.08 L 1539.74,561.83 L 1546.27,562.67 L 1552.14,562.42 L 1557.05,560.97 L 1560.78,558.30 L 1563.29,554.47 L 1564.65,549.64 L 1565.08,544.00 L 1564.89,537.82 L 1564.44,531.38 L 1564.09,525.01 L 1564.14,519.00 L 1564.80,513.65 L 1566.16,509.22 L 1568.18,505.93 L 1570.72,503.92 L 1573.54,503.30 L 1576.42,504.10 L 1579.10,506.27 L 1581.42,509.71 L 1583.31,514.23 L 1584.78,519.62 L 1585.98,525.63 L 1587.09,531.96 L 1588.38,538.34 L 1590.05,544.53 L 1592.29,550.30 L 1595.17,555.49 L 1598.66,560.04 L 1602.60,563.91 L 1606.74,567.18 L 1610.74,569.95 L 1614.28,572.41 L 1617.03,574.74 L 1618.77,577.13 L 1619.39,579.76 L 1618.91,582.74 L 1617.49,586.17 L 1615.41,590.06 L 1613.01,594.36 L 1610.69,599.00 L 1608.79,603.85 L 1607.62,608.78 L 1607.37,613.67 L 1608.11,618.41 L 1609.81,622.93 L 1612.32,627.23 L 1615.45,631.32 L 1618.95,635.26 L 1622.60,639.13 L 1626.23,643.02 L 1629.72,647.00 L 1633.05,651.09 L 1636.25,655.30 L 1639.40,659.55 L 1642.61,663.74 L 1645.99,667.73 L 1649.60,671.32 L 1653.45,674.33 L 1657.48,676.60 L 1661.59,677.98 L 1665.59,678.38 L 1669.30,677.76 L 1672.54,676.13 L 1675.14,673.56 L 1676.99,670.17 L 1678.05,666.10 L 1678.31,661.50 L 1677.86,656.54 L 1676.79,651.35 L 1675.23,646.05 L 1673.30,640.73 L 1671.12,635.43 L 1668.75,630.19 L 1666.26,625.03 L 1663.67,619.95 L 1661.00,614.94 L 1658.28,610.02 L 1655.57,605.19 L 1652.94,600.47 L 1650.53,595.90 L 1648.48,591.51 L 1646.97,587.34 L 1646.16,583.45 L 1646.22,579.87 L 1647.24,576.63 L 1649.25,573.80 L 1652.24,571.40 L 1656.10,569.47 L 1660.65,568.08 L 1665.70,567.25 L 1671.01,567.04 L 1676.36,567.49 L 1681.55,568.62 L 1686.44,570.44 L 1690.92,572.94 L 1694.94,576.08 L 1698.50,579.77 L 1701.61,583.92 L 1704.31,588.39 L 1706.61,593.07 L 1708.51,597.80 L 1710.00,602.47 L 1711.03,606.98 L 1711.56,611.27 L 1711.56,615.32 L 1711.02,619.14 L 1709.97,622.80 L 1708.51,626.38 L 1706.78,629.96 L 1704.99,633.64 L 1703.37,637.50 L 1702.14,641.60 L 1701.53,645.94 L 1701.69,650.52 L 1702.73,655.28 L 1704.66,660.17 L 1707.38,665.09 L 1710.76,669.99 L 1714.56,674.80 L 1718.54,679.48 L 1722.43,684.04 L 1726.00,688.51 L 1729.05,692.94 L 1731.45,697.38 L 1733.14,701.90 L 1734.10,706.54 L 1734.37,711.32 L 1734.02,716.22 L 1733.14,721.15 L 1731.80,726.03 L 1730.05,730.70 L 1727.93,735.00 L 1725.43,738.77 L 1722.55,741.87 L 1719.28,744.16 L 1715.61,745.59 Z"/>
<path fill="#374806" stroke="none" d="M 1450.12,718.76 L 1445.73,717.95 L 1440.87,716.05 L 1435.56,713.72 L 1429.79,711.68 L 1423.63,710.52 L 1417.20,710.54 L 1410.71,711.69 L 1404.34,713.61 L 1398.25,715.76 L 1392.48,717.57 L 1386.96,718.61 L 1381.55,718.70 L 1376.10,717.85 L 1370.54,716.29 L 1364.92,714.26 L 1359.41,711.99 L 1354.24,709.58 L 1349.59,707.03 L 1345.52,704.28 L 1341.89,701.31 L 1338.39,698.19 L 1334.60,695.11 L 1330.09,692.37 L 1324.61,690.28 L 1318.15,689.09 L 1310.93,688.87 L 1303.43,689.54 L 1296.17,690.89 L 1289.62,692.65 L 1284.05,694.58 L 1279.47,696.60 L 1275.63,698.73 L 1272.15,701.11 L 1268.57,703.86 L 1264.55,707.03 L 1259.96,710.46 L 1254.87,713.78 L 1249.54,716.50 L 1244.32,718.07 L 1239.58,718.04 L 1235.61,716.16 L 1232.56,712.46 L 1230.42,707.22 L 1229.10,700.90 L 1228.43,693.97 L 1228.21,686.86 L 1228.28,679.80 L 1228.48,672.88 L 1228.72,666.00 L 1228.91,659.05 L 1229.01,651.91 L 1229.00,644.58 L 1228.91,637.15 L 1228.78,629.79 L 1228.66,622.63 L 1228.60,615.75 L 1228.61,609.09 L 1228.68,602.50 L 1228.74,595.74 L 1228.75,588.61 L 1228.69,581.06 L 1228.63,573.23 L 1228.72,565.48 L 1229.16,558.34 L 1230.20,552.36 L 1232.02,548.04 L 1234.71,545.67 L 1238.19,545.22 L 1242.30,546.38 L 1246.78,548.59 L 1251.37,551.15 L 1255.94,553.38 L 1260.49,554.75 L 1265.14,555.00 L 1270.14,554.13 L 1275.71,552.43 L 1281.98,550.36 L 1288.91,548.43 L 1296.27,547.11 L 1303.71,546.69 L 1310.83,547.28 L 1317.29,548.80 L 1322.90,551.03 L 1327.64,553.70 L 1331.69,556.60 L 1335.29,559.60 L 1338.70,562.66 L 1342.12,565.86 L 1345.62,569.28 L 1349.18,572.99 L 1352.75,576.94 L 1356.26,581.01 L 1359.70,585.01 L 1363.12,588.75 L 1366.62,592.12 L 1370.27,595.13 L 1374.04,597.96 L 1377.86,600.89 L 1381.52,604.24 L 1384.82,608.26 L 1387.63,613.01 L 1389.92,618.36 L 1391.83,623.99 L 1393.63,629.43 L 1395.63,634.26 L 1398.12,638.14 L 1401.26,640.95 L 1405.03,642.78 L 1409.28,643.86 L 1413.76,644.49 L 1418.26,644.91 L 1422.65,645.21 L 1426.94,645.33 L 1431.22,645.08 L 1435.64,644.30 L 1440.25,642.93 L 1444.97,641.13 L 1449.53,639.29 L 1453.54,637.96 L 1456.59,637.73 L 1458.41,639.06 L 1458.92,642.15 L 1458.35,646.89 L 1457.14,652.89 L 1455.86,659.60 L 1455.04,666.46 L 1455.01,673.07 L 1455.86,679.24 L 1457.36,685.01 L 1459.10,690.58 L 1460.55,696.11 L 1461.29,701.65 L 1461.01,707.03 L 1459.63,711.86 L 1457.24,715.67 L 1454.00,718.04 Z"/>
<path fill="#374806" stroke="none" d="M 2112.66,1592.17 L 2101.86,1590.64 L 2091.17,1587.84 L 2080.62,1583.78 L 2070.24,1578.53 L 2060.08,1572.14 L 2050.16,1564.72 L 2040.52,1556.38 L 2031.19,1547.24 L 2022.19,1537.42 L 2013.54,1527.08 L 2005.26,1516.33 L 1997.35,1505.29 L 1989.81,1494.09 L 1982.63,1482.83 L 1975.80,1471.58 L 1969.29,1460.40 L 1963.08,1449.36 L 1957.13,1438.45 L 1951.40,1427.70 L 1945.84,1417.09 L 1940.42,1406.60 L 1935.08,1396.17 L 1929.78,1385.77 L 1924.47,1375.35 L 1919.13,1364.85 L 1913.71,1354.23 L 1908.20,1343.45 L 1902.57,1332.47 L 1896.82,1321.27 L 1890.95,1309.85 L 1884.96,1298.21 L 1878.87,1286.37 L 1872.69,1274.38 L 1866.45,1262.27 L 1860.18,1250.09 L 1853.90,1237.91 L 1847.65,1225.77 L 1841.44,1213.75 L 1835.30,1201.89 L 1829.23,1190.24 L 1823.26,1178.82 L 1817.36,1167.66 L 1811.55,1156.76 L 1805.80,1146.10 L 1800.08,1135.65 L 1794.38,1125.38 L 1788.64,1115.23 L 1782.84,1105.13 L 1776.94,1095.02 L 1770.91,1084.83 L 1764.70,1074.49 L 1758.30,1063.96 L 1751.68,1053.18 L 1744.84,1042.15 L 1737.79,1030.85 L 1730.53,1019.31 L 1723.10,1007.58 L 1715.55,995.74 L 1707.92,983.89 L 1700.27,972.15 L 1692.68,960.66 L 1685.23,949.60 L 1677.99,939.11 L 1671.04,929.38 L 1664.45,920.57 L 1658.29,912.83 L 1652.61,906.30 L 1647.45,901.07 L 1642.85,897.23 L 1638.79,894.80 L 1635.28,893.77 L 1632.29,894.10 L 1629.75,895.67 L 1627.61,898.34 L 1625.77,901.92 L 1624.16,906.18 L 1622.65,910.86 L 1621.15,915.68 L 1619.54,920.34 L 1617.70,924.54 L 1615.55,927.97 L 1612.99,930.36 L 1609.95,931.44 L 1606.38,930.99 L 1602.23,928.84 L 1597.50,924.85 L 1592.20,918.96 L 1586.37,911.14 L 1580.06,901.44 L 1573.36,889.97 L 1566.35,876.88 L 1559.16,862.40 L 1551.91,846.77 L 1544.72,830.28 L 1537.73,813.25 L 1531.06,796.00 L 1524.84,778.89 L 1519.17,762.22 L 1514.15,746.32 L 1509.87,731.47 L 1506.37,717.91 L 1503.69,705.84 L 1501.85,695.43 L 1500.83,686.78 L 1500.62,679.93 L 1501.16,674.90 L 1502.39,671.63 L 1504.23,670.02 L 1506.61,669.95 L 1509.43,671.25 L 1512.60,673.75 L 1516.03,677.23 L 1519.63,681.49 L 1523.34,686.34 L 1527.08,691.59 L 1530.81,697.06 L 1534.49,702.61 L 1538.10,708.13 L 1541.63,713.51 L 1545.09,718.73 L 1548.49,723.73 L 1551.88,728.54 L 1555.29,733.18 L 1558.76,737.70 L 1562.35,742.16 L 1566.11,746.62 L 1570.09,751.16 L 1574.33,755.84 L 1578.89,760.70 L 1583.80,765.77 L 1589.09,771.07 L 1594.78,776.57 L 1600.90,782.24 L 1607.46,788.00 L 1614.45,793.76 L 1621.88,799.42 L 1629.76,804.85 L 1638.06,809.90 L 1646.79,814.46 L 1655.93,818.38 L 1665.48,821.54 L 1675.43,823.85 L 1685.76,825.23 L 1696.46,825.65 L 1707.53,825.10 L 1718.93,823.61 L 1730.65,821.26 L 1742.65,818.17 L 1754.89,814.48 L 1767.33,810.38 L 1779.89,806.08 L 1792.49,801.81 L 1805.05,797.80 L 1817.46,794.31 L 1829.59,791.55 L 1841.32,789.75 L 1852.50,789.09 L 1863.00,789.73 L 1872.65,791.76 L 1881.32,795.26 L 1888.86,800.23 L 1895.17,806.63 L 1900.12,814.37 L 1903.65,823.31 L 1905.69,833.26 L 1906.24,843.99 L 1905.30,855.26 L 1902.95,866.78 L 1899.27,878.29 L 1894.40,889.50 L 1888.52,900.15 L 1881.84,909.99 L 1874.60,918.82 L 1867.07,926.46 L 1859.51,932.80 L 1852.24,937.77 L 1845.52,941.35 L 1839.65,943.59 L 1834.89,944.59 L 1831.46,944.49 L 1829.58,943.47 L 1829.39,941.76 L 1831.00,939.62 L 1834.46,937.30 L 1839.78,935.08 L 1846.90,933.23 L 1855.70,931.99 L 1866.00,931.58 L 1877.61,932.21 L 1890.26,934.00 L 1903.67,937.07 L 1917.52,941.47 L 1931.49,947.19 L 1945.26,954.19 L 1958.49,962.36 L 1970.90,971.57 L 1982.22,981.63 L 1992.19,992.36 L 2000.65,1003.52 L 2007.44,1014.88 L 2012.47,1026.22 L 2015.72,1037.31 L 2017.20,1047.96 L 2017.00,1058.00 L 2015.22,1067.28 L 2012.04,1075.72 L 2007.66,1083.25 L 2002.30,1089.87 L 1996.20,1095.60 L 1989.62,1100.52 L 1982.80,1104.73 L 1975.98,1108.39 L 1969.37,1111.65 L 1963.18,1114.69 L 1957.55,1117.71 L 1952.61,1120.90 L 1948.44,1124.42 L 1945.08,1128.45 L 1942.54,1133.12 L 1940.80,1138.55 L 1939.78,1144.80 L 1939.39,1151.92 L 1939.54,1159.92 L 1940.09,1168.74 L 1940.94,1178.32 L 1941.94,1188.55 L 1943.01,1199.30 L 1944.03,1210.41 L 1944.94,1221.71 L 1945.69,1233.02 L 1946.26,1244.15 L 1946.65,1254.93 L 1946.91,1265.19 L 1947.09,1274.77 L 1947.28,1283.54 L 1947.58,1291.41 L 1948.10,1298.28 L 1948.97,1304.11 L 1950.28,1308.86 L 1952.16,1312.55 L 1954.69,1315.19 L 1957.93,1316.82 L 1961.94,1317.51 L 1966.72,1317.33 L 1972.25,1316.35 L 1978.49,1314.66 L 1985.34,1312.33 L 1992.71,1309.42 L 2000.44,1306.01 L 2008.38,1302.14 L 2016.37,1297.86 L 2024.23,1293.18 L 2031.78,1288.11 L 2038.86,1282.67 L 2045.32,1276.83 L 2051.04,1270.59 L 2055.94,1263.93 L 2059.94,1256.84 L 2063.04,1249.29 L 2065.25,1241.29 L 2066.62,1232.85 L 2067.27,1223.98 L 2067.30,1214.72 L 2066.88,1205.12 L 2066.18,1195.23 L 2065.40,1185.15 L 2064.72,1174.96 L 2064.34,1164.76 L 2064.41,1154.65 L 2065.11,1144.75 L 2066.54,1135.16 L 2068.80,1125.98 L 2071.92,1117.30 L 2075.89,1109.19 L 2080.68,1101.70 L 2086.18,1094.87 L 2092.25,1088.70 L 2098.72,1083.18 L 2105.36,1078.28 L 2111.96,1073.92 L 2118.24,1070.03 L 2123.97,1066.51 L 2128.88,1063.24 L 2132.74,1060.11 L 2135.33,1056.98 L 2136.49,1053.74 L 2136.09,1050.27 L 2134.03,1046.47 L 2130.30,1042.25 L 2124.92,1037.56 L 2117.99,1032.35 L 2109.66,1026.62 L 2100.11,1020.38 L 2089.59,1013.69 L 2078.40,1006.63 L 2066.84,999.28 L 2055.25,991.78 L 2043.97,984.28 L 2033.34,976.92 L 2023.69,969.86 L 2015.30,963.28 L 2008.46,957.32 L 2003.38,952.14 L 2000.22,947.88 L 1999.11,944.64 L 2000.09,942.52 L 2003.16,941.58 L 2008.27,941.85 L 2015.28,943.34 L 2024.03,946.01 L 2034.31,949.82 L 2045.88,954.68 L 2058.45,960.49 L 2071.74,967.14 L 2085.45,974.48 L 2099.30,982.37 L 2113.00,990.66 L 2126.31,999.21 L 2139.01,1007.89 L 2150.90,1016.55 L 2161.83,1025.10 L 2171.72,1033.43 L 2180.50,1041.49 L 2188.16,1049.20 L 2194.73,1056.56 L 2200.28,1063.56 L 2204.91,1070.21 L 2208.74,1076.56 L 2211.94,1082.67 L 2214.65,1088.61 L 2217.04,1094.47 L 2219.29,1100.33 L 2221.55,1106.29 L 2223.95,1112.46 L 2226.64,1118.93 L 2229.69,1125.77 L 2233.19,1133.08 L 2237.19,1140.92 L 2241.69,1149.34 L 2246.70,1158.37 L 2252.16,1168.05 L 2258.03,1178.36 L 2264.23,1189.31 L 2270.67,1200.86 L 2277.24,1212.97 L 2283.84,1225.59 L 2290.36,1238.64 L 2296.70,1252.06 L 2302.76,1265.74 L 2308.46,1279.61 L 2313.72,1293.56 L 2318.49,1307.49 L 2322.74,1321.31 L 2326.43,1334.91 L 2329.57,1348.19 L 2332.15,1361.08 L 2334.21,1373.47 L 2335.76,1385.28 L 2336.86,1396.46 L 2337.54,1406.94 L 2337.86,1416.67 L 2337.85,1425.62 L 2337.55,1433.76 L 2337.01,1441.08 L 2336.26,1447.59 L 2335.31,1453.31 L 2334.18,1458.28 L 2332.87,1462.54 L 2331.38,1466.17 L 2329.69,1469.23 L 2327.78,1471.82 L 2325.63,1474.03 L 2323.20,1475.99 L 2320.46,1477.79 L 2317.37,1479.55 L 2313.90,1481.39 L 2310.03,1483.42 L 2305.72,1485.74 L 2300.95,1488.43 L 2295.71,1491.58 L 2289.99,1495.24 L 2283.78,1499.46 L 2277.10,1504.24 L 2269.93,1509.59 L 2262.31,1515.47 L 2254.26,1521.83 L 2245.79,1528.58 L 2236.93,1535.63 L 2227.72,1542.86 L 2218.19,1550.12 L 2208.37,1557.28 L 2198.29,1564.18 L 2187.99,1570.65 L 2177.50,1576.54 L 2166.87,1581.70 L 2156.11,1585.98 L 2145.28,1589.26 L 2134.40,1591.44 L 2123.52,1592.43 Z"/>
<path fill="#374806" stroke="none" d="M 2398.72,1440.93 L 2394.65,1440.39 L 2390.50,1438.59 L 2386.49,1435.63 L 2382.83,1431.65 L 2379.71,1426.80 L 2377.28,1421.27 L 2375.60,1415.21 L 2374.68,1408.80 L 2374.46,1402.15 L 2374.83,1395.40 L 2375.63,1388.64 L 2376.72,1381.96 L 2377.96,1375.43 L 2379.24,1369.10 L 2380.50,1363.02 L 2381.72,1357.21 L 2382.94,1351.66 L 2384.19,1346.35 L 2385.55,1341.22 L 2387.05,1336.18 L 2388.71,1331.13 L 2390.52,1325.95 L 2392.40,1320.54 L 2394.26,1314.82 L 2395.97,1308.72 L 2397.40,1302.27 L 2398.41,1295.51 L 2398.90,1288.56 L 2398.80,1281.58 L 2398.08,1274.75 L 2396.76,1268.27 L 2394.86,1262.34 L 2392.44,1257.09 L 2389.54,1252.64 L 2386.20,1249.01 L 2382.41,1246.19 L 2378.18,1244.09 L 2373.46,1242.58 L 2368.23,1241.49 L 2362.49,1240.66 L 2356.24,1239.93 L 2349.57,1239.18 L 2342.61,1238.29 L 2335.55,1237.20 L 2328.65,1235.88 L 2322.16,1234.31 L 2316.35,1232.49 L 2311.45,1230.42 L 2307.64,1228.09 L 2305.00,1225.45 L 2303.52,1222.49 L 2303.08,1219.14 L 2303.48,1215.36 L 2304.48,1211.13 L 2305.79,1206.44 L 2307.14,1201.32 L 2308.29,1195.81 L 2309.10,1190.01 L 2309.47,1184.01 L 2309.41,1177.93 L 2309.01,1171.88 L 2308.39,1165.93 L 2307.69,1160.16 L 2307.03,1154.60 L 2306.51,1149.25 L 2306.14,1144.11 L 2305.88,1139.15 L 2305.60,1134.37 L 2305.15,1129.75 L 2304.31,1125.33 L 2302.92,1121.14 L 2300.83,1117.21 L 2297.94,1113.59 L 2294.26,1110.30 L 2289.86,1107.34 L 2284.93,1104.65 L 2279.67,1102.15 L 2274.37,1099.70 L 2269.29,1097.16 L 2264.69,1094.37 L 2260.78,1091.23 L 2257.73,1087.66 L 2255.61,1083.69 L 2254.47,1079.43 L 2254.26,1075.09 L 2254.93,1070.93 L 2256.38,1067.28 L 2258.52,1064.46 L 2261.23,1062.76 L 2264.41,1062.36 L 2267.98,1063.33 L 2271.84,1065.60 L 2275.91,1068.94 L 2280.09,1073.01 L 2284.29,1077.37 L 2288.41,1081.56 L 2292.36,1085.12 L 2296.08,1087.71 L 2299.53,1089.10 L 2302.72,1089.21 L 2305.71,1088.17 L 2308.57,1086.24 L 2311.44,1083.82 L 2314.45,1081.35 L 2317.72,1079.30 L 2321.35,1078.08 L 2325.36,1077.96 L 2329.69,1079.10 L 2334.22,1081.45 L 2338.72,1084.86 L 2342.93,1089.01 L 2346.55,1093.53 L 2349.27,1098.04 L 2350.87,1102.18 L 2351.19,1105.69 L 2350.19,1108.45 L 2347.96,1110.44 L 2344.70,1111.81 L 2340.74,1112.77 L 2336.46,1113.63 L 2332.27,1114.67 L 2328.54,1116.18 L 2325.61,1118.35 L 2323.67,1121.29 L 2322.83,1124.98 L 2323.04,1129.36 L 2324.16,1134.27 L 2325.95,1139.52 L 2328.16,1144.93 L 2330.51,1150.36 L 2332.79,1155.72 L 2334.86,1160.96 L 2336.65,1166.12 L 2338.23,1171.23 L 2339.70,1176.35 L 2341.26,1181.50 L 2343.09,1186.65 L 2345.38,1191.71 L 2348.25,1196.49 L 2351.74,1200.75 L 2355.82,1204.23 L 2360.35,1206.66 L 2365.13,1207.80 L 2369.94,1207.51 L 2374.53,1205.76 L 2378.68,1202.64 L 2382.23,1198.38 L 2385.10,1193.31 L 2387.28,1187.85 L 2388.85,1182.44 L 2389.93,1177.52 L 2390.70,1173.46 L 2391.35,1170.56 L 2392.03,1168.98 L 2392.88,1168.76 L 2393.97,1169.84 L 2395.31,1172.06 L 2396.88,1175.22 L 2398.60,1179.07 L 2400.40,1183.40 L 2402.16,1188.02 L 2403.83,1192.82 L 2405.35,1197.73 L 2406.71,1202.74 L 2407.91,1207.87 L 2409.00,1213.18 L 2410.03,1218.70 L 2411.05,1224.46 L 2412.10,1230.45 L 2413.20,1236.63 L 2414.35,1242.94 L 2415.54,1249.30 L 2416.75,1255.63 L 2417.93,1261.87 L 2419.05,1268.00 L 2420.09,1274.01 L 2421.04,1279.94 L 2421.90,1285.87 L 2422.69,1291.87 L 2423.40,1298.00 L 2424.06,1304.33 L 2424.66,1310.88 L 2425.18,1317.63 L 2425.59,1324.54 L 2425.85,1331.52 L 2425.92,1338.48 L 2425.76,1345.34 L 2425.36,1352.02 L 2424.71,1358.49 L 2423.85,1364.75 L 2422.82,1370.85 L 2421.71,1376.85 L 2420.57,1382.83 L 2419.47,1388.87 L 2418.44,1395.03 L 2417.48,1401.29 L 2416.55,1407.63 L 2415.55,1413.92 L 2414.40,1420.01 L 2412.95,1425.70 L 2411.10,1430.76 L 2408.76,1434.99 L 2405.89,1438.18 L 2402.52,1440.19 Z"/>
</svg>