<?xml version="1.0" encoding="UTF-8"?>
<svg xmlns="http://www.w3.org/2000/svg" width="2500.0" height="1699.7167138810198" viewBox="0 0 2500.0 1699.7167138810198">
<path fill="#cc1f1f" stroke="none" d="M 2087.19,1625.28 L 2066.89,1617.99 L 2047.29,1608.12 L 2028.25,1595.94 L 2009.60,1581.83 L 1991.18,1566.22 L 1972.80,1549.56 L 1954.28,1532.38 L 1935.44,1515.15 L 1916.11,1498.34 L 1896.13,1482.35 L 1875.34,1467.51 L 1853.60,1454.05 L 1830.80,1442.08 L 1806.82,1431.62 L 1781.59,1422.56 L 1755.05,1414.69 L 1727.17,1407.73 L 1697.94,1401.34 L 1667.43,1395.15 L 1635.72,1388.80 L 1602.96,1381.93 L 1569.34,1374.28 L 1535.13,1365.64 L 1500.62,1355.91 L 1466.20,1345.11 L 1432.29,1333.35 L 1399.36,1320.87 L 1367.90,1307.98 L 1338.46,1295.07 L 1311.55,1282.57 L 1287.71,1270.93 L 1267.43,1260.58 L 1251.16,1251.91 L 1239.29,1245.22 L 1232.12,1240.74 L 1229.88,1238.55 L 1232.66,1238.65 L 1240.47,1240.91 L 1253.19,1245.10 L 1270.59,1250.88 L 1292.32,1257.87 L 1317.97,1265.63 L 1347.00,1273.72 L 1378.85,1281.73 L 1412.89,1289.28 L 1448.47,1296.09 L 1484.96,1301.96 L 1521.72,1306.78 L 1558.18,1310.59 L 1593.81,1313.50 L 1628.19,1315.72 L 1660.94,1317.56 L 1691.81,1319.36 L 1720.64,1321.51 L 1747.35,1324.37 L 1771.97,1328.32 L 1794.61,1333.64 L 1815.44,1340.58 L 1834.72,1349.27 L 1852.71,1359.78 L 1869.73,1372.05 L 1886.10,1385.94 L 1902.14,1401.24 L 1918.17,1417.64 L 1934.44,1434.81 L 1951.20,1452.36 L 1968.64,1469.91 L 1986.89,1487.07 L 2006.04,1503.48 L 2026.10,1518.80 L 2047.04,1532.75 L 2068.77,1545.08 L 2091.15,1555.61 L 2114.00,1564.18 L 2137.09,1570.66 L 2160.17,1574.99 L 2182.97,1577.09 L 2205.20,1576.93 L 2226.55,1574.47 L 2246.76,1569.71 L 2265.54,1562.64 L 2282.66,1553.28 L 2297.91,1541.70 L 2311.12,1527.97 L 2322.19,1512.24 L 2331.06,1494.71 L 2337.75,1475.64 L 2342.33,1455.39 L 2344.95,1434.35 L 2345.83,1413.00 L 2345.23,1391.89 L 2343.47,1371.56 L 2340.92,1352.61 L 2337.96,1335.59 L 2334.99,1321.04 L 2332.40,1309.38 L 2330.56,1300.96 L 2329.80,1295.99 L 2330.39,1294.52 L 2332.51,1296.42 L 2336.28,1301.40 L 2341.72,1309.03 L 2348.73,1318.67 L 2357.14,1329.61 L 2366.69,1341.02 L 2377.01,1352.01 L 2387.69,1361.69 L 2398.27,1369.22 L 2408.26,1373.83 L 2417.18,1374.86 L 2424.55,1371.84 L 2429.96,1364.45 L 2433.07,1352.57 L 2433.62,1336.30 L 2431.45,1315.90 L 2426.53,1291.81 L 2418.92,1264.61 L 2408.82,1234.97 L 2396.50,1203.61 L 2382.35,1171.27 L 2366.81,1138.65 L 2350.37,1106.35 L 2333.53,1074.89 L 2316.79,1044.64 L 2300.62,1015.82 L 2285.43,988.49 L 2271.53,962.59 L 2259.15,937.89 L 2248.41,914.12 L 2239.33,890.92 L 2231.78,867.90 L 2225.57,844.70 L 2220.41,821.01 L 2215.91,796.61 L 2211.66,771.38 L 2207.22,745.33 L 2202.15,718.59 L 2196.03,691.41 L 2188.49,664.16 L 2179.23,637.25 L 2168.03,611.15 L 2154.77,586.34 L 2139.41,563.24 L 2122.02,542.22 L 2102.76,523.52 L 2081.85,507.28 L 2059.60,493.45 L 2036.34,481.86 L 2012.44,472.19 L 1988.26,463.99 L 1964.15,456.70 L 1940.43,449.71 L 1917.37,442.39 L 1895.18,434.12 L 1874.00,424.33 L 1853.92,412.59 L 1834.94,398.58 L 1817.01,382.13 L 1800.03,363.26 L 1783.83,342.16 L 1768.23,319.16 L 1753.04,294.74 L 1738.05,269.48 L 1723.03,244.05 L 1707.82,219.12 L 1692.22,195.36 L 1676.10,173.35 L 1659.35,153.60 L 1641.88,136.49 L 1623.62,122.25 L 1604.56,110.95 L 1584.68,102.50 L 1563.99,96.69 L 1542.51,93.18 L 1520.28,91.54 L 1497.33,91.28 L 1473.73,91.92 L 1449.51,92.97 L 1424.74,94.03 L 1399.50,94.76 L 1373.86,94.93 L 1347.93,94.45 L 1321.81,93.31 L 1295.64,91.65 L 1269.56,89.68 L 1243.72,87.68 L 1218.30,85.96 L 1193.48,84.87 L 1169.41,84.69 L 1146.27,85.69 L 1124.18,88.01 L 1103.26,91.73 L 1083.57,96.82 L 1065.14,103.13 L 1047.93,110.43 L 1031.86,118.39 L 1016.80,126.65 L 1002.56,134.81 L 988.90,142.49 L 975.57,149.35 L 962.29,155.09 L 948.76,159.54 L 934.71,162.63 L 919.89,164.39 L 904.10,164.99 L 887.18,164.70 L 869.05,163.87 L 849.70,162.95 L 829.18,162.39 L 807.63,162.66 L 785.27,164.20 L 762.33,167.38 L 739.13,172.50 L 715.98,179.75 L 693.21,189.21 L 671.12,200.81 L 649.98,214.40 L 630.01,229.73 L 611.34,246.46 L 594.03,264.21 L 578.06,282.57 L 563.30,301.15 L 549.55,319.60 L 536.53,337.64 L 523.91,355.06 L 511.31,371.76 L 498.32,387.72 L 484.57,403.02 L 469.68,417.84 L 453.36,432.38 L 435.37,446.89 L 415.57,461.62 L 393.93,476.81 L 370.54,492.62 L 345.57,509.14 L 319.35,526.39 L 292.26,544.25 L 264.79,562.51 L 237.49,580.86 L 210.95,598.91 L 185.76,616.21 L 162.51,632.25 L 141.75,646.55 L 123.97,658.64 L 109.58,668.11 L 98.88,674.64 L 92.07,677.99 L 89.25,678.08 L 90.39,674.91 L 95.36,668.64 L 103.93,659.51 L 115.77,647.86 L 130.51,634.09 L 147.73,618.64 L 166.95,601.97 L 187.73,584.49 L 209.61,566.58 L 232.17,548.55 L 255.04,530.61 L 277.90,512.91 L 300.48,495.47 L 322.61,478.26 L 344.14,461.16 L 365.02,444.03 L 385.24,426.69 L 404.84,408.96 L 423.90,390.71 L 442.52,371.84 L 460.82,352.33 L 478.92,332.24 L 496.95,311.71 L 515.02,290.95 L 533.22,270.25 L 551.63,249.94 L 570.30,230.38 L 589.25,211.95 L 608.49,194.97 L 628.00,179.72 L 647.78,166.42 L 667.77,155.19 L 687.94,146.05 L 708.24,138.90 L 728.64,133.55 L 749.10,129.73 L 769.59,127.10 L 790.09,125.26 L 810.59,123.80 L 831.10,122.33 L 851.62,120.49 L 872.17,118.00 L 892.77,114.64 L 913.44,110.31 L 934.21,104.99 L 955.11,98.79 L 976.16,91.89 L 997.39,84.53 L 1018.82,77.01 L 1040.49,69.67 L 1062.40,62.82 L 1084.59,56.75 L 1107.08,51.68 L 1129.88,47.77 L 1153.02,45.10 L 1176.51,43.63 L 1200.36,43.27 L 1224.59,43.82 L 1249.20,45.05 L 1274.18,46.68 L 1299.51,48.44 L 1325.16,50.07 L 1351.09,51.36 L 1377.23,52.19 L 1403.51,52.53 L 1429.82,52.44 L 1456.07,52.11 L 1482.13,51.80 L 1507.88,51.88 L 1533.18,52.79 L 1557.91,54.98 L 1581.95,58.91 L 1605.19,65.01 L 1627.54,73.65 L 1648.96,85.08 L 1669.41,99.44 L 1688.90,116.73 L 1707.48,136.79 L 1725.22,159.32 L 1742.26,183.89 L 1758.73,209.96 L 1774.82,236.89 L 1790.71,264.02 L 1806.61,290.66 L 1822.74,316.17 L 1839.28,339.98 L 1856.42,361.63 L 1874.28,380.81 L 1892.99,397.34 L 1912.59,411.23 L 1933.09,422.64 L 1954.44,431.90 L 1976.52,439.44 L 1999.18,445.82 L 2022.21,451.67 L 2045.35,457.62 L 2068.33,464.31 L 2090.84,472.34 L 2112.60,482.20 L 2133.32,494.29 L 2152.75,508.89 L 2170.66,526.11 L 2186.90,545.96 L 2201.37,568.30 L 2214.05,592.86 L 2224.97,619.32 L 2234.27,647.27 L 2242.14,676.26 L 2248.83,705.87 L 2254.64,735.67 L 2259.92,765.31 L 2265.03,794.49 L 2270.33,823.01 L 2276.18,850.74 L 2282.87,877.66 L 2290.68,903.80 L 2299.78,929.28 L 2310.29,954.27 L 2322.23,978.96 L 2335.52,1003.54 L 2349.99,1028.21 L 2365.40,1053.15 L 2381.41,1078.46 L 2397.62,1104.24 L 2413.58,1130.51 L 2428.81,1157.24 L 2442.82,1184.36 L 2455.13,1211.76 L 2465.29,1239.31 L 2472.91,1266.85 L 2477.64,1294.23 L 2479.24,1321.30 L 2477.54,1347.91 L 2472.47,1373.97 L 2464.05,1399.36 L 2452.41,1424.00 L 2437.73,1447.84 L 2420.30,1470.79 L 2400.46,1492.79 L 2378.57,1513.76 L 2355.05,1533.60 L 2330.31,1552.16 L 2304.75,1569.28 L 2278.78,1584.78 L 2252.74,1598.44 L 2226.94,1610.03 L 2201.63,1619.32 L 2177.00,1626.09 L 2153.20,1630.17 L 2130.29,1631.43 L 2108.30,1629.79 Z"/>
<path fill="#cc1f1f" stroke="none" d="M 1209.50,689.17 L 1206.59,687.48 L 1204.05,684.13 L 1201.94,679.46 L 1200.16,673.88 L 1198.55,667.92 L 1196.88,662.01 L 1195.00,656.49 L 1192.80,651.53 L 1190.29,647.09 L 1187.53,643.03 L 1184.66,639.10 L 1181.80,635.10 L 1179.01,630.88 L 1176.33,626.42 L 1173.68,621.81 L 1170.97,617.22 L 1168.11,612.82 L 1165.02,608.74 L 1161.69,605.01 L 1158.16,601.59 L 1154.50,598.34 L 1150.82,595.11 L 1147.18,591.76 L 1143.62,588.24 L 1140.14,584.54 L 1136.69,580.75 L 1133.23,576.98 L 1129.71,573.31 L 1126.13,569.79 L 1122.51,566.40 L 1118.90,563.06 L 1115.34,559.69 L 1111.87,556.19 L 1108.45,552.57 L 1105.02,548.86 L 1101.49,545.19 L 1097.75,541.70 L 1093.74,538.50 L 1089.44,535.67 L 1084.89,533.17 L 1080.19,530.90 L 1075.47,528.69 L 1070.83,526.37 L 1066.36,523.83 L 1062.05,521.04 L 1057.86,518.04 L 1053.69,514.98 L 1049.43,512.02 L 1045.00,509.28 L 1040.35,506.85 L 1035.52,504.70 L 1030.57,502.72 L 1025.60,500.75 L 1020.72,498.65 L 1015.98,496.32 L 1011.37,493.76 L 1006.85,491.05 L 1002.32,488.33 L 997.69,485.76 L 992.89,483.45 L 987.88,481.45 L 982.70,479.71 L 977.43,478.09 L 972.15,476.43 L 966.95,474.60 L 961.87,472.52 L 956.92,470.23 L 952.04,467.81 L 947.15,465.44 L 942.17,463.26 L 937.04,461.37 L 931.74,459.78 L 926.29,458.40 L 920.75,457.07 L 915.21,455.64 L 909.73,453.97 L 904.37,452.03 L 899.14,449.87 L 894.00,447.63 L 888.91,445.50 L 883.78,443.60 L 878.57,442.03 L 873.22,440.73 L 867.74,439.54 L 862.17,438.24 L 856.60,436.60 L 851.17,434.43 L 846.10,431.66 L 841.65,428.34 L 838.12,424.65 L 835.81,420.85 L 835.00,417.21 L 835.91,413.97 L 838.62,411.28 L 843.06,409.21 L 848.99,407.74 L 856.01,406.82 L 863.65,406.37 L 871.40,406.35 L 878.80,406.75 L 885.54,407.58 L 891.51,408.83 L 896.78,410.46 L 901.57,412.37 L 906.21,414.43 L 911.02,416.45 L 916.22,418.27 L 921.90,419.80 L 928.01,421.02 L 934.34,422.04 L 940.62,423.02 L 946.57,424.19 L 952.02,425.73 L 956.89,427.76 L 961.25,430.28 L 965.28,433.20 L 969.19,436.32 L 973.21,439.46 L 977.48,442.42 L 982.04,445.10 L 986.86,447.48 L 991.83,449.63 L 996.82,451.66 L 1001.74,453.71 L 1006.54,455.85 L 1011.26,458.11 L 1015.98,460.45 L 1020.77,462.78 L 1025.72,465.01 L 1030.83,467.11 L 1036.07,469.05 L 1041.33,470.89 L 1046.52,472.74 L 1051.57,474.69 L 1056.42,476.80 L 1061.12,479.10 L 1065.74,481.54 L 1070.37,484.03 L 1075.08,486.49 L 1079.92,488.84 L 1084.85,491.07 L 1089.83,493.20 L 1094.79,495.28 L 1099.68,497.38 L 1104.54,499.49 L 1109.47,501.57 L 1114.62,503.48 L 1120.17,505.06 L 1126.25,506.16 L 1132.90,506.70 L 1140.07,506.71 L 1147.54,506.34 L 1155.05,505.85 L 1162.30,505.57 L 1169.04,505.78 L 1175.13,506.67 L 1180.56,508.30 L 1185.44,510.57 L 1189.98,513.26 L 1194.36,516.13 L 1198.73,518.97 L 1203.13,521.69 L 1207.44,524.36 L 1211.48,527.20 L 1215.02,530.50 L 1217.86,534.54 L 1219.89,539.54 L 1221.15,545.51 L 1221.80,552.29 L 1222.06,559.56 L 1222.21,566.89 L 1222.43,573.89 L 1222.82,580.25 L 1223.34,585.85 L 1223.88,590.77 L 1224.25,595.26 L 1224.31,599.66 L 1223.98,604.32 L 1223.32,609.52 L 1222.48,615.40 L 1221.68,621.99 L 1221.14,629.15 L 1220.97,636.70 L 1221.18,644.42 L 1221.62,652.11 L 1222.04,659.59 L 1222.13,666.70 L 1221.63,673.24 L 1220.37,679.02 L 1218.33,683.77 L 1215.66,687.20 L 1212.61,689.06 Z"/>
<path fill="#cc1f1f" stroke="none" d="M 608.03,1050.23 L 603.45,1050.02 L 598.26,1049.11 L 592.64,1047.73 L 586.78,1046.15 L 580.80,1044.57 L 574.79,1043.13 L 568.82,1041.88 L 562.92,1040.77 L 557.12,1039.71 L 551.43,1038.58 L 545.84,1037.29 L 540.33,1035.80 L 534.88,1034.12 L 529.46,1032.31 L 524.05,1030.44 L 518.65,1028.59 L 513.28,1026.79 L 507.94,1025.06 L 502.67,1023.38 L 497.45,1021.68 L 492.27,1019.95 L 487.09,1018.15 L 481.87,1016.30 L 476.56,1014.43 L 471.14,1012.60 L 465.64,1010.83 L 460.10,1009.15 L 454.61,1007.53 L 449.24,1005.91 L 444.03,1004.21 L 439.02,1002.35 L 434.14,1000.32 L 429.31,998.13 L 424.40,995.87 L 419.32,993.67 L 413.96,991.68 L 408.33,990.00 L 402.46,988.68 L 396.47,987.68 L 390.49,986.84 L 384.69,985.93 L 379.18,984.70 L 374.03,982.92 L 369.25,980.50 L 364.80,977.45 L 360.60,973.97 L 356.52,970.38 L 352.47,967.06 L 348.33,964.39 L 344.05,962.63 L 339.56,961.87 L 334.85,961.99 L 329.91,962.69 L 324.78,963.56 L 319.50,964.17 L 314.14,964.16 L 308.79,963.33 L 303.52,961.68 L 298.37,959.40 L 293.36,956.80 L 288.45,954.19 L 283.58,951.82 L 278.66,949.79 L 273.64,948.03 L 268.54,946.29 L 263.45,944.29 L 258.59,941.77 L 254.24,938.59 L 250.73,934.82 L 248.40,930.74 L 247.48,926.79 L 248.07,923.47 L 250.12,921.21 L 253.45,920.28 L 257.76,920.70 L 262.69,922.28 L 267.94,924.62 L 273.25,927.26 L 278.50,929.79 L 283.64,931.94 L 288.72,933.64 L 293.81,935.02 L 298.97,936.31 L 304.21,937.81 L 309.52,939.70 L 314.81,942.03 L 320.02,944.65 L 325.07,947.24 L 329.92,949.39 L 334.57,950.68 L 339.01,950.81 L 343.22,949.59 L 347.15,947.03 L 350.69,943.27 L 353.71,938.55 L 356.07,933.09 L 357.68,927.11 L 358.52,920.72 L 358.67,914.01 L 358.33,907.02 L 357.75,899.77 L 357.17,892.37 L 356.82,884.94 L 356.81,877.65 L 357.18,870.63 L 357.86,863.98 L 358.74,857.72 L 359.75,851.77 L 360.87,846.04 L 362.18,840.44 L 363.83,834.97 L 365.99,829.77 L 368.82,825.12 L 372.34,821.44 L 376.46,819.18 L 380.90,818.71 L 385.28,820.26 L 389.16,823.82 L 392.15,829.13 L 394.01,835.73 L 394.66,843.04 L 394.25,850.45 L 393.09,857.49 L 391.61,863.84 L 390.23,869.42 L 389.34,874.29 L 389.19,878.68 L 389.90,882.82 L 391.45,886.90 L 393.73,891.00 L 396.62,895.11 L 399.95,899.12 L 403.64,902.89 L 407.58,906.33 L 411.75,909.38 L 416.08,912.09 L 420.51,914.60 L 425.00,917.04 L 429.45,919.58 L 433.80,922.29 L 438.02,925.21 L 442.12,928.28 L 446.15,931.40 L 450.18,934.47 L 454.29,937.41 L 458.53,940.18 L 462.91,942.83 L 467.39,945.41 L 471.89,948.01 L 476.34,950.71 L 480.66,953.55 L 484.81,956.52 L 488.81,959.59 L 492.73,962.70 L 496.65,965.77 L 500.68,968.75 L 504.92,971.56 L 509.46,974.13 L 514.34,976.42 L 519.59,978.37 L 525.21,979.91 L 531.19,981.03 L 537.49,981.76 L 544.04,982.17 L 550.73,982.42 L 557.41,982.73 L 563.88,983.34 L 569.93,984.46 L 575.36,986.28 L 580.04,988.86 L 583.94,992.16 L 587.11,996.06 L 589.74,1000.36 L 592.08,1004.85 L 594.41,1009.35 L 596.96,1013.75 L 599.85,1018.02 L 603.09,1022.20 L 606.52,1026.35 L 609.85,1030.49 L 612.77,1034.62 L 614.91,1038.62 L 615.99,1042.33 L 615.84,1045.52 L 614.41,1047.99 L 611.75,1049.57 Z"/>
<path fill="#cc1f1f" stroke="none" d="M 1876.75,1317.90 L 1873.12,1317.02 L 1869.28,1315.06 L 1865.51,1312.11 L 1861.97,1308.33 L 1858.77,1303.95 L 1855.89,1299.20 L 1853.24,1294.35 L 1850.67,1289.64 L 1847.99,1285.23 L 1845.08,1281.23 L 1841.86,1277.63 L 1838.33,1274.36 L 1834.56,1271.27 L 1830.68,1268.18 L 1826.84,1264.94 L 1823.17,1261.42 L 1819.75,1257.59 L 1816.61,1253.45 L 1813.69,1249.12 L 1810.90,1244.72 L 1808.13,1240.40 L 1805.26,1236.26 L 1802.22,1232.35 L 1798.99,1228.67 L 1795.59,1225.13 L 1792.11,1221.63 L 1788.65,1218.03 L 1785.30,1214.24 L 1782.14,1210.19 L 1779.19,1205.90 L 1776.44,1201.43 L 1773.82,1196.87 L 1771.25,1192.33 L 1768.65,1187.91 L 1765.95,1183.65 L 1763.13,1179.54 L 1760.20,1175.55 L 1757.19,1171.57 L 1754.16,1167.53 L 1751.17,1163.37 L 1748.27,1159.05 L 1745.46,1154.61 L 1742.73,1150.11 L 1740.04,1145.63 L 1737.35,1141.24 L 1734.61,1136.99 L 1731.81,1132.86 L 1728.97,1128.81 L 1726.11,1124.73 L 1723.30,1120.52 L 1720.60,1116.10 L 1718.06,1111.42 L 1715.70,1106.50 L 1713.50,1101.44 L 1711.41,1096.33 L 1709.35,1091.31 L 1707.23,1086.47 L 1704.99,1081.82 L 1702.62,1077.34 L 1700.13,1072.89 L 1697.64,1068.31 L 1695.26,1063.43 L 1693.17,1058.12 L 1691.52,1052.35 L 1690.42,1046.16 L 1689.91,1039.73 L 1689.96,1033.30 L 1690.43,1027.12 L 1691.08,1021.45 L 1691.64,1016.43 L 1691.78,1012.12 L 1691.24,1008.45 L 1689.76,1005.25 L 1687.22,1002.34 L 1683.59,999.52 L 1678.95,996.69 L 1673.50,993.87 L 1667.51,991.19 L 1661.26,988.89 L 1655.05,987.29 L 1649.11,986.65 L 1643.61,987.17 L 1638.59,988.88 L 1634.01,991.66 L 1629.73,995.19 L 1625.57,999.07 L 1621.33,1002.83 L 1616.82,1006.03 L 1611.94,1008.33 L 1606.66,1009.55 L 1601.03,1009.67 L 1595.21,1008.80 L 1589.40,1007.16 L 1583.84,1004.97 L 1578.74,1002.39 L 1574.27,999.51 L 1570.53,996.29 L 1567.54,992.61 L 1565.25,988.30 L 1563.56,983.18 L 1562.37,977.20 L 1561.57,970.39 L 1561.11,962.99 L 1560.99,955.34 L 1561.26,947.90 L 1562.01,941.14 L 1563.32,935.52 L 1565.28,931.34 L 1567.90,928.80 L 1571.14,927.89 L 1574.88,928.47 L 1578.96,930.28 L 1583.20,933.00 L 1587.41,936.33 L 1591.48,939.99 L 1595.35,943.76 L 1599.05,947.49 L 1602.67,951.09 L 1606.36,954.48 L 1610.28,957.58 L 1614.56,960.32 L 1619.30,962.58 L 1624.48,964.28 L 1630.04,965.36 L 1635.83,965.82 L 1641.67,965.74 L 1647.37,965.30 L 1652.79,964.75 L 1657.82,964.37 L 1662.44,964.45 L 1666.68,965.21 L 1670.61,966.80 L 1674.36,969.24 L 1678.00,972.44 L 1681.63,976.22 L 1685.29,980.34 L 1688.98,984.54 L 1692.67,988.63 L 1696.34,992.46 L 1699.94,995.99 L 1703.49,999.26 L 1706.97,1002.35 L 1710.42,1005.41 L 1713.88,1008.55 L 1717.37,1011.89 L 1720.89,1015.46 L 1724.44,1019.27 L 1727.94,1023.27 L 1731.34,1027.42 L 1734.57,1031.64 L 1737.57,1035.89 L 1740.32,1040.16 L 1742.86,1044.44 L 1745.23,1048.76 L 1747.51,1053.16 L 1749.81,1057.66 L 1752.17,1062.27 L 1754.64,1066.98 L 1757.19,1071.78 L 1759.77,1076.65 L 1762.29,1081.55 L 1764.67,1086.50 L 1766.83,1091.49 L 1768.74,1096.52 L 1770.45,1101.62 L 1772.02,1106.79 L 1773.58,1111.99 L 1775.26,1117.21 L 1777.16,1122.36 L 1779.35,1127.41 L 1781.85,1132.28 L 1784.60,1136.94 L 1787.50,1141.41 L 1790.42,1145.73 L 1793.25,1149.97 L 1795.90,1154.22 L 1798.34,1158.57 L 1800.60,1163.07 L 1802.73,1167.75 L 1804.85,1172.58 L 1807.06,1177.50 L 1809.42,1182.43 L 1811.98,1187.27 L 1814.71,1191.95 L 1817.57,1196.43 L 1820.46,1200.72 L 1823.31,1204.87 L 1826.06,1208.95 L 1828.71,1213.05 L 1831.28,1217.21 L 1833.84,1221.48 L 1836.49,1225.84 L 1839.30,1230.25 L 1842.32,1234.62 L 1845.53,1238.89 L 1848.87,1243.00 L 1852.27,1246.93 L 1855.60,1250.71 L 1858.76,1254.41 L 1861.70,1258.14 L 1864.40,1262.03 L 1866.90,1266.17 L 1869.28,1270.65 L 1871.63,1275.48 L 1874.00,1280.63 L 1876.41,1286.01 L 1878.78,1291.47 L 1880.97,1296.86 L 1882.77,1301.98 L 1883.98,1306.65 L 1884.38,1310.71 L 1883.84,1313.98 L 1882.32,1316.33 L 1879.90,1317.67 Z"/>
</svg>