<?xml version="1.0" encoding="UTF-8"?>
<svg xmlns="http://www.w3.org/2000/svg" width="2500.0" height="1699.7167138810198" viewBox="0 0 2500.0 1699.7167138810198">
<path fill="#3ea332" stroke="none" d="M 2099.81,1581.16 L 2086.76,1579.72 L 2074.55,1576.88 L 2063.16,1572.58 L 2052.54,1566.81 L 2042.62,1559.57 L 2033.31,1550.93 L 2024.49,1540.96 L 2016.05,1529.78 L 2007.87,1517.53 L 1999.83,1504.36 L 1991.83,1490.45 L 1983.77,1475.97 L 1975.59,1461.09 L 1967.23,1445.97 L 1958.68,1430.75 L 1949.93,1415.56 L 1941.01,1400.49 L 1931.95,1385.61 L 1922.82,1370.95 L 1913.69,1356.53 L 1904.64,1342.33 L 1895.76,1328.31 L 1887.12,1314.42 L 1878.80,1300.58 L 1870.85,1286.73 L 1863.30,1272.79 L 1856.19,1258.70 L 1849.50,1244.40 L 1843.19,1229.86 L 1837.23,1215.07 L 1831.52,1200.03 L 1825.97,1184.78 L 1820.48,1169.38 L 1814.92,1153.92 L 1809.16,1138.49 L 1803.07,1123.21 L 1796.56,1108.20 L 1789.50,1093.58 L 1781.81,1079.47 L 1773.44,1065.97 L 1764.36,1053.18 L 1754.55,1041.14 L 1744.06,1029.89 L 1732.93,1019.43 L 1721.26,1009.72 L 1709.17,1000.70 L 1696.78,992.25 L 1684.25,984.26 L 1671.74,976.56 L 1659.41,969.00 L 1647.43,961.38 L 1635.93,953.54 L 1625.04,945.30 L 1614.86,936.52 L 1605.48,927.07 L 1596.91,916.85 L 1589.18,905.81 L 1582.24,893.95 L 1576.02,881.29 L 1570.41,867.92 L 1565.29,853.95 L 1560.49,839.55 L 1555.84,824.92 L 1551.15,810.27 L 1546.22,795.85 L 1540.86,781.89 L 1534.91,768.64 L 1528.21,756.32 L 1520.63,745.13 L 1512.08,735.23 L 1502.48,726.74 L 1491.83,719.74 L 1480.14,714.23 L 1467.47,710.19 L 1453.92,707.52 L 1439.61,706.07 L 1424.70,705.64 L 1409.37,706.00 L 1393.82,706.89 L 1378.24,708.01 L 1362.85,709.06 L 1347.83,709.74 L 1333.35,709.78 L 1319.58,708.92 L 1306.64,706.92 L 1294.62,703.62 L 1283.58,698.88 L 1273.54,692.63 L 1264.48,684.86 L 1256.35,675.60 L 1249.07,664.96 L 1242.51,653.09 L 1236.54,640.18 L 1231.01,626.44 L 1225.74,612.15 L 1220.56,597.55 L 1215.30,582.92 L 1209.81,568.51 L 1203.92,554.57 L 1197.52,541.31 L 1190.49,528.91 L 1182.75,517.49 L 1174.24,507.16 L 1164.93,497.94 L 1154.81,489.85 L 1143.91,482.82 L 1132.25,476.78 L 1119.88,471.62 L 1106.87,467.18 L 1093.28,463.31 L 1079.19,459.85 L 1064.65,456.65 L 1049.73,453.56 L 1034.48,450.45 L 1018.93,447.22 L 1003.12,443.81 L 987.06,440.19 L 970.74,436.34 L 954.15,432.32 L 937.27,428.18 L 920.08,424.01 L 902.55,419.92 L 884.66,416.03 L 866.40,412.45 L 847.75,409.29 L 828.74,406.65 L 809.40,404.60 L 789.77,403.18 L 769.95,402.38 L 750.02,402.17 L 730.13,402.46 L 710.40,403.14 L 691.01,404.05 L 672.13,404.99 L 653.96,405.74 L 636.70,406.08 L 620.53,405.76 L 605.65,404.56 L 592.23,402.25 L 580.44,398.65 L 570.41,393.61 L 562.25,387.02 L 556.03,378.83 L 551.82,369.06 L 549.61,357.77 L 549.39,345.09 L 551.11,331.23 L 554.69,316.41 L 560.01,300.93 L 566.94,285.12 L 575.32,269.30 L 585.01,253.85 L 595.82,239.12 L 607.57,225.42 L 620.10,213.06 L 633.24,202.29 L 646.84,193.32 L 660.75,186.27 L 674.85,181.22 L 689.03,178.14 L 703.21,176.96 L 717.32,177.53 L 731.30,179.64 L 745.11,183.00 L 758.73,187.31 L 772.15,192.21 L 785.34,197.35 L 798.31,202.36 L 811.05,206.89 L 823.55,210.61 L 835.80,213.24 L 847.78,214.55 L 859.48,214.37 L 870.86,212.61 L 881.90,209.23 L 892.55,204.29 L 902.79,197.89 L 912.58,190.23 L 921.88,181.53 L 930.67,172.09 L 938.94,162.21 L 946.69,152.22 L 953.92,142.47 L 960.67,133.28 L 966.97,124.94 L 972.90,117.73 L 978.53,111.85 L 983.96,107.46 L 989.28,104.64 L 994.63,103.41 L 1000.12,103.74 L 1005.88,105.49 L 1012.04,108.51 L 1018.71,112.56 L 1026.01,117.38 L 1034.02,122.67 L 1042.82,128.11 L 1052.48,133.39 L 1063.01,138.21 L 1074.44,142.28 L 1086.74,145.37 L 1099.87,147.28 L 1113.78,147.86 L 1128.37,147.05 L 1143.56,144.81 L 1159.23,141.21 L 1175.27,136.35 L 1191.56,130.39 L 1207.97,123.55 L 1224.40,116.06 L 1240.73,108.22 L 1256.89,100.30 L 1272.80,92.60 L 1288.39,85.41 L 1303.65,78.98 L 1318.55,73.53 L 1333.09,69.26 L 1347.30,66.30 L 1361.21,64.73 L 1374.87,64.59 L 1388.34,65.86 L 1401.66,68.46 L 1414.91,72.26 L 1428.13,77.12 L 1441.36,82.83 L 1454.65,89.20 L 1468.01,96.01 L 1481.45,103.03 L 1494.95,110.06 L 1508.48,116.91 L 1522.01,123.44 L 1535.47,129.51 L 1548.79,135.04 L 1561.89,140.00 L 1574.70,144.40 L 1587.12,148.28 L 1599.09,151.72 L 1610.52,154.85 L 1621.36,157.81 L 1631.57,160.78 L 1641.12,163.91 L 1650.00,167.39 L 1658.24,171.39 L 1665.86,176.06 L 1672.93,181.53 L 1679.51,187.90 L 1685.72,195.24 L 1691.64,203.57 L 1697.39,212.90 L 1703.10,223.17 L 1708.89,234.32 L 1714.87,246.23 L 1721.16,258.78 L 1727.85,271.81 L 1735.02,285.16 L 1742.74,298.67 L 1751.07,312.16 L 1760.02,325.50 L 1769.60,338.53 L 1779.81,351.13 L 1790.61,363.23 L 1801.95,374.73 L 1813.79,385.61 L 1826.06,395.85 L 1838.67,405.47 L 1851.58,414.50 L 1864.69,422.99 L 1877.95,431.01 L 1891.29,438.64 L 1904.66,445.97 L 1918.03,453.08 L 1931.36,460.04 L 1944.64,466.94 L 1957.86,473.82 L 1971.01,480.74 L 1984.10,487.74 L 1997.13,494.83 L 2010.11,502.02 L 2023.05,509.33 L 2035.95,516.75 L 2048.78,524.27 L 2061.54,531.89 L 2074.19,539.62 L 2086.68,547.48 L 2098.95,555.47 L 2110.94,563.66 L 2122.56,572.09 L 2133.73,580.82 L 2144.36,589.95 L 2154.35,599.57 L 2163.62,609.77 L 2172.08,620.66 L 2179.67,632.33 L 2186.35,644.87 L 2192.07,658.36 L 2196.84,672.85 L 2200.67,688.35 L 2203.61,704.86 L 2205.73,722.34 L 2207.13,740.70 L 2207.94,759.83 L 2208.29,779.57 L 2208.34,799.75 L 2208.27,820.14 L 2208.25,840.53 L 2208.47,860.67 L 2209.08,880.31 L 2210.25,899.22 L 2212.13,917.19 L 2214.82,934.02 L 2218.42,949.57 L 2222.99,963.72 L 2228.56,976.43 L 2235.13,987.70 L 2242.66,997.58 L 2251.07,1006.21 L 2260.27,1013.74 L 2270.15,1020.42 L 2280.54,1026.50 L 2291.31,1032.29 L 2302.28,1038.11 L 2313.29,1044.30 L 2324.16,1051.17 L 2334.75,1059.02 L 2344.91,1068.14 L 2354.52,1078.74 L 2363.47,1091.00 L 2371.68,1104.99 L 2379.11,1120.76 L 2385.72,1138.24 L 2391.51,1157.30 L 2396.50,1177.74 L 2400.71,1199.26 L 2404.21,1221.52 L 2407.05,1244.13 L 2409.29,1266.66 L 2411.02,1288.64 L 2412.28,1309.61 L 2413.15,1329.12 L 2413.67,1346.75 L 2413.87,1362.12 L 2413.79,1374.90 L 2413.43,1384.86 L 2412.78,1391.82 L 2411.83,1395.71 L 2410.56,1396.55 L 2408.92,1394.45 L 2406.89,1389.60 L 2404.42,1382.30 L 2401.49,1372.90 L 2398.09,1361.82 L 2394.19,1349.53 L 2389.82,1336.53 L 2384.99,1323.33 L 2379.77,1310.45 L 2374.21,1298.35 L 2368.42,1287.51 L 2362.48,1278.30 L 2356.53,1271.08 L 2350.69,1266.10 L 2345.09,1263.54 L 2339.88,1263.51 L 2335.19,1266.01 L 2331.12,1270.98 L 2327.77,1278.29 L 2325.22,1287.73 L 2323.52,1299.04 L 2322.68,1311.93 L 2322.67,1326.05 L 2323.43,1341.08 L 2324.89,1356.66 L 2326.89,1372.46 L 2329.30,1388.17 L 2331.92,1403.52 L 2334.55,1418.29 L 2336.97,1432.28 L 2338.96,1445.37 L 2340.29,1457.48 L 2340.75,1468.58 L 2340.15,1478.69 L 2338.31,1487.86 L 2335.10,1496.18 L 2330.41,1503.77 L 2324.18,1510.76 L 2316.39,1517.26 L 2307.07,1523.41 L 2296.28,1529.31 L 2284.12,1535.04 L 2270.75,1540.67 L 2256.32,1546.23 L 2241.05,1551.69 L 2225.13,1557.02 L 2208.80,1562.14 L 2192.28,1566.95 L 2175.78,1571.31 L 2159.50,1575.09 L 2143.63,1578.11 L 2128.31,1580.23 L 2113.68,1581.29 Z"/>
</svg>