<?xml version="1.0" encoding="UTF-8"?>
<svg xmlns="http://www.w3.org/2000/svg" width="2500.0" height="1699.7167138810198" viewBox="0 0 2500.0 1699.7167138810198">
<path fill="#3ea332" stroke="none" d="M 2107.13,1580.91 L 2092.84,1580.91 L 2078.53,1580.46 L 2064.31,1579.54 L 2050.32,1578.11 L 2036.68,1576.12 L 2023.52,1573.54 L 2010.98,1570.32 L 1999.19,1566.41 L 1988.25,1561.78 L 1978.25,1556.39 L 1969.26,1550.23 L 1961.32,1543.28 L 1954.45,1535.55 L 1948.62,1527.04 L 1943.80,1517.78 L 1939.90,1507.82 L 1936.82,1497.20 L 1934.43,1486.00 L 1932.60,1474.27 L 1931.17,1462.11 L 1929.97,1449.61 L 1928.83,1436.84 L 1927.62,1423.90 L 1926.16,1410.86 L 1924.34,1397.80 L 1922.05,1384.79 L 1919.19,1371.88 L 1915.73,1359.11 L 1911.62,1346.50 L 1906.87,1334.07 L 1901.50,1321.82 L 1895.57,1309.72 L 1889.15,1297.74 L 1882.33,1285.86 L 1875.21,1274.03 L 1867.90,1262.21 L 1860.50,1250.33 L 1853.12,1238.38 L 1845.83,1226.30 L 1838.72,1214.07 L 1831.83,1201.68 L 1825.19,1189.13 L 1818.82,1176.42 L 1812.70,1163.60 L 1806.78,1150.69 L 1801.01,1137.76 L 1795.30,1124.88 L 1789.58,1112.11 L 1783.73,1099.54 L 1777.65,1087.24 L 1771.26,1075.29 L 1764.46,1063.75 L 1757.18,1052.69 L 1749.37,1042.13 L 1740.98,1032.11 L 1732.02,1022.63 L 1722.50,1013.66 L 1712.46,1005.16 L 1701.99,997.06 L 1691.15,989.30 L 1680.08,981.75 L 1668.89,974.32 L 1657.71,966.88 L 1646.67,959.30 L 1635.92,951.46 L 1625.55,943.26 L 1615.67,934.58 L 1606.37,925.36 L 1597.68,915.52 L 1589.63,905.05 L 1582.20,893.95 L 1575.35,882.24 L 1569.00,869.99 L 1563.05,857.30 L 1557.36,844.29 L 1551.78,831.10 L 1546.14,817.91 L 1540.29,804.89 L 1534.04,792.23 L 1527.23,780.10 L 1519.73,768.69 L 1511.40,758.14 L 1502.16,748.60 L 1491.95,740.15 L 1480.74,732.88 L 1468.56,726.80 L 1455.46,721.90 L 1441.54,718.13 L 1426.93,715.38 L 1411.80,713.53 L 1396.32,712.39 L 1380.70,711.77 L 1365.16,711.45 L 1349.89,711.19 L 1335.12,710.75 L 1321.03,709.89 L 1307.78,708.40 L 1295.50,706.07 L 1284.30,702.73 L 1274.23,698.23 L 1265.30,692.49 L 1257.50,685.46 L 1250.74,677.12 L 1244.92,667.53 L 1239.89,656.77 L 1235.48,644.96 L 1231.50,632.28 L 1227.74,618.92 L 1223.97,605.09 L 1220.00,591.03 L 1215.61,576.96 L 1210.62,563.12 L 1204.87,549.72 L 1198.24,536.95 L 1190.63,524.98 L 1181.98,513.94 L 1172.28,503.91 L 1161.54,494.96 L 1149.81,487.09 L 1137.19,480.27 L 1123.79,474.43 L 1109.72,469.48 L 1095.14,465.29 L 1080.19,461.72 L 1065.02,458.61 L 1049.78,455.81 L 1034.57,453.17 L 1019.51,450.53 L 1004.67,447.80 L 990.11,444.86 L 975.84,441.66 L 961.86,438.16 L 948.12,434.36 L 934.58,430.31 L 921.14,426.06 L 907.70,421.70 L 894.18,417.35 L 880.44,413.13 L 866.39,409.17 L 851.94,405.61 L 837.00,402.56 L 821.53,400.12 L 805.50,398.37 L 788.91,397.36 L 771.80,397.08 L 754.25,397.51 L 736.36,398.57 L 718.26,400.15 L 700.12,402.09 L 682.12,404.22 L 664.47,406.31 L 647.38,408.15 L 631.05,409.48 L 615.71,410.06 L 601.56,409.67 L 588.77,408.10 L 577.51,405.15 L 567.91,400.70 L 560.08,394.64 L 554.07,386.94 L 549.93,377.60 L 547.64,366.69 L 547.19,354.35 L 548.49,340.75 L 551.45,326.13 L 555.97,310.75 L 561.89,294.93 L 569.08,278.99 L 577.37,263.27 L 586.62,248.10 L 596.66,233.81 L 607.36,220.70 L 618.57,209.02 L 630.18,198.99 L 642.07,190.78 L 654.17,184.46 L 666.39,180.09 L 678.68,177.64 L 691.00,177.00 L 703.32,178.02 L 715.62,180.49 L 727.89,184.16 L 740.11,188.73 L 752.29,193.89 L 764.40,199.30 L 776.44,204.63 L 788.39,209.56 L 800.23,213.79 L 811.93,217.07 L 823.45,219.16 L 834.77,219.90 L 845.85,219.18 L 856.65,216.95 L 867.15,213.22 L 877.30,208.05 L 887.11,201.57 L 896.57,193.96 L 905.68,185.42 L 914.47,176.20 L 922.98,166.58 L 931.27,156.83 L 939.40,147.23 L 947.47,138.04 L 955.56,129.52 L 963.77,121.87 L 972.21,115.28 L 980.99,109.87 L 990.20,105.73 L 999.93,102.88 L 1010.26,101.31 L 1021.25,100.94 L 1032.94,101.67 L 1045.34,103.34 L 1058.44,105.76 L 1072.22,108.73 L 1086.61,112.02 L 1101.54,115.42 L 1116.91,118.69 L 1132.59,121.64 L 1148.48,124.06 L 1164.42,125.81 L 1180.29,126.77 L 1195.96,126.84 L 1211.31,125.98 L 1226.22,124.19 L 1240.61,121.51 L 1254.42,118.02 L 1267.60,113.83 L 1280.15,109.08 L 1292.07,103.94 L 1303.42,98.57 L 1314.24,93.18 L 1324.64,87.95 L 1334.72,83.05 L 1344.59,78.67 L 1354.37,74.95 L 1364.21,72.02 L 1374.21,69.98 L 1384.50,68.90 L 1395.17,68.83 L 1406.29,69.76 L 1417.93,71.68 L 1430.11,74.54 L 1442.84,78.28 L 1456.09,82.81 L 1469.80,88.03 L 1483.91,93.82 L 1498.31,100.08 L 1512.89,106.68 L 1527.53,113.53 L 1542.08,120.54 L 1556.43,127.60 L 1570.43,134.67 L 1583.97,141.69 L 1596.95,148.64 L 1609.28,155.49 L 1620.90,162.27 L 1631.77,168.98 L 1641.90,175.66 L 1651.29,182.36 L 1659.99,189.13 L 1668.06,196.03 L 1675.60,203.10 L 1682.70,210.41 L 1689.48,218.01 L 1696.05,225.93 L 1702.53,234.20 L 1709.05,242.84 L 1715.71,251.86 L 1722.60,261.25 L 1729.80,270.99 L 1737.37,281.06 L 1745.34,291.41 L 1753.73,302.00 L 1762.54,312.76 L 1771.74,323.65 L 1781.29,334.60 L 1791.14,345.55 L 1801.21,356.44 L 1811.46,367.20 L 1821.79,377.80 L 1832.15,388.16 L 1842.47,398.26 L 1852.71,408.06 L 1862.83,417.52 L 1872.82,426.62 L 1882.66,435.34 L 1892.38,443.67 L 1901.99,451.59 L 1911.56,459.12 L 1921.13,466.24 L 1930.77,472.96 L 1940.54,479.30 L 1950.51,485.27 L 1960.75,490.88 L 1971.30,496.17 L 1982.21,501.15 L 1993.49,505.88 L 2005.16,510.38 L 2017.19,514.72 L 2029.54,518.94 L 2042.15,523.11 L 2054.93,527.31 L 2067.79,531.62 L 2080.60,536.11 L 2093.23,540.88 L 2105.55,546.03 L 2117.43,551.64 L 2128.73,557.80 L 2139.33,564.62 L 2149.11,572.16 L 2158.00,580.51 L 2165.91,589.72 L 2172.82,599.85 L 2178.71,610.91 L 2183.59,622.93 L 2187.50,635.89 L 2190.53,649.78 L 2192.76,664.53 L 2194.30,680.08 L 2195.30,696.34 L 2195.89,713.21 L 2196.22,730.57 L 2196.46,748.29 L 2196.75,766.23 L 2197.22,784.25 L 2198.00,802.20 L 2199.21,819.95 L 2200.93,837.37 L 2203.22,854.33 L 2206.14,870.75 L 2209.69,886.52 L 2213.88,901.60 L 2218.68,915.93 L 2224.05,929.49 L 2229.94,942.29 L 2236.29,954.36 L 2243.01,965.74 L 2250.04,976.50 L 2257.30,986.71 L 2264.72,996.47 L 2272.24,1005.89 L 2279.82,1015.07 L 2287.40,1024.14 L 2294.95,1033.18 L 2302.48,1042.33 L 2309.95,1051.66 L 2317.38,1061.28 L 2324.77,1071.25 L 2332.14,1081.64 L 2339.49,1092.50 L 2346.84,1103.84 L 2354.18,1115.70 L 2361.51,1128.06 L 2368.81,1140.91 L 2376.05,1154.23 L 2383.19,1167.99 L 2390.17,1182.13 L 2396.90,1196.60 L 2403.32,1211.35 L 2409.31,1226.32 L 2414.79,1241.44 L 2419.64,1256.67 L 2423.75,1271.93 L 2427.02,1287.18 L 2429.37,1302.36 L 2430.70,1317.43 L 2430.96,1332.34 L 2430.08,1347.04 L 2428.06,1361.51 L 2424.87,1375.70 L 2420.54,1389.59 L 2415.10,1403.13 L 2408.62,1416.31 L 2401.17,1429.09 L 2392.84,1441.45 L 2383.74,1453.35 L 2373.98,1464.77 L 2363.67,1475.69 L 2352.92,1486.08 L 2341.83,1495.93 L 2330.51,1505.21 L 2319.02,1513.92 L 2307.44,1522.04 L 2295.81,1529.58 L 2284.15,1536.52 L 2272.49,1542.89 L 2260.81,1548.68 L 2249.08,1553.92 L 2237.28,1558.62 L 2225.36,1562.82 L 2213.27,1566.52 L 2200.98,1569.76 L 2188.43,1572.55 L 2175.59,1574.93 L 2162.46,1576.91 L 2149.01,1578.49 L 2135.28,1579.69 L 2121.30,1580.50 Z"/>
</svg>