<?xml version="1.0" encoding="UTF-8"?>
<svg xmlns="http://www.w3.org/2000/svg" width="2500.0" height="1699.7167138810198" viewBox="0 0 2500.0 1699.7167138810198">
<rect x="0" y="0" width="1" height="1" fill="#e6c41e"/>
<rect x="2499.0" y="1698.7167138810198" width="1" height="1" fill="#e6c41e"/>
<path fill="#e6c41e" stroke="none" d="M 2053.82,1703.26 L 2032.58,1703.26 L 2018.41,1696.18 L 2004.25,1689.09 L 1993.63,1678.47 L 1979.46,1664.31 L 1972.38,1650.14 L 1965.30,1635.98 L 1958.22,1621.81 L 1951.13,1600.57 L 1940.51,1589.94 L 1929.89,1579.32 L 1912.18,1575.78 L 1898.02,1561.61 L 1880.31,1558.07 L 1862.61,1554.53 L 1848.44,1547.45 L 1827.20,1540.37 L 1813.03,1533.29 L 1791.78,1533.29 L 1777.62,1526.20 L 1759.92,1515.58 L 1742.21,1512.04 L 1720.96,1512.04 L 1706.80,1504.96 L 1685.55,1497.88 L 1671.39,1490.79 L 1657.22,1483.71 L 1639.52,1480.17 L 1621.81,1469.55 L 1600.57,1469.55 L 1586.40,1462.46 L 1572.24,1455.38 L 1547.45,1451.84 L 1533.29,1444.76 L 1515.58,1441.22 L 1501.42,1434.14 L 1487.25,1434.14 L 1473.09,1427.05 L 1455.38,1423.51 L 1437.68,1419.97 L 1419.97,1409.35 L 1402.27,1405.81 L 1388.10,1398.73 L 1366.86,1398.73 L 1352.69,1384.56 L 1338.53,1377.48 L 1317.28,1377.48 L 1303.12,1370.40 L 1281.87,1363.31 L 1267.71,1356.23 L 1253.54,1349.15 L 1232.29,1349.15 L 1211.05,1342.07 L 1193.34,1338.53 L 1182.72,1327.90 L 1161.47,1327.90 L 1140.23,1320.82 L 1126.06,1313.74 L 1111.90,1306.66 L 1090.65,1306.66 L 1072.95,1296.03 L 1055.24,1292.49 L 1041.08,1285.41 L 1023.37,1281.87 L 1005.67,1271.25 L 984.42,1271.25 L 970.25,1264.16 L 956.09,1257.08 L 934.84,1250.00 L 920.68,1242.92 L 902.97,1239.38 L 885.27,1235.84 L 864.02,1228.75 L 849.86,1221.67 L 835.69,1214.59 L 814.45,1214.59 L 796.74,1203.97 L 779.04,1200.42 L 764.87,1193.34 L 743.63,1193.34 L 722.38,1186.26 L 708.22,1179.18 L 686.97,1179.18 L 676.35,1168.56 L 658.64,1157.93 L 637.39,1157.93 L 623.23,1150.85 L 609.07,1143.77 L 584.28,1140.23 L 570.11,1133.14 L 552.41,1129.60 L 538.24,1122.52 L 513.46,1118.98 L 502.83,1108.36 L 485.13,1104.82 L 467.42,1101.27 L 446.18,1094.19 L 432.01,1087.11 L 410.76,1087.11 L 396.60,1080.03 L 375.35,1072.95 L 361.19,1065.86 L 347.03,1058.78 L 325.78,1058.78 L 308.07,1048.16 L 293.91,1041.08 L 276.20,1037.54 L 262.04,1030.45 L 237.25,1026.91 L 219.55,1023.37 L 205.38,1016.29 L 191.22,1009.21 L 169.97,1002.12 L 152.27,998.58 L 138.10,991.50 L 120.40,987.96 L 99.15,980.88 L 88.53,970.25 L 74.36,963.17 L 63.74,952.55 L 46.03,941.93 L 35.41,931.30 L 24.79,920.68 L 17.71,906.52 L 10.62,885.27 L 3.54,871.10 L 3.54,849.86 L 3.54,828.61 L 3.54,814.45 L -3.54,800.28 L -3.54,779.04 L 7.08,768.41 L 17.71,750.71 L 17.71,729.46 L 24.79,715.30 L 35.41,704.67 L 46.03,694.05 L 53.12,672.80 L 63.74,662.18 L 74.36,651.56 L 88.53,644.48 L 102.69,630.31 L 113.31,619.69 L 109.77,609.07 L 120.40,598.44 L 134.56,598.44 L 145.18,587.82 L 155.81,577.20 L 166.43,566.57 L 177.05,548.87 L 191.22,541.78 L 201.84,531.16 L 212.46,520.54 L 226.63,506.37 L 237.25,495.75 L 247.88,485.13 L 262.04,492.21 L 276.20,478.05 L 286.83,467.42 L 297.45,456.80 L 308.07,460.34 L 322.24,446.18 L 332.86,435.55 L 343.48,424.93 L 354.11,428.47 L 375.35,421.39 L 385.98,410.76 L 396.60,400.14 L 407.22,389.52 L 428.47,382.44 L 439.09,371.81 L 449.72,361.19 L 456.80,347.03 L 470.96,332.86 L 474.50,315.16 L 485.13,304.53 L 495.75,293.91 L 506.37,276.20 L 509.92,258.50 L 506.37,247.88 L 517.00,237.25 L 513.46,219.55 L 524.08,208.92 L 534.70,198.30 L 545.33,187.68 L 559.49,173.51 L 566.57,159.35 L 577.20,148.73 L 587.82,152.27 L 605.52,141.64 L 616.15,131.02 L 626.77,120.40 L 637.39,123.94 L 658.64,116.86 L 669.26,113.31 L 683.43,113.31 L 701.13,109.77 L 722.38,102.69 L 736.54,95.61 L 750.71,88.53 L 761.33,99.15 L 775.50,106.23 L 786.12,109.77 L 796.74,120.40 L 807.37,131.02 L 821.53,131.02 L 832.15,120.40 L 842.78,109.77 L 853.40,99.15 L 867.56,84.99 L 878.19,74.36 L 888.81,63.74 L 899.43,53.12 L 917.14,42.49 L 927.76,31.87 L 938.39,42.49 L 949.01,38.95 L 963.17,24.79 L 984.42,24.79 L 1002.12,21.25 L 1019.83,17.71 L 1033.99,17.71 L 1051.70,21.25 L 1065.86,28.33 L 1080.03,35.41 L 1097.73,31.87 L 1118.98,31.87 L 1129.60,42.49 L 1140.23,53.12 L 1161.47,60.20 L 1172.10,70.82 L 1189.80,74.36 L 1211.05,74.36 L 1232.29,67.28 L 1242.92,56.66 L 1253.54,46.03 L 1264.16,35.41 L 1278.33,21.25 L 1288.95,10.62 L 1299.58,0.00 L 1317.28,-3.54 L 1345.61,-3.54 L 1366.86,-3.54 L 1388.10,-3.54 L 1409.35,-3.54 L 1437.68,-3.54 L 1448.30,7.08 L 1458.92,17.71 L 1469.55,28.33 L 1487.25,38.95 L 1497.88,49.58 L 1508.50,60.20 L 1522.66,67.28 L 1543.91,74.36 L 1565.16,74.36 L 1579.32,81.44 L 1600.57,81.44 L 1628.90,81.44 L 1643.06,74.36 L 1664.31,74.36 L 1678.47,81.44 L 1706.80,81.44 L 1724.50,84.99 L 1735.13,95.61 L 1749.29,88.53 L 1756.37,102.69 L 1745.75,113.31 L 1752.83,127.48 L 1763.46,138.10 L 1767.00,155.81 L 1767.00,184.14 L 1774.08,198.30 L 1767.00,212.46 L 1774.08,226.63 L 1784.70,244.33 L 1795.33,254.96 L 1805.95,265.58 L 1816.57,276.20 L 1834.28,286.83 L 1844.90,297.45 L 1855.52,308.07 L 1869.69,315.16 L 1890.93,322.24 L 1901.56,332.86 L 1912.18,343.48 L 1908.64,354.11 L 1919.26,371.81 L 1929.89,382.44 L 1940.51,393.06 L 1951.13,403.68 L 1961.76,421.39 L 1972.38,432.01 L 1983.00,442.63 L 1997.17,449.72 L 2011.33,435.55 L 2021.95,424.93 L 2036.12,424.93 L 2046.74,435.55 L 2060.91,449.72 L 2071.53,460.34 L 2089.24,463.88 L 2110.48,463.88 L 2131.73,456.80 L 2145.89,463.88 L 2167.14,463.88 L 2184.84,467.42 L 2199.01,481.59 L 2206.09,495.75 L 2213.17,509.92 L 2220.25,524.08 L 2234.42,538.24 L 2234.42,559.49 L 2227.34,573.65 L 2234.42,587.82 L 2234.42,616.15 L 2237.96,633.85 L 2248.58,644.48 L 2252.12,655.10 L 2255.67,672.80 L 2262.75,686.97 L 2269.83,701.13 L 2276.91,715.30 L 2280.45,740.08 L 2283.99,757.79 L 2283.99,779.04 L 2291.08,793.20 L 2305.24,807.37 L 2315.86,817.99 L 2312.32,828.61 L 2319.41,842.78 L 2312.32,864.02 L 2319.41,878.19 L 2330.03,888.81 L 2337.11,902.97 L 2340.65,927.76 L 2333.57,941.93 L 2337.11,959.63 L 2347.73,970.25 L 2361.90,984.42 L 2368.98,998.58 L 2368.98,1019.83 L 2379.60,1030.45 L 2393.77,1044.62 L 2407.93,1051.70 L 2418.56,1048.16 L 2429.18,1058.78 L 2425.64,1076.49 L 2436.26,1087.11 L 2446.88,1097.73 L 2450.42,1108.36 L 2439.80,1126.06 L 2450.42,1136.69 L 2461.05,1147.31 L 2471.67,1157.93 L 2468.13,1175.64 L 2471.67,1193.34 L 2482.29,1203.97 L 2482.29,1225.21 L 2489.38,1246.46 L 2489.38,1267.71 L 2496.46,1281.87 L 2500.00,1299.58 L 2503.54,1324.36 L 2503.54,1345.61 L 2503.54,1366.86 L 2503.54,1388.10 L 2503.54,1416.43 L 2496.46,1430.59 L 2492.92,1448.30 L 2489.38,1466.01 L 2485.84,1490.79 L 2482.29,1508.50 L 2471.67,1519.12 L 2461.05,1529.75 L 2453.97,1550.99 L 2446.88,1565.16 L 2436.26,1575.78 L 2425.64,1586.40 L 2404.39,1593.48 L 2393.77,1604.11 L 2379.60,1611.19 L 2365.44,1618.27 L 2344.19,1625.35 L 2330.03,1632.44 L 2315.86,1639.52 L 2301.70,1646.60 L 2273.37,1646.60 L 2259.21,1653.68 L 2237.96,1653.68 L 2216.71,1653.68 L 2195.47,1660.76 L 2177.76,1664.31 L 2160.06,1667.85 L 2145.89,1674.93 L 2124.65,1682.01 L 2106.94,1685.55 L 2089.24,1689.09 L 2075.07,1696.18 L 2053.82,1703.26 Z"/>
</svg>