<?xml version="1.0" encoding="UTF-8"?>
<svg xmlns="http://www.w3.org/2000/svg" width="2500.0" height="1699.7167138810198" viewBox="0 0 2500.0 1699.7167138810198">
<path fill="#921209" stroke="none" d="M 2060.80,1627.16 L 2050.96,1622.22 L 2041.81,1615.97 L 2033.13,1608.54 L 2024.73,1600.11 L 2016.39,1590.86 L 2007.92,1580.97 L 1999.15,1570.66 L 1989.91,1560.09 L 1980.09,1549.45 L 1969.59,1538.89 L 1958.36,1528.55 L 1946.39,1518.54 L 1933.68,1508.95 L 1920.27,1499.86 L 1906.22,1491.30 L 1891.60,1483.31 L 1876.51,1475.89 L 1861.02,1469.04 L 1845.22,1462.73 L 1829.19,1456.93 L 1812.99,1451.59 L 1796.70,1446.65 L 1780.35,1442.06 L 1763.97,1437.73 L 1747.60,1433.61 L 1731.25,1429.60 L 1714.92,1425.63 L 1698.62,1421.62 L 1682.36,1417.51 L 1666.12,1413.22 L 1649.93,1408.72 L 1633.76,1403.96 L 1617.64,1398.91 L 1601.56,1393.58 L 1585.53,1387.98 L 1569.56,1382.14 L 1553.64,1376.10 L 1537.77,1369.92 L 1521.95,1363.67 L 1506.17,1357.42 L 1490.41,1351.25 L 1474.66,1345.23 L 1458.90,1339.41 L 1443.10,1333.84 L 1427.26,1328.55 L 1411.33,1323.54 L 1395.33,1318.81 L 1379.22,1314.31 L 1363.02,1310.00 L 1346.73,1305.82 L 1330.36,1301.69 L 1313.93,1297.54 L 1297.47,1293.27 L 1281.00,1288.84 L 1264.55,1284.18 L 1248.15,1279.24 L 1231.83,1274.02 L 1215.60,1268.52 L 1199.49,1262.77 L 1183.48,1256.80 L 1167.59,1250.68 L 1151.79,1244.49 L 1136.06,1238.31 L 1120.38,1232.22 L 1104.72,1226.30 L 1089.04,1220.60 L 1073.30,1215.17 L 1057.48,1210.03 L 1041.56,1205.19 L 1025.53,1200.62 L 1009.37,1196.27 L 993.09,1192.08 L 976.72,1187.96 L 960.27,1183.84 L 943.77,1179.62 L 927.27,1175.23 L 910.80,1170.59 L 894.39,1165.66 L 878.08,1160.41 L 861.90,1154.84 L 845.85,1148.96 L 829.95,1142.84 L 814.19,1136.54 L 798.55,1130.14 L 783.00,1123.74 L 767.50,1117.43 L 752.02,1111.29 L 736.52,1105.42 L 720.94,1099.86 L 705.26,1094.65 L 689.43,1089.79 L 673.45,1085.26 L 657.29,1081.01 L 640.98,1076.97 L 624.51,1073.06 L 607.93,1069.16 L 591.27,1065.18 L 574.58,1061.01 L 557.90,1056.58 L 541.29,1051.80 L 524.79,1046.65 L 508.44,1041.11 L 492.26,1035.19 L 476.29,1028.96 L 460.50,1022.47 L 444.90,1015.83 L 429.45,1009.16 L 414.11,1002.57 L 398.82,996.17 L 383.54,990.08 L 368.19,984.37 L 352.72,979.11 L 337.07,974.31 L 321.21,969.98 L 305.09,966.05 L 288.71,962.46 L 272.09,959.08 L 255.24,955.78 L 238.23,952.40 L 221.13,948.77 L 204.05,944.73 L 187.08,940.13 L 170.38,934.81 L 154.08,928.67 L 138.33,921.60 L 123.30,913.57 L 109.14,904.54 L 96.01,894.52 L 84.06,883.56 L 73.40,871.73 L 64.18,859.11 L 56.48,845.82 L 50.39,831.96 L 45.96,817.66 L 43.22,803.04 L 42.19,788.20 L 42.84,773.26 L 45.13,758.30 L 48.98,743.41 L 54.30,728.66 L 60.97,714.11 L 68.86,699.80 L 77.81,685.79 L 87.67,672.11 L 98.26,658.79 L 109.41,645.88 L 120.95,633.40 L 132.74,621.36 L 144.62,609.80 L 156.48,598.72 L 168.22,588.13 L 179.78,578.02 L 191.12,568.37 L 202.23,559.14 L 213.14,550.29 L 223.90,541.75 L 234.57,533.46 L 245.26,525.33 L 256.06,517.29 L 267.07,509.26 L 278.40,501.17 L 290.12,492.95 L 302.30,484.56 L 314.98,475.98 L 328.15,467.19 L 341.79,458.21 L 355.82,449.07 L 370.16,439.81 L 384.66,430.47 L 399.17,421.11 L 413.53,411.77 L 427.55,402.48 L 441.07,393.24 L 453.92,384.05 L 465.98,374.86 L 477.15,365.60 L 487.36,356.18 L 496.62,346.48 L 504.96,336.37 L 512.47,325.73 L 519.30,314.43 L 525.60,302.39 L 531.60,289.55 L 537.53,275.90 L 543.62,261.49 L 550.11,246.43 L 557.23,230.92 L 565.16,215.18 L 574.06,199.53 L 584.03,184.32 L 595.15,169.91 L 607.40,156.70 L 620.73,145.04 L 635.04,135.27 L 650.19,127.66 L 665.98,122.40 L 682.22,119.57 L 698.67,119.14 L 715.11,120.97 L 731.33,124.80 L 747.13,130.25 L 762.34,136.87 L 776.85,144.12 L 790.56,151.41 L 803.44,158.16 L 815.49,163.77 L 826.74,167.75 L 837.29,169.65 L 847.23,169.15 L 856.69,166.06 L 865.82,160.34 L 874.77,152.10 L 883.67,141.60 L 892.66,129.24 L 901.86,115.53 L 911.38,101.05 L 921.30,86.46 L 931.68,72.40 L 942.57,59.51 L 953.99,48.34 L 965.96,39.36 L 978.49,32.92 L 991.55,29.19 L 1005.15,28.20 L 1019.27,29.85 L 1033.88,33.84 L 1048.97,39.76 L 1064.50,47.11 L 1080.46,55.30 L 1096.79,63.69 L 1113.44,71.68 L 1130.37,78.68 L 1147.48,84.19 L 1164.71,87.82 L 1181.94,89.32 L 1199.07,88.55 L 1215.98,85.55 L 1232.57,80.50 L 1248.73,73.70 L 1264.35,65.56 L 1279.37,56.56 L 1293.73,47.25 L 1307.41,38.16 L 1320.43,29.80 L 1332.85,22.63 L 1344.75,17.03 L 1356.26,13.26 L 1367.53,11.47 L 1378.74,11.67 L 1390.09,13.77 L 1401.75,17.57 L 1413.92,22.77 L 1426.76,29.01 L 1440.38,35.92 L 1454.88,43.09 L 1470.29,50.17 L 1486.59,56.84 L 1503.71,62.86 L 1521.51,68.08 L 1539.81,72.45 L 1558.40,76.02 L 1577.03,78.93 L 1595.45,81.41 L 1613.38,83.73 L 1630.59,86.22 L 1646.84,89.21 L 1661.97,93.03 L 1675.85,97.95 L 1688.41,104.20 L 1699.64,111.94 L 1709.60,121.22 L 1718.40,132.05 L 1726.20,144.29 L 1733.21,157.79 L 1739.66,172.28 L 1745.78,187.49 L 1751.83,203.11 L 1758.02,218.82 L 1764.55,234.34 L 1771.58,249.42 L 1779.22,263.86 L 1787.53,277.54 L 1796.52,290.39 L 1806.17,302.41 L 1816.40,313.68 L 1827.10,324.31 L 1838.16,334.45 L 1849.45,344.26 L 1860.84,353.91 L 1872.23,363.55 L 1883.54,373.29 L 1894.72,383.18 L 1905.76,393.23 L 1916.69,403.41 L 1927.57,413.59 L 1938.50,423.65 L 1949.58,433.39 L 1960.95,442.63 L 1972.71,451.16 L 1984.97,458.83 L 1997.83,465.49 L 2011.31,471.08 L 2025.42,475.59 L 2040.11,479.08 L 2055.29,481.71 L 2070.82,483.69 L 2086.51,485.31 L 2102.15,486.90 L 2117.51,488.82 L 2132.36,491.45 L 2146.45,495.15 L 2159.58,500.24 L 2171.58,506.98 L 2182.33,515.57 L 2191.74,526.12 L 2199.79,538.65 L 2206.54,553.08 L 2212.08,569.24 L 2216.56,586.90 L 2220.15,605.76 L 2223.09,625.48 L 2225.59,645.70 L 2227.89,666.06 L 2230.20,686.24 L 2232.72,705.95 L 2235.61,724.98 L 2238.97,743.17 L 2242.89,760.45 L 2247.37,776.82 L 2252.39,792.35 L 2257.89,807.18 L 2263.79,821.49 L 2269.97,835.47 L 2276.30,849.35 L 2282.69,863.31 L 2289.01,877.55 L 2295.21,892.17 L 2301.22,907.26 L 2307.04,922.84 L 2312.68,938.85 L 2318.22,955.20 L 2323.71,971.74 L 2329.28,988.30 L 2335.04,1004.67 L 2341.10,1020.67 L 2347.56,1036.12 L 2354.51,1050.88 L 2361.99,1064.87 L 2370.02,1078.05 L 2378.58,1090.47 L 2387.59,1102.22 L 2396.94,1113.48 L 2406.47,1124.47 L 2416.01,1135.43 L 2425.36,1146.66 L 2434.32,1158.44 L 2442.67,1171.02 L 2450.22,1184.64 L 2456.82,1199.47 L 2462.32,1215.62 L 2466.64,1233.11 L 2469.72,1251.90 L 2471.56,1271.84 L 2472.19,1292.74 L 2471.68,1314.32 L 2470.12,1336.25 L 2467.63,1358.20 L 2464.32,1379.79 L 2460.32,1400.69 L 2455.72,1420.57 L 2450.60,1439.16 L 2445.02,1456.26 L 2438.98,1471.72 L 2432.48,1485.51 L 2425.46,1497.62 L 2417.84,1508.17 L 2409.52,1517.30 L 2400.40,1525.24 L 2390.36,1532.21 L 2379.30,1538.49 L 2367.14,1544.34 L 2353.83,1549.99 L 2339.36,1555.67 L 2323.77,1561.54 L 2307.13,1567.70 L 2289.56,1574.21 L 2271.25,1581.04 L 2252.38,1588.12 L 2233.20,1595.32 L 2213.94,1602.47 L 2194.87,1609.36 L 2176.23,1615.77 L 2158.23,1621.47 L 2141.08,1626.25 L 2124.92,1629.90 L 2109.85,1632.27 L 2095.93,1633.23 L 2083.16,1632.71 L 2071.49,1630.68 Z"/>
</svg>