<?xml version="1.0" encoding="UTF-8"?>
<svg xmlns="http://www.w3.org/2000/svg" width="2500.0" height="1699.7167138810198" viewBox="0 0 2500.0 1699.7167138810198">
<path fill="#374806" stroke="none" d="M 1101.44,484.61 L 1099.02,484.76 L 1095.41,484.39 L 1090.73,483.52 L 1085.11,482.18 L 1078.72,480.40 L 1071.77,478.24 L 1064.45,475.76 L 1056.97,473.02 L 1049.51,470.08 L 1042.22,467.02 L 1035.24,463.88 L 1028.66,460.72 L 1022.53,457.58 L 1016.86,454.50 L 1011.63,451.50 L 1006.77,448.60 L 1002.19,445.80 L 997.80,443.09 L 993.47,440.48 L 989.09,437.94 L 984.56,435.45 L 979.79,433.00 L 974.70,430.57 L 969.25,428.16 L 963.42,425.74 L 957.22,423.32 L 950.68,420.90 L 943.86,418.49 L 936.83,416.11 L 929.65,413.77 L 922.41,411.52 L 915.17,409.37 L 908.00,407.36 L 900.94,405.52 L 894.02,403.89 L 887.25,402.50 L 880.61,401.38 L 874.07,400.54 L 867.58,400.01 L 861.08,399.79 L 854.50,399.89 L 847.79,400.29 L 840.89,400.98 L 833.73,401.93 L 826.30,403.11 L 818.56,404.46 L 810.53,405.95 L 802.24,407.51 L 793.72,409.07 L 785.03,410.59 L 776.26,411.98 L 767.49,413.19 L 758.82,414.15 L 750.34,414.80 L 742.16,415.10 L 734.37,414.99 L 727.05,414.46 L 720.27,413.47 L 714.11,412.01 L 708.61,410.09 L 703.81,407.72 L 699.74,404.91 L 696.43,401.70 L 693.87,398.12 L 692.08,394.22 L 691.05,390.04 L 690.76,385.63 L 691.20,381.02 L 692.36,376.27 L 694.19,371.39 L 696.66,366.43 L 699.72,361.39 L 703.31,356.31 L 707.37,351.18 L 711.82,346.02 L 716.55,340.81 L 721.47,335.56 L 726.47,330.28 L 731.41,324.96 L 736.19,319.61 L 740.67,314.26 L 744.75,308.92 L 748.30,303.64 L 751.23,298.46 L 753.47,293.45 L 754.95,288.66 L 755.64,284.16 L 755.52,280.04 L 754.61,276.38 L 752.93,273.24 L 750.55,270.71 L 747.53,268.84 L 743.96,267.69 L 739.94,267.28 L 735.57,267.66 L 730.94,268.81 L 726.16,270.73 L 721.32,273.38 L 716.50,276.72 L 711.77,280.70 L 707.20,285.23 L 702.82,290.25 L 698.69,295.66 L 694.81,301.38 L 691.23,307.33 L 687.93,313.43 L 684.94,319.60 L 682.26,325.79 L 679.88,331.92 L 677.79,337.96 L 675.98,343.86 L 674.44,349.61 L 673.14,355.17 L 672.04,360.54 L 671.10,365.69 L 670.25,370.63 L 669.42,375.34 L 668.52,379.82 L 667.46,384.05 L 666.13,388.02 L 664.41,391.71 L 662.19,395.12 L 659.36,398.22 L 655.84,400.98 L 651.53,403.40 L 646.40,405.45 L 640.42,407.11 L 633.61,408.38 L 626.02,409.24 L 617.74,409.69 L 608.90,409.72 L 599.68,409.34 L 590.25,408.55 L 580.83,407.37 L 571.65,405.80 L 562.93,403.85 L 554.89,401.55 L 547.72,398.89 L 541.59,395.90 L 536.64,392.59 L 532.93,388.96 L 530.50,385.04 L 529.34,380.83 L 529.39,376.35 L 530.53,371.62 L 532.62,366.66 L 535.48,361.50 L 538.93,356.15 L 542.77,350.66 L 546.80,345.05 L 550.85,339.37 L 554.77,333.64 L 558.44,327.90 L 561.78,322.19 L 564.75,316.53 L 567.36,310.93 L 569.65,305.42 L 571.68,299.99 L 573.57,294.63 L 575.40,289.35 L 577.31,284.10 L 579.40,278.87 L 581.77,273.64 L 584.49,268.37 L 587.61,263.04 L 591.13,257.64 L 595.04,252.18 L 599.28,246.66 L 603.76,241.11 L 608.37,235.60 L 612.99,230.18 L 617.48,224.95 L 621.70,220.00 L 625.54,215.45 L 628.90,211.41 L 631.69,208.01 L 633.88,205.34 L 635.45,203.51 L 636.43,202.60 L 636.87,202.65 L 636.88,203.68 L 636.54,205.68 L 636.00,208.61 L 635.38,212.36 L 634.83,216.83 L 634.46,221.87 L 634.38,227.31 L 634.70,232.97 L 635.46,238.64 L 636.72,244.14 L 638.47,249.30 L 640.71,253.94 L 643.41,257.93 L 646.50,261.18 L 649.93,263.62 L 653.63,265.22 L 657.54,266.00 L 661.59,266.01 L 665.75,265.33 L 669.97,264.07 L 674.24,262.36 L 678.56,260.32 L 682.94,258.10 L 687.38,255.82 L 691.93,253.59 L 696.59,251.48 L 701.40,249.56 L 706.36,247.85 L 711.46,246.34 L 716.70,244.99 L 722.04,243.73 L 727.43,242.48 L 732.79,241.14 L 738.06,239.59 L 743.15,237.74 L 747.98,235.49 L 752.45,232.79 L 756.51,229.58 L 760.10,225.87 L 763.18,221.67 L 765.74,217.05 L 767.79,212.12 L 769.38,207.01 L 770.56,201.86 L 771.41,196.87 L 772.04,192.20 L 772.55,188.04 L 773.05,184.57 L 773.65,181.93 L 774.44,180.24 L 775.52,179.60 L 776.95,180.04 L 778.77,181.57 L 781.01,184.15 L 783.67,187.68 L 786.74,192.04 L 790.17,197.08 L 793.92,202.60 L 797.94,208.41 L 802.18,214.29 L 806.57,220.02 L 811.08,225.42 L 815.68,230.28 L 820.33,234.46 L 825.04,237.82 L 829.80,240.27 L 834.64,241.76 L 839.56,242.26 L 844.61,241.80 L 849.79,240.42 L 855.12,238.22 L 860.61,235.30 L 866.25,231.79 L 872.01,227.85 L 877.83,223.63 L 883.67,219.29 L 889.43,214.99 L 895.03,210.88 L 900.37,207.10 L 905.34,203.78 L 909.84,201.03 L 913.77,198.94 L 917.06,197.57 L 919.64,196.97 L 921.47,197.16 L 922.52,198.14 L 922.81,199.89 L 922.34,202.36 L 921.17,205.50 L 919.34,209.21 L 916.92,213.42 L 913.99,218.01 L 910.61,222.87 L 906.85,227.90 L 902.77,232.96 L 898.41,237.97 L 893.81,242.81 L 888.99,247.40 L 883.96,251.68 L 878.74,255.60 L 873.32,259.13 L 867.70,262.27 L 861.91,265.04 L 855.96,267.51 L 849.89,269.72 L 843.75,271.77 L 837.63,273.75 L 831.60,275.77 L 825.80,277.94 L 820.32,280.35 L 815.32,283.10 L 810.90,286.24 L 807.21,289.83 L 804.34,293.89 L 802.39,298.39 L 801.41,303.29 L 801.44,308.52 L 802.47,313.97 L 804.46,319.50 L 807.32,324.97 L 810.96,330.22 L 815.24,335.08 L 820.00,339.40 L 825.09,343.01 L 830.35,345.81 L 835.63,347.69 L 840.78,348.58 L 845.71,348.46 L 850.33,347.34 L 854.60,345.26 L 858.52,342.31 L 862.10,338.61 L 865.41,334.30 L 868.53,329.54 L 871.57,324.50 L 874.63,319.35 L 877.83,314.27 L 881.27,309.39 L 885.05,304.85 L 889.23,300.76 L 893.85,297.17 L 898.93,294.15 L 904.44,291.68 L 910.33,289.75 L 916.53,288.31 L 922.96,287.29 L 929.49,286.60 L 936.03,286.14 L 942.48,285.81 L 948.73,285.53 L 954.72,285.20 L 960.39,284.76 L 965.73,284.15 L 970.74,283.36 L 975.44,282.37 L 979.90,281.19 L 984.18,279.85 L 988.38,278.41 L 992.58,276.92 L 996.86,275.44 L 1001.32,274.06 L 1006.00,272.82 L 1010.95,271.80 L 1016.18,271.04 L 1021.68,270.59 L 1027.42,270.48 L 1033.32,270.72 L 1039.30,271.32 L 1045.28,272.27 L 1051.14,273.57 L 1056.77,275.19 L 1062.08,277.13 L 1066.97,279.35 L 1071.38,281.85 L 1075.26,284.62 L 1078.57,287.65 L 1081.30,290.93 L 1083.48,294.49 L 1085.13,298.31 L 1086.31,302.43 L 1087.05,306.84 L 1087.42,311.57 L 1087.47,316.60 L 1087.26,321.94 L 1086.80,327.58 L 1086.14,333.50 L 1085.28,339.65 L 1084.21,346.01 L 1082.94,352.52 L 1081.44,359.13 L 1079.70,365.77 L 1077.72,372.38 L 1075.50,378.90 L 1073.05,385.28 L 1070.41,391.47 L 1067.65,397.44 L 1064.85,403.15 L 1062.10,408.59 L 1059.53,413.77 L 1057.26,418.70 L 1055.43,423.39 L 1054.17,427.88 L 1053.58,432.20 L 1053.77,436.37 L 1054.79,440.45 L 1056.66,444.44 L 1059.37,448.38 L 1062.85,452.27 L 1067.00,456.11 L 1071.66,459.88 L 1076.66,463.56 L 1081.78,467.11 L 1086.80,470.48 L 1091.48,473.62 L 1095.59,476.47 L 1098.92,478.98 L 1101.28,481.09 L 1102.55,482.75 L 1102.62,483.93 Z"/>
<path fill="#374806" stroke="none" d="M 1710.17,746.14 L 1706.34,745.86 L 1702.32,744.79 L 1698.04,743.08 L 1693.48,740.87 L 1688.69,738.32 L 1683.76,735.56 L 1678.85,732.70 L 1674.09,729.80 L 1669.59,726.89 L 1665.38,723.97 L 1661.45,721.03 L 1657.73,718.04 L 1654.10,715.00 L 1650.48,711.87 L 1646.78,708.64 L 1643.01,705.31 L 1639.20,701.85 L 1635.42,698.26 L 1631.77,694.54 L 1628.31,690.70 L 1625.08,686.76 L 1622.03,682.78 L 1619.09,678.80 L 1616.15,674.89 L 1613.10,671.09 L 1609.88,667.39 L 1606.50,663.75 L 1603.04,660.07 L 1599.67,656.19 L 1596.59,651.98 L 1593.99,647.29 L 1592.02,642.04 L 1590.70,636.24 L 1589.93,629.99 L 1589.49,623.51 L 1589.06,617.07 L 1588.27,611.00 L 1586.75,605.58 L 1584.26,601.03 L 1580.65,597.46 L 1575.97,594.86 L 1570.40,593.09 L 1564.23,591.92 L 1557.84,591.06 L 1551.54,590.25 L 1545.62,589.24 L 1540.22,587.87 L 1535.35,586.05 L 1530.92,583.76 L 1526.77,581.02 L 1522.75,577.89 L 1518.75,574.41 L 1514.77,570.65 L 1510.94,566.65 L 1507.46,562.53 L 1504.62,558.41 L 1502.70,554.48 L 1501.89,551.01 L 1502.32,548.26 L 1503.96,546.50 L 1506.64,545.93 L 1510.16,546.63 L 1514.23,548.52 L 1518.65,551.35 L 1523.24,554.73 L 1527.95,558.15 L 1532.77,561.12 L 1537.75,563.16 L 1542.90,563.93 L 1548.18,563.26 L 1553.42,561.16 L 1558.36,557.77 L 1562.65,553.36 L 1565.96,548.24 L 1568.04,542.69 L 1568.81,536.96 L 1568.40,531.22 L 1567.14,525.60 L 1565.57,520.20 L 1564.27,515.14 L 1563.81,510.59 L 1564.58,506.81 L 1566.73,504.06 L 1570.12,502.65 L 1574.37,502.82 L 1578.88,504.71 L 1583.05,508.27 L 1586.36,513.32 L 1588.50,519.49 L 1589.46,526.32 L 1589.52,533.30 L 1589.21,539.99 L 1589.15,546.04 L 1589.93,551.27 L 1591.98,555.66 L 1595.43,559.34 L 1600.10,562.53 L 1605.51,565.47 L 1611.01,568.37 L 1615.89,571.37 L 1619.51,574.52 L 1621.47,577.79 L 1621.66,581.13 L 1620.24,584.48 L 1617.65,587.82 L 1614.47,591.18 L 1611.32,594.68 L 1608.72,598.42 L 1607.05,602.53 L 1606.50,607.06 L 1607.05,611.99 L 1608.55,617.20 L 1610.76,622.50 L 1613.46,627.68 L 1616.44,632.54 L 1619.57,636.92 L 1622.78,640.82 L 1626.05,644.30 L 1629.37,647.55 L 1632.73,650.80 L 1636.11,654.24 L 1639.49,658.01 L 1642.85,662.11 L 1646.20,666.40 L 1649.59,670.63 L 1653.08,674.44 L 1656.76,677.46 L 1660.64,679.36 L 1664.69,679.92 L 1668.78,679.08 L 1672.64,676.92 L 1675.98,673.64 L 1678.47,669.55 L 1679.86,664.95 L 1680.01,660.12 L 1678.94,655.26 L 1676.89,650.48 L 1674.19,645.78 L 1671.28,641.09 L 1668.53,636.32 L 1666.22,631.38 L 1664.45,626.22 L 1663.11,620.86 L 1661.93,615.38 L 1660.57,609.90 L 1658.73,604.58 L 1656.23,599.53 L 1653.12,594.85 L 1649.68,590.61 L 1646.41,586.78 L 1643.91,583.33 L 1642.75,580.20 L 1643.37,577.32 L 1645.94,574.66 L 1650.31,572.24 L 1656.07,570.11 L 1662.58,568.38 L 1669.16,567.18 L 1675.19,566.63 L 1680.25,566.84 L 1684.20,567.89 L 1687.18,569.79 L 1689.55,572.50 L 1691.78,575.93 L 1694.31,579.94 L 1697.40,584.35 L 1701.08,588.99 L 1705.15,593.69 L 1709.16,598.32 L 1712.59,602.78 L 1714.93,607.02 L 1715.81,611.05 L 1715.15,614.88 L 1713.09,618.60 L 1710.07,622.27 L 1706.65,625.96 L 1703.44,629.75 L 1701.00,633.68 L 1699.69,637.77 L 1699.63,642.03 L 1700.74,646.44 L 1702.75,650.96 L 1705.33,655.58 L 1708.12,660.26 L 1710.87,664.97 L 1713.45,669.69 L 1715.87,674.39 L 1718.23,679.07 L 1720.66,683.72 L 1723.26,688.34 L 1726.02,692.94 L 1728.86,697.55 L 1731.54,702.18 L 1733.79,706.86 L 1735.34,711.61 L 1735.95,716.41 L 1735.52,721.22 L 1734.04,725.97 L 1731.67,730.55 L 1728.61,734.81 L 1725.12,738.59 L 1721.42,741.72 L 1717.66,744.07 L 1713.92,745.56 Z"/>
<path fill="#374806" stroke="none" d="M 1449.74,718.75 L 1446.09,718.30 L 1441.74,716.51 L 1436.47,713.96 L 1430.29,711.50 L 1423.52,709.99 L 1416.59,709.99 L 1409.93,711.49 L 1403.78,713.95 L 1398.13,716.48 L 1392.80,718.26 L 1387.53,718.84 L 1382.10,718.27 L 1376.41,716.98 L 1370.52,715.45 L 1364.61,713.96 L 1358.94,712.43 L 1353.79,710.55 L 1349.33,708.00 L 1345.55,704.70 L 1342.21,700.93 L 1338.90,697.21 L 1335.09,694.07 L 1330.34,691.84 L 1324.48,690.54 L 1317.66,689.98 L 1310.29,689.90 L 1302.94,690.15 L 1296.09,690.78 L 1290.02,691.91 L 1284.76,693.65 L 1280.14,695.97 L 1275.91,698.69 L 1271.88,701.62 L 1267.87,704.60 L 1263.79,707.59 L 1259.52,710.59 L 1254.98,713.51 L 1250.14,716.03 L 1245.09,717.67 L 1240.13,717.87 L 1235.66,716.21 L 1232.10,712.62 L 1229.72,707.38 L 1228.53,701.01 L 1228.25,694.09 L 1228.49,687.02 L 1228.82,679.97 L 1229.00,672.91 L 1228.97,665.79 L 1228.81,658.59 L 1228.66,651.40 L 1228.61,644.31 L 1228.65,637.35 L 1228.72,630.45 L 1228.78,623.48 L 1228.81,616.32 L 1228.83,609.02 L 1228.85,601.72 L 1228.84,594.60 L 1228.76,587.70 L 1228.58,580.91 L 1228.40,574.00 L 1228.41,566.82 L 1228.92,559.56 L 1230.16,552.79 L 1232.26,547.41 L 1235.16,544.25 L 1238.65,543.74 L 1242.51,545.62 L 1246.58,548.98 L 1250.83,552.51 L 1255.32,555.02 L 1260.12,555.82 L 1265.26,554.93 L 1270.71,552.96 L 1276.44,550.75 L 1282.47,549.03 L 1288.88,548.13 L 1295.72,547.98 L 1302.94,548.27 L 1310.26,548.78 L 1317.25,549.46 L 1323.40,550.55 L 1328.40,552.35 L 1332.27,555.06 L 1335.37,558.62 L 1338.26,562.71 L 1341.43,566.88 L 1345.09,570.76 L 1349.11,574.20 L 1353.14,577.31 L 1356.85,580.39 L 1360.12,583.72 L 1363.13,587.41 L 1366.25,591.37 L 1369.78,595.31 L 1373.77,598.97 L 1377.97,602.24 L 1381.92,605.29 L 1385.22,608.50 L 1387.73,612.34 L 1389.64,617.11 L 1391.35,622.76 L 1393.28,628.83 L 1395.69,634.57 L 1398.60,639.21 L 1401.87,642.25 L 1405.38,643.65 L 1409.10,643.88 L 1413.11,643.65 L 1417.50,643.65 L 1422.26,644.18 L 1427.19,645.03 L 1432.04,645.66 L 1436.57,645.43 L 1440.75,644.01 L 1444.71,641.60 L 1448.61,638.93 L 1452.46,637.00 L 1455.97,636.71 L 1458.62,638.51 L 1459.88,642.34 L 1459.54,647.66 L 1457.90,653.78 L 1455.77,660.12 L 1454.13,666.37 L 1453.79,672.47 L 1454.98,678.53 L 1457.31,684.61 L 1459.88,690.68 L 1461.74,696.59 L 1462.24,702.17 L 1461.24,707.25 L 1459.04,711.67 L 1456.17,715.24 L 1453.03,717.69 Z"/>
<path fill="#374806" stroke="none" d="M 2102.67,1588.23 L 2091.44,1584.69 L 2081.08,1580.37 L 2071.59,1575.38 L 2062.91,1569.79 L 2054.95,1563.66 L 2047.57,1557.04 L 2040.61,1549.95 L 2033.89,1542.39 L 2027.25,1534.37 L 2020.54,1525.87 L 2013.63,1516.90 L 2006.44,1507.46 L 1998.92,1497.57 L 1991.08,1487.25 L 1982.97,1476.57 L 1974.67,1465.56 L 1966.31,1454.32 L 1958.01,1442.91 L 1949.92,1431.41 L 1942.17,1419.90 L 1934.89,1408.44 L 1928.16,1397.08 L 1922.04,1385.84 L 1916.53,1374.73 L 1911.61,1363.74 L 1907.19,1352.83 L 1903.16,1341.95 L 1899.37,1331.04 L 1895.67,1320.05 L 1891.89,1308.89 L 1887.87,1297.53 L 1883.47,1285.94 L 1878.58,1274.09 L 1873.14,1262.00 L 1867.11,1249.71 L 1860.51,1237.29 L 1853.41,1224.81 L 1845.91,1212.38 L 1838.14,1200.10 L 1830.25,1188.09 L 1822.39,1176.42 L 1814.72,1165.17 L 1807.38,1154.40 L 1800.46,1144.11 L 1794.03,1134.27 L 1788.11,1124.82 L 1782.68,1115.67 L 1777.66,1106.68 L 1772.96,1097.70 L 1768.44,1088.57 L 1763.92,1079.13 L 1759.26,1069.24 L 1754.28,1058.78 L 1748.86,1047.68 L 1742.87,1035.91 L 1736.27,1023.49 L 1729.02,1010.52 L 1721.16,997.13 L 1712.77,983.53 L 1703.98,969.96 L 1694.96,956.69 L 1685.90,944.03 L 1677.01,932.25 L 1668.51,921.65 L 1660.58,912.47 L 1653.40,904.92 L 1647.11,899.14 L 1641.78,895.20 L 1637.46,893.09 L 1634.12,892.75 L 1631.69,894.03 L 1630.04,896.71 L 1629.01,900.52 L 1628.42,905.15 L 1628.05,910.26 L 1627.70,915.51 L 1627.16,920.55 L 1626.25,925.06 L 1624.81,928.75 L 1622.73,931.37 L 1619.94,932.73 L 1616.41,932.68 L 1612.15,931.14 L 1607.20,928.06 L 1601.65,923.46 L 1595.60,917.38 L 1589.16,909.90 L 1582.47,901.13 L 1575.64,891.17 L 1568.79,880.17 L 1562.02,868.23 L 1555.40,855.51 L 1549.01,842.12 L 1542.89,828.19 L 1537.09,813.86 L 1531.61,799.26 L 1526.49,784.54 L 1521.73,769.84 L 1517.37,755.35 L 1513.43,741.24 L 1509.94,727.72 L 1506.96,714.99 L 1504.52,703.26 L 1502.69,692.74 L 1501.52,683.63 L 1501.06,676.10 L 1501.33,670.29 L 1502.36,666.30 L 1504.14,664.17 L 1506.62,663.89 L 1509.76,665.38 L 1513.46,668.51 L 1517.61,673.09 L 1522.09,678.88 L 1526.74,685.62 L 1531.44,693.00 L 1536.04,700.72 L 1540.42,708.49 L 1544.51,716.04 L 1548.23,723.14 L 1551.57,729.64 L 1554.55,735.42 L 1557.25,740.43 L 1559.75,744.72 L 1562.19,748.37 L 1564.72,751.53 L 1567.51,754.38 L 1570.73,757.13 L 1574.52,760.00 L 1579.01,763.18 L 1584.29,766.86 L 1590.42,771.14 L 1597.41,776.09 L 1605.21,781.71 L 1613.76,787.90 L 1622.92,794.53 L 1632.57,801.38 L 1642.54,808.20 L 1652.68,814.69 L 1662.85,820.55 L 1672.93,825.48 L 1682.83,829.24 L 1692.51,831.60 L 1701.98,832.43 L 1711.29,831.69 L 1720.53,829.39 L 1729.83,825.67 L 1739.32,820.75 L 1749.17,814.92 L 1759.52,808.54 L 1770.48,802.01 L 1782.11,795.76 L 1794.44,790.20 L 1807.41,785.72 L 1820.90,782.67 L 1834.70,781.30 L 1848.55,781.80 L 1862.13,784.26 L 1875.08,788.67 L 1887.01,794.91 L 1897.54,802.79 L 1906.31,812.05 L 1913.02,822.35 L 1917.42,833.35 L 1919.37,844.67 L 1918.82,855.96 L 1915.83,866.88 L 1910.59,877.15 L 1903.36,886.56 L 1894.53,894.95 L 1884.55,902.24 L 1873.91,908.44 L 1863.16,913.58 L 1852.83,917.78 L 1843.41,921.18 L 1835.36,923.96 L 1829.06,926.28 L 1824.79,928.32 L 1822.71,930.21 L 1822.92,932.07 L 1825.35,933.99 L 1829.89,935.99 L 1836.31,938.08 L 1844.31,940.24 L 1853.58,942.43 L 1863.76,944.58 L 1874.49,946.65 L 1885.46,948.61 L 1896.38,950.46 L 1907.02,952.24 L 1917.20,954.01 L 1926.83,955.89 L 1935.85,958.04 L 1944.29,960.62 L 1952.19,963.85 L 1959.62,967.90 L 1966.66,972.97 L 1973.40,979.20 L 1979.87,986.69 L 1986.09,995.47 L 1992.03,1005.52 L 1997.61,1016.73 L 2002.69,1028.90 L 2007.12,1041.77 L 2010.71,1055.04 L 2013.25,1068.34 L 2014.54,1081.29 L 2014.42,1093.52 L 2012.77,1104.68 L 2009.52,1114.46 L 2004.68,1122.65 L 1998.35,1129.10 L 1990.71,1133.78 L 1982.01,1136.78 L 1972.58,1138.26 L 1962.81,1138.53 L 1953.10,1137.95 L 1943.89,1136.95 L 1935.57,1136.01 L 1928.51,1135.62 L 1923.03,1136.24 L 1919.33,1138.29 L 1917.52,1142.11 L 1917.63,1147.94 L 1919.55,1155.90 L 1923.09,1165.99 L 1927.94,1178.08 L 1933.76,1191.92 L 1940.13,1207.16 L 1946.63,1223.34 L 1952.84,1239.96 L 1958.39,1256.46 L 1962.97,1272.31 L 1966.35,1286.98 L 1968.42,1300.01 L 1969.15,1311.03 L 1968.65,1319.76 L 1967.12,1326.03 L 1964.85,1329.82 L 1962.21,1331.20 L 1959.61,1330.35 L 1957.47,1327.58 L 1956.21,1323.23 L 1956.19,1317.71 L 1957.70,1311.44 L 1960.95,1304.86 L 1966.05,1298.33 L 1972.97,1292.19 L 1981.59,1286.68 L 1991.65,1281.98 L 2002.82,1278.14 L 2014.69,1275.14 L 2026.79,1272.84 L 2038.65,1271.07 L 2049.79,1269.54 L 2059.78,1267.97 L 2068.25,1266.04 L 2074.93,1263.43 L 2079.63,1259.86 L 2082.31,1255.09 L 2083.03,1248.95 L 2081.96,1241.34 L 2079.37,1232.26 L 2075.63,1221.76 L 2071.15,1210.02 L 2066.39,1197.24 L 2061.82,1183.71 L 2057.86,1169.75 L 2054.93,1155.70 L 2053.34,1141.92 L 2053.34,1128.74 L 2055.07,1116.45 L 2058.56,1105.31 L 2063.75,1095.52 L 2070.47,1087.18 L 2078.45,1080.35 L 2087.38,1075.01 L 2096.87,1071.06 L 2106.50,1068.34 L 2115.85,1066.65 L 2124.50,1065.74 L 2132.07,1065.33 L 2138.22,1065.14 L 2142.67,1064.88 L 2145.22,1064.28 L 2145.74,1063.10 L 2144.18,1061.14 L 2140.57,1058.24 L 2135.00,1054.29 L 2127.64,1049.23 L 2118.72,1043.08 L 2108.50,1035.88 L 2097.28,1027.74 L 2085.38,1018.83 L 2073.15,1009.32 L 2060.92,999.44 L 2049.02,989.43 L 2037.78,979.56 L 2027.49,970.10 L 2018.43,961.29 L 2010.83,953.38 L 2004.90,946.59 L 2000.80,941.11 L 1998.65,937.09 L 1998.52,934.64 L 2000.43,933.80 L 2004.36,934.60 L 2010.22,936.98 L 2017.90,940.86 L 2027.21,946.08 L 2037.95,952.48 L 2049.86,959.84 L 2062.66,967.93 L 2076.06,976.50 L 2089.74,985.30 L 2103.41,994.11 L 2116.78,1002.70 L 2129.57,1010.90 L 2141.58,1018.56 L 2152.61,1025.59 L 2162.55,1031.96 L 2171.31,1037.67 L 2178.90,1042.79 L 2185.35,1047.43 L 2190.77,1051.74 L 2195.29,1055.89 L 2199.10,1060.08 L 2202.39,1064.51 L 2205.37,1069.36 L 2208.25,1074.80 L 2211.21,1080.97 L 2214.42,1087.97 L 2217.99,1095.83 L 2222.02,1104.57 L 2226.54,1114.14 L 2231.53,1124.44 L 2236.96,1135.35 L 2242.74,1146.71 L 2248.76,1158.35 L 2254.88,1170.11 L 2260.98,1181.82 L 2266.94,1193.34 L 2272.64,1204.58 L 2278.01,1215.48 L 2282.99,1226.02 L 2287.55,1236.22 L 2291.72,1246.17 L 2295.54,1255.98 L 2299.09,1265.78 L 2302.44,1275.73 L 2305.70,1285.97 L 2308.96,1296.66 L 2312.29,1307.90 L 2315.76,1319.77 L 2319.39,1332.28 L 2323.16,1345.39 L 2327.04,1359.02 L 2330.95,1372.99 L 2334.76,1387.12 L 2338.35,1401.14 L 2341.55,1414.77 L 2344.22,1427.74 L 2346.21,1439.74 L 2347.38,1450.53 L 2347.65,1459.88 L 2346.95,1467.64 L 2345.27,1473.70 L 2342.64,1478.06 L 2339.14,1480.77 L 2334.90,1481.99 L 2330.07,1481.94 L 2324.82,1480.89 L 2319.33,1479.18 L 2313.80,1477.16 L 2308.38,1475.20 L 2303.21,1473.66 L 2298.37,1472.86 L 2293.91,1473.09 L 2289.82,1474.55 L 2286.03,1477.40 L 2282.43,1481.69 L 2278.87,1487.39 L 2275.17,1494.41 L 2271.10,1502.58 L 2266.48,1511.66 L 2261.11,1521.37 L 2254.82,1531.42 L 2247.48,1541.48 L 2239.03,1551.24 L 2229.45,1560.41 L 2218.77,1568.74 L 2207.11,1576.02 L 2194.62,1582.09 L 2181.49,1586.85 L 2167.97,1590.24 L 2154.28,1592.28 L 2140.70,1593.01 L 2127.43,1592.51 L 2114.70,1590.87 Z"/>
<path fill="#374806" stroke="none" d="M 2398.42,1440.40 L 2394.13,1440.10 L 2389.84,1438.62 L 2385.84,1435.96 L 2382.38,1432.19 L 2379.63,1427.41 L 2377.66,1421.79 L 2376.42,1415.52 L 2375.79,1408.83 L 2375.58,1401.92 L 2375.66,1394.97 L 2375.92,1388.14 L 2376.33,1381.51 L 2376.92,1375.12 L 2377.78,1369.00 L 2378.98,1363.12 L 2380.54,1357.46 L 2382.44,1351.99 L 2384.55,1346.67 L 2386.72,1341.47 L 2388.76,1336.32 L 2390.53,1331.17 L 2391.96,1325.92 L 2393.07,1320.47 L 2393.95,1314.72 L 2394.73,1308.61 L 2395.53,1302.14 L 2396.40,1295.35 L 2397.28,1288.36 L 2398.02,1281.36 L 2398.36,1274.56 L 2398.04,1268.18 L 2396.81,1262.39 L 2394.54,1257.33 L 2391.22,1253.05 L 2387.00,1249.53 L 2382.12,1246.71 L 2376.86,1244.47 L 2371.48,1242.68 L 2366.13,1241.26 L 2360.83,1240.09 L 2355.49,1239.13 L 2349.93,1238.32 L 2343.98,1237.58 L 2337.54,1236.85 L 2330.70,1236.02 L 2323.70,1234.95 L 2316.95,1233.52 L 2310.95,1231.61 L 2306.18,1229.14 L 2302.99,1226.10 L 2301.53,1222.53 L 2301.67,1218.53 L 2303.06,1214.21 L 2305.16,1209.69 L 2307.38,1205.05 L 2309.19,1200.33 L 2310.22,1195.50 L 2310.35,1190.48 L 2309.68,1185.19 L 2308.52,1179.55 L 2307.26,1173.55 L 2306.27,1167.25 L 2305.80,1160.79 L 2305.91,1154.36 L 2306.49,1148.18 L 2307.24,1142.44 L 2307.80,1137.29 L 2307.82,1132.75 L 2307.04,1128.79 L 2305.35,1125.27 L 2302.80,1121.99 L 2299.56,1118.79 L 2295.87,1115.53 L 2291.94,1112.13 L 2287.93,1108.62 L 2283.91,1105.08 L 2279.86,1101.62 L 2275.72,1098.34 L 2271.45,1095.29 L 2267.09,1092.44 L 2262.78,1089.69 L 2258.79,1086.88 L 2255.45,1083.84 L 2253.13,1080.47 L 2252.09,1076.76 L 2252.50,1072.83 L 2254.33,1068.98 L 2257.36,1065.56 L 2261.26,1063.02 L 2265.62,1061.74 L 2270.04,1061.98 L 2274.22,1063.85 L 2278.00,1067.19 L 2281.37,1071.66 L 2284.45,1076.71 L 2287.44,1081.72 L 2290.53,1086.05 L 2293.87,1089.18 L 2297.49,1090.76 L 2301.33,1090.70 L 2305.29,1089.17 L 2309.18,1086.54 L 2312.90,1083.36 L 2316.37,1080.26 L 2319.64,1077.84 L 2322.81,1076.55 L 2326.05,1076.71 L 2329.50,1078.38 L 2333.24,1081.42 L 2337.22,1085.50 L 2341.26,1090.18 L 2345.09,1094.97 L 2348.33,1099.43 L 2350.60,1103.23 L 2351.61,1106.18 L 2351.17,1108.27 L 2349.26,1109.65 L 2346.06,1110.56 L 2341.88,1111.35 L 2337.18,1112.34 L 2332.45,1113.79 L 2328.18,1115.91 L 2324.77,1118.74 L 2322.53,1122.26 L 2321.59,1126.33 L 2321.93,1130.77 L 2323.38,1135.44 L 2325.67,1140.18 L 2328.44,1144.93 L 2331.34,1149.70 L 2334.02,1154.54 L 2336.27,1159.54 L 2337.96,1164.77 L 2339.14,1170.27 L 2340.01,1176.00 L 2340.84,1181.84 L 2341.99,1187.61 L 2343.80,1193.04 L 2346.52,1197.89 L 2350.25,1201.89 L 2354.93,1204.84 L 2360.31,1206.59 L 2366.00,1207.09 L 2371.56,1206.33 L 2376.55,1204.40 L 2380.63,1201.43 L 2383.64,1197.61 L 2385.61,1193.15 L 2386.73,1188.33 L 2387.33,1183.43 L 2387.79,1178.76 L 2388.45,1174.65 L 2389.52,1171.39 L 2391.10,1169.27 L 2393.08,1168.46 L 2395.27,1169.04 L 2397.41,1170.99 L 2399.27,1174.15 L 2400.70,1178.27 L 2401.68,1183.06 L 2402.31,1188.21 L 2402.82,1193.45 L 2403.43,1198.62 L 2404.36,1203.64 L 2405.72,1208.55 L 2407.50,1213.47 L 2409.58,1218.56 L 2411.73,1223.95 L 2413.72,1229.73 L 2415.33,1235.92 L 2416.46,1242.43 L 2417.11,1249.12 L 2417.41,1255.80 L 2417.57,1262.32 L 2417.80,1268.58 L 2418.30,1274.54 L 2419.18,1280.27 L 2420.43,1285.91 L 2421.92,1291.61 L 2423.49,1297.55 L 2424.91,1303.83 L 2426.00,1310.49 L 2426.65,1317.47 L 2426.82,1324.66 L 2426.58,1331.88 L 2426.03,1338.97 L 2425.30,1345.80 L 2424.51,1352.32 L 2423.74,1358.52 L 2422.99,1364.50 L 2422.26,1370.38 L 2421.50,1376.29 L 2420.69,1382.35 L 2419.81,1388.62 L 2418.86,1395.07 L 2417.87,1401.64 L 2416.84,1408.18 L 2415.75,1414.54 L 2414.54,1420.52 L 2413.08,1425.96 L 2411.24,1430.70 L 2408.89,1434.62 L 2405.95,1437.60 L 2402.42,1439.55 Z"/>
</svg>