<?xml version="1.0" encoding="UTF-8"?>
<svg xmlns="http://www.w3.org/2000/svg" width="2500.0" height="1699.7167138810198" viewBox="0 0 2500.0 1699.7167138810198">
<path fill="#5fa520" stroke="none" d="M 2352.78,1177.91 L 2346.24,1183.54 L 2338.82,1187.01 L 2330.70,1188.11 L 2322.04,1186.71 L 2312.96,1182.75 L 2303.55,1176.23 L 2293.88,1167.24 L 2283.96,1155.94 L 2273.78,1142.56 L 2263.29,1127.42 L 2252.42,1110.86 L 2241.06,1093.31 L 2229.11,1075.19 L 2216.45,1056.97 L 2202.96,1039.10 L 2188.54,1022.01 L 2173.11,1006.10 L 2156.62,991.72 L 2139.05,979.16 L 2120.45,968.62 L 2100.88,960.23 L 2080.46,954.03 L 2059.36,949.98 L 2037.80,947.94 L 2016.01,947.72 L 1994.29,949.02 L 1972.93,951.53 L 1952.23,954.87 L 1932.52,958.63 L 1914.10,962.42 L 1897.23,965.84 L 1882.18,968.51 L 1869.12,970.11 L 1858.23,970.37 L 1849.58,969.08 L 1843.19,966.10 L 1839.04,961.38 L 1837.01,954.95 L 1836.92,946.90 L 1838.56,937.40 L 1841.64,926.70 L 1845.83,915.09 L 1850.79,902.88 L 1856.13,890.42 L 1861.46,878.08 L 1866.42,866.20 L 1870.63,855.10 L 1873.76,845.08 L 1875.50,836.36 L 1875.63,829.12 L 1873.93,823.48 L 1870.27,819.48 L 1864.58,817.07 L 1856.85,816.16 L 1847.14,816.58 L 1835.54,818.12 L 1822.23,820.49 L 1807.39,823.40 L 1791.27,826.53 L 1774.13,829.54 L 1756.26,832.13 L 1737.93,833.98 L 1719.42,834.84 L 1701.01,834.48 L 1682.93,832.74 L 1665.40,829.51 L 1648.60,824.74 L 1632.69,818.44 L 1617.76,810.71 L 1603.89,801.66 L 1591.11,791.48 L 1579.40,780.40 L 1568.74,768.66 L 1559.05,756.53 L 1550.26,744.29 L 1542.27,732.21 L 1534.96,720.54 L 1528.23,709.50 L 1521.96,699.29 L 1516.04,690.06 L 1510.38,681.91 L 1504.88,674.89 L 1499.46,669.00 L 1494.08,664.20 L 1488.66,660.41 L 1483.17,657.50 L 1477.58,655.32 L 1471.85,653.68 L 1465.95,652.40 L 1459.85,651.28 L 1453.53,650.13 L 1446.93,648.76 L 1440.03,647.01 L 1432.75,644.74 L 1425.04,641.84 L 1416.82,638.24 L 1408.02,633.87 L 1398.57,628.72 L 1388.37,622.81 L 1377.36,616.17 L 1365.47,608.85 L 1352.66,600.92 L 1338.89,592.48 L 1324.16,583.61 L 1308.48,574.39 L 1291.91,564.91 L 1274.54,555.24 L 1256.46,545.45 L 1237.84,535.57 L 1218.86,525.66 L 1199.72,515.73 L 1180.66,505.78 L 1161.92,495.82 L 1143.78,485.84 L 1126.50,475.83 L 1110.35,465.78 L 1095.59,455.69 L 1082.45,445.56 L 1071.15,435.41 L 1061.87,425.26 L 1054.75,415.16 L 1049.90,405.15 L 1047.35,395.31 L 1047.12,385.71 L 1049.15,376.43 L 1053.35,367.56 L 1059.58,359.17 L 1067.64,351.35 L 1077.32,344.15 L 1088.34,337.62 L 1100.43,331.78 L 1113.27,326.63 L 1126.56,322.14 L 1139.98,318.25 L 1153.21,314.89 L 1165.95,311.95 L 1177.92,309.30 L 1188.85,306.81 L 1198.52,304.33 L 1206.74,301.71 L 1213.33,298.81 L 1218.18,295.50 L 1221.19,291.68 L 1222.31,287.26 L 1221.54,282.22 L 1218.88,276.56 L 1214.38,270.31 L 1208.11,263.57 L 1200.18,256.47 L 1190.70,249.19 L 1179.79,241.93 L 1167.59,234.94 L 1154.25,228.48 L 1139.93,222.80 L 1124.77,218.19 L 1108.93,214.88 L 1092.56,213.11 L 1075.80,213.06 L 1058.79,214.87 L 1041.66,218.64 L 1024.54,224.38 L 1007.55,232.04 L 990.81,241.52 L 974.42,252.62 L 958.48,265.10 L 943.09,278.66 L 928.35,292.92 L 914.32,307.49 L 901.09,321.96 L 888.74,335.88 L 877.31,348.82 L 866.88,360.37 L 857.49,370.15 L 849.18,377.82 L 841.98,383.12 L 835.91,385.83 L 831.00,385.84 L 827.24,383.09 L 824.64,377.63 L 823.18,369.57 L 822.84,359.11 L 823.60,346.51 L 825.42,332.10 L 828.27,316.26 L 832.09,299.39 L 836.84,281.91 L 842.47,264.24 L 848.93,246.81 L 856.14,230.00 L 864.07,214.16 L 872.65,199.57 L 881.83,186.48 L 891.53,175.05 L 901.71,165.38 L 912.31,157.49 L 923.26,151.35 L 934.52,146.84 L 946.03,143.81 L 957.72,142.05 L 969.56,141.33 L 981.48,141.38 L 993.46,141.95 L 1005.44,142.76 L 1017.40,143.58 L 1029.31,144.20 L 1041.16,144.43 L 1052.94,144.15 L 1064.67,143.28 L 1076.36,141.80 L 1088.05,139.74 L 1099.79,137.18 L 1111.64,134.24 L 1123.68,131.09 L 1135.98,127.93 L 1148.64,124.97 L 1161.74,122.42 L 1175.40,120.52 L 1189.68,119.46 L 1204.69,119.42 L 1220.47,120.54 L 1237.08,122.91 L 1254.55,126.60 L 1272.86,131.60 L 1291.98,137.84 L 1311.83,145.23 L 1332.30,153.60 L 1353.25,162.75 L 1374.48,172.44 L 1395.77,182.39 L 1416.87,192.33 L 1437.50,201.96 L 1457.36,210.98 L 1476.13,219.12 L 1493.50,226.13 L 1509.17,231.78 L 1522.85,235.89 L 1534.26,238.33 L 1543.19,239.01 L 1549.47,237.89 L 1552.96,235.00 L 1553.61,230.39 L 1551.43,224.19 L 1546.50,216.55 L 1538.97,207.65 L 1529.07,197.71 L 1517.07,186.98 L 1503.33,175.69 L 1488.26,164.10 L 1472.29,152.46 L 1455.89,141.01 L 1439.57,129.96 L 1423.80,119.51 L 1409.08,109.85 L 1395.84,101.11 L 1384.51,93.42 L 1375.44,86.87 L 1368.93,81.52 L 1365.20,77.42 L 1364.40,74.57 L 1366.58,72.98 L 1371.72,72.63 L 1379.73,73.48 L 1390.41,75.49 L 1403.52,78.61 L 1418.75,82.77 L 1435.75,87.91 L 1454.11,93.96 L 1473.43,100.86 L 1493.28,108.52 L 1513.26,116.87 L 1532.98,125.83 L 1552.10,135.30 L 1570.30,145.20 L 1587.33,155.44 L 1603.03,165.91 L 1617.25,176.51 L 1629.96,187.14 L 1641.17,197.68 L 1650.95,208.05 L 1659.43,218.15 L 1666.79,227.89 L 1673.24,237.19 L 1679.01,246.02 L 1684.36,254.31 L 1689.52,262.08 L 1694.72,269.32 L 1700.18,276.07 L 1706.06,282.41 L 1712.49,288.41 L 1719.55,294.18 L 1727.28,299.87 L 1735.65,305.61 L 1744.60,311.56 L 1754.00,317.87 L 1763.71,324.68 L 1773.53,332.14 L 1783.28,340.36 L 1792.72,349.42 L 1801.67,359.38 L 1809.93,370.25 L 1817.32,381.99 L 1823.72,394.54 L 1829.05,407.77 L 1833.26,421.52 L 1836.38,435.59 L 1838.49,449.74 L 1839.72,463.71 L 1840.24,477.24 L 1840.30,490.05 L 1840.17,501.87 L 1840.13,512.46 L 1840.50,521.59 L 1841.60,529.11 L 1843.74,534.89 L 1847.19,538.89 L 1852.22,541.10 L 1859.03,541.62 L 1867.77,540.59 L 1878.52,538.24 L 1891.31,534.86 L 1906.10,530.78 L 1922.77,526.39 L 1941.13,522.09 L 1960.96,518.31 L 1981.94,515.48 L 2003.76,514.00 L 2026.04,514.25 L 2048.40,516.53 L 2070.44,521.10 L 2091.80,528.14 L 2112.09,537.72 L 2131.00,549.84 L 2148.24,564.39 L 2163.57,581.17 L 2176.80,599.88 L 2187.82,620.14 L 2196.56,641.51 L 2203.04,663.48 L 2207.31,685.50 L 2209.47,707.01 L 2209.70,727.45 L 2208.17,746.28 L 2205.12,763.00 L 2200.78,777.19 L 2195.40,788.47 L 2189.23,796.58 L 2182.48,801.37 L 2175.39,802.78 L 2168.13,800.88 L 2160.86,795.82 L 2153.72,787.90 L 2146.79,777.47 L 2140.15,765.01 L 2133.82,751.03 L 2127.82,736.10 L 2122.14,720.82 L 2116.76,705.80 L 2111.66,691.61 L 2106.82,678.83 L 2102.22,667.94 L 2097.86,659.38 L 2093.76,653.50 L 2089.96,650.56 L 2086.53,650.70 L 2083.56,653.99 L 2081.15,660.39 L 2079.42,669.76 L 2078.54,681.89 L 2078.63,696.48 L 2079.86,713.20 L 2082.37,731.66 L 2086.28,751.45 L 2091.70,772.16 L 2098.71,793.39 L 2107.34,814.77 L 2117.59,835.96 L 2129.41,856.70 L 2142.71,876.75 L 2157.34,895.96 L 2173.12,914.23 L 2189.81,931.55 L 2207.18,947.93 L 2224.91,963.46 L 2242.71,978.24 L 2260.27,992.43 L 2277.27,1006.18 L 2293.41,1019.65 L 2308.41,1032.97 L 2322.02,1046.26 L 2334.03,1059.61 L 2344.26,1073.03 L 2352.61,1086.52 L 2359.00,1100.00 L 2363.41,1113.34 L 2365.86,1126.36 L 2366.45,1138.84 L 2365.28,1150.52 L 2362.49,1161.12 L 2358.26,1170.35 Z"/>
<path fill="#5fa520" stroke="none" d="M 699.21,300.43 L 696.33,298.04 L 693.95,294.11 L 691.42,289.86 L 688.06,286.26 L 683.61,283.60 L 678.28,281.51 L 672.58,279.51 L 667.03,277.42 L 661.91,275.58 L 657.23,274.55 L 652.87,274.64 L 648.63,275.54 L 644.41,276.46 L 640.16,276.51 L 635.88,275.18 L 631.63,272.52 L 627.50,268.95 L 623.59,264.94 L 620.10,260.73 L 617.29,256.38 L 615.51,251.96 L 615.10,247.66 L 616.30,243.80 L 619.04,240.49 L 622.85,237.52 L 626.92,234.32 L 630.42,230.33 L 632.84,225.31 L 634.30,219.59 L 635.45,213.86 L 637.14,208.81 L 639.92,204.73 L 643.75,201.40 L 648.08,198.35 L 652.26,195.15 L 655.98,191.76 L 659.51,188.45 L 663.44,185.63 L 668.31,183.56 L 674.22,182.20 L 680.72,181.26 L 687.12,180.33 L 692.84,179.07 L 697.77,177.30 L 702.20,175.02 L 706.61,172.39 L 711.43,169.75 L 716.85,167.52 L 722.84,166.08 L 729.22,165.68 L 735.75,166.31 L 742.11,167.76 L 747.95,169.74 L 752.98,172.03 L 757.14,174.56 L 760.72,177.35 L 764.21,180.45 L 768.05,183.84 L 772.30,187.43 L 776.49,191.19 L 779.82,195.16 L 781.55,199.41 L 781.34,203.94 L 779.39,208.55 L 776.24,212.88 L 772.42,216.62 L 768.24,219.63 L 763.77,222.05 L 759.01,224.20 L 754.09,226.38 L 749.24,228.77 L 744.69,231.36 L 740.51,234.14 L 736.60,237.12 L 732.81,240.40 L 729.11,244.03 L 725.59,247.88 L 722.35,251.70 L 719.24,255.28 L 715.92,258.57 L 712.04,261.80 L 707.67,265.23 L 703.47,268.98 L 700.53,272.89 L 699.78,276.61 L 701.40,279.94 L 704.58,283.04 L 707.78,286.33 L 709.49,290.15 L 708.94,294.36 L 706.36,298.17 L 702.75,300.46 Z"/>
</svg>