<?xml version="1.0" encoding="UTF-8"?>
<svg xmlns="http://www.w3.org/2000/svg" width="2500.0" height="1699.7167138810198" viewBox="0 0 2500.0 1699.7167138810198">
<rect x="0" y="0" width="1" height="1" fill="#3ea332"/>
<rect x="2499.0" y="1698.7167138810198" width="1" height="1" fill="#3ea332"/>
<path fill="#3ea332" stroke="none" d="M 2110.48,1540.37 L 2096.32,1540.37 L 2075.07,1540.37 L 2067.99,1533.29 L 2053.82,1526.20 L 2046.74,1519.12 L 2036.12,1508.50 L 2029.04,1501.42 L 2018.41,1490.79 L 2007.79,1487.25 L 1993.63,1487.25 L 1979.46,1487.25 L 1968.84,1483.71 L 1954.67,1476.63 L 1947.59,1469.55 L 1940.51,1462.46 L 1944.05,1451.84 L 1944.05,1430.59 L 1944.05,1416.43 L 1944.05,1395.18 L 1940.51,1377.48 L 1936.97,1366.86 L 1929.89,1352.69 L 1926.35,1342.07 L 1922.80,1324.36 L 1919.26,1313.74 L 1915.72,1296.03 L 1908.64,1288.95 L 1905.10,1271.25 L 1901.56,1260.62 L 1894.48,1246.46 L 1887.39,1232.29 L 1880.31,1225.21 L 1873.23,1211.05 L 1869.69,1200.42 L 1862.61,1186.26 L 1855.52,1179.18 L 1848.44,1165.01 L 1841.36,1157.93 L 1834.28,1143.77 L 1823.65,1133.14 L 1816.57,1126.06 L 1809.49,1111.90 L 1805.95,1101.27 L 1798.87,1087.11 L 1795.33,1076.49 L 1788.24,1062.32 L 1784.70,1051.70 L 1777.62,1037.54 L 1770.54,1023.37 L 1767.00,1012.75 L 1759.92,998.58 L 1752.83,991.50 L 1745.75,977.34 L 1738.67,970.25 L 1728.05,959.63 L 1720.96,952.55 L 1710.34,941.93 L 1703.26,934.84 L 1692.63,924.22 L 1682.01,913.60 L 1674.93,906.52 L 1664.31,895.89 L 1650.14,895.89 L 1628.90,895.89 L 1618.27,892.35 L 1604.11,885.27 L 1597.03,878.19 L 1589.94,864.02 L 1582.86,849.86 L 1579.32,839.24 L 1575.78,821.53 L 1568.70,814.45 L 1568.70,793.20 L 1561.61,786.12 L 1554.53,771.95 L 1547.45,764.87 L 1540.37,750.71 L 1533.29,736.54 L 1526.20,729.46 L 1519.12,715.30 L 1512.04,708.22 L 1501.42,697.59 L 1494.33,690.51 L 1483.71,679.89 L 1476.63,672.80 L 1466.01,662.18 L 1451.84,662.18 L 1437.68,655.10 L 1416.43,655.10 L 1402.27,655.10 L 1388.10,662.18 L 1373.94,662.18 L 1359.77,655.10 L 1352.69,648.02 L 1338.53,640.93 L 1327.90,637.39 L 1310.20,633.85 L 1292.49,637.39 L 1281.87,640.93 L 1267.71,648.02 L 1260.62,655.10 L 1239.38,655.10 L 1235.84,644.48 L 1228.75,630.31 L 1228.75,616.15 L 1228.75,594.90 L 1228.75,580.74 L 1228.75,559.49 L 1228.75,538.24 L 1228.75,524.08 L 1228.75,502.83 L 1225.21,492.21 L 1218.13,478.05 L 1211.05,470.96 L 1200.42,460.34 L 1193.34,453.26 L 1182.72,442.63 L 1165.01,439.09 L 1154.39,435.55 L 1136.69,432.01 L 1126.06,428.47 L 1104.82,428.47 L 1090.65,428.47 L 1076.49,421.39 L 1065.86,417.85 L 1051.70,410.76 L 1033.99,407.22 L 1026.91,400.14 L 1012.75,393.06 L 1002.12,389.52 L 987.96,382.44 L 977.34,378.90 L 963.17,371.81 L 956.09,364.73 L 938.39,361.19 L 927.76,357.65 L 913.60,350.57 L 895.89,347.03 L 885.27,343.48 L 864.02,343.48 L 849.86,343.48 L 835.69,350.57 L 821.53,350.57 L 800.28,350.57 L 786.12,350.57 L 764.87,350.57 L 750.71,357.65 L 736.54,357.65 L 715.30,357.65 L 708.22,350.57 L 690.51,347.03 L 679.89,343.48 L 658.64,343.48 L 651.56,350.57 L 630.31,350.57 L 609.07,350.57 L 594.90,350.57 L 580.74,343.48 L 566.57,343.48 L 548.87,339.94 L 555.95,332.86 L 563.03,318.70 L 566.57,308.07 L 573.65,293.91 L 577.20,283.29 L 587.82,272.66 L 594.90,258.50 L 598.44,247.88 L 605.52,233.71 L 612.61,226.63 L 619.69,212.46 L 630.31,208.92 L 640.93,198.30 L 651.56,194.76 L 665.72,187.68 L 679.89,180.59 L 694.05,180.59 L 708.22,173.51 L 718.84,169.97 L 736.54,166.43 L 747.17,169.97 L 764.87,173.51 L 771.95,180.59 L 786.12,187.68 L 796.74,198.30 L 803.82,205.38 L 814.45,216.01 L 821.53,223.09 L 832.15,233.71 L 842.78,237.25 L 860.48,233.71 L 871.10,230.17 L 881.73,219.55 L 892.35,216.01 L 902.97,205.38 L 913.60,194.76 L 920.68,187.68 L 927.76,173.51 L 931.30,162.89 L 931.30,141.64 L 934.84,131.02 L 941.93,116.86 L 949.01,109.77 L 963.17,102.69 L 973.80,92.07 L 984.42,88.53 L 1002.12,92.07 L 1009.21,99.15 L 1019.83,109.77 L 1026.91,116.86 L 1048.16,116.86 L 1055.24,109.77 L 1069.41,102.69 L 1083.57,102.69 L 1097.73,109.77 L 1111.90,116.86 L 1126.06,116.86 L 1140.23,123.94 L 1150.85,127.48 L 1168.56,131.02 L 1182.72,131.02 L 1196.88,138.10 L 1211.05,138.10 L 1228.75,134.56 L 1246.46,131.02 L 1257.08,127.48 L 1271.25,120.40 L 1278.33,113.31 L 1288.95,102.69 L 1296.03,95.61 L 1306.66,84.99 L 1317.28,81.44 L 1331.44,74.36 L 1345.61,67.28 L 1352.69,60.20 L 1366.86,53.12 L 1377.48,49.58 L 1391.64,49.58 L 1402.27,53.12 L 1412.89,63.74 L 1419.97,70.82 L 1430.59,81.44 L 1437.68,88.53 L 1448.30,99.15 L 1462.46,106.23 L 1473.09,109.77 L 1487.25,116.86 L 1497.88,120.40 L 1515.58,123.94 L 1529.75,123.94 L 1543.91,131.02 L 1558.07,131.02 L 1572.24,138.10 L 1589.94,141.64 L 1597.03,148.73 L 1611.19,155.81 L 1618.27,155.81 L 1635.98,152.27 L 1650.14,152.27 L 1660.76,162.89 L 1667.85,169.97 L 1682.01,177.05 L 1689.09,191.22 L 1689.09,205.38 L 1689.09,226.63 L 1689.09,240.79 L 1696.18,254.96 L 1699.72,265.58 L 1710.34,276.20 L 1717.42,283.29 L 1728.05,293.91 L 1735.13,300.99 L 1749.29,308.07 L 1759.92,318.70 L 1767.00,325.78 L 1777.62,336.40 L 1788.24,339.94 L 1798.87,350.57 L 1809.49,354.11 L 1823.65,361.19 L 1830.74,368.27 L 1841.36,378.90 L 1851.98,389.52 L 1859.07,396.60 L 1869.69,407.22 L 1876.77,414.31 L 1887.39,424.93 L 1894.48,432.01 L 1901.56,446.18 L 1908.64,453.26 L 1915.72,467.42 L 1926.35,478.05 L 1933.43,485.13 L 1944.05,495.75 L 1951.13,502.83 L 1961.76,513.46 L 1972.38,517.00 L 1983.00,527.62 L 1997.17,527.62 L 2011.33,534.70 L 2025.50,534.70 L 2046.74,534.70 L 2060.91,527.62 L 2075.07,527.62 L 2089.24,520.54 L 2099.86,517.00 L 2117.56,513.46 L 2128.19,517.00 L 2142.35,524.08 L 2145.89,534.70 L 2149.43,552.41 L 2149.43,573.65 L 2149.43,587.82 L 2152.97,605.52 L 2156.52,616.15 L 2163.60,630.31 L 2167.14,640.93 L 2174.22,655.10 L 2177.76,665.72 L 2184.84,679.89 L 2191.93,686.97 L 2199.01,701.13 L 2199.01,722.38 L 2206.09,729.46 L 2206.09,750.71 L 2206.09,764.87 L 2206.09,786.12 L 2209.63,796.74 L 2209.63,810.91 L 2206.09,821.53 L 2206.09,842.78 L 2206.09,864.02 L 2206.09,878.19 L 2206.09,899.43 L 2206.09,913.60 L 2213.17,927.76 L 2220.25,934.84 L 2230.88,945.47 L 2237.96,952.55 L 2248.58,963.17 L 2255.67,977.34 L 2259.21,987.96 L 2269.83,998.58 L 2273.37,1009.21 L 2280.45,1023.37 L 2287.54,1030.45 L 2294.62,1044.62 L 2301.70,1051.70 L 2312.32,1062.32 L 2319.41,1069.41 L 2330.03,1080.03 L 2340.65,1090.65 L 2347.73,1097.73 L 2351.27,1115.44 L 2354.82,1126.06 L 2365.44,1136.69 L 2372.52,1143.77 L 2383.14,1154.39 L 2390.23,1161.47 L 2397.31,1175.64 L 2404.39,1189.80 L 2404.39,1203.97 L 2411.47,1218.13 L 2411.47,1232.29 L 2418.56,1246.46 L 2418.56,1260.62 L 2418.56,1281.87 L 2422.10,1292.49 L 2425.64,1310.20 L 2418.56,1324.36 L 2418.56,1338.53 L 2415.01,1356.23 L 2411.47,1366.86 L 2404.39,1381.02 L 2397.31,1388.10 L 2386.69,1398.73 L 2379.60,1405.81 L 2368.98,1416.43 L 2365.44,1427.05 L 2351.27,1434.14 L 2337.11,1441.22 L 2326.49,1444.76 L 2312.32,1451.84 L 2305.24,1458.92 L 2294.62,1469.55 L 2287.54,1476.63 L 2273.37,1483.71 L 2259.21,1483.71 L 2245.04,1490.79 L 2230.88,1497.88 L 2216.71,1497.88 L 2202.55,1504.96 L 2195.47,1512.04 L 2181.30,1519.12 L 2167.14,1519.12 L 2152.97,1526.20 L 2138.81,1526.20 L 2124.65,1533.29 L 2110.48,1540.37 Z"/>
</svg>