<?xml version="1.0" encoding="UTF-8"?>
<svg xmlns="http://www.w3.org/2000/svg" width="2500.0" height="1699.7167138810198" viewBox="0 0 2500.0 1699.7167138810198">
<path fill="#000" stroke="none" d="M 2046.74,1679.51 L 2034.54,1675.70 L 2022.75,1671.09 L 2011.28,1665.72 L 2000.07,1659.64 L 1989.02,1652.89 L 1978.05,1645.55 L 1967.06,1637.67 L 1955.97,1629.36 L 1944.71,1620.68 L 1933.19,1611.73 L 1921.35,1602.61 L 1909.13,1593.39 L 1896.50,1584.17 L 1883.41,1575.04 L 1869.85,1566.07 L 1855.81,1557.32 L 1841.29,1548.87 L 1826.32,1540.76 L 1810.91,1533.03 L 1795.10,1525.71 L 1778.93,1518.80 L 1762.46,1512.33 L 1745.73,1506.27 L 1728.80,1500.61 L 1711.73,1495.32 L 1694.56,1490.36 L 1677.36,1485.69 L 1660.16,1481.26 L 1643.01,1477.02 L 1625.94,1472.91 L 1608.98,1468.88 L 1592.16,1464.87 L 1575.48,1460.84 L 1558.95,1456.73 L 1542.56,1452.52 L 1526.32,1448.16 L 1510.19,1443.63 L 1494.17,1438.92 L 1478.24,1434.00 L 1462.35,1428.88 L 1446.50,1423.56 L 1430.66,1418.05 L 1414.79,1412.37 L 1398.88,1406.55 L 1382.91,1400.60 L 1366.86,1394.56 L 1350.72,1388.47 L 1334.49,1382.34 L 1318.16,1376.22 L 1301.74,1370.12 L 1285.24,1364.09 L 1268.66,1358.14 L 1252.03,1352.28 L 1235.36,1346.54 L 1218.66,1340.93 L 1201.97,1335.44 L 1185.30,1330.08 L 1168.66,1324.84 L 1152.08,1319.71 L 1135.57,1314.68 L 1119.14,1309.73 L 1102.79,1304.84 L 1086.53,1300.00 L 1070.36,1295.18 L 1054.26,1290.36 L 1038.24,1285.53 L 1022.27,1280.67 L 1006.34,1275.75 L 990.44,1270.78 L 974.53,1265.73 L 958.60,1260.61 L 942.63,1255.41 L 926.59,1250.14 L 910.49,1244.79 L 894.28,1239.37 L 877.98,1233.89 L 861.57,1228.36 L 845.05,1222.80 L 828.42,1217.21 L 811.69,1211.61 L 794.88,1206.01 L 777.99,1200.43 L 761.06,1194.87 L 744.09,1189.33 L 727.13,1183.84 L 710.18,1178.39 L 693.28,1172.98 L 676.46,1167.61 L 659.73,1162.29 L 643.11,1157.00 L 626.61,1151.76 L 610.26,1146.54 L 594.05,1141.35 L 577.97,1136.17 L 562.04,1131.01 L 546.22,1125.87 L 530.50,1120.72 L 514.86,1115.59 L 499.27,1110.45 L 483.69,1105.33 L 468.10,1100.20 L 452.46,1095.09 L 436.72,1089.99 L 420.87,1084.91 L 404.87,1079.84 L 388.69,1074.80 L 372.32,1069.78 L 355.74,1064.77 L 338.96,1059.78 L 321.97,1054.79 L 304.80,1049.80 L 287.48,1044.78 L 270.03,1039.71 L 252.52,1034.56 L 234.99,1029.30 L 217.52,1023.88 L 200.18,1018.28 L 183.05,1012.44 L 166.22,1006.31 L 149.79,999.84 L 133.86,992.98 L 118.51,985.68 L 103.84,977.88 L 89.95,969.55 L 76.91,960.63 L 64.82,951.10 L 53.75,940.93 L 43.75,930.09 L 34.89,918.58 L 27.21,906.41 L 20.74,893.58 L 15.50,880.12 L 11.51,866.06 L 8.75,851.46 L 7.22,836.38 L 6.89,820.88 L 7.74,805.04 L 9.72,788.95 L 12.78,772.71 L 16.87,756.40 L 21.94,740.12 L 27.93,723.97 L 34.76,708.06 L 42.38,692.46 L 50.72,677.26 L 59.73,662.54 L 69.33,648.37 L 79.47,634.79 L 90.10,621.84 L 101.16,609.56 L 112.60,597.96 L 124.38,587.02 L 136.45,576.74 L 148.76,567.08 L 161.30,557.99 L 174.01,549.43 L 186.86,541.31 L 199.82,533.56 L 212.86,526.10 L 225.95,518.84 L 239.06,511.69 L 252.15,504.55 L 265.19,497.33 L 278.17,489.96 L 291.04,482.35 L 303.78,474.42 L 316.36,466.13 L 328.77,457.41 L 340.96,448.23 L 352.94,438.57 L 364.67,428.42 L 376.15,417.76 L 387.37,406.63 L 398.33,395.05 L 409.03,383.05 L 419.48,370.68 L 429.69,358.02 L 439.68,345.10 L 449.48,332.02 L 459.12,318.84 L 468.63,305.64 L 478.06,292.50 L 487.44,279.49 L 496.83,266.68 L 506.26,254.14 L 515.78,241.94 L 525.45,230.11 L 535.30,218.72 L 545.38,207.79 L 555.73,197.35 L 566.38,187.43 L 577.36,178.04 L 588.69,169.17 L 600.40,160.83 L 612.49,152.99 L 624.97,145.65 L 637.83,138.77 L 651.07,132.34 L 664.67,126.32 L 678.62,120.68 L 692.88,115.38 L 707.43,110.39 L 722.24,105.69 L 737.28,101.25 L 752.51,97.03 L 767.90,93.01 L 783.41,89.17 L 799.01,85.50 L 814.67,81.97 L 830.37,78.59 L 846.08,75.33 L 861.78,72.21 L 877.46,69.21 L 893.09,66.33 L 908.68,63.57 L 924.22,60.94 L 939.71,58.43 L 955.14,56.05 L 970.53,53.80 L 985.87,51.68 L 1001.18,49.69 L 1016.46,47.81 L 1031.72,46.06 L 1046.98,44.42 L 1062.23,42.88 L 1077.48,41.44 L 1092.75,40.09 L 1108.03,38.82 L 1123.33,37.62 L 1138.66,36.47 L 1154.01,35.38 L 1169.38,34.32 L 1184.77,33.30 L 1200.20,32.31 L 1215.64,31.35 L 1231.11,30.42 L 1246.60,29.52 L 1262.13,28.66 L 1277.68,27.84 L 1293.26,27.08 L 1308.89,26.40 L 1324.55,25.81 L 1340.27,25.32 L 1356.05,24.98 L 1371.89,24.79 L 1387.80,24.80 L 1403.79,25.01 L 1419.85,25.48 L 1435.99,26.22 L 1452.20,27.27 L 1468.48,28.66 L 1484.82,30.43 L 1501.19,32.59 L 1517.58,35.19 L 1533.95,38.24 L 1550.28,41.79 L 1566.53,45.84 L 1582.66,50.43 L 1598.62,55.56 L 1614.37,61.27 L 1629.85,67.56 L 1645.00,74.44 L 1659.79,81.91 L 1674.17,89.98 L 1688.08,98.64 L 1701.49,107.89 L 1714.36,117.69 L 1726.68,128.05 L 1738.42,138.92 L 1749.58,150.28 L 1760.17,162.08 L 1770.20,174.29 L 1779.70,186.85 L 1788.72,199.70 L 1797.30,212.79 L 1805.52,226.04 L 1813.45,239.39 L 1821.16,252.76 L 1828.75,266.08 L 1836.32,279.27 L 1843.95,292.27 L 1851.74,304.98 L 1859.79,317.36 L 1868.19,329.32 L 1877.02,340.82 L 1886.35,351.79 L 1896.24,362.20 L 1906.75,372.03 L 1917.90,381.23 L 1929.71,389.82 L 1942.19,397.79 L 1955.31,405.17 L 1969.04,411.99 L 1983.33,418.30 L 1998.11,424.15 L 2013.31,429.62 L 2028.82,434.79 L 2044.55,439.77 L 2060.37,444.64 L 2076.18,449.53 L 2091.86,454.54 L 2107.27,459.79 L 2122.31,465.39 L 2136.87,471.45 L 2150.84,478.09 L 2164.14,485.39 L 2176.70,493.45 L 2188.44,502.33 L 2199.32,512.11 L 2209.33,522.81 L 2218.44,534.47 L 2226.68,547.10 L 2234.07,560.69 L 2240.66,575.21 L 2246.50,590.60 L 2251.67,606.82 L 2256.25,623.78 L 2260.34,641.38 L 2264.04,659.54 L 2267.46,678.12 L 2270.69,697.03 L 2273.86,716.12 L 2277.04,735.29 L 2280.35,754.41 L 2283.87,773.37 L 2287.66,792.07 L 2291.79,810.40 L 2296.32,828.29 L 2301.27,845.68 L 2306.67,862.50 L 2312.52,878.74 L 2318.82,894.38 L 2325.55,909.42 L 2332.67,923.88 L 2340.16,937.81 L 2347.94,951.27 L 2355.98,964.32 L 2364.21,977.05 L 2372.57,989.54 L 2380.99,1001.90 L 2389.40,1014.22 L 2397.76,1026.62 L 2405.99,1039.18 L 2414.05,1052.01 L 2421.90,1065.19 L 2429.48,1078.81 L 2436.77,1092.92 L 2443.74,1107.58 L 2450.36,1122.82 L 2456.63,1138.67 L 2462.53,1155.12 L 2468.04,1172.16 L 2473.17,1189.76 L 2477.90,1207.87 L 2482.22,1226.44 L 2486.14,1245.38 L 2489.63,1264.62 L 2492.68,1284.06 L 2495.27,1303.60 L 2497.37,1323.16 L 2498.96,1342.61 L 2499.98,1361.87 L 2500.41,1380.83 L 2500.19,1399.41 L 2499.27,1417.53 L 2497.60,1435.12 L 2495.13,1452.11 L 2491.80,1468.45 L 2487.56,1484.12 L 2482.37,1499.09 L 2476.18,1513.34 L 2468.98,1526.87 L 2460.72,1539.70 L 2451.41,1551.84 L 2441.04,1563.32 L 2429.64,1574.16 L 2417.22,1584.41 L 2403.83,1594.10 L 2389.53,1603.25 L 2374.39,1611.92 L 2358.48,1620.12 L 2341.91,1627.88 L 2324.78,1635.22 L 2307.20,1642.14 L 2289.27,1648.65 L 2271.13,1654.74 L 2252.88,1660.40 L 2234.66,1665.61 L 2216.56,1670.33 L 2198.69,1674.54 L 2181.14,1678.18 L 2164.01,1681.23 L 2147.35,1683.64 L 2131.23,1685.36 L 2115.68,1686.36 L 2100.72,1686.59 L 2086.37,1686.05 L 2072.61,1684.69 L 2059.41,1682.51 Z"/>
</svg>