<?xml version="1.0" encoding="UTF-8"?>
<svg xmlns="http://www.w3.org/2000/svg" width="2500.0" height="1699.7167138810198" viewBox="0 0 2500.0 1699.7167138810198">
<path fill="#000" stroke="none" d="M 2044.44,1699.74 L 2031.12,1697.38 L 2018.72,1692.58 L 2007.17,1685.37 L 1996.35,1675.91 L 1986.11,1664.51 L 1976.24,1651.61 L 1966.50,1637.71 L 1956.62,1623.39 L 1946.36,1609.20 L 1935.46,1595.66 L 1923.73,1583.18 L 1911.00,1572.08 L 1897.19,1562.51 L 1882.29,1554.50 L 1866.35,1547.92 L 1849.49,1542.54 L 1831.89,1538.05 L 1813.74,1534.10 L 1795.27,1530.32 L 1776.68,1526.39 L 1758.17,1522.06 L 1739.89,1517.15 L 1721.93,1511.62 L 1704.33,1505.47 L 1687.10,1498.84 L 1670.17,1491.89 L 1653.48,1484.85 L 1636.92,1477.93 L 1620.40,1471.32 L 1603.85,1465.16 L 1587.19,1459.54 L 1570.40,1454.45 L 1553.48,1449.85 L 1536.47,1445.60 L 1519.41,1441.54 L 1502.36,1437.50 L 1485.40,1433.29 L 1468.57,1428.78 L 1451.90,1423.86 L 1435.39,1418.48 L 1419.02,1412.66 L 1402.74,1406.46 L 1386.48,1399.97 L 1370.16,1393.35 L 1353.71,1386.72 L 1337.05,1380.22 L 1320.13,1373.95 L 1302.93,1367.97 L 1285.46,1362.32 L 1267.74,1356.97 L 1249.84,1351.85 L 1231.82,1346.89 L 1213.77,1341.98 L 1195.76,1337.03 L 1177.87,1331.95 L 1160.14,1326.68 L 1142.60,1321.19 L 1125.24,1315.49 L 1108.05,1309.59 L 1091.00,1303.56 L 1074.02,1297.46 L 1057.07,1291.36 L 1040.09,1285.32 L 1023.05,1279.37 L 1005.92,1273.55 L 988.69,1267.86 L 971.37,1262.27 L 953.96,1256.74 L 936.51,1251.25 L 919.02,1245.74 L 901.54,1240.18 L 884.08,1234.57 L 866.65,1228.88 L 849.25,1223.15 L 831.86,1217.40 L 814.46,1211.67 L 797.05,1206.00 L 779.59,1200.41 L 762.08,1194.93 L 744.51,1189.56 L 726.89,1184.28 L 709.24,1179.06 L 691.58,1173.85 L 673.95,1168.60 L 656.37,1163.25 L 638.87,1157.76 L 621.46,1152.12 L 604.15,1146.32 L 586.93,1140.38 L 569.77,1134.34 L 552.65,1128.27 L 535.52,1122.23 L 518.35,1116.27 L 501.11,1110.45 L 483.78,1104.80 L 466.35,1099.33 L 448.83,1094.01 L 431.24,1088.80 L 413.61,1083.63 L 395.99,1078.43 L 378.40,1073.13 L 360.90,1067.67 L 343.48,1062.02 L 326.18,1056.17 L 308.96,1050.15 L 291.82,1044.00 L 274.71,1037.81 L 257.59,1031.67 L 240.43,1025.64 L 223.20,1019.79 L 205.89,1014.16 L 188.53,1008.71 L 171.16,1003.38 L 153.87,998.04 L 136.77,992.52 L 119.99,986.60 L 103.71,980.07 L 88.09,972.69 L 73.31,964.25 L 59.53,954.58 L 46.92,943.57 L 35.62,931.18 L 25.73,917.43 L 17.36,902.43 L 10.56,886.34 L 5.37,869.39 L 1.81,851.81 L -0.13,833.89 L -0.48,815.88 L 0.72,798.02 L 3.41,780.54 L 7.49,763.60 L 12.87,747.31 L 19.42,731.75 L 27.00,716.96 L 35.46,702.93 L 44.63,689.63 L 54.34,677.00 L 64.43,664.99 L 74.75,653.52 L 85.17,642.52 L 95.59,631.92 L 105.95,621.64 L 116.23,611.60 L 126.43,601.74 L 136.58,591.98 L 146.77,582.24 L 157.05,572.46 L 167.52,562.61 L 178.23,552.64 L 189.24,542.56 L 200.57,532.39 L 212.22,522.18 L 224.14,512.03 L 236.29,502.05 L 248.59,492.33 L 260.98,483.02 L 273.37,474.19 L 285.73,465.93 L 298.02,458.25 L 310.25,451.11 L 322.45,444.43 L 334.65,438.06 L 346.92,431.80 L 359.31,425.40 L 371.85,418.64 L 384.54,411.25 L 397.33,403.04 L 410.15,393.85 L 422.86,383.57 L 435.30,372.20 L 447.27,359.79 L 458.59,346.48 L 469.08,332.46 L 478.62,317.97 L 487.14,303.27 L 494.65,288.59 L 501.23,274.15 L 507.08,260.13 L 512.43,246.64 L 517.59,233.74 L 522.91,221.43 L 528.71,209.66 L 535.31,198.37 L 542.96,187.49 L 551.84,176.95 L 562.03,166.72 L 573.54,156.84 L 586.25,147.37 L 600.00,138.43 L 614.54,130.19 L 629.62,122.84 L 644.97,116.55 L 660.34,111.50 L 675.52,107.80 L 690.37,105.49 L 704.81,104.52 L 718.81,104.77 L 732.39,106.02 L 745.61,107.96 L 758.55,110.23 L 771.29,112.43 L 783.89,114.17 L 796.38,115.07 L 808.78,114.79 L 821.05,113.11 L 833.18,109.86 L 845.11,105.01 L 856.83,98.63 L 868.33,90.88 L 879.65,82.04 L 890.90,72.43 L 902.19,62.47 L 913.71,52.55 L 925.65,43.12 L 938.19,34.58 L 951.51,27.29 L 965.73,21.56 L 980.91,17.61 L 997.00,15.58 L 1013.91,15.52 L 1031.43,17.35 L 1049.33,20.90 L 1067.30,25.91 L 1085.05,32.02 L 1102.31,38.78 L 1118.88,45.71 L 1134.62,52.28 L 1149.51,57.99 L 1163.64,62.34 L 1177.17,64.93 L 1190.36,65.46 L 1203.52,63.75 L 1216.96,59.80 L 1230.97,53.77 L 1245.78,45.97 L 1261.53,36.89 L 1278.25,27.12 L 1295.86,17.35 L 1314.17,8.29 L 1332.93,0.63 L 1351.82,-5.03 L 1370.51,-8.19 L 1388.73,-8.58 L 1406.24,-6.10 L 1422.94,-0.87 L 1438.82,6.76 L 1454.01,16.28 L 1468.71,27.02 L 1483.26,38.26 L 1497.98,49.24 L 1513.24,59.27 L 1529.34,67.78 L 1546.47,74.38 L 1564.72,78.88 L 1584.02,81.31 L 1604.16,81.94 L 1624.78,81.23 L 1645.42,79.79 L 1665.54,78.30 L 1684.60,77.50 L 1702.06,78.05 L 1717.52,80.54 L 1730.67,85.36 L 1741.37,92.73 L 1749.67,102.68 L 1755.80,115.01 L 1760.14,129.36 L 1763.18,145.23 L 1765.51,162.04 L 1767.74,179.20 L 1770.46,196.15 L 1774.17,212.39 L 1779.27,227.59 L 1786.00,241.54 L 1794.47,254.19 L 1804.59,265.65 L 1816.18,276.12 L 1828.91,285.91 L 1842.40,295.37 L 1856.22,304.83 L 1869.95,314.59 L 1883.24,324.84 L 1895.81,335.69 L 1907.46,347.12 L 1918.14,359.00 L 1927.90,371.11 L 1936.89,383.14 L 1945.36,394.76 L 1953.61,405.62 L 1961.99,415.41 L 1970.83,423.91 L 1980.44,430.95 L 1991.09,436.50 L 2002.94,440.62 L 2016.10,443.49 L 2030.56,445.36 L 2046.22,446.59 L 2062.87,447.55 L 2080.26,448.63 L 2098.04,450.23 L 2115.84,452.71 L 2133.28,456.36 L 2149.98,461.42 L 2165.59,468.04 L 2179.83,476.30 L 2192.49,486.20 L 2203.43,497.66 L 2212.64,510.57 L 2220.18,524.76 L 2226.22,540.02 L 2230.99,556.13 L 2234.79,572.87 L 2237.96,590.03 L 2240.84,607.41 L 2243.74,624.83 L 2246.95,642.14 L 2250.67,659.24 L 2255.05,676.04 L 2260.11,692.51 L 2265.80,708.64 L 2272.01,724.45 L 2278.54,739.99 L 2285.18,755.33 L 2291.68,770.53 L 2297.83,785.69 L 2303.46,800.87 L 2308.47,816.15 L 2312.84,831.56 L 2316.62,847.12 L 2319.97,862.84 L 2323.08,878.67 L 2326.21,894.55 L 2329.63,910.42 L 2333.59,926.16 L 2338.30,941.67 L 2343.91,956.84 L 2350.50,971.57 L 2358.05,985.78 L 2366.43,999.40 L 2375.48,1012.38 L 2384.94,1024.73 L 2394.54,1036.46 L 2404.00,1047.63 L 2413.06,1058.35 L 2421.53,1068.72 L 2429.24,1078.90 L 2436.15,1089.06 L 2442.26,1099.37 L 2447.66,1110.02 L 2452.48,1121.19 L 2456.89,1133.05 L 2461.07,1145.76 L 2465.19,1159.43 L 2469.37,1174.15 L 2473.68,1189.97 L 2478.13,1206.90 L 2482.69,1224.88 L 2487.22,1243.83 L 2491.57,1263.62 L 2495.57,1284.09 L 2499.00,1305.05 L 2501.69,1326.31 L 2503.47,1347.66 L 2504.21,1368.90 L 2503.85,1389.86 L 2502.34,1410.39 L 2499.69,1430.35 L 2495.96,1449.67 L 2491.19,1468.26 L 2485.47,1486.08 L 2478.84,1503.11 L 2471.37,1519.31 L 2463.08,1534.65 L 2453.97,1549.11 L 2444.02,1562.63 L 2433.22,1575.17 L 2421.50,1586.67 L 2408.85,1597.07 L 2395.24,1606.33 L 2380.67,1614.46 L 2365.15,1621.47 L 2348.76,1627.44 L 2331.56,1632.50 L 2313.66,1636.84 L 2295.19,1640.67 L 2276.27,1644.24 L 2257.03,1647.80 L 2237.62,1651.59 L 2218.16,1655.79 L 2198.77,1660.52 L 2179.56,1665.81 L 2160.64,1671.57 L 2142.11,1677.62 L 2124.06,1683.67 L 2106.60,1689.35 L 2089.83,1694.22 L 2073.83,1697.85 L 2058.68,1699.81 Z"/>
</svg>