<?xml version="1.0" encoding="UTF-8"?>
<svg xmlns="http://www.w3.org/2000/svg" width="2500.0" height="1699.7167138810198" viewBox="0 0 2500.0 1699.7167138810198">
<path fill="#e63946" stroke="none" d="M 635.27,348.95 L 631.93,347.40 L 629.16,344.55 L 626.96,340.83 L 625.21,336.74 L 623.77,332.67 L 622.55,328.83 L 621.64,325.19 L 621.21,321.58 L 621.50,317.77 L 622.65,313.63 L 624.58,309.18 L 626.93,304.62 L 629.11,300.25 L 630.39,296.38 L 630.14,293.17 L 628.01,290.58 L 624.05,288.37 L 618.73,286.15 L 612.86,283.54 L 607.39,280.32 L 603.22,276.47 L 600.93,272.24 L 600.76,268.06 L 602.53,264.44 L 605.80,261.83 L 609.99,260.52 L 614.54,260.58 L 619.06,261.90 L 623.37,264.23 L 627.49,267.28 L 631.55,270.76 L 635.70,274.40 L 640.03,277.94 L 644.54,281.12 L 649.13,283.60 L 653.61,285.04 L 657.80,285.09 L 661.54,283.54 L 664.75,280.36 L 667.44,275.73 L 669.72,270.09 L 671.78,264.04 L 673.84,258.23 L 676.16,253.28 L 678.94,249.64 L 682.30,247.56 L 686.21,247.11 L 690.50,248.20 L 694.84,250.63 L 698.80,254.18 L 701.92,258.59 L 703.84,263.60 L 704.33,268.93 L 703.40,274.27 L 701.25,279.35 L 698.19,283.94 L 694.60,287.88 L 690.76,291.19 L 686.85,294.00 L 682.87,296.55 L 678.77,299.11 L 674.46,301.89 L 669.97,304.97 L 665.43,308.33 L 661.14,311.84 L 657.45,315.34 L 654.63,318.73 L 652.80,322.03 L 651.84,325.35 L 651.41,328.85 L 651.02,332.63 L 650.18,336.68 L 648.54,340.77 L 645.99,344.49 L 642.69,347.35 L 638.98,348.93 Z"/>
<path fill="#e63946" stroke="none" d="M 784.62,391.20 L 781.99,391.11 L 778.30,389.86 L 773.85,387.54 L 769.02,384.32 L 764.21,380.42 L 759.80,376.13 L 756.07,371.72 L 753.20,367.44 L 751.22,363.47 L 750.09,359.90 L 749.69,356.70 L 749.88,353.79 L 750.54,350.97 L 751.61,348.06 L 753.05,344.87 L 754.87,341.26 L 757.07,337.17 L 759.66,332.64 L 762.56,327.80 L 765.66,322.83 L 768.77,317.92 L 771.68,313.24 L 774.21,308.89 L 776.22,304.91 L 777.66,301.22 L 778.59,297.70 L 779.20,294.21 L 779.74,290.61 L 780.55,286.84 L 781.92,282.93 L 784.12,279.00 L 787.32,275.24 L 791.54,271.90 L 796.71,269.19 L 802.64,267.26 L 809.09,266.13 L 815.77,265.70 L 822.45,265.73 L 828.93,265.89 L 835.11,265.82 L 840.94,265.19 L 846.47,263.78 L 851.75,261.53 L 856.84,258.54 L 861.77,255.09 L 866.51,251.56 L 870.98,248.43 L 875.01,246.11 L 878.42,244.95 L 881.00,245.16 L 882.58,246.76 L 883.03,249.61 L 882.28,253.40 L 880.36,257.77 L 877.36,262.28 L 873.44,266.55 L 868.79,270.26 L 863.61,273.24 L 858.07,275.40 L 852.31,276.80 L 846.43,277.59 L 840.49,277.99 L 834.52,278.25 L 828.52,278.62 L 822.54,279.32 L 816.66,280.52 L 810.98,282.34 L 805.66,284.83 L 800.88,288.00 L 796.80,291.78 L 793.56,296.09 L 791.20,300.80 L 789.69,305.79 L 788.90,310.92 L 788.61,316.07 L 788.55,321.13 L 788.45,326.05 L 788.07,330.79 L 787.29,335.36 L 786.08,339.81 L 784.55,344.21 L 782.90,348.62 L 781.41,353.10 L 780.35,357.71 L 779.92,362.45 L 780.22,367.28 L 781.20,372.10 L 782.66,376.77 L 784.26,381.11 L 785.61,384.93 L 786.32,388.00 L 786.05,390.14 Z"/>
<path fill="#e63946" stroke="none" d="M 1414.77,435.52 L 1410.31,435.83 L 1402.86,435.88 L 1394.47,435.69 L 1388.08,434.65 L 1384.39,432.30 L 1381.54,428.89 L 1377.65,425.07 L 1373.21,421.14 L 1370.48,416.87 L 1370.90,412.07 L 1373.76,407.23 L 1377.40,403.12 L 1380.93,399.91 L 1384.52,396.93 L 1388.29,393.44 L 1391.84,389.39 L 1394.93,385.47 L 1398.26,382.27 L 1402.95,379.95 L 1409.33,378.49 L 1416.43,378.20 L 1422.79,379.51 L 1427.58,382.35 L 1430.98,385.99 L 1433.87,389.60 L 1437.20,392.93 L 1441.32,396.33 L 1445.46,400.23 L 1448.03,404.72 L 1447.79,409.52 L 1445.04,414.22 L 1441.32,418.41 L 1437.82,421.84 L 1434.24,424.61 L 1429.67,427.16 L 1424.34,429.84 L 1419.83,432.47 L 1417.09,434.49 Z"/>
<path fill="#e63946" stroke="none" d="M 1592.53,604.71 L 1589.81,602.70 L 1586.55,599.19 L 1582.94,594.86 L 1579.32,590.49 L 1575.79,587.11 L 1572.28,585.89 L 1568.66,587.45 L 1565.03,591.20 L 1561.55,595.17 L 1558.24,597.12 L 1554.81,595.87 L 1550.95,592.06 L 1546.86,587.46 L 1543.49,583.58 L 1542.07,580.61 L 1543.29,577.72 L 1546.70,574.13 L 1551.03,569.95 L 1555.04,565.99 L 1558.34,562.76 L 1561.39,559.91 L 1564.78,556.60 L 1568.63,552.40 L 1572.53,547.95 L 1576.05,544.63 L 1579.25,543.60 L 1582.53,545.05 L 1586.22,548.27 L 1590.14,552.21 L 1593.85,556.13 L 1597.10,559.75 L 1600.19,563.14 L 1603.68,566.47 L 1607.79,569.90 L 1611.98,573.54 L 1615.19,577.31 L 1616.39,580.99 L 1615.20,584.39 L 1612.04,587.60 L 1607.85,590.98 L 1603.60,594.85 L 1599.96,598.98 L 1597.12,602.59 L 1594.82,604.70 Z"/>
<path fill="#e63946" stroke="none" d="M 1685.16,647.21 L 1682.77,644.51 L 1678.63,640.92 L 1673.83,637.44 L 1670.44,634.22 L 1669.89,630.74 L 1671.72,626.55 L 1673.90,621.79 L 1674.24,617.09 L 1671.96,612.96 L 1668.06,609.26 L 1664.27,605.40 L 1661.58,600.90 L 1659.59,595.94 L 1657.17,591.24 L 1653.76,587.40 L 1650.18,584.34 L 1648.16,581.28 L 1649.03,577.49 L 1652.64,573.07 L 1657.45,569.00 L 1661.74,566.49 L 1664.81,565.92 L 1667.30,566.53 L 1670.42,566.95 L 1674.81,566.32 L 1680.02,565.00 L 1685.00,564.32 L 1689.06,565.55 L 1692.40,568.91 L 1695.82,573.47 L 1699.83,577.89 L 1704.03,581.44 L 1707.29,584.32 L 1708.48,587.31 L 1707.25,590.89 L 1704.08,594.90 L 1699.91,598.77 L 1695.62,602.23 L 1691.98,605.64 L 1689.74,609.64 L 1689.65,614.47 L 1692.01,619.63 L 1696.12,624.16 L 1700.19,627.53 L 1702.11,630.10 L 1700.74,632.93 L 1696.69,636.80 L 1691.91,641.47 L 1688.33,645.63 L 1686.45,647.77 Z"/>
<path fill="#e63946" stroke="none" d="M 1429.28,701.89 L 1425.97,700.94 L 1421.82,699.74 L 1416.63,698.59 L 1410.50,697.60 L 1403.79,696.71 L 1397.07,695.66 L 1390.95,694.15 L 1386.00,691.88 L 1382.58,688.70 L 1380.79,684.63 L 1380.49,679.87 L 1381.30,674.70 L 1382.77,669.45 L 1384.42,664.35 L 1385.89,659.48 L 1386.96,654.80 L 1387.52,650.13 L 1387.61,645.28 L 1387.27,640.15 L 1386.56,634.74 L 1385.46,629.23 L 1383.93,623.88 L 1381.88,618.98 L 1379.23,614.73 L 1375.96,611.15 L 1372.13,608.09 L 1367.90,605.21 L 1363.51,602.14 L 1359.27,598.56 L 1355.50,594.33 L 1352.51,589.58 L 1350.56,584.67 L 1349.81,580.15 L 1350.33,576.63 L 1352.08,574.58 L 1354.92,574.29 L 1358.60,575.75 L 1362.78,578.68 L 1367.13,582.63 L 1371.31,587.08 L 1375.05,591.59 L 1378.24,595.89 L 1380.89,599.90 L 1383.18,603.72 L 1385.37,607.53 L 1387.76,611.51 L 1390.58,615.74 L 1393.92,620.19 L 1397.63,624.73 L 1401.41,629.18 L 1404.82,633.36 L 1407.37,637.23 L 1408.72,640.85 L 1408.72,644.39 L 1407.51,648.04 L 1405.50,651.97 L 1403.32,656.19 L 1401.63,660.55 L 1401.02,664.76 L 1401.83,668.42 L 1404.12,671.14 L 1407.63,672.62 L 1411.93,672.79 L 1416.47,671.75 L 1420.79,669.81 L 1424.62,667.37 L 1427.92,664.89 L 1430.87,662.72 L 1433.76,661.14 L 1436.86,660.29 L 1440.32,660.22 L 1444.07,660.94 L 1447.79,662.45 L 1451.03,664.77 L 1453.31,667.93 L 1454.23,671.91 L 1453.64,676.61 L 1451.64,681.81 L 1448.59,687.14 L 1444.96,692.16 L 1441.26,696.44 L 1437.84,699.62 L 1434.83,701.53 L 1432.09,702.21 Z"/>
<path fill="#e63946" stroke="none" d="M 1266.92,683.59 L 1264.70,680.46 L 1260.98,675.89 L 1256.56,672.53 L 1252.96,669.86 L 1251.06,665.39 L 1250.21,658.60 L 1248.84,651.93 L 1246.41,647.51 L 1244.52,644.62 L 1245.44,641.28 L 1249.41,637.18 L 1254.17,633.54 L 1257.59,630.58 L 1260.06,627.09 L 1263.58,622.78 L 1268.81,619.67 L 1274.24,619.94 L 1278.41,623.13 L 1281.76,626.91 L 1285.45,630.09 L 1289.26,633.57 L 1291.87,638.34 L 1293.27,643.65 L 1295.40,648.16 L 1299.52,651.70 L 1303.99,655.09 L 1305.69,658.67 L 1303.54,662.12 L 1299.52,665.54 L 1295.98,669.42 L 1292.85,673.26 L 1288.38,675.65 L 1281.98,676.28 L 1275.32,677.05 L 1270.61,679.68 L 1268.29,682.94 Z"/>
<path fill="#e63946" stroke="none" d="M 1716.67,748.21 L 1711.62,748.45 L 1706.38,747.77 L 1701.07,746.40 L 1695.77,744.54 L 1690.57,742.39 L 1685.54,740.08 L 1680.74,737.66 L 1676.21,735.10 L 1671.95,732.36 L 1667.97,729.36 L 1664.24,726.09 L 1660.69,722.55 L 1657.27,718.84 L 1653.89,715.06 L 1650.48,711.33 L 1646.98,707.73 L 1643.35,704.30 L 1639.62,701.02 L 1635.82,697.81 L 1632.03,694.56 L 1628.33,691.17 L 1624.78,687.59 L 1621.42,683.80 L 1618.24,679.85 L 1615.19,675.82 L 1612.16,671.81 L 1609.07,667.89 L 1605.83,664.07 L 1602.43,660.34 L 1598.93,656.61 L 1595.46,652.80 L 1592.27,648.81 L 1589.62,644.65 L 1587.79,640.38 L 1587.02,636.14 L 1587.44,632.18 L 1589.06,628.75 L 1591.78,626.11 L 1595.35,624.46 L 1599.50,623.94 L 1603.88,624.56 L 1608.20,626.25 L 1612.25,628.87 L 1615.91,632.22 L 1619.17,636.11 L 1622.10,640.34 L 1624.85,644.75 L 1627.57,649.22 L 1630.38,653.63 L 1633.36,657.90 L 1636.54,661.97 L 1639.89,665.80 L 1643.33,669.39 L 1646.82,672.78 L 1650.28,676.06 L 1653.71,679.36 L 1657.11,682.79 L 1660.53,686.47 L 1664.02,690.43 L 1667.59,694.58 L 1671.27,698.73 L 1675.01,702.58 L 1678.74,705.72 L 1682.38,707.76 L 1685.85,708.39 L 1689.09,707.42 L 1692.10,704.87 L 1694.91,701.00 L 1697.62,696.24 L 1700.35,691.17 L 1703.22,686.42 L 1706.32,682.55 L 1709.71,680.00 L 1713.39,679.02 L 1717.28,679.64 L 1721.27,681.72 L 1725.21,685.01 L 1728.91,689.17 L 1732.21,693.92 L 1734.95,699.02 L 1737.02,704.34 L 1738.34,709.79 L 1738.86,715.33 L 1738.56,720.92 L 1737.46,726.48 L 1735.57,731.84 L 1732.96,736.79 L 1729.67,741.09 L 1725.80,744.52 L 1721.44,746.92 Z"/>
<path fill="#e63946" stroke="none" d="M 1678.65,878.61 L 1675.26,877.92 L 1671.58,876.17 L 1667.62,873.50 L 1663.47,870.09 L 1659.20,866.21 L 1654.91,862.16 L 1650.69,858.24 L 1646.60,854.74 L 1642.67,851.89 L 1638.90,849.84 L 1635.26,848.67 L 1631.69,848.37 L 1628.11,848.85 L 1624.45,849.94 L 1620.64,851.42 L 1616.63,853.06 L 1612.39,854.61 L 1607.94,855.86 L 1603.31,856.61 L 1598.60,856.74 L 1593.89,856.16 L 1589.30,854.86 L 1584.96,852.85 L 1580.96,850.22 L 1577.42,847.04 L 1574.39,843.43 L 1571.93,839.49 L 1570.06,835.31 L 1568.77,830.98 L 1568.03,826.56 L 1567.82,822.10 L 1568.06,817.61 L 1568.71,813.12 L 1569.70,808.63 L 1570.97,804.14 L 1572.45,799.64 L 1574.06,795.14 L 1575.74,790.62 L 1577.41,786.07 L 1578.98,781.50 L 1580.38,776.87 L 1581.53,772.17 L 1582.36,767.39 L 1582.83,762.52 L 1582.92,757.55 L 1582.66,752.50 L 1582.08,747.42 L 1581.29,742.37 L 1580.40,737.46 L 1579.57,732.80 L 1578.95,728.54 L 1578.69,724.83 L 1578.94,721.85 L 1579.78,719.72 L 1581.27,718.56 L 1583.41,718.45 L 1586.11,719.42 L 1589.25,721.44 L 1592.66,724.43 L 1596.12,728.27 L 1599.42,732.81 L 1602.34,737.86 L 1604.71,743.24 L 1606.39,748.79 L 1607.33,754.36 L 1607.53,759.84 L 1607.06,765.17 L 1606.07,770.33 L 1604.75,775.32 L 1603.30,780.17 L 1601.96,784.95 L 1600.93,789.70 L 1600.39,794.44 L 1600.46,799.19 L 1601.21,803.94 L 1602.65,808.62 L 1604.72,813.16 L 1607.35,817.49 L 1610.41,821.50 L 1613.79,825.12 L 1617.36,828.30 L 1621.03,831.03 L 1624.73,833.31 L 1628.44,835.21 L 1632.17,836.82 L 1635.96,838.24 L 1639.85,839.59 L 1643.91,840.96 L 1648.20,842.42 L 1652.74,844.00 L 1657.55,845.66 L 1662.60,847.34 L 1667.84,848.92 L 1673.20,850.24 L 1678.59,851.16 L 1683.93,851.53 L 1689.13,851.23 L 1694.14,850.20 L 1698.94,848.46 L 1703.52,846.07 L 1707.92,843.19 L 1712.17,840.02 L 1716.34,836.79 L 1720.47,833.77 L 1724.57,831.21 L 1728.66,829.31 L 1732.68,828.21 L 1736.54,827.99 L 1740.11,828.64 L 1743.25,830.08 L 1745.77,832.13 L 1747.52,834.62 L 1748.34,837.31 L 1748.15,839.99 L 1746.88,842.48 L 1744.55,844.66 L 1741.25,846.48 L 1737.12,847.94 L 1732.35,849.13 L 1727.17,850.20 L 1721.82,851.29 L 1716.50,852.59 L 1711.43,854.23 L 1706.73,856.31 L 1702.50,858.86 L 1698.75,861.84 L 1695.46,865.11 L 1692.52,868.50 L 1689.82,871.76 L 1687.21,874.63 L 1684.55,876.86 L 1681.72,878.24 Z"/>
<path fill="#e63946" stroke="none" d="M 1830.18,983.56 L 1826.51,984.58 L 1822.69,985.02 L 1818.73,984.83 L 1814.66,984.01 L 1810.50,982.60 L 1806.32,980.65 L 1802.17,978.24 L 1798.13,975.46 L 1794.25,972.39 L 1790.59,969.12 L 1787.20,965.72 L 1784.11,962.25 L 1781.32,958.75 L 1778.84,955.22 L 1776.64,951.68 L 1774.69,948.09 L 1772.98,944.43 L 1771.45,940.67 L 1770.10,936.77 L 1768.90,932.71 L 1767.86,928.51 L 1767.00,924.16 L 1766.35,919.73 L 1765.97,915.27 L 1765.94,910.88 L 1766.32,906.65 L 1767.19,902.72 L 1768.64,899.20 L 1770.72,896.20 L 1773.47,893.81 L 1776.93,892.11 L 1781.08,891.14 L 1785.89,890.90 L 1791.30,891.35 L 1797.22,892.42 L 1803.55,893.99 L 1810.17,895.92 L 1816.95,898.04 L 1823.78,900.19 L 1830.53,902.18 L 1837.13,903.84 L 1843.48,905.02 L 1849.55,905.59 L 1855.31,905.48 L 1860.77,904.62 L 1865.95,903.03 L 1870.90,900.72 L 1875.65,897.78 L 1880.26,894.30 L 1884.77,890.44 L 1889.23,886.32 L 1893.65,882.12 L 1898.01,878.00 L 1902.30,874.11 L 1906.45,870.58 L 1910.41,867.55 L 1914.09,865.10 L 1917.40,863.31 L 1920.23,862.23 L 1922.51,861.87 L 1924.16,862.23 L 1925.13,863.29 L 1925.37,865.01 L 1924.89,867.32 L 1923.69,870.16 L 1921.83,873.44 L 1919.36,877.09 L 1916.35,881.00 L 1912.89,885.09 L 1909.07,889.26 L 1904.95,893.41 L 1900.61,897.45 L 1896.09,901.27 L 1891.43,904.81 L 1886.64,907.97 L 1881.71,910.70 L 1876.64,912.94 L 1871.39,914.66 L 1865.95,915.86 L 1860.27,916.54 L 1854.36,916.73 L 1848.22,916.50 L 1841.88,915.93 L 1835.38,915.12 L 1828.79,914.19 L 1822.22,913.26 L 1815.77,912.47 L 1809.57,911.93 L 1803.76,911.76 L 1798.45,912.06 L 1793.78,912.91 L 1789.85,914.35 L 1786.73,916.40 L 1784.48,919.04 L 1783.12,922.24 L 1782.65,925.92 L 1783.02,929.98 L 1784.17,934.30 L 1786.02,938.77 L 1788.46,943.25 L 1791.39,947.61 L 1794.70,951.73 L 1798.28,955.50 L 1802.05,958.83 L 1805.92,961.65 L 1809.84,963.91 L 1813.77,965.59 L 1817.70,966.68 L 1821.62,967.19 L 1825.56,967.16 L 1829.54,966.62 L 1833.58,965.64 L 1837.73,964.26 L 1842.03,962.55 L 1846.48,960.59 L 1851.13,958.44 L 1855.98,956.18 L 1861.02,953.86 L 1866.25,951.58 L 1871.65,949.39 L 1877.18,947.37 L 1882.82,945.59 L 1888.50,944.11 L 1894.20,942.99 L 1899.84,942.28 L 1905.37,942.01 L 1910.73,942.21 L 1915.84,942.88 L 1920.64,944.01 L 1925.05,945.56 L 1929.00,947.46 L 1932.40,949.65 L 1935.18,952.03 L 1937.27,954.50 L 1938.60,956.94 L 1939.12,959.24 L 1938.78,961.31 L 1937.57,963.06 L 1935.49,964.43 L 1932.55,965.37 L 1928.82,965.88 L 1924.35,965.98 L 1919.25,965.73 L 1913.64,965.21 L 1907.63,964.52 L 1901.38,963.78 L 1895.01,963.10 L 1888.65,962.62 L 1882.44,962.43 L 1876.46,962.63 L 1870.80,963.26 L 1865.50,964.35 L 1860.59,965.89 L 1856.05,967.84 L 1851.85,970.10 L 1847.95,972.58 L 1844.26,975.15 L 1840.72,977.67 L 1837.24,979.99 L 1833.75,981.99 Z"/>
<path fill="#e63946" stroke="none" d="M 1980.63,1066.02 L 1976.82,1064.66 L 1972.93,1062.48 L 1969.04,1061.22 L 1964.98,1061.89 L 1960.57,1063.83 L 1955.89,1065.12 L 1951.33,1063.96 L 1947.26,1060.09 L 1943.77,1054.89 L 1940.56,1050.30 L 1937.20,1047.30 L 1933.50,1045.25 L 1929.66,1042.60 L 1926.16,1038.24 L 1923.56,1032.30 L 1922.23,1025.85 L 1922.30,1019.89 L 1923.71,1014.64 L 1926.25,1009.72 L 1929.60,1004.91 L 1933.33,1000.67 L 1937.06,997.94 L 1940.62,997.36 L 1944.07,998.82 L 1947.55,1001.57 L 1951.12,1004.94 L 1954.68,1008.73 L 1958.15,1012.95 L 1961.62,1017.27 L 1965.40,1020.76 L 1969.76,1022.35 L 1974.61,1021.76 L 1979.43,1019.97 L 1983.60,1018.71 L 1986.92,1019.42 L 1989.81,1022.32 L 1993.05,1026.51 L 1997.07,1030.76 L 2001.42,1034.45 L 2004.88,1037.69 L 2006.16,1040.95 L 2004.78,1044.43 L 2001.32,1048.03 L 1997.05,1051.61 L 1993.11,1055.26 L 1989.91,1059.08 L 1987.10,1062.75 L 1984.10,1065.37 Z"/>
<path fill="#e63946" stroke="none" d="M 2315.08,1135.80 L 2312.20,1133.33 L 2308.05,1130.73 L 2303.04,1128.57 L 2298.11,1126.14 L 2294.00,1122.83 L 2290.77,1118.94 L 2287.86,1115.25 L 2284.52,1111.94 L 2280.47,1108.55 L 2276.18,1104.78 L 2272.80,1101.02 L 2271.53,1097.70 L 2272.87,1094.55 L 2276.27,1090.85 L 2280.47,1086.57 L 2284.39,1082.97 L 2287.73,1081.60 L 2290.89,1083.02 L 2294.36,1086.46 L 2298.15,1090.68 L 2301.92,1094.83 L 2305.41,1098.20 L 2308.70,1099.76 L 2312.07,1098.49 L 2315.68,1094.62 L 2319.62,1090.06 L 2323.94,1087.27 L 2328.69,1087.46 L 2333.57,1090.08 L 2337.80,1094.00 L 2340.46,1098.80 L 2341.05,1104.55 L 2339.77,1110.75 L 2337.26,1116.10 L 2334.01,1119.69 L 2330.25,1122.20 L 2326.22,1125.30 L 2322.41,1129.71 L 2319.38,1134.13 L 2317.15,1136.45 Z"/>
<path fill="#e63946" stroke="none" d="M 2208.35,1212.94 L 2205.10,1211.82 L 2201.80,1209.23 L 2198.73,1205.33 L 2196.10,1200.39 L 2193.95,1194.80 L 2192.09,1189.02 L 2190.19,1183.55 L 2187.92,1178.95 L 2185.08,1175.76 L 2181.70,1174.40 L 2177.97,1175.06 L 2174.18,1177.64 L 2170.52,1181.66 L 2167.07,1186.41 L 2163.70,1191.05 L 2160.26,1194.80 L 2156.63,1197.10 L 2152.84,1197.71 L 2149.05,1196.65 L 2145.48,1194.19 L 2142.27,1190.66 L 2139.43,1186.41 L 2136.80,1181.70 L 2134.17,1176.77 L 2131.41,1171.80 L 2128.62,1166.96 L 2126.13,1162.41 L 2124.44,1158.24 L 2123.99,1154.43 L 2125.04,1150.87 L 2127.47,1147.39 L 2130.90,1143.83 L 2134.79,1140.11 L 2138.69,1136.32 L 2142.41,1132.66 L 2146.05,1129.37 L 2149.95,1126.62 L 2154.48,1124.44 L 2159.82,1122.71 L 2165.84,1121.24 L 2172.16,1119.88 L 2178.24,1118.65 L 2183.65,1117.80 L 2188.19,1117.70 L 2191.97,1118.73 L 2195.32,1121.08 L 2198.60,1124.64 L 2202.08,1129.01 L 2205.83,1133.58 L 2209.72,1137.80 L 2213.55,1141.33 L 2217.19,1144.19 L 2220.60,1146.75 L 2223.88,1149.56 L 2227.09,1153.13 L 2230.20,1157.74 L 2232.97,1163.36 L 2235.02,1169.63 L 2235.92,1176.08 L 2235.42,1182.23 L 2233.52,1187.82 L 2230.53,1192.78 L 2226.96,1197.21 L 2223.31,1201.26 L 2219.95,1205.00 L 2216.95,1208.31 L 2214.17,1210.95 L 2211.37,1212.59 Z"/>
</svg>