<?xml version="1.0" encoding="UTF-8"?>
<svg xmlns="http://www.w3.org/2000/svg" width="2500.0" height="1699.7167138810198" viewBox="0 0 2500.0 1699.7167138810198">
<path fill="#e63946" stroke="none" d="M 1886.95,1388.02 L 1869.59,1391.17 L 1851.46,1392.90 L 1832.53,1393.15 L 1812.80,1391.88 L 1792.25,1389.12 L 1770.93,1384.94 L 1748.89,1379.48 L 1726.17,1372.93 L 1702.86,1365.51 L 1679.02,1357.49 L 1654.75,1349.16 L 1630.11,1340.80 L 1605.17,1332.69 L 1580.00,1325.05 L 1554.64,1318.07 L 1529.13,1311.88 L 1503.51,1306.51 L 1477.79,1301.96 L 1452.01,1298.10 L 1426.17,1294.77 L 1400.30,1291.74 L 1374.41,1288.74 L 1348.54,1285.50 L 1322.70,1281.74 L 1296.96,1277.19 L 1271.36,1271.67 L 1245.96,1265.04 L 1220.84,1257.22 L 1196.07,1248.26 L 1171.74,1238.27 L 1147.91,1227.43 L 1124.65,1216.01 L 1102.02,1204.32 L 1080.05,1192.71 L 1058.76,1181.52 L 1038.15,1171.07 L 1018.16,1161.65 L 998.73,1153.46 L 979.76,1146.62 L 961.14,1141.16 L 942.71,1137.01 L 924.32,1134.00 L 905.81,1131.86 L 887.02,1130.28 L 867.78,1128.88 L 847.99,1127.26 L 827.54,1125.04 L 806.38,1121.85 L 784.49,1117.41 L 761.92,1111.50 L 738.75,1104.00 L 715.11,1094.92 L 691.17,1084.34 L 667.13,1072.47 L 643.20,1059.60 L 619.59,1046.09 L 596.52,1032.33 L 574.16,1018.74 L 552.63,1005.73 L 532.03,993.68 L 512.37,982.88 L 493.60,973.55 L 475.60,965.82 L 458.21,959.72 L 441.18,955.15 L 424.26,951.95 L 407.16,949.86 L 389.59,948.53 L 371.31,947.62 L 352.09,946.72 L 331.80,945.47 L 310.37,943.49 L 287.86,940.48 L 264.39,936.18 L 240.22,930.41 L 215.70,923.07 L 191.25,914.10 L 167.38,903.55 L 144.63,891.50 L 123.54,878.06 L 104.67,863.39 L 88.49,847.67 L 75.44,831.07 L 65.84,813.74 L 59.89,795.83 L 57.69,777.48 L 59.18,758.78 L 64.19,739.82 L 72.46,720.69 L 83.59,701.46 L 97.15,682.20 L 112.65,663.02 L 129.59,644.00 L 147.51,625.27 L 165.97,606.99 L 184.62,589.29 L 203.18,572.36 L 221.50,556.34 L 239.49,541.37 L 257.19,527.57 L 274.70,515.01 L 292.20,503.71 L 309.89,493.61 L 328.02,484.60 L 346.79,476.50 L 366.38,469.08 L 386.91,462.06 L 408.43,455.11 L 430.87,447.94 L 454.13,440.24 L 477.97,431.75 L 502.12,422.29 L 526.24,411.75 L 549.96,400.14 L 572.92,387.57 L 594.77,374.25 L 615.22,360.54 L 634.06,346.84 L 651.16,333.66 L 666.49,321.51 L 680.12,310.93 L 692.23,302.43 L 703.08,296.44 L 713.00,293.28 L 722.36,293.14 L 731.54,296.07 L 740.94,301.95 L 750.89,310.47 L 761.67,321.19 L 773.51,333.50 L 786.50,346.70 L 800.70,360.01 L 816.02,372.62 L 832.33,383.74 L 849.43,392.64 L 867.07,398.71 L 885.00,401.46 L 902.97,400.62 L 920.75,396.07 L 938.19,387.93 L 955.18,376.50 L 971.69,362.29 L 987.76,345.93 L 1003.51,328.21 L 1019.09,309.97 L 1034.68,292.10 L 1050.48,275.47 L 1066.64,260.85 L 1083.28,248.94 L 1100.44,240.27 L 1118.06,235.22 L 1135.98,233.94 L 1153.94,236.44 L 1171.56,242.50 L 1188.38,251.75 L 1203.89,263.67 L 1217.51,277.65 L 1228.70,293.00 L 1236.94,309.00 L 1241.80,324.96 L 1242.96,340.25 L 1240.25,354.30 L 1233.64,366.71 L 1223.33,377.17 L 1209.64,385.56 L 1193.10,391.90 L 1174.37,396.34 L 1154.24,399.19 L 1133.55,400.84 L 1113.19,401.78 L 1094.04,402.56 L 1076.90,403.72 L 1062.49,405.82 L 1051.38,409.35 L 1043.97,414.74 L 1040.49,422.34 L 1040.98,432.39 L 1045.31,444.99 L 1053.17,460.13 L 1064.13,477.69 L 1077.68,497.42 L 1093.22,518.96 L 1110.14,541.88 L 1127.88,565.67 L 1145.89,589.77 L 1163.75,613.60 L 1181.12,636.57 L 1197.78,658.13 L 1213.65,677.75 L 1228.74,694.97 L 1243.17,709.42 L 1257.13,720.81 L 1270.85,728.96 L 1284.59,733.81 L 1298.58,735.42 L 1313.02,733.96 L 1328.06,729.70 L 1343.74,723.04 L 1360.05,714.44 L 1376.88,704.46 L 1394.06,693.69 L 1411.34,682.76 L 1428.46,672.30 L 1445.12,662.93 L 1461.06,655.20 L 1476.02,649.64 L 1489.84,646.63 L 1502.40,646.49 L 1513.68,649.41 L 1523.74,655.45 L 1532.73,664.56 L 1540.86,676.57 L 1548.39,691.19 L 1555.62,708.07 L 1562.84,726.76 L 1570.33,746.80 L 1578.32,767.71 L 1586.97,789.02 L 1596.37,810.29 L 1606.52,831.16 L 1617.35,851.35 L 1628.69,870.68 L 1640.33,889.05 L 1652.00,906.50 L 1663.42,923.14 L 1674.34,939.16 L 1684.52,954.84 L 1693.80,970.47 L 1702.09,986.37 L 1709.40,1002.84 L 1715.83,1020.15 L 1721.61,1038.49 L 1727.01,1057.97 L 1732.40,1078.60 L 1738.18,1100.29 L 1744.77,1122.80 L 1752.55,1145.84 L 1761.86,1168.97 L 1772.97,1191.70 L 1786.02,1213.49 L 1801.04,1233.75 L 1817.91,1251.92 L 1836.39,1267.44 L 1856.11,1279.81 L 1876.57,1288.63 L 1897.22,1293.57 L 1917.43,1294.45 L 1936.58,1291.17 L 1954.07,1283.79 L 1969.36,1272.49 L 1982.02,1257.55 L 1991.72,1239.37 L 1998.32,1218.42 L 2001.81,1195.26 L 2002.35,1170.47 L 2000.26,1144.68 L 1995.98,1118.51 L 1990.09,1092.58 L 1983.21,1067.47 L 1976.03,1043.72 L 1969.24,1021.81 L 1963.47,1002.17 L 1959.29,985.16 L 1957.18,971.05 L 1957.45,960.06 L 1960.32,952.33 L 1965.81,947.92 L 1973.82,946.84 L 1984.09,949.02 L 1996.26,954.35 L 2009.85,962.64 L 2024.33,973.66 L 2039.12,987.17 L 2053.64,1002.84 L 2067.33,1020.35 L 2079.69,1039.35 L 2090.28,1059.49 L 2098.77,1080.40 L 2104.91,1101.75 L 2108.57,1123.21 L 2109.70,1144.48 L 2108.38,1165.30 L 2104.73,1185.47 L 2098.96,1204.81 L 2091.32,1223.22 L 2082.08,1240.61 L 2071.52,1256.97 L 2059.92,1272.30 L 2047.53,1286.65 L 2034.54,1300.05 L 2021.13,1312.58 L 2007.42,1324.29 L 1993.47,1335.23 L 1979.30,1345.40 L 1964.89,1354.81 L 1950.20,1363.41 L 1935.15,1371.14 L 1919.65,1377.89 L 1903.61,1383.56 Z"/>
<path fill="#e63946" stroke="none" d="M 1901.68,1351.89 L 1916.51,1345.03 L 1931.17,1336.26 L 1945.60,1325.88 L 1959.65,1314.34 L 1973.14,1302.13 L 1985.85,1289.81 L 1997.54,1277.95 L 2007.92,1267.09 L 2016.73,1257.74 L 2023.72,1250.33 L 2028.64,1245.18 L 2031.33,1242.52 L 2031.66,1242.40 L 2029.56,1244.79 L 2025.06,1249.50 L 2018.22,1256.23 L 2009.21,1264.56 L 1998.24,1274.02 L 1985.57,1284.06 L 1971.49,1294.12 L 1956.33,1303.62 L 1940.40,1312.04 L 1924.02,1318.88 L 1907.48,1323.71 L 1891.03,1326.22 L 1874.90,1326.15 L 1859.23,1323.37 L 1844.14,1317.85 L 1829.71,1309.64 L 1815.96,1298.89 L 1802.88,1285.82 L 1790.44,1270.72 L 1778.58,1253.89 L 1767.26,1235.71 L 1756.42,1216.53 L 1746.00,1196.72 L 1735.98,1176.63 L 1726.33,1156.56 L 1717.04,1136.79 L 1708.11,1117.55 L 1699.56,1099.01 L 1691.38,1081.28 L 1683.60,1064.41 L 1676.19,1048.41 L 1669.15,1033.19 L 1662.43,1018.66 L 1655.99,1004.66 L 1649.75,990.99 L 1643.62,977.47 L 1637.52,963.86 L 1631.34,949.96 L 1625.00,935.59 L 1618.41,920.60 L 1611.51,904.90 L 1604.25,888.46 L 1596.62,871.29 L 1588.61,853.54 L 1580.27,835.37 L 1571.63,817.06 L 1562.75,798.93 L 1553.70,781.37 L 1544.54,764.79 L 1535.31,749.61 L 1526.04,736.24 L 1516.73,725.05 L 1507.36,716.37 L 1497.87,710.42 L 1488.16,707.32 L 1478.15,707.07 L 1467.71,709.56 L 1456.72,714.54 L 1445.07,721.65 L 1432.67,730.41 L 1419.46,740.26 L 1405.43,750.61 L 1390.60,760.80 L 1375.05,770.19 L 1358.91,778.20 L 1342.35,784.30 L 1325.57,788.05 L 1308.79,789.14 L 1292.24,787.39 L 1276.14,782.74 L 1260.67,775.29 L 1245.96,765.23 L 1232.11,752.89 L 1219.12,738.64 L 1206.97,722.92 L 1195.53,706.20 L 1184.63,688.91 L 1174.06,671.45 L 1163.57,654.18 L 1152.94,637.33 L 1141.93,621.10 L 1130.37,605.54 L 1118.14,590.64 L 1105.20,576.33 L 1091.61,562.45 L 1077.55,548.83 L 1063.27,535.29 L 1049.13,521.66 L 1035.57,507.82 L 1023.06,493.69 L 1012.12,479.28 L 1003.27,464.66 L 996.95,449.97 L 993.56,435.42 L 993.41,421.27 L 996.65,407.80 L 1003.30,395.27 L 1013.24,383.93 L 1026.18,373.99 L 1041.71,365.57 L 1059.26,358.70 L 1078.19,353.33 L 1097.78,349.30 L 1117.28,346.39 L 1135.95,344.28 L 1153.10,342.62 L 1168.10,341.05 L 1180.44,339.22 L 1189.75,336.82 L 1195.79,333.62 L 1198.47,329.51 L 1197.84,324.47 L 1194.10,318.63 L 1187.55,312.23 L 1178.56,305.62 L 1167.58,299.26 L 1155.06,293.65 L 1141.47,289.30 L 1127.22,286.75 L 1112.65,286.42 L 1098.07,288.67 L 1083.65,293.72 L 1069.51,301.62 L 1055.65,312.27 L 1042.03,325.37 L 1028.53,340.48 L 1015.00,357.00 L 1001.27,374.23 L 987.19,391.39 L 972.61,407.70 L 957.44,422.40 L 941.66,434.79 L 925.27,444.31 L 908.37,450.58 L 891.09,453.35 L 873.61,452.64 L 856.15,448.61 L 838.92,441.65 L 822.14,432.29 L 805.99,421.22 L 790.61,409.17 L 776.09,396.96 L 762.43,385.35 L 749.60,375.06 L 737.46,366.72 L 725.84,360.78 L 714.52,357.58 L 703.25,357.23 L 691.76,359.70 L 679.79,364.79 L 667.12,372.16 L 653.56,381.34 L 638.98,391.83 L 623.33,403.06 L 606.61,414.51 L 588.90,425.68 L 570.32,436.19 L 551.08,445.73 L 531.38,454.14 L 511.45,461.37 L 491.54,467.50 L 471.84,472.74 L 452.54,477.33 L 433.76,481.63 L 415.58,485.98 L 398.01,490.74 L 381.02,496.22 L 364.50,502.68 L 348.34,510.32 L 332.38,519.22 L 316.48,529.40 L 300.48,540.79 L 284.27,553.24 L 267.79,566.56 L 251.02,580.51 L 234.03,594.88 L 216.95,609.44 L 199.96,624.01 L 183.33,638.45 L 167.36,652.70 L 152.40,666.73 L 138.81,680.59 L 126.95,694.35 L 117.16,708.14 L 109.73,722.08 L 104.91,736.27 L 102.87,750.79 L 103.72,765.68 L 107.46,780.88 L 114.03,796.30 L 123.28,811.76 L 135.00,827.01 L 148.91,841.77 L 164.71,855.70 L 182.03,868.49 L 200.54,879.82 L 219.88,889.43 L 239.71,897.14 L 259.73,902.83 L 279.68,906.54 L 299.34,908.37 L 318.55,908.57 L 337.19,907.47 L 355.21,905.50 L 372.59,903.14 L 389.35,900.90 L 405.56,899.28 L 421.31,898.76 L 436.70,899.74 L 451.87,902.53 L 466.93,907.32 L 482.03,914.18 L 497.27,923.04 L 512.79,933.70 L 528.67,945.86 L 545.00,959.12 L 561.85,973.04 L 579.25,987.13 L 597.21,1000.90 L 615.75,1013.91 L 634.81,1025.80 L 654.35,1036.25 L 674.29,1045.10 L 694.53,1052.27 L 714.95,1057.81 L 735.43,1061.86 L 755.84,1064.66 L 776.04,1066.52 L 795.89,1067.79 L 815.30,1068.82 L 834.15,1069.97 L 852.38,1071.55 L 869.95,1073.81 L 886.85,1076.93 L 903.13,1081.02 L 918.84,1086.07 L 934.09,1092.04 L 949.01,1098.80 L 963.76,1106.18 L 978.51,1113.96 L 993.43,1121.94 L 1008.69,1129.91 L 1024.44,1137.70 L 1040.83,1145.18 L 1057.94,1152.27 L 1075.85,1158.94 L 1094.57,1165.23 L 1114.09,1171.21 L 1134.36,1176.97 L 1155.28,1182.66 L 1176.74,1188.40 L 1198.61,1194.31 L 1220.76,1200.46 L 1243.03,1206.92 L 1265.32,1213.68 L 1287.51,1220.70 L 1309.53,1227.89 L 1331.33,1235.11 L 1352.90,1242.21 L 1374.25,1249.02 L 1395.43,1255.40 L 1416.50,1261.19 L 1437.53,1266.32 L 1458.60,1270.73 L 1479.77,1274.43 L 1501.11,1277.51 L 1522.63,1280.09 L 1544.35,1282.37 L 1566.23,1284.54 L 1588.22,1286.86 L 1610.23,1289.55 L 1632.16,1292.81 L 1653.88,1296.80 L 1675.27,1301.60 L 1696.21,1307.24 L 1716.59,1313.64 L 1736.33,1320.63 L 1755.39,1327.98 L 1773.73,1335.35 L 1791.37,1342.39 L 1808.37,1348.69 L 1824.80,1353.85 L 1840.75,1357.50 L 1856.33,1359.32 L 1871.63,1359.06 L 1886.73,1356.60 Z"/>
<path fill="#e63946" stroke="none" d="M 2015.56,1004.00 L 2014.19,999.42 L 2011.48,995.03 L 2008.07,991.27 L 2004.15,987.96 L 2000.40,984.60 L 1997.36,980.81 L 1994.06,977.06 L 1989.25,974.44 L 1983.64,972.96 L 1979.19,970.85 L 1976.04,966.81 L 1972.44,962.36 L 1968.29,960.61 L 1966.24,962.66 L 1968.14,966.66 L 1972.38,970.47 L 1976.28,973.77 L 1979.37,977.23 L 1982.78,980.92 L 1986.66,984.46 L 1990.24,987.93 L 1993.50,991.51 L 1997.07,995.05 L 2000.84,998.51 L 2004.29,1002.23 L 2007.69,1005.93 L 2011.42,1008.14 L 2014.56,1007.42 Z"/>
<path fill="#e63946" stroke="none" d="M 2044.41,1132.60 L 2046.45,1129.50 L 2049.81,1126.04 L 2054.03,1122.62 L 2057.67,1119.10 L 2060.76,1115.35 L 2064.23,1111.71 L 2068.07,1108.42 L 2071.70,1105.12 L 2075.18,1101.28 L 2078.14,1096.78 L 2078.69,1091.82 L 2075.69,1086.94 L 2071.09,1082.95 L 2067.59,1080.11 L 2064.97,1077.18 L 2061.25,1072.83 L 2056.69,1068.29 L 2053.44,1066.84 L 2051.70,1069.94 L 2049.43,1075.28 L 2046.20,1080.10 L 2043.99,1084.58 L 2043.44,1090.33 L 2042.44,1096.81 L 2039.67,1101.88 L 2036.83,1105.65 L 2035.78,1110.80 L 2035.87,1118.71 L 2036.00,1127.20 L 2036.88,1133.05 L 2039.35,1135.23 L 2042.31,1134.73 Z"/>
</svg>