<?xml version="1.0" encoding="UTF-8"?>
<svg xmlns="http://www.w3.org/2000/svg" width="2500.0" height="1699.7167138810198" viewBox="0 0 2500.0 1699.7167138810198">
<path fill="#5dd6ff" stroke="none" d="M 2045.70,1712.70 L 2027.81,1708.35 L 2010.87,1701.50 L 1994.74,1692.22 L 1979.22,1680.66 L 1964.04,1667.14 L 1948.93,1652.11 L 1933.58,1636.09 L 1917.68,1619.68 L 1900.96,1603.46 L 1883.16,1588.00 L 1864.12,1573.78 L 1843.73,1561.15 L 1821.99,1550.29 L 1798.99,1541.24 L 1774.91,1533.85 L 1750.00,1527.85 L 1724.56,1522.84 L 1698.92,1518.37 L 1673.39,1513.98 L 1648.26,1509.24 L 1623.75,1503.82 L 1599.99,1497.50 L 1577.02,1490.21 L 1554.80,1482.00 L 1533.18,1473.04 L 1511.97,1463.61 L 1490.92,1454.03 L 1469.80,1444.61 L 1448.37,1435.64 L 1426.46,1427.31 L 1403.94,1419.74 L 1380.79,1412.90 L 1357.03,1406.68 L 1332.77,1400.86 L 1308.17,1395.18 L 1283.42,1389.36 L 1258.71,1383.13 L 1234.20,1376.31 L 1210.03,1368.79 L 1186.26,1360.55 L 1162.91,1351.69 L 1139.92,1342.39 L 1117.19,1332.90 L 1094.59,1323.48 L 1071.98,1314.38 L 1049.21,1305.81 L 1026.17,1297.89 L 1002.79,1290.65 L 979.07,1284.02 L 955.03,1277.84 L 930.75,1271.88 L 906.34,1265.90 L 881.93,1259.64 L 857.65,1252.90 L 833.58,1245.55 L 809.78,1237.54 L 786.29,1228.94 L 763.06,1219.89 L 740.02,1210.61 L 717.08,1201.35 L 694.12,1192.36 L 671.03,1183.85 L 647.72,1175.96 L 624.14,1168.75 L 600.26,1162.15 L 576.12,1156.02 L 551.80,1150.14 L 527.39,1144.25 L 503.02,1138.08 L 478.80,1131.39 L 454.82,1124.04 L 431.15,1115.95 L 407.79,1107.17 L 384.71,1097.87 L 361.83,1088.28 L 339.06,1078.69 L 316.25,1069.40 L 293.29,1060.67 L 270.09,1052.68 L 246.59,1045.49 L 222.81,1039.01 L 198.82,1033.03 L 174.79,1027.18 L 150.92,1021.02 L 127.51,1014.05 L 104.86,1005.77 L 83.32,995.72 L 63.20,983.58 L 44.84,969.15 L 28.49,952.39 L 14.38,933.46 L 2.68,912.66 L -6.52,890.39 L -13.15,867.17 L -17.23,843.51 L -18.79,819.92 L -17.91,796.84 L -14.71,774.58 L -9.32,753.34 L -1.89,733.20 L 7.39,714.12 L 18.31,695.96 L 30.65,678.55 L 44.15,661.69 L 58.55,645.22 L 73.59,628.99 L 88.99,612.97 L 104.53,597.17 L 119.99,581.67 L 135.23,566.61 L 150.17,552.12 L 164.80,538.34 L 179.19,525.35 L 193.46,513.19 L 207.79,501.81 L 222.39,491.08 L 237.44,480.83 L 253.13,470.80 L 269.57,460.77 L 286.77,450.50 L 304.69,439.78 L 323.14,428.47 L 341.88,416.52 L 360.58,403.90 L 378.88,390.66 L 396.41,376.88 L 412.86,362.66 L 427.95,348.07 L 441.56,333.15 L 453.64,317.89 L 464.34,302.25 L 473.89,286.16 L 482.65,269.52 L 491.08,252.27 L 499.64,234.42 L 508.82,216.07 L 519.03,197.40 L 530.62,178.76 L 543.81,160.58 L 558.67,143.39 L 575.14,127.74 L 593.04,114.18 L 612.10,103.16 L 631.94,95.00 L 652.18,89.79 L 672.45,87.43 L 692.43,87.52 L 711.85,89.49 L 730.55,92.55 L 748.47,95.80 L 765.64,98.35 L 782.18,99.35 L 798.27,98.12 L 814.09,94.22 L 829.88,87.53 L 845.82,78.21 L 862.07,66.75 L 878.76,53.91 L 895.96,40.61 L 913.69,27.86 L 931.95,16.63 L 950.70,7.76 L 969.92,1.85 L 989.57,-0.80 L 1009.62,-0.23 L 1030.05,3.16 L 1050.87,8.72 L 1072.06,15.56 L 1093.60,22.66 L 1115.47,29.03 L 1137.60,33.77 L 1159.91,36.21 L 1182.29,35.96 L 1204.62,32.95 L 1226.77,27.47 L 1248.63,20.07 L 1270.13,11.55 L 1291.25,2.85 L 1312.03,-5.10 L 1332.59,-11.43 L 1353.11,-15.44 L 1373.80,-16.70 L 1394.92,-15.06 L 1416.71,-10.67 L 1439.38,-3.93 L 1463.04,4.55 L 1487.74,14.04 L 1513.37,23.81 L 1539.74,33.17 L 1566.50,41.60 L 1593.22,48.82 L 1619.41,54.75 L 1644.57,59.59 L 1668.21,63.75 L 1689.93,67.79 L 1709.43,72.38 L 1726.58,78.16 L 1741.38,85.73 L 1754.02,95.54 L 1764.81,107.82 L 1774.18,122.62 L 1782.63,139.75 L 1790.68,158.85 L 1798.82,179.41 L 1807.46,200.82 L 1816.91,222.47 L 1827.37,243.77 L 1838.90,264.24 L 1851.43,283.50 L 1864.85,301.31 L 1878.93,317.57 L 1893.49,332.30 L 1908.32,345.59 L 1923.29,357.60 L 1938.35,368.49 L 1953.51,378.41 L 1968.88,387.50 L 1984.61,395.82 L 2000.89,403.46 L 2017.91,410.44 L 2035.78,416.84 L 2054.58,422.75 L 2074.25,428.33 L 2094.63,433.82 L 2115.44,439.53 L 2136.31,445.84 L 2156.81,453.16 L 2176.48,461.91 L 2194.87,472.47 L 2211.60,485.15 L 2226.39,500.13 L 2239.09,517.46 L 2249.69,537.03 L 2258.31,558.59 L 2265.22,581.76 L 2270.76,606.07 L 2275.36,631.00 L 2279.44,656.06 L 2283.42,680.80 L 2287.64,704.85 L 2292.36,728.00 L 2297.76,750.16 L 2303.88,771.37 L 2310.71,791.79 L 2318.12,811.64 L 2325.97,831.18 L 2334.09,850.67 L 2342.33,870.30 L 2350.57,890.18 L 2358.75,910.32 L 2366.86,930.61 L 2374.95,950.88 L 2383.12,970.88 L 2391.47,990.34 L 2400.13,1009.00 L 2409.17,1026.71 L 2418.63,1043.36 L 2428.51,1059.01 L 2438.71,1073.85 L 2449.09,1088.17 L 2459.46,1102.39 L 2469.60,1116.98 L 2479.26,1132.44 L 2488.22,1149.24 L 2496.28,1167.75 L 2503.28,1188.25 L 2509.13,1210.87 L 2513.78,1235.56 L 2517.23,1262.14 L 2519.52,1290.27 L 2520.70,1319.50 L 2520.81,1349.31 L 2519.89,1379.15 L 2517.92,1408.48 L 2514.87,1436.79 L 2510.63,1463.66 L 2505.08,1488.78 L 2498.07,1511.93 L 2489.44,1533.02 L 2479.02,1552.03 L 2466.70,1569.06 L 2452.40,1584.26 L 2436.10,1597.84 L 2417.86,1610.03 L 2397.79,1621.07 L 2376.08,1631.21 L 2352.95,1640.66 L 2328.68,1649.60 L 2303.58,1658.18 L 2277.94,1666.50 L 2252.07,1674.58 L 2226.26,1682.41 L 2200.76,1689.88 L 2175.81,1696.84 L 2151.60,1703.06 L 2128.28,1708.26 L 2105.97,1712.14 L 2084.75,1714.37 L 2064.67,1714.64 Z"/>
<path fill="#5dd6ff" stroke="none" d="M 2065.93,1671.06 L 2083.61,1671.99 L 2102.58,1670.81 L 2122.95,1667.74 L 2144.73,1663.06 L 2167.87,1657.11 L 2192.19,1650.21 L 2217.47,1642.70 L 2243.34,1634.84 L 2269.41,1626.83 L 2295.21,1618.79 L 2320.28,1610.73 L 2344.15,1602.55 L 2366.41,1594.04 L 2386.73,1584.90 L 2404.85,1574.77 L 2420.65,1563.26 L 2434.10,1549.97 L 2445.28,1534.57 L 2454.36,1516.79 L 2461.58,1496.50 L 2467.18,1473.72 L 2471.43,1448.64 L 2474.55,1421.61 L 2476.71,1393.09 L 2478.01,1363.71 L 2478.49,1334.11 L 2478.10,1304.99 L 2476.75,1276.97 L 2474.32,1250.58 L 2470.70,1226.21 L 2465.80,1204.06 L 2459.57,1184.15 L 2452.04,1166.28 L 2443.33,1150.12 L 2433.61,1135.18 L 2423.13,1120.91 L 2412.18,1106.76 L 2401.05,1092.21 L 2390.03,1076.84 L 2379.36,1060.37 L 2369.23,1042.69 L 2359.74,1023.85 L 2350.90,1004.02 L 2342.66,983.53 L 2334.91,962.72 L 2327.50,941.98 L 2320.28,921.62 L 2313.10,901.87 L 2305.87,882.83 L 2298.55,864.46 L 2291.18,846.58 L 2283.83,828.90 L 2276.64,811.06 L 2269.76,792.68 L 2263.32,773.42 L 2257.42,753.03 L 2252.11,731.40 L 2247.31,708.59 L 2242.90,684.82 L 2238.61,660.47 L 2234.14,636.06 L 2229.11,612.17 L 2223.14,589.40 L 2215.86,568.30 L 2206.97,549.33 L 2196.26,532.79 L 2183.64,518.79 L 2169.16,507.29 L 2152.97,498.04 L 2135.36,490.67 L 2116.71,484.69 L 2097.41,479.57 L 2077.89,474.81 L 2058.54,469.95 L 2039.68,464.61 L 2021.53,458.55 L 2004.22,451.64 L 1987.75,443.85 L 1972.07,435.24 L 1957.03,425.90 L 1942.45,415.93 L 1928.16,405.40 L 1913.99,394.35 L 1899.84,382.72 L 1885.68,370.41 L 1871.55,357.28 L 1857.54,343.16 L 1843.78,327.94 L 1830.43,311.54 L 1817.63,293.99 L 1805.47,275.46 L 1793.97,256.21 L 1783.05,236.63 L 1772.55,217.20 L 1762.22,198.41 L 1751.73,180.75 L 1740.72,164.65 L 1728.82,150.39 L 1715.68,138.10 L 1701.02,127.74 L 1684.67,119.07 L 1666.53,111.74 L 1646.68,105.27 L 1625.25,99.15 L 1602.52,92.90 L 1578.81,86.15 L 1554.48,78.68 L 1529.92,70.45 L 1505.45,61.66 L 1481.36,52.67 L 1457.86,44.02 L 1435.07,36.32 L 1413.02,30.21 L 1391.66,26.23 L 1370.90,24.78 L 1350.58,26.05 L 1330.57,29.94 L 1310.69,36.11 L 1290.83,43.97 L 1270.89,52.73 L 1250.80,61.51 L 1230.53,69.39 L 1210.11,75.55 L 1189.55,79.37 L 1168.89,80.46 L 1148.17,78.77 L 1127.44,74.53 L 1106.72,68.32 L 1086.04,60.92 L 1065.44,53.30 L 1044.95,46.45 L 1024.64,41.34 L 1004.56,38.75 L 984.81,39.23 L 965.50,43.00 L 946.73,49.98 L 928.61,59.73 L 911.23,71.58 L 894.60,84.63 L 878.73,97.90 L 863.52,110.42 L 848.83,121.32 L 834.46,129.95 L 820.15,135.91 L 805.62,139.11 L 790.61,139.77 L 774.88,138.35 L 758.28,135.55 L 740.71,132.20 L 722.24,129.16 L 703.00,127.28 L 683.25,127.25 L 663.35,129.61 L 643.70,134.69 L 624.73,142.56 L 606.82,153.12 L 590.32,166.07 L 575.45,180.99 L 562.30,197.38 L 550.82,214.74 L 540.80,232.60 L 531.93,250.57 L 523.77,268.34 L 515.84,285.73 L 507.64,302.62 L 498.70,318.99 L 488.65,334.85 L 477.21,350.25 L 464.25,365.20 L 449.77,379.71 L 433.91,393.77 L 416.94,407.32 L 399.18,420.30 L 381.01,432.62 L 362.81,444.26 L 344.92,455.20 L 327.59,465.50 L 310.99,475.26 L 295.19,484.66 L 280.13,493.91 L 265.70,503.25 L 251.68,512.94 L 237.85,523.20 L 223.97,534.22 L 209.83,546.10 L 195.28,558.90 L 180.23,572.61 L 164.69,587.15 L 148.75,602.42 L 132.59,618.28 L 116.45,634.62 L 100.60,651.36 L 85.38,668.46 L 71.12,685.92 L 58.12,703.79 L 46.69,722.14 L 37.11,741.07 L 29.59,760.61 L 24.34,780.79 L 21.51,801.53 L 21.20,822.67 L 23.51,843.98 L 28.45,865.12 L 36.03,885.72 L 46.20,905.35 L 58.86,923.62 L 73.86,940.19 L 91.00,954.81 L 110.04,967.36 L 130.67,977.85 L 152.59,986.44 L 175.44,993.41 L 198.91,999.16 L 222.66,1004.13 L 246.43,1008.80 L 270.00,1013.60 L 293.21,1018.88 L 316.00,1024.91 L 338.36,1031.80 L 360.33,1039.55 L 382.04,1048.03 L 403.62,1057.02 L 425.21,1066.23 L 446.95,1075.37 L 468.94,1084.17 L 491.25,1092.41 L 513.90,1099.97 L 536.84,1106.84 L 560.00,1113.08 L 583.28,1118.86 L 606.56,1124.41 L 629.73,1129.98 L 652.69,1135.80 L 675.38,1142.07 L 697.79,1148.91 L 719.95,1156.37 L 741.91,1164.39 L 763.77,1172.85 L 785.64,1181.55 L 807.61,1190.28 L 829.78,1198.81 L 852.19,1206.95 L 874.85,1214.58 L 897.74,1221.65 L 920.80,1228.20 L 943.93,1234.33 L 967.02,1240.22 L 989.97,1246.09 L 1012.69,1252.15 L 1035.12,1258.58 L 1057.26,1265.53 L 1079.12,1273.07 L 1100.79,1281.16 L 1122.36,1289.73 L 1143.95,1298.59 L 1165.69,1307.54 L 1187.67,1316.36 L 1209.97,1324.83 L 1232.61,1332.80 L 1255.56,1340.17 L 1278.76,1346.92 L 1302.08,1353.12 L 1325.38,1358.91 L 1348.50,1364.50 L 1371.31,1370.11 L 1393.67,1375.97 L 1415.53,1382.25 L 1436.87,1389.11 L 1457.73,1396.57 L 1478.22,1404.60 L 1498.49,1413.09 L 1518.71,1421.84 L 1539.09,1430.60 L 1559.80,1439.14 L 1581.00,1447.21 L 1602.78,1454.64 L 1625.20,1461.31 L 1648.22,1467.23 L 1671.77,1472.49 L 1695.70,1477.28 L 1719.82,1481.87 L 1743.91,1486.59 L 1767.74,1491.80 L 1791.09,1497.83 L 1813.77,1504.99 L 1835.60,1513.49 L 1856.46,1523.43 L 1876.29,1534.84 L 1895.06,1547.57 L 1912.80,1561.39 L 1929.58,1575.97 L 1945.52,1590.89 L 1960.76,1605.70 L 1975.49,1619.91 L 1989.91,1633.07 L 2004.27,1644.75 L 2018.79,1654.60 L 2033.74,1662.36 L 2049.38,1667.86 Z"/>
</svg>