<?xml version="1.0" encoding="UTF-8"?>
<svg xmlns="http://www.w3.org/2000/svg" width="2500.0" height="1699.7167138810198" viewBox="0 0 2500.0 1699.7167138810198">
<path fill="#5dd6ff" stroke="none" d="M 1172.47,420.29 L 1169.15,419.74 L 1165.68,418.08 L 1162.03,415.47 L 1158.23,412.17 L 1154.38,408.43 L 1150.62,404.41 L 1147.08,400.25 L 1143.86,395.96 L 1141.01,391.50 L 1138.55,386.81 L 1136.46,381.84 L 1134.72,376.61 L 1133.35,371.16 L 1132.42,365.62 L 1132.05,360.13 L 1132.35,354.84 L 1133.43,349.84 L 1135.28,345.17 L 1137.79,340.83 L 1140.68,336.76 L 1143.55,332.86 L 1145.93,329.09 L 1147.33,325.41 L 1147.34,321.86 L 1145.73,318.50 L 1142.45,315.42 L 1137.72,312.69 L 1131.92,310.34 L 1125.56,308.36 L 1119.16,306.63 L 1113.17,305.01 L 1107.88,303.32 L 1103.36,301.39 L 1099.52,299.12 L 1096.08,296.45 L 1092.71,293.40 L 1089.12,290.06 L 1085.13,286.53 L 1080.72,282.95 L 1076.06,279.39 L 1071.51,275.91 L 1067.46,272.50 L 1064.33,269.13 L 1062.47,265.73 L 1062.04,262.27 L 1063.05,258.72 L 1065.32,255.09 L 1068.53,251.43 L 1072.33,247.79 L 1076.38,244.23 L 1080.41,240.77 L 1084.29,237.44 L 1088.02,234.22 L 1091.70,231.10 L 1095.49,228.08 L 1099.56,225.20 L 1104.03,222.55 L 1108.94,220.23 L 1114.26,218.39 L 1119.88,217.16 L 1125.63,216.64 L 1131.39,216.87 L 1137.04,217.80 L 1142.54,219.33 L 1147.89,221.31 L 1153.15,223.58 L 1158.34,226.00 L 1163.50,228.50 L 1168.57,231.06 L 1173.42,233.74 L 1177.86,236.61 L 1181.67,239.77 L 1184.63,243.27 L 1186.59,247.08 L 1187.54,251.11 L 1187.58,255.23 L 1186.96,259.24 L 1186.07,262.97 L 1185.33,266.30 L 1185.20,269.19 L 1186.02,271.67 L 1188.04,273.85 L 1191.31,275.90 L 1195.71,277.99 L 1200.95,280.23 L 1206.66,282.71 L 1212.41,285.44 L 1217.82,288.37 L 1222.62,291.43 L 1226.68,294.55 L 1230.04,297.69 L 1232.92,300.86 L 1235.58,304.10 L 1238.35,307.46 L 1241.49,311.00 L 1245.16,314.71 L 1249.33,318.57 L 1253.83,322.48 L 1258.33,326.32 L 1262.40,329.99 L 1265.61,333.42 L 1267.59,336.65 L 1268.12,339.76 L 1267.16,342.92 L 1264.86,346.28 L 1261.54,349.95 L 1257.59,353.95 L 1253.43,358.11 L 1249.40,362.14 L 1245.72,365.62 L 1242.44,368.09 L 1239.43,369.14 L 1236.48,368.54 L 1233.32,366.29 L 1229.72,362.66 L 1225.59,358.17 L 1220.97,353.52 L 1216.09,349.49 L 1211.30,346.76 L 1207.01,345.85 L 1203.60,346.97 L 1201.36,350.07 L 1200.37,354.79 L 1200.52,360.61 L 1201.50,366.93 L 1202.87,373.20 L 1204.15,379.02 L 1204.87,384.18 L 1204.70,388.70 L 1203.48,392.72 L 1201.22,396.48 L 1198.10,400.20 L 1194.41,404.01 L 1190.44,407.88 L 1186.47,411.66 L 1182.67,415.08 L 1179.11,417.83 L 1175.75,419.63 Z"/>
<path fill="#5dd6ff" stroke="none" d="M 1669.34,308.81 L 1665.15,307.52 L 1661.03,304.61 L 1657.18,301.12 L 1653.41,297.47 L 1649.95,293.80 L 1646.91,290.34 L 1643.48,286.96 L 1639.09,283.31 L 1635.12,279.54 L 1633.90,276.24 L 1635.80,273.07 L 1638.49,268.55 L 1639.84,262.13 L 1640.45,255.52 L 1642.40,250.83 L 1646.23,247.87 L 1650.50,244.72 L 1653.98,240.71 L 1657.04,236.92 L 1660.49,233.88 L 1664.32,230.48 L 1668.08,226.25 L 1672.05,223.10 L 1676.97,223.29 L 1682.52,226.49 L 1686.79,230.32 L 1687.76,233.54 L 1685.50,237.01 L 1682.62,241.69 L 1682.18,246.95 L 1684.96,251.60 L 1689.16,255.29 L 1692.90,258.48 L 1696.17,261.70 L 1699.76,265.44 L 1702.88,270.06 L 1703.32,275.25 L 1700.31,279.95 L 1695.82,283.58 L 1692.19,286.72 L 1689.42,290.20 L 1686.02,293.97 L 1681.71,297.54 L 1677.86,300.98 L 1675.21,304.58 L 1672.77,307.65 Z"/>
<path fill="#5dd6ff" stroke="none" d="M 1894.71,712.02 L 1889.98,712.41 L 1884.75,711.82 L 1879.24,710.40 L 1873.72,708.39 L 1868.39,706.06 L 1863.30,703.64 L 1858.40,701.31 L 1853.55,699.17 L 1848.61,697.25 L 1843.50,695.50 L 1838.21,693.85 L 1832.80,692.22 L 1827.32,690.58 L 1821.84,688.90 L 1816.35,687.21 L 1810.82,685.56 L 1805.23,684.00 L 1799.59,682.51 L 1793.97,681.07 L 1788.46,679.57 L 1783.18,677.90 L 1778.20,675.95 L 1773.53,673.65 L 1769.10,670.99 L 1764.82,668.04 L 1760.63,664.90 L 1756.53,661.67 L 1752.56,658.43 L 1748.82,655.18 L 1745.34,651.89 L 1742.10,648.48 L 1738.94,644.91 L 1735.67,641.16 L 1732.10,637.31 L 1728.16,633.47 L 1723.98,629.76 L 1719.92,626.29 L 1716.47,623.04 L 1714.14,619.92 L 1713.31,616.75 L 1714.12,613.37 L 1716.41,609.64 L 1719.80,605.59 L 1723.80,601.37 L 1727.97,597.25 L 1732.01,593.58 L 1735.85,590.65 L 1739.60,588.63 L 1743.42,587.49 L 1747.45,587.04 L 1751.69,586.92 L 1756.02,586.72 L 1760.24,586.04 L 1764.15,584.60 L 1767.69,582.25 L 1770.90,578.99 L 1773.98,575.00 L 1777.15,570.52 L 1780.57,565.89 L 1784.30,561.48 L 1788.22,557.66 L 1792.14,554.75 L 1795.87,552.99 L 1799.31,552.54 L 1802.52,553.39 L 1805.67,555.42 L 1808.95,558.39 L 1812.53,561.99 L 1816.39,565.91 L 1820.40,569.91 L 1824.29,573.86 L 1827.82,577.70 L 1830.90,581.50 L 1833.59,585.28 L 1836.18,589.07 L 1839.05,592.80 L 1842.53,596.33 L 1846.79,599.51 L 1851.79,602.21 L 1857.25,604.42 L 1862.79,606.25 L 1868.07,607.91 L 1872.88,609.68 L 1877.20,611.80 L 1881.21,614.41 L 1885.16,617.47 L 1889.23,620.85 L 1893.49,624.32 L 1897.84,627.68 L 1902.07,630.82 L 1905.97,633.79 L 1909.42,636.78 L 1912.46,640.04 L 1915.23,643.80 L 1917.94,648.20 L 1920.69,653.21 L 1923.44,658.64 L 1925.92,664.20 L 1927.74,669.58 L 1928.52,674.55 L 1928.00,679.02 L 1926.15,683.03 L 1923.21,686.73 L 1919.60,690.34 L 1915.78,694.01 L 1912.10,697.78 L 1908.72,701.55 L 1905.56,705.13 L 1902.36,708.24 L 1898.82,710.61 Z"/>
<path fill="#5dd6ff" stroke="none" d="M 1513.24,732.23 L 1512.05,729.53 L 1512.40,723.81 L 1512.90,716.07 L 1511.97,708.21 L 1508.87,702.32 L 1504.35,699.69 L 1500.23,700.28 L 1498.28,703.02 L 1499.13,706.71 L 1501.75,710.82 L 1504.11,715.54 L 1504.35,721.09 L 1501.93,726.89 L 1497.86,731.29 L 1493.94,732.32 L 1491.59,728.97 L 1490.94,722.10 L 1490.83,714.24 L 1489.70,708.29 L 1486.61,705.88 L 1481.87,706.53 L 1476.74,708.12 L 1472.57,708.44 L 1469.93,706.60 L 1468.28,703.51 L 1466.38,701.02 L 1463.19,700.48 L 1458.44,701.73 L 1452.85,703.15 L 1447.64,702.78 L 1443.85,699.51 L 1441.84,693.65 L 1441.26,686.47 L 1441.36,679.27 L 1441.45,672.55 L 1441.25,665.99 L 1440.87,659.05 L 1440.69,651.64 L 1441.12,644.34 L 1442.44,638.01 L 1444.72,633.19 L 1447.82,629.70 L 1451.48,626.82 L 1455.36,623.78 L 1459.15,620.23 L 1462.73,616.26 L 1466.10,612.21 L 1469.42,608.36 L 1472.87,604.93 L 1476.50,602.25 L 1480.23,600.87 L 1483.89,601.39 L 1487.40,604.05 L 1490.78,608.33 L 1494.17,613.11 L 1497.72,617.23 L 1501.46,620.23 L 1505.21,622.66 L 1508.60,625.76 L 1511.21,630.60 L 1512.66,637.32 L 1512.80,644.99 L 1511.81,652.19 L 1510.18,657.88 L 1508.60,662.03 L 1507.78,665.48 L 1508.15,669.28 L 1509.66,674.02 L 1511.85,679.58 L 1514.07,685.36 L 1515.91,690.85 L 1517.37,695.98 L 1518.87,701.00 L 1520.78,706.21 L 1522.99,711.61 L 1524.82,716.93 L 1525.25,721.89 L 1523.64,726.25 L 1520.25,729.81 L 1516.28,732.07 Z"/>
<path fill="#5dd6ff" stroke="none" d="M 2166.09,880.57 L 2163.38,878.62 L 2160.24,875.36 L 2156.71,871.45 L 2152.99,867.45 L 2149.28,863.71 L 2145.72,860.26 L 2142.34,856.90 L 2139.14,853.34 L 2136.18,849.30 L 2133.57,844.64 L 2131.45,839.40 L 2129.79,833.79 L 2128.38,828.16 L 2126.81,822.89 L 2124.64,818.21 L 2121.66,814.18 L 2117.96,810.66 L 2113.94,807.34 L 2110.05,803.96 L 2106.59,800.38 L 2103.48,796.63 L 2100.36,792.93 L 2096.81,789.51 L 2092.60,786.48 L 2087.88,783.80 L 2083.08,781.27 L 2078.68,778.61 L 2074.91,775.65 L 2071.58,772.31 L 2068.27,768.69 L 2064.59,764.94 L 2060.54,761.20 L 2056.59,757.57 L 2053.61,754.07 L 2052.42,750.66 L 2053.42,747.28 L 2056.36,743.86 L 2060.46,740.31 L 2064.76,736.61 L 2068.57,732.80 L 2071.75,729.01 L 2074.72,725.49 L 2078.20,722.50 L 2082.81,720.27 L 2088.81,718.87 L 2095.96,718.21 L 2103.63,718.10 L 2111.12,718.42 L 2117.84,719.13 L 2123.52,720.37 L 2128.19,722.37 L 2132.08,725.21 L 2135.54,728.81 L 2138.84,732.84 L 2142.21,736.88 L 2145.72,740.60 L 2149.36,743.93 L 2153.04,747.06 L 2156.67,750.29 L 2160.17,753.85 L 2163.58,757.71 L 2166.98,761.65 L 2170.49,765.36 L 2174.17,768.68 L 2177.97,771.73 L 2181.69,774.86 L 2185.10,778.48 L 2188.02,782.83 L 2190.41,787.81 L 2192.36,793.13 L 2194.05,798.43 L 2195.62,803.61 L 2197.12,808.85 L 2198.44,814.55 L 2199.42,821.03 L 2199.88,828.28 L 2199.73,835.87 L 2198.93,843.08 L 2197.46,849.19 L 2195.32,853.90 L 2192.48,857.41 L 2189.02,860.34 L 2185.09,863.42 L 2181.03,867.11 L 2177.18,871.34 L 2173.81,875.55 L 2170.98,878.92 L 2168.51,880.71 Z"/>
<path fill="#5dd6ff" stroke="none" d="M 2068.61,1142.20 L 2067.71,1139.85 L 2066.22,1135.39 L 2064.17,1129.30 L 2061.71,1122.23 L 2059.12,1114.95 L 2056.67,1108.26 L 2054.63,1102.95 L 2053.17,1099.64 L 2052.32,1098.78 L 2052.00,1100.51 L 2051.98,1104.68 L 2052.02,1110.81 L 2051.83,1118.15 L 2051.22,1125.76 L 2050.08,1132.63 L 2048.44,1137.79 L 2046.44,1140.48 L 2044.29,1140.28 L 2042.22,1137.14 L 2040.41,1131.46 L 2038.96,1124.02 L 2037.88,1115.86 L 2037.03,1108.17 L 2036.25,1102.06 L 2035.31,1098.39 L 2034.03,1097.64 L 2032.31,1099.82 L 2030.16,1104.42 L 2027.68,1110.57 L 2025.07,1117.10 L 2022.57,1122.80 L 2020.43,1126.59 L 2018.80,1127.72 L 2017.78,1125.91 L 2017.32,1121.35 L 2017.31,1114.72 L 2017.54,1107.05 L 2017.78,1099.53 L 2017.83,1093.29 L 2017.53,1089.28 L 2016.77,1088.03 L 2015.53,1089.66 L 2013.87,1093.82 L 2011.85,1099.82 L 2009.58,1106.72 L 2007.15,1113.51 L 2004.66,1119.29 L 2002.19,1123.35 L 1999.84,1125.32 L 1997.73,1125.09 L 1995.98,1122.87 L 1994.76,1119.03 L 1994.21,1114.06 L 1994.44,1108.41 L 1995.49,1102.48 L 1997.33,1096.54 L 1999.76,1090.70 L 2002.51,1084.98 L 2005.22,1079.34 L 2007.48,1073.69 L 2008.95,1067.98 L 2009.35,1062.19 L 2008.57,1056.37 L 2006.69,1050.59 L 2003.94,1044.97 L 2000.72,1039.60 L 1997.47,1034.60 L 1994.67,1030.04 L 1992.71,1026.04 L 1991.85,1022.70 L 1992.18,1020.16 L 1993.63,1018.59 L 1995.98,1018.19 L 1998.93,1019.13 L 2002.14,1021.53 L 2005.31,1025.41 L 2008.25,1030.66 L 2010.84,1036.98 L 2013.08,1043.95 L 2015.05,1050.98 L 2016.88,1057.48 L 2018.66,1062.84 L 2020.48,1066.58 L 2022.33,1068.38 L 2024.14,1068.13 L 2025.77,1065.97 L 2027.04,1062.19 L 2027.76,1057.25 L 2027.76,1051.65 L 2026.95,1045.87 L 2025.26,1040.28 L 2022.74,1035.13 L 2019.46,1030.51 L 2015.58,1026.38 L 2011.32,1022.60 L 2006.90,1019.02 L 2002.59,1015.49 L 1998.65,1011.97 L 1995.36,1008.48 L 1992.96,1005.16 L 1991.65,1002.22 L 1991.55,999.90 L 1992.71,998.42 L 1995.05,997.95 L 1998.41,998.60 L 2002.50,1000.34 L 2007.02,1003.08 L 2011.59,1006.66 L 2015.92,1010.87 L 2019.75,1015.49 L 2022.98,1020.33 L 2025.58,1025.25 L 2027.70,1030.12 L 2029.51,1034.88 L 2031.26,1039.49 L 2033.15,1043.94 L 2035.33,1048.20 L 2037.83,1052.25 L 2040.58,1056.06 L 2043.44,1059.58 L 2046.21,1062.78 L 2048.70,1065.59 L 2050.80,1067.98 L 2052.46,1069.88 L 2053.77,1071.28 L 2054.89,1072.17 L 2056.06,1072.56 L 2057.49,1072.49 L 2059.32,1072.06 L 2061.63,1071.41 L 2064.31,1070.76 L 2067.19,1070.34 L 2069.97,1070.45 L 2072.37,1071.38 L 2074.11,1073.42 L 2075.04,1076.78 L 2075.14,1081.55 L 2074.52,1087.74 L 2073.40,1095.14 L 2072.08,1103.44 L 2070.85,1112.17 L 2069.90,1120.76 L 2069.34,1128.60 L 2069.12,1135.10 L 2069.08,1139.75 L 2069.00,1142.18 Z"/>
<path fill="#5dd6ff" stroke="none" d="M 2314.58,1144.46 L 2310.90,1143.82 L 2305.94,1140.79 L 2300.67,1136.25 L 2296.42,1132.20 L 2294.24,1130.69 L 2294.20,1132.55 L 2295.17,1136.77 L 2295.43,1141.07 L 2293.64,1143.39 L 2289.66,1142.96 L 2284.56,1140.45 L 2279.74,1137.05 L 2276.09,1133.44 L 2273.49,1129.56 L 2271.26,1125.07 L 2268.77,1120.08 L 2265.93,1115.27 L 2262.95,1111.30 L 2259.82,1108.19 L 2256.07,1105.40 L 2251.07,1102.54 L 2244.77,1100.16 L 2237.98,1099.62 L 2232.04,1101.98 L 2227.92,1106.73 L 2225.50,1111.65 L 2223.64,1113.98 L 2221.05,1112.40 L 2217.27,1108.09 L 2212.91,1104.06 L 2209.14,1103.08 L 2206.63,1105.77 L 2204.99,1110.23 L 2203.08,1113.45 L 2199.91,1113.33 L 2195.48,1109.90 L 2190.88,1104.90 L 2187.60,1100.27 L 2186.67,1096.87 L 2188.16,1094.24 L 2191.36,1091.38 L 2195.29,1087.75 L 2199.21,1083.58 L 2202.80,1079.48 L 2206.08,1075.87 L 2209.33,1072.71 L 2212.97,1069.83 L 2217.53,1067.32 L 2223.40,1065.53 L 2230.50,1064.80 L 2238.19,1065.11 L 2245.46,1066.12 L 2251.47,1067.53 L 2255.97,1069.43 L 2259.43,1072.12 L 2262.61,1075.76 L 2266.04,1080.02 L 2269.80,1084.18 L 2273.58,1087.71 L 2277.11,1090.67 L 2280.43,1093.64 L 2283.77,1097.17 L 2287.34,1101.26 L 2291.11,1105.38 L 2294.85,1108.94 L 2298.38,1111.89 L 2301.72,1114.78 L 2305.01,1118.29 L 2308.35,1122.68 L 2311.58,1127.59 L 2314.36,1132.38 L 2316.31,1136.62 L 2317.15,1140.21 L 2316.64,1143.00 Z"/>
<path fill="#5dd6ff" stroke="none" d="M 2290.80,1118.29 L 2287.97,1115.15 L 2283.95,1112.03 L 2280.23,1108.65 L 2276.95,1104.79 L 2273.52,1100.98 L 2269.82,1097.70 L 2266.17,1094.52 L 2262.71,1090.76 L 2259.34,1086.70 L 2255.83,1083.30 L 2251.57,1081.01 L 2245.57,1079.62 L 2237.82,1079.31 L 2230.66,1080.78 L 2227.68,1083.76 L 2230.66,1086.48 L 2237.82,1087.36 L 2245.57,1087.01 L 2251.57,1087.56 L 2255.83,1090.20 L 2259.34,1094.13 L 2262.71,1097.98 L 2266.17,1101.35 L 2269.82,1104.68 L 2273.52,1108.21 L 2276.95,1111.93 L 2280.23,1115.74 L 2283.95,1119.17 L 2287.97,1121.13 L 2290.80,1120.71 Z"/>
</svg>