<?xml version="1.0" encoding="UTF-8"?>
<svg xmlns="http://www.w3.org/2000/svg" width="2500.0" height="1699.7167138810198" viewBox="0 0 2500.0 1699.7167138810198">
<path fill="#5dd6ff" stroke="none" d="M 2053.82,1724.50 L 2025.50,1724.50 L 2011.33,1710.34 L 1990.08,1696.18 L 1975.92,1682.01 L 1958.22,1664.31 L 1951.13,1643.06 L 1940.51,1625.35 L 1929.89,1600.57 L 1908.64,1593.48 L 1883.85,1582.86 L 1862.61,1575.78 L 1844.90,1565.16 L 1816.57,1558.07 L 1791.78,1554.53 L 1767.00,1543.91 L 1749.29,1533.29 L 1717.42,1529.75 L 1699.72,1519.12 L 1678.47,1512.04 L 1650.14,1504.96 L 1628.90,1497.88 L 1600.57,1490.79 L 1582.86,1480.17 L 1558.07,1476.63 L 1533.29,1466.01 L 1508.50,1462.46 L 1490.79,1458.92 L 1473.09,1448.30 L 1444.76,1441.22 L 1423.51,1434.14 L 1402.27,1427.05 L 1373.94,1419.97 L 1356.23,1409.35 L 1331.44,1398.73 L 1306.66,1395.18 L 1288.95,1384.56 L 1260.62,1377.48 L 1239.38,1370.40 L 1211.05,1363.31 L 1189.80,1356.23 L 1161.47,1349.15 L 1140.23,1342.07 L 1118.98,1334.99 L 1090.65,1327.90 L 1072.95,1317.28 L 1044.62,1310.20 L 1023.37,1303.12 L 1005.67,1292.49 L 973.80,1288.95 L 956.09,1278.33 L 927.76,1271.25 L 906.52,1264.16 L 885.27,1257.08 L 856.94,1250.00 L 839.24,1239.38 L 810.91,1232.29 L 793.20,1221.67 L 764.87,1214.59 L 736.54,1214.59 L 715.30,1207.51 L 686.97,1200.42 L 672.80,1186.26 L 644.48,1179.18 L 623.23,1172.10 L 601.98,1165.01 L 573.65,1157.93 L 552.41,1150.85 L 524.08,1143.77 L 506.37,1133.14 L 481.59,1122.52 L 456.80,1118.98 L 435.55,1111.90 L 407.22,1104.82 L 382.44,1101.27 L 361.19,1087.11 L 339.94,1080.03 L 318.70,1072.95 L 293.91,1062.32 L 269.12,1058.78 L 240.79,1051.70 L 219.55,1044.62 L 198.30,1030.45 L 173.51,1026.91 L 152.27,1019.83 L 127.48,1009.21 L 102.69,1005.67 L 84.99,987.96 L 67.28,977.34 L 49.58,966.71 L 31.87,949.01 L 17.71,934.84 L 0.00,917.14 L -3.54,892.35 L -17.71,878.19 L -17.71,842.78 L -24.79,821.53 L -24.79,800.28 L -21.25,775.50 L -3.54,757.79 L -3.54,729.46 L 7.08,711.76 L 24.79,694.05 L 31.87,672.80 L 49.58,655.10 L 63.74,640.93 L 77.90,626.77 L 92.07,612.61 L 99.15,598.44 L 116.86,580.74 L 131.02,573.65 L 145.18,559.49 L 159.35,545.33 L 173.51,531.16 L 194.76,517.00 L 208.92,502.83 L 226.63,485.13 L 240.79,470.96 L 254.96,470.96 L 276.20,456.80 L 290.37,442.63 L 308.07,439.09 L 322.24,424.93 L 339.94,407.22 L 354.11,407.22 L 375.35,400.14 L 393.06,382.44 L 407.22,368.27 L 432.01,357.65 L 442.63,339.94 L 449.72,318.70 L 467.42,300.99 L 481.59,286.83 L 488.67,258.50 L 488.67,244.33 L 495.75,230.17 L 502.83,208.92 L 517.00,194.76 L 534.70,177.05 L 545.33,159.35 L 563.03,141.64 L 577.20,127.48 L 594.90,131.02 L 612.61,113.31 L 626.77,99.15 L 651.56,102.69 L 665.72,88.53 L 683.43,92.07 L 715.30,88.53 L 729.46,74.36 L 754.25,70.82 L 768.41,84.99 L 786.12,88.53 L 800.28,102.69 L 814.45,116.86 L 832.15,99.15 L 846.32,84.99 L 864.02,67.28 L 878.19,53.12 L 892.35,38.95 L 913.60,24.79 L 927.76,10.62 L 945.47,21.25 L 959.63,7.08 L 991.50,3.54 L 1012.75,-3.54 L 1030.45,-7.08 L 1055.24,3.54 L 1076.49,10.62 L 1097.73,10.62 L 1122.52,14.16 L 1136.69,28.33 L 1161.47,38.95 L 1175.64,53.12 L 1211.05,53.12 L 1232.29,46.03 L 1246.46,31.87 L 1264.16,14.16 L 1278.33,0.00 L 1296.03,-17.71 L 1317.28,-24.79 L 1352.69,-24.79 L 1381.02,-24.79 L 1409.35,-24.79 L 1441.22,-21.25 L 1455.38,-7.08 L 1473.09,10.62 L 1490.79,21.25 L 1504.96,35.41 L 1529.75,46.03 L 1550.99,53.12 L 1579.32,60.20 L 1607.65,60.20 L 1639.52,56.66 L 1664.31,53.12 L 1685.55,60.20 L 1720.96,60.20 L 1735.13,74.36 L 1756.37,74.36 L 1770.54,88.53 L 1777.62,102.69 L 1770.54,123.94 L 1784.70,138.10 L 1788.24,169.97 L 1795.33,191.22 L 1788.24,219.55 L 1802.41,233.71 L 1813.03,251.42 L 1834.28,265.58 L 1848.44,279.75 L 1869.69,293.91 L 1890.93,300.99 L 1905.10,315.16 L 1922.80,332.86 L 1936.97,347.03 L 1936.97,368.27 L 1951.13,382.44 L 1965.30,396.60 L 1979.46,417.85 L 1997.17,428.47 L 2014.87,410.76 L 2032.58,400.14 L 2050.28,417.85 L 2064.45,432.01 L 2082.15,442.63 L 2117.56,442.63 L 2135.27,439.09 L 2167.14,442.63 L 2188.39,449.72 L 2202.55,463.88 L 2220.25,481.59 L 2230.88,499.29 L 2241.50,524.08 L 2255.67,538.24 L 2252.12,570.11 L 2255.67,587.82 L 2255.67,616.15 L 2266.29,640.93 L 2273.37,655.10 L 2280.45,676.35 L 2287.54,697.59 L 2298.16,715.30 L 2305.24,743.63 L 2305.24,771.95 L 2315.86,796.74 L 2330.03,810.91 L 2333.57,828.61 L 2340.65,849.86 L 2333.57,871.10 L 2351.27,888.81 L 2361.90,906.52 L 2358.36,938.39 L 2358.36,959.63 L 2372.52,973.80 L 2390.23,991.50 L 2390.23,1019.83 L 2411.47,1026.91 L 2425.64,1033.99 L 2439.80,1048.16 L 2453.97,1069.41 L 2453.97,1083.57 L 2471.67,1101.27 L 2464.59,1115.44 L 2471.67,1136.69 L 2485.84,1150.85 L 2496.46,1168.56 L 2492.92,1193.34 L 2503.54,1211.05 L 2510.62,1239.38 L 2510.62,1267.71 L 2517.71,1288.95 L 2524.79,1317.28 L 2524.79,1345.61 L 2524.79,1381.02 L 2524.79,1409.35 L 2517.71,1437.68 L 2510.62,1458.92 L 2510.62,1487.25 L 2500.00,1512.04 L 2485.84,1526.20 L 2475.21,1550.99 L 2464.59,1568.70 L 2450.42,1582.86 L 2432.72,1600.57 L 2415.01,1611.19 L 2393.77,1625.35 L 2376.06,1635.98 L 2351.27,1646.60 L 2330.03,1653.68 L 2308.78,1660.76 L 2280.45,1667.85 L 2259.21,1674.93 L 2223.80,1674.93 L 2202.55,1682.01 L 2177.76,1685.55 L 2152.97,1696.18 L 2128.19,1699.72 L 2103.40,1710.34 L 2082.15,1717.42 L 2053.82,1724.50 Z"/>
<path fill="#5dd6ff" stroke="none" d="M 2057.37,1678.47 L 2082.15,1674.93 L 2103.40,1667.85 L 2124.65,1660.76 L 2145.89,1653.68 L 2174.22,1646.60 L 2195.47,1639.52 L 2216.71,1632.44 L 2245.04,1632.44 L 2269.83,1628.90 L 2301.70,1625.35 L 2322.95,1618.27 L 2340.65,1607.65 L 2361.90,1600.57 L 2379.60,1589.94 L 2400.85,1575.78 L 2422.10,1568.70 L 2432.72,1550.99 L 2439.80,1529.75 L 2453.97,1515.58 L 2464.59,1490.79 L 2468.13,1466.01 L 2475.21,1444.76 L 2478.75,1419.97 L 2482.29,1395.18 L 2482.29,1359.77 L 2482.29,1331.44 L 2482.29,1303.12 L 2475.21,1281.87 L 2468.13,1260.62 L 2461.05,1232.29 L 2461.05,1203.97 L 2446.88,1189.80 L 2453.97,1168.56 L 2443.34,1150.85 L 2425.64,1133.14 L 2422.10,1115.44 L 2429.18,1101.27 L 2415.01,1087.11 L 2400.85,1072.95 L 2383.14,1055.24 L 2368.98,1041.08 L 2354.82,1026.91 L 2347.73,1005.67 L 2340.65,984.42 L 2322.95,966.71 L 2312.32,949.01 L 2319.41,927.76 L 2315.86,902.97 L 2305.24,885.27 L 2291.08,864.02 L 2298.16,842.78 L 2294.62,825.07 L 2287.54,810.91 L 2273.37,796.74 L 2262.75,771.95 L 2262.75,743.63 L 2255.67,722.38 L 2248.58,701.13 L 2241.50,679.89 L 2227.34,658.64 L 2227.34,644.48 L 2213.17,630.31 L 2213.17,601.98 L 2209.63,577.20 L 2213.17,552.41 L 2206.09,531.16 L 2191.93,517.00 L 2184.84,495.75 L 2167.14,485.13 L 2135.27,481.59 L 2117.56,485.13 L 2089.24,485.13 L 2067.99,478.05 L 2053.82,463.88 L 2036.12,446.18 L 2018.41,449.72 L 2004.25,463.88 L 1986.54,467.42 L 1972.38,453.26 L 1954.67,435.55 L 1940.51,421.39 L 1929.89,403.68 L 1915.72,389.52 L 1901.56,375.35 L 1887.39,354.11 L 1883.85,343.48 L 1866.15,332.86 L 1848.44,322.24 L 1834.28,308.07 L 1813.03,293.91 L 1798.87,279.75 L 1784.70,265.58 L 1770.54,251.42 L 1759.92,233.71 L 1745.75,212.46 L 1752.83,191.22 L 1745.75,169.97 L 1745.75,141.64 L 1731.59,127.48 L 1720.96,102.69 L 1692.63,102.69 L 1671.39,95.61 L 1643.06,95.61 L 1621.81,102.69 L 1586.40,102.69 L 1565.16,95.61 L 1540.37,92.07 L 1515.58,88.53 L 1501.42,74.36 L 1480.17,60.20 L 1466.01,46.03 L 1451.84,31.87 L 1437.68,17.71 L 1409.35,17.71 L 1373.94,17.71 L 1345.61,17.71 L 1317.28,17.71 L 1296.03,24.79 L 1281.87,38.95 L 1264.16,56.66 L 1250.00,70.82 L 1235.84,84.99 L 1218.13,95.61 L 1189.80,95.61 L 1165.01,84.99 L 1147.31,74.36 L 1129.60,63.74 L 1111.90,53.12 L 1087.11,56.66 L 1065.86,49.58 L 1048.16,38.95 L 1026.91,31.87 L 1005.67,38.95 L 984.42,46.03 L 956.09,53.12 L 941.93,67.28 L 927.76,53.12 L 913.60,67.28 L 895.89,77.90 L 878.19,95.61 L 864.02,109.77 L 849.86,123.94 L 835.69,138.10 L 821.53,152.27 L 803.82,148.73 L 789.66,134.56 L 775.50,127.48 L 761.33,120.40 L 743.63,109.77 L 722.38,123.94 L 701.13,131.02 L 679.89,138.10 L 662.18,134.56 L 644.48,145.18 L 623.23,145.18 L 609.07,159.35 L 594.90,173.51 L 573.65,180.59 L 559.49,194.76 L 541.78,212.46 L 538.24,230.17 L 531.16,244.33 L 531.16,258.50 L 527.62,283.29 L 509.92,300.99 L 495.75,315.16 L 488.67,336.40 L 478.05,354.11 L 463.88,368.27 L 446.18,385.98 L 432.01,400.14 L 410.76,407.22 L 396.60,421.39 L 382.44,435.55 L 361.19,449.72 L 343.48,446.18 L 329.32,460.34 L 315.16,474.50 L 300.99,481.59 L 283.29,492.21 L 269.12,506.37 L 251.42,509.92 L 237.25,517.00 L 223.09,531.16 L 205.38,548.87 L 191.22,563.03 L 177.05,577.20 L 162.89,591.36 L 148.73,605.52 L 131.02,623.23 L 116.86,637.39 L 102.69,651.56 L 88.53,665.72 L 74.36,679.89 L 60.20,701.13 L 46.03,715.30 L 38.95,736.54 L 35.41,761.33 L 21.25,775.50 L 17.71,807.37 L 17.71,821.53 L 24.79,842.78 L 24.79,871.10 L 35.41,888.81 L 42.49,917.14 L 60.20,927.76 L 74.36,941.93 L 92.07,952.55 L 106.23,966.71 L 138.10,970.25 L 155.81,980.88 L 177.05,987.96 L 201.84,991.50 L 219.55,1002.12 L 247.88,1009.21 L 269.12,1016.29 L 293.91,1019.83 L 311.61,1030.45 L 332.86,1037.54 L 361.19,1044.62 L 378.90,1055.24 L 403.68,1058.78 L 424.93,1065.86 L 446.18,1072.95 L 474.50,1080.03 L 495.75,1087.11 L 513.46,1097.73 L 538.24,1101.27 L 559.49,1108.36 L 584.28,1118.98 L 609.07,1122.52 L 630.31,1129.60 L 651.56,1136.69 L 672.80,1143.77 L 694.05,1157.93 L 715.30,1165.01 L 736.54,1172.10 L 764.87,1172.10 L 786.12,1179.18 L 810.91,1189.80 L 835.69,1193.34 L 853.40,1203.97 L 874.65,1211.05 L 899.43,1214.59 L 924.22,1225.21 L 945.47,1232.29 L 966.71,1239.38 L 984.42,1250.00 L 1012.75,1250.00 L 1033.99,1264.16 L 1055.24,1271.25 L 1076.49,1278.33 L 1097.73,1285.41 L 1118.98,1292.49 L 1147.31,1299.58 L 1168.56,1306.66 L 1189.80,1313.74 L 1211.05,1320.82 L 1232.29,1327.90 L 1260.62,1334.99 L 1281.87,1342.07 L 1303.12,1349.15 L 1324.36,1356.23 L 1345.61,1363.31 L 1366.86,1377.48 L 1391.64,1381.02 L 1416.43,1384.56 L 1434.14,1395.18 L 1455.38,1402.27 L 1483.71,1409.35 L 1497.88,1416.43 L 1515.58,1419.97 L 1536.83,1427.05 L 1558.07,1434.14 L 1586.40,1441.22 L 1607.65,1448.30 L 1628.90,1455.38 L 1650.14,1462.46 L 1671.39,1469.55 L 1699.72,1476.63 L 1717.42,1487.25 L 1742.21,1490.79 L 1763.46,1497.88 L 1781.16,1508.50 L 1813.03,1512.04 L 1834.28,1519.12 L 1851.98,1529.75 L 1876.77,1533.29 L 1898.02,1540.37 L 1919.26,1554.53 L 1936.97,1565.16 L 1951.13,1579.32 L 1965.30,1593.48 L 1979.46,1607.65 L 1986.54,1635.98 L 1997.17,1653.68 L 2011.33,1667.85 L 2025.50,1682.01 L 2057.37,1678.47 Z"/>
</svg>