<?xml version="1.0" encoding="UTF-8"?>
<svg xmlns="http://www.w3.org/2000/svg" width="2500.0" height="1699.7167138810198" viewBox="0 0 2500.0 1699.7167138810198">
<path fill="#5dd6ff" stroke="none" d="M 2216.71,612.61 L 2209.63,605.52 L 2191.93,601.98 L 2181.30,591.36 L 2174.22,584.28 L 2163.60,573.65 L 2152.97,563.03 L 2145.89,555.95 L 2131.73,548.87 L 2110.48,548.87 L 2089.24,548.87 L 2082.15,555.95 L 2064.45,559.49 L 2046.74,563.03 L 2032.58,563.03 L 2011.33,563.03 L 1993.63,559.49 L 1983.00,555.95 L 1972.38,545.33 L 1961.76,534.70 L 1951.13,524.08 L 1944.05,517.00 L 1933.43,506.37 L 1922.80,495.75 L 1915.72,488.67 L 1905.10,478.05 L 1894.48,467.42 L 1887.39,460.34 L 1876.77,449.72 L 1866.15,439.09 L 1855.52,428.47 L 1848.44,421.39 L 1837.82,410.76 L 1830.74,396.60 L 1820.11,393.06 L 1809.49,382.44 L 1798.87,371.81 L 1791.78,364.73 L 1781.16,354.11 L 1770.54,343.48 L 1759.92,332.86 L 1752.83,325.78 L 1742.21,315.16 L 1731.59,304.53 L 1724.50,297.45 L 1713.88,286.83 L 1703.26,276.20 L 1713.88,265.58 L 1720.96,258.50 L 1720.96,244.33 L 1706.80,237.25 L 1699.72,230.17 L 1689.09,219.55 L 1678.47,208.92 L 1671.39,201.84 L 1660.76,191.22 L 1650.14,180.59 L 1635.98,173.51 L 1628.90,180.59 L 1607.65,180.59 L 1593.48,173.51 L 1582.86,169.97 L 1565.16,166.43 L 1543.91,166.43 L 1536.83,159.35 L 1519.12,155.81 L 1501.42,152.27 L 1487.25,145.18 L 1476.63,141.64 L 1462.46,134.56 L 1448.30,127.48 L 1441.22,120.40 L 1430.59,109.77 L 1416.43,102.69 L 1409.35,95.61 L 1388.10,95.61 L 1366.86,95.61 L 1345.61,95.61 L 1331.44,95.61 L 1310.20,95.61 L 1296.03,102.69 L 1288.95,109.77 L 1278.33,120.40 L 1267.71,131.02 L 1260.62,138.10 L 1250.00,148.73 L 1239.38,159.35 L 1225.21,166.43 L 1211.05,166.43 L 1189.80,166.43 L 1172.10,162.89 L 1161.47,159.35 L 1147.31,152.27 L 1126.06,152.27 L 1111.90,145.18 L 1101.27,141.64 L 1083.57,138.10 L 1065.86,141.64 L 1058.78,148.73 L 1041.08,152.27 L 1023.37,148.73 L 1016.29,141.64 L 1005.67,131.02 L 991.50,123.94 L 973.80,127.48 L 963.17,131.02 L 956.09,145.18 L 945.47,155.81 L 938.39,162.89 L 927.76,173.51 L 917.14,184.14 L 910.06,191.22 L 899.43,201.84 L 888.81,212.46 L 878.19,223.09 L 871.10,230.17 L 860.48,240.79 L 849.86,251.42 L 842.78,258.50 L 821.53,258.50 L 810.91,247.88 L 803.82,240.79 L 793.20,230.17 L 782.58,219.55 L 768.41,212.46 L 761.33,205.38 L 743.63,201.84 L 729.46,194.76 L 715.30,194.76 L 701.13,201.84 L 686.97,208.92 L 669.26,212.46 L 658.64,216.01 L 644.48,223.09 L 633.85,233.71 L 626.77,240.79 L 616.15,251.42 L 601.98,258.50 L 587.82,258.50 L 577.20,247.88 L 566.57,237.25 L 545.33,237.25 L 534.70,240.79 L 538.24,251.42 L 527.62,262.04 L 520.54,269.12 L 509.92,265.58 L 513.46,254.96 L 506.37,247.88 L 517.00,237.25 L 513.46,226.63 L 520.54,212.46 L 527.62,205.38 L 538.24,194.76 L 552.41,187.68 L 566.57,187.68 L 577.20,198.30 L 587.82,208.92 L 601.98,208.92 L 616.15,201.84 L 626.77,191.22 L 637.39,180.59 L 644.48,173.51 L 658.64,166.43 L 672.80,159.35 L 686.97,159.35 L 701.13,152.27 L 715.30,145.18 L 729.46,145.18 L 743.63,152.27 L 761.33,155.81 L 771.95,166.43 L 782.58,169.97 L 793.20,180.59 L 803.82,191.22 L 810.91,198.30 L 821.53,208.92 L 842.78,208.92 L 853.40,198.30 L 860.48,191.22 L 871.10,180.59 L 881.73,169.97 L 888.81,162.89 L 899.43,152.27 L 910.06,141.64 L 917.14,134.56 L 924.22,120.40 L 934.84,109.77 L 945.47,99.15 L 952.55,92.07 L 963.17,81.44 L 977.34,74.36 L 991.50,74.36 L 1005.67,81.44 L 1016.29,92.07 L 1023.37,99.15 L 1041.08,102.69 L 1058.78,99.15 L 1069.41,88.53 L 1083.57,88.53 L 1101.27,92.07 L 1118.98,95.61 L 1126.06,102.69 L 1147.31,102.69 L 1161.47,109.77 L 1172.10,113.31 L 1189.80,116.86 L 1211.05,116.86 L 1228.75,113.31 L 1239.38,109.77 L 1250.00,99.15 L 1260.62,88.53 L 1267.71,81.44 L 1278.33,70.82 L 1288.95,60.20 L 1303.12,53.12 L 1310.20,46.03 L 1331.44,46.03 L 1352.69,46.03 L 1366.86,46.03 L 1388.10,46.03 L 1409.35,46.03 L 1416.43,53.12 L 1430.59,60.20 L 1441.22,70.82 L 1451.84,81.44 L 1462.46,84.99 L 1476.63,92.07 L 1490.79,99.15 L 1501.42,102.69 L 1519.12,106.23 L 1536.83,109.77 L 1543.91,116.86 L 1565.16,116.86 L 1582.86,120.40 L 1597.03,127.48 L 1607.65,131.02 L 1628.90,131.02 L 1639.52,127.48 L 1650.14,131.02 L 1660.76,141.64 L 1671.39,152.27 L 1678.47,159.35 L 1689.09,169.97 L 1699.72,180.59 L 1710.34,191.22 L 1720.96,194.76 L 1731.59,205.38 L 1742.21,216.01 L 1749.29,223.09 L 1745.75,233.71 L 1735.13,244.33 L 1731.59,254.96 L 1742.21,265.58 L 1752.83,276.20 L 1763.46,286.83 L 1770.54,293.91 L 1781.16,304.53 L 1791.78,315.16 L 1798.87,322.24 L 1809.49,332.86 L 1820.11,343.48 L 1834.28,350.57 L 1841.36,357.65 L 1851.98,368.27 L 1862.61,378.90 L 1869.69,385.98 L 1880.31,396.60 L 1887.39,410.76 L 1894.48,417.85 L 1905.10,428.47 L 1915.72,439.09 L 1926.35,449.72 L 1933.43,456.80 L 1944.05,467.42 L 1954.67,478.05 L 1961.76,485.13 L 1972.38,495.75 L 1983.00,506.37 L 1993.63,509.92 L 2011.33,513.46 L 2032.58,513.46 L 2053.82,513.46 L 2064.45,509.92 L 2082.15,506.37 L 2096.32,499.29 L 2110.48,499.29 L 2131.73,499.29 L 2145.89,506.37 L 2152.97,513.46 L 2163.60,524.08 L 2174.22,534.70 L 2184.84,545.33 L 2191.93,552.41 L 2209.63,555.95 L 2220.25,566.57 L 2227.34,573.65 L 2234.42,587.82 L 2227.34,601.98 L 2216.71,612.61 Z"/>
</svg>