<?xml version="1.0" encoding="UTF-8"?>
<svg xmlns="http://www.w3.org/2000/svg" width="2500.0" height="1699.7167138810198" viewBox="0 0 2500.0 1699.7167138810198">
<path fill="#5dd6ff" stroke="none" d="M 2209.63,612.61 L 2199.01,609.07 L 2188.39,598.44 L 2177.76,587.82 L 2167.14,577.20 L 2156.52,566.57 L 2145.89,555.95 L 2131.73,548.87 L 2110.48,548.87 L 2089.24,548.87 L 2075.07,555.95 L 2067.99,563.03 L 2046.74,563.03 L 2025.50,563.03 L 2004.25,563.03 L 1986.54,559.49 L 1975.92,548.87 L 1965.30,538.24 L 1954.67,527.62 L 1944.05,517.00 L 1933.43,506.37 L 1926.35,499.29 L 1915.72,488.67 L 1905.10,478.05 L 1894.48,467.42 L 1883.85,456.80 L 1873.23,446.18 L 1862.61,435.55 L 1851.98,424.93 L 1841.36,414.31 L 1834.28,400.14 L 1827.20,393.06 L 1813.03,385.98 L 1802.41,375.35 L 1791.78,364.73 L 1781.16,354.11 L 1770.54,343.48 L 1759.92,332.86 L 1749.29,322.24 L 1738.67,311.61 L 1728.05,300.99 L 1717.42,290.37 L 1710.34,283.29 L 1699.72,272.66 L 1703.26,262.04 L 1713.88,251.42 L 1710.34,240.79 L 1699.72,230.17 L 1689.09,219.55 L 1678.47,208.92 L 1667.85,198.30 L 1657.22,187.68 L 1650.14,180.59 L 1639.52,169.97 L 1628.90,173.51 L 1618.27,184.14 L 1604.11,184.14 L 1593.48,173.51 L 1579.32,166.43 L 1558.07,166.43 L 1540.37,162.89 L 1522.66,159.35 L 1515.58,152.27 L 1494.33,152.27 L 1480.17,145.18 L 1466.01,138.10 L 1451.84,131.02 L 1441.22,120.40 L 1430.59,109.77 L 1419.97,99.15 L 1402.27,95.61 L 1381.02,95.61 L 1359.77,95.61 L 1345.61,95.61 L 1324.36,95.61 L 1303.12,95.61 L 1292.49,106.23 L 1281.87,116.86 L 1271.25,127.48 L 1260.62,138.10 L 1250.00,148.73 L 1239.38,159.35 L 1225.21,166.43 L 1211.05,166.43 L 1189.80,166.43 L 1172.10,162.89 L 1154.39,159.35 L 1140.23,152.27 L 1122.52,148.73 L 1104.82,145.18 L 1090.65,138.10 L 1076.49,131.02 L 1065.86,141.64 L 1058.78,148.73 L 1048.16,159.35 L 1037.54,162.89 L 1026.91,152.27 L 1016.29,141.64 L 1005.67,131.02 L 995.04,120.40 L 980.88,120.40 L 970.25,131.02 L 959.63,141.64 L 949.01,152.27 L 941.93,159.35 L 931.30,169.97 L 920.68,180.59 L 910.06,191.22 L 899.43,201.84 L 888.81,212.46 L 878.19,223.09 L 867.56,233.71 L 856.94,244.33 L 846.32,254.96 L 839.24,262.04 L 825.07,262.04 L 814.45,251.42 L 803.82,240.79 L 793.20,230.17 L 782.58,219.55 L 768.41,212.46 L 757.79,201.84 L 743.63,194.76 L 722.38,194.76 L 711.76,198.30 L 694.05,201.84 L 679.89,208.92 L 662.18,212.46 L 651.56,223.09 L 637.39,230.17 L 626.77,240.79 L 616.15,251.42 L 605.52,262.04 L 591.36,262.04 L 580.74,251.42 L 573.65,244.33 L 563.03,233.71 L 552.41,223.09 L 541.78,233.71 L 534.70,247.88 L 524.08,258.50 L 513.46,269.12 L 506.37,262.04 L 509.92,251.42 L 513.46,240.79 L 520.54,233.71 L 513.46,219.55 L 524.08,208.92 L 534.70,198.30 L 545.33,187.68 L 559.49,180.59 L 570.11,191.22 L 580.74,201.84 L 591.36,212.46 L 605.52,212.46 L 612.61,205.38 L 623.23,194.76 L 633.85,184.14 L 644.48,173.51 L 658.64,166.43 L 672.80,159.35 L 690.51,155.81 L 708.22,152.27 L 722.38,145.18 L 743.63,145.18 L 750.71,152.27 L 764.87,159.35 L 779.04,166.43 L 789.66,177.05 L 800.28,187.68 L 810.91,198.30 L 821.53,208.92 L 835.69,216.01 L 846.32,205.38 L 856.94,194.76 L 867.56,184.14 L 874.65,177.05 L 885.27,166.43 L 895.89,155.81 L 906.52,145.18 L 917.14,134.56 L 924.22,120.40 L 934.84,109.77 L 945.47,99.15 L 956.09,88.53 L 970.25,81.44 L 977.34,74.36 L 991.50,67.28 L 1002.12,77.90 L 1012.75,88.53 L 1023.37,99.15 L 1033.99,109.77 L 1044.62,113.31 L 1055.24,102.69 L 1065.86,92.07 L 1076.49,81.44 L 1087.11,84.99 L 1101.27,92.07 L 1118.98,95.61 L 1133.14,102.69 L 1150.85,106.23 L 1168.56,109.77 L 1182.72,116.86 L 1203.97,116.86 L 1225.21,116.86 L 1239.38,109.77 L 1250.00,99.15 L 1257.08,92.07 L 1267.71,81.44 L 1278.33,70.82 L 1288.95,60.20 L 1299.58,49.58 L 1317.28,46.03 L 1338.53,46.03 L 1359.77,46.03 L 1381.02,46.03 L 1402.27,46.03 L 1416.43,46.03 L 1427.05,56.66 L 1437.68,67.28 L 1448.30,77.90 L 1462.46,84.99 L 1473.09,95.61 L 1490.79,99.15 L 1508.50,102.69 L 1522.66,109.77 L 1540.37,113.31 L 1550.99,116.86 L 1572.24,116.86 L 1589.94,120.40 L 1600.57,131.02 L 1614.73,138.10 L 1625.35,127.48 L 1635.98,116.86 L 1646.60,127.48 L 1657.22,138.10 L 1667.85,148.73 L 1678.47,159.35 L 1685.55,166.43 L 1696.18,177.05 L 1706.80,187.68 L 1717.42,198.30 L 1731.59,198.30 L 1742.21,187.68 L 1752.83,177.05 L 1763.46,166.43 L 1767.00,184.14 L 1774.08,198.30 L 1767.00,205.38 L 1759.92,219.55 L 1749.29,230.17 L 1738.67,240.79 L 1731.59,254.96 L 1742.21,265.58 L 1752.83,276.20 L 1763.46,286.83 L 1774.08,297.45 L 1784.70,308.07 L 1791.78,315.16 L 1802.41,325.78 L 1813.03,336.40 L 1827.20,343.48 L 1837.82,354.11 L 1848.44,364.73 L 1859.07,375.35 L 1869.69,385.98 L 1880.31,396.60 L 1887.39,410.76 L 1898.02,421.39 L 1905.10,428.47 L 1915.72,439.09 L 1926.35,449.72 L 1936.97,460.34 L 1947.59,470.96 L 1958.22,481.59 L 1968.84,492.21 L 1979.46,502.83 L 1990.08,513.46 L 2011.33,513.46 L 2025.50,513.46 L 2046.74,513.46 L 2067.99,513.46 L 2078.61,502.83 L 2096.32,499.29 L 2117.56,499.29 L 2138.81,499.29 L 2149.43,509.92 L 2160.06,520.54 L 2170.68,531.16 L 2177.76,538.24 L 2188.39,548.87 L 2199.01,559.49 L 2213.17,559.49 L 2223.80,548.87 L 2234.42,559.49 L 2227.34,573.65 L 2234.42,587.82 L 2230.88,605.52 L 2220.25,601.98 L 2209.63,612.61 Z"/>
</svg>