<?xml version="1.0" encoding="UTF-8"?>
<svg xmlns="http://www.w3.org/2000/svg" width="2500.0" height="1699.7167138810198" viewBox="0 0 2500.0 1699.7167138810198">
<path fill="#e63946" stroke="none" d="M 1890.93,846.32 L 1887.39,842.78 L 1883.85,839.24 L 1880.31,835.69 L 1876.77,832.15 L 1873.23,828.61 L 1876.77,825.07 L 1880.31,821.53 L 1880.31,814.45 L 1876.77,810.91 L 1873.23,807.37 L 1876.77,803.82 L 1880.31,800.28 L 1876.77,796.74 L 1873.23,793.20 L 1876.77,789.66 L 1880.31,786.12 L 1876.77,782.58 L 1873.23,779.04 L 1869.69,775.50 L 1866.15,771.95 L 1869.69,768.41 L 1873.23,764.87 L 1869.69,761.33 L 1866.15,757.79 L 1869.69,754.25 L 1873.23,750.71 L 1873.23,743.63 L 1869.69,740.08 L 1866.15,736.54 L 1866.15,729.46 L 1862.61,725.92 L 1859.07,722.38 L 1862.61,718.84 L 1866.15,715.30 L 1866.15,708.22 L 1862.61,704.67 L 1859.07,701.13 L 1859.07,694.05 L 1855.52,690.51 L 1851.98,686.97 L 1855.52,683.43 L 1859.07,679.89 L 1855.52,676.35 L 1851.98,672.80 L 1848.44,669.26 L 1844.90,665.72 L 1844.90,658.64 L 1841.36,655.10 L 1837.82,651.56 L 1837.82,644.48 L 1834.28,640.93 L 1830.74,637.39 L 1830.74,630.31 L 1827.20,626.77 L 1823.65,623.23 L 1827.20,619.69 L 1830.74,616.15 L 1827.20,612.61 L 1823.65,609.07 L 1820.11,605.52 L 1816.57,601.98 L 1813.03,598.44 L 1809.49,594.90 L 1805.95,591.36 L 1802.41,587.82 L 1802.41,580.74 L 1798.87,577.20 L 1795.33,573.65 L 1795.33,566.57 L 1791.78,563.03 L 1788.24,559.49 L 1784.70,555.95 L 1781.16,552.41 L 1777.62,548.87 L 1774.08,545.33 L 1777.62,541.78 L 1781.16,538.24 L 1784.70,534.70 L 1788.24,531.16 L 1791.78,527.62 L 1795.33,531.16 L 1798.87,534.70 L 1802.41,538.24 L 1805.95,541.78 L 1809.49,545.33 L 1813.03,548.87 L 1816.57,552.41 L 1820.11,555.95 L 1823.65,559.49 L 1823.65,566.57 L 1827.20,570.11 L 1830.74,573.65 L 1830.74,580.74 L 1834.28,584.28 L 1837.82,587.82 L 1841.36,591.36 L 1844.90,594.90 L 1848.44,598.44 L 1851.98,601.98 L 1848.44,605.52 L 1844.90,609.07 L 1848.44,612.61 L 1851.98,616.15 L 1855.52,619.69 L 1859.07,623.23 L 1859.07,630.31 L 1862.61,633.85 L 1866.15,637.39 L 1866.15,644.48 L 1869.69,648.02 L 1873.23,651.56 L 1873.23,658.64 L 1876.77,662.18 L 1880.31,665.72 L 1876.77,669.26 L 1873.23,672.80 L 1876.77,676.35 L 1880.31,679.89 L 1883.85,683.43 L 1887.39,686.97 L 1887.39,694.05 L 1890.93,697.59 L 1894.48,701.13 L 1890.93,704.67 L 1887.39,708.22 L 1887.39,715.30 L 1890.93,718.84 L 1894.48,722.38 L 1894.48,729.46 L 1898.02,733.00 L 1901.56,736.54 L 1898.02,740.08 L 1894.48,743.63 L 1894.48,750.71 L 1898.02,754.25 L 1901.56,757.79 L 1898.02,761.33 L 1894.48,764.87 L 1898.02,768.41 L 1901.56,771.95 L 1898.02,775.50 L 1894.48,779.04 L 1898.02,782.58 L 1901.56,786.12 L 1905.10,789.66 L 1908.64,793.20 L 1905.10,796.74 L 1901.56,800.28 L 1905.10,803.82 L 1908.64,807.37 L 1905.10,810.91 L 1901.56,814.45 L 1901.56,821.53 L 1905.10,825.07 L 1908.64,828.61 L 1905.10,832.15 L 1901.56,835.69 L 1898.02,839.24 L 1894.48,842.78 L 1890.93,846.32 Z"/>
<path fill="#e63946" stroke="none" d="M 1890.93,1193.34 L 1887.39,1189.80 L 1883.85,1186.26 L 1880.31,1182.72 L 1876.77,1179.18 L 1873.23,1175.64 L 1876.77,1172.10 L 1880.31,1168.56 L 1883.85,1165.01 L 1887.39,1161.47 L 1883.85,1157.93 L 1880.31,1154.39 L 1883.85,1150.85 L 1887.39,1147.31 L 1890.93,1143.77 L 1894.48,1140.23 L 1890.93,1136.69 L 1887.39,1133.14 L 1890.93,1129.60 L 1894.48,1126.06 L 1898.02,1122.52 L 1901.56,1118.98 L 1898.02,1115.44 L 1894.48,1111.90 L 1898.02,1108.36 L 1901.56,1104.82 L 1905.10,1101.27 L 1908.64,1097.73 L 1905.10,1094.19 L 1901.56,1090.65 L 1905.10,1087.11 L 1908.64,1083.57 L 1912.18,1080.03 L 1915.72,1076.49 L 1912.18,1072.95 L 1908.64,1069.41 L 1912.18,1065.86 L 1915.72,1062.32 L 1919.26,1058.78 L 1922.80,1055.24 L 1919.26,1051.70 L 1915.72,1048.16 L 1919.26,1044.62 L 1922.80,1041.08 L 1926.35,1037.54 L 1929.89,1033.99 L 1926.35,1030.45 L 1922.80,1026.91 L 1926.35,1023.37 L 1929.89,1019.83 L 1933.43,1016.29 L 1936.97,1012.75 L 1936.97,1005.67 L 1940.51,1002.12 L 1944.05,998.58 L 1944.05,991.50 L 1947.59,987.96 L 1951.13,984.42 L 1954.67,980.88 L 1958.22,977.34 L 1958.22,970.25 L 1961.76,966.71 L 1965.30,963.17 L 1968.84,959.63 L 1972.38,956.09 L 1975.92,952.55 L 1979.46,949.01 L 1983.00,945.47 L 1986.54,941.93 L 1990.08,938.39 L 1993.63,934.84 L 1997.17,931.30 L 2000.71,927.76 L 2000.71,920.68 L 2004.25,917.14 L 2007.79,913.60 L 2011.33,910.06 L 2014.87,906.52 L 2018.41,902.97 L 2021.95,899.43 L 2025.50,895.89 L 2029.04,892.35 L 2032.58,888.81 L 2039.66,888.81 L 2043.20,885.27 L 2046.74,881.73 L 2050.28,878.19 L 2053.82,874.65 L 2057.37,871.10 L 2060.91,867.56 L 2064.45,864.02 L 2067.99,860.48 L 2075.07,860.48 L 2078.61,856.94 L 2082.15,853.40 L 2085.69,849.86 L 2089.24,846.32 L 2092.78,849.86 L 2096.32,853.40 L 2099.86,856.94 L 2103.40,860.48 L 2106.94,864.02 L 2103.40,867.56 L 2099.86,871.10 L 2096.32,874.65 L 2092.78,878.19 L 2089.24,881.73 L 2082.15,881.73 L 2078.61,885.27 L 2075.07,888.81 L 2071.53,892.35 L 2067.99,895.89 L 2064.45,899.43 L 2060.91,902.97 L 2057.37,906.52 L 2053.82,910.06 L 2046.74,910.06 L 2043.20,913.60 L 2039.66,917.14 L 2036.12,920.68 L 2032.58,924.22 L 2029.04,927.76 L 2025.50,931.30 L 2021.95,934.84 L 2021.95,941.93 L 2018.41,945.47 L 2014.87,949.01 L 2011.33,952.55 L 2007.79,956.09 L 2004.25,959.63 L 2000.71,963.17 L 1997.17,966.71 L 1993.63,970.25 L 1990.08,973.80 L 1986.54,977.34 L 1983.00,980.88 L 1979.46,984.42 L 1979.46,991.50 L 1975.92,995.04 L 1972.38,998.58 L 1972.38,1005.67 L 1968.84,1009.21 L 1965.30,1012.75 L 1961.76,1016.29 L 1958.22,1019.83 L 1958.22,1026.91 L 1954.67,1030.45 L 1951.13,1033.99 L 1947.59,1037.54 L 1944.05,1041.08 L 1947.59,1044.62 L 1951.13,1048.16 L 1947.59,1051.70 L 1944.05,1055.24 L 1940.51,1058.78 L 1936.97,1062.32 L 1940.51,1065.86 L 1944.05,1069.41 L 1940.51,1072.95 L 1936.97,1076.49 L 1933.43,1080.03 L 1929.89,1083.57 L 1933.43,1087.11 L 1936.97,1090.65 L 1933.43,1094.19 L 1929.89,1097.73 L 1926.35,1101.27 L 1922.80,1104.82 L 1926.35,1108.36 L 1929.89,1111.90 L 1926.35,1115.44 L 1922.80,1118.98 L 1919.26,1122.52 L 1915.72,1126.06 L 1919.26,1129.60 L 1922.80,1133.14 L 1919.26,1136.69 L 1915.72,1140.23 L 1912.18,1143.77 L 1908.64,1147.31 L 1912.18,1150.85 L 1915.72,1154.39 L 1912.18,1157.93 L 1908.64,1161.47 L 1905.10,1165.01 L 1901.56,1168.56 L 1905.10,1172.10 L 1908.64,1175.64 L 1905.10,1179.18 L 1901.56,1182.72 L 1898.02,1186.26 L 1894.48,1189.80 L 1890.93,1193.34 Z"/>
</svg>