<?xml version="1.0" encoding="UTF-8"?>
<svg xmlns="http://www.w3.org/2000/svg" width="2500.0" height="1699.7167138810198" viewBox="0 0 2500.0 1699.7167138810198">
<path fill="#5dd6ff" stroke="none" d="M 2204.36,1644.84 L 2185.82,1645.07 L 2166.57,1644.58 L 2146.78,1643.46 L 2126.72,1641.81 L 2106.65,1639.71 L 2086.86,1637.25 L 2067.62,1634.50 L 2049.12,1631.50 L 2031.52,1628.27 L 2014.86,1624.81 L 1999.09,1621.08 L 1984.06,1617.04 L 1969.53,1612.61 L 1955.19,1607.69 L 1940.66,1602.19 L 1925.57,1596.00 L 1909.56,1589.04 L 1892.31,1581.25 L 1873.61,1572.59 L 1853.33,1563.06 L 1831.52,1552.73 L 1808.35,1541.70 L 1784.17,1530.12 L 1759.45,1518.20 L 1734.80,1506.19 L 1710.92,1494.35 L 1688.57,1483.00 L 1668.53,1472.42 L 1651.53,1462.89 L 1638.25,1454.65 L 1629.23,1447.90 L 1624.86,1442.75 L 1625.36,1439.24 L 1630.74,1437.32 L 1640.80,1436.85 L 1655.16,1437.58 L 1673.26,1439.20 L 1694.37,1441.31 L 1717.67,1443.46 L 1742.27,1445.17 L 1767.23,1445.95 L 1791.65,1445.32 L 1814.69,1442.87 L 1835.61,1438.22 L 1853.80,1431.11 L 1868.78,1421.35 L 1880.27,1408.89 L 1888.12,1393.78 L 1892.34,1376.19 L 1893.10,1356.39 L 1890.66,1334.73 L 1885.39,1311.64 L 1877.69,1287.58 L 1868.03,1263.04 L 1856.84,1238.48 L 1844.55,1214.33 L 1831.55,1190.98 L 1818.14,1168.70 L 1804.60,1147.71 L 1791.10,1128.10 L 1777.76,1109.89 L 1764.64,1092.98 L 1751.75,1077.21 L 1739.05,1062.33 L 1726.48,1048.07 L 1713.96,1034.14 L 1701.42,1020.23 L 1688.77,1006.07 L 1675.94,991.43 L 1662.87,976.15 L 1649.51,960.13 L 1635.81,943.36 L 1621.73,925.90 L 1607.24,907.90 L 1592.30,889.55 L 1576.89,871.12 L 1560.97,852.87 L 1544.50,835.10 L 1527.46,818.10 L 1509.83,802.10 L 1491.61,787.32 L 1472.80,773.87 L 1453.47,761.83 L 1433.67,751.17 L 1413.52,741.78 L 1393.14,733.49 L 1372.69,726.04 L 1352.36,719.14 L 1332.32,712.46 L 1312.78,705.63 L 1293.90,698.32 L 1275.82,690.19 L 1258.64,680.98 L 1242.42,670.44 L 1227.15,658.45 L 1212.76,644.93 L 1199.11,629.91 L 1186.01,613.50 L 1173.20,595.89 L 1160.42,577.36 L 1147.36,558.24 L 1133.71,538.91 L 1119.18,519.77 L 1103.51,501.25 L 1086.50,483.76 L 1068.00,467.66 L 1047.94,453.30 L 1026.31,440.93 L 1003.19,430.75 L 978.73,422.84 L 953.13,417.22 L 926.64,413.79 L 899.52,412.38 L 872.08,412.70 L 844.60,414.41 L 817.33,417.11 L 790.52,420.33 L 764.36,423.61 L 739.00,426.46 L 714.55,428.42 L 691.07,429.04 L 668.63,427.98 L 647.24,424.91 L 626.93,419.65 L 607.74,412.08 L 589.73,402.18 L 572.97,390.07 L 557.62,375.94 L 543.82,360.09 L 531.79,342.87 L 521.76,324.73 L 513.97,306.13 L 508.68,287.55 L 506.10,269.49 L 506.44,252.37 L 509.83,236.60 L 516.34,222.50 L 525.94,210.31 L 538.54,200.17 L 553.93,192.11 L 571.84,186.08 L 591.90,181.92 L 613.68,179.38 L 636.73,178.16 L 660.57,177.90 L 684.73,178.23 L 708.76,178.76 L 732.28,179.13 L 754.99,179.03 L 776.65,178.18 L 797.13,176.39 L 816.41,173.56 L 834.54,169.65 L 851.66,164.71 L 867.98,158.85 L 883.77,152.25 L 899.30,145.14 L 914.86,137.76 L 930.73,130.36 L 947.14,123.18 L 964.28,116.43 L 982.29,110.28 L 1001.23,104.85 L 1021.11,100.19 L 1041.88,96.32 L 1063.46,93.18 L 1085.70,90.68 L 1108.47,88.70 L 1131.61,87.10 L 1155.01,85.73 L 1178.53,84.47 L 1202.11,83.23 L 1225.72,81.93 L 1249.34,80.56 L 1273.01,79.16 L 1296.79,77.80 L 1320.76,76.61 L 1344.99,75.73 L 1369.55,75.35 L 1394.49,75.63 L 1419.81,76.75 L 1445.46,78.84 L 1471.36,82.00 L 1497.36,86.29 L 1523.28,91.71 L 1548.88,98.20 L 1573.89,105.66 L 1598.05,113.94 L 1621.08,122.86 L 1642.72,132.22 L 1662.74,141.84 L 1680.98,151.55 L 1697.32,161.19 L 1711.72,170.69 L 1724.20,180.01 L 1734.87,189.18 L 1743.92,198.29 L 1751.56,207.48 L 1758.10,216.96 L 1763.86,226.94 L 1769.19,237.66 L 1774.46,249.32 L 1780.03,262.11 L 1786.23,276.16 L 1793.38,291.52 L 1801.76,308.18 L 1811.58,326.01 L 1823.04,344.80 L 1836.24,364.26 L 1851.27,384.03 L 1868.13,403.70 L 1886.77,422.84 L 1907.11,441.02 L 1928.98,457.84 L 1952.19,472.97 L 1976.49,486.17 L 2001.58,497.30 L 2027.12,506.36 L 2052.75,513.46 L 2078.06,518.87 L 2102.64,522.95 L 2126.07,526.19 L 2147.93,529.14 L 2167.83,532.41 L 2185.43,536.62 L 2200.45,542.35 L 2212.69,550.14 L 2222.04,560.44 L 2228.50,573.57 L 2232.19,589.71 L 2233.36,608.91 L 2232.35,631.03 L 2229.63,655.82 L 2225.75,682.86 L 2221.33,711.66 L 2217.02,741.62 L 2213.47,772.09 L 2211.32,802.42 L 2211.11,831.99 L 2213.29,860.22 L 2218.18,886.64 L 2225.96,910.85 L 2236.62,932.63 L 2250.00,951.85 L 2265.74,968.54 L 2283.38,982.85 L 2302.30,995.06 L 2321.80,1005.52 L 2341.16,1014.65 L 2359.62,1022.92 L 2376.50,1030.82 L 2391.19,1038.79 L 2403.22,1047.26 L 2412.26,1056.59 L 2418.18,1067.05 L 2421.03,1078.83 L 2421.03,1092.03 L 2418.59,1106.67 L 2414.26,1122.65 L 2408.68,1139.84 L 2402.57,1158.03 L 2396.65,1176.97 L 2391.61,1196.42 L 2388.07,1216.09 L 2386.51,1235.74 L 2387.27,1255.13 L 2390.52,1274.08 L 2396.22,1292.45 L 2404.19,1310.14 L 2414.05,1327.09 L 2425.29,1343.32 L 2437.29,1358.84 L 2449.39,1373.74 L 2460.88,1388.09 L 2471.11,1402.01 L 2479.46,1415.59 L 2485.46,1428.94 L 2488.73,1442.15 L 2489.06,1455.28 L 2486.39,1468.37 L 2480.82,1481.45 L 2472.56,1494.52 L 2461.96,1507.54 L 2449.43,1520.46 L 2435.42,1533.20 L 2420.40,1545.68 L 2404.79,1557.81 L 2388.98,1569.47 L 2373.25,1580.57 L 2357.81,1591.00 L 2342.75,1600.67 L 2328.05,1609.48 L 2313.63,1617.38 L 2299.32,1624.31 L 2284.91,1630.22 L 2270.17,1635.12 L 2254.89,1638.99 L 2238.90,1641.87 L 2222.07,1643.80 Z"/>
<path fill="#5dd6ff" stroke="none" d="M 2211.54,1602.21 L 2222.83,1601.34 L 2234.66,1599.36 L 2247.26,1596.20 L 2260.79,1591.84 L 2275.29,1586.33 L 2290.70,1579.75 L 2306.86,1572.23 L 2323.52,1563.91 L 2340.33,1554.96 L 2356.88,1545.53 L 2372.73,1535.79 L 2387.42,1525.84 L 2400.51,1515.79 L 2411.60,1505.69 L 2420.38,1495.55 L 2426.63,1485.34 L 2430.22,1475.01 L 2431.18,1464.45 L 2429.63,1453.58 L 2425.81,1442.26 L 2420.07,1430.40 L 2412.83,1417.89 L 2404.58,1404.66 L 2395.83,1390.68 L 2387.07,1375.92 L 2378.76,1360.42 L 2371.32,1344.23 L 2365.06,1327.46 L 2360.18,1310.21 L 2356.77,1292.63 L 2354.81,1274.85 L 2354.14,1257.01 L 2354.50,1239.26 L 2355.56,1221.72 L 2356.91,1204.47 L 2358.11,1187.60 L 2358.69,1171.15 L 2358.25,1155.13 L 2356.39,1139.54 L 2352.82,1124.33 L 2347.33,1109.45 L 2339.84,1094.82 L 2330.36,1080.33 L 2319.02,1065.89 L 2306.09,1051.39 L 2291.89,1036.70 L 2276.84,1021.72 L 2261.41,1006.33 L 2246.09,990.42 L 2231.36,973.90 L 2217.67,956.67 L 2205.41,938.68 L 2194.91,919.86 L 2186.37,900.20 L 2179.91,879.71 L 2175.53,858.41 L 2173.10,836.39 L 2172.42,813.77 L 2173.18,790.70 L 2174.99,767.38 L 2177.41,744.06 L 2179.99,720.99 L 2182.25,698.47 L 2183.73,676.79 L 2184.03,656.25 L 2182.76,637.12 L 2179.65,619.64 L 2174.48,604.00 L 2167.13,590.32 L 2157.56,578.64 L 2145.81,568.92 L 2132.02,561.04 L 2116.37,554.79 L 2099.12,549.86 L 2080.54,545.91 L 2060.94,542.52 L 2040.65,539.26 L 2019.97,535.69 L 1999.22,531.37 L 1978.66,525.94 L 1958.52,519.07 L 1939.00,510.54 L 1920.24,500.21 L 1902.36,488.04 L 1885.41,474.11 L 1869.42,458.59 L 1854.36,441.75 L 1840.19,423.90 L 1826.84,405.42 L 1814.21,386.70 L 1802.19,368.12 L 1790.67,350.04 L 1779.53,332.75 L 1768.63,316.49 L 1757.86,301.40 L 1747.10,287.52 L 1736.24,274.84 L 1725.17,263.22 L 1713.78,252.49 L 1702.00,242.43 L 1689.73,232.79 L 1676.90,223.33 L 1663.45,213.84 L 1649.33,204.15 L 1634.49,194.15 L 1618.91,183.83 L 1602.57,173.25 L 1585.47,162.56 L 1567.63,151.95 L 1549.07,141.71 L 1529.83,132.13 L 1509.97,123.52 L 1489.55,116.17 L 1468.65,110.34 L 1447.34,106.20 L 1425.71,103.86 L 1403.85,103.32 L 1381.84,104.48 L 1359.77,107.15 L 1337.71,111.05 L 1315.74,115.83 L 1293.92,121.10 L 1272.30,126.46 L 1250.94,131.52 L 1229.86,135.94 L 1209.11,139.43 L 1188.71,141.82 L 1168.68,143.02 L 1149.05,143.07 L 1129.82,142.11 L 1111.03,140.39 L 1092.68,138.22 L 1074.79,135.98 L 1057.37,134.08 L 1040.42,132.92 L 1023.97,132.84 L 1007.98,134.15 L 992.46,137.04 L 977.37,141.59 L 962.67,147.76 L 948.30,155.40 L 934.17,164.24 L 920.20,173.92 L 906.29,184.00 L 892.30,194.02 L 878.13,203.50 L 863.65,212.00 L 848.74,219.14 L 833.30,224.62 L 817.24,228.28 L 800.52,230.06 L 783.11,230.05 L 765.04,228.47 L 746.38,225.65 L 727.23,222.00 L 707.77,218.02 L 688.19,214.23 L 668.75,211.13 L 649.72,209.20 L 631.41,208.85 L 614.13,210.40 L 598.20,214.03 L 583.92,219.82 L 571.58,227.70 L 561.42,237.51 L 553.65,248.94 L 548.42,261.63 L 545.82,275.14 L 545.87,289.01 L 548.55,302.76 L 553.76,315.97 L 561.37,328.25 L 571.18,339.29 L 582.97,348.87 L 596.50,356.87 L 611.52,363.25 L 627.77,368.06 L 645.02,371.46 L 663.06,373.62 L 681.69,374.78 L 700.76,375.20 L 720.17,375.15 L 739.83,374.86 L 759.71,374.55 L 779.77,374.40 L 800.04,374.55 L 820.51,375.10 L 841.21,376.12 L 862.14,377.63 L 883.30,379.66 L 904.65,382.23 L 926.14,385.35 L 947.69,389.04 L 969.19,393.37 L 990.51,398.40 L 1011.51,404.21 L 1032.02,410.91 L 1051.90,418.61 L 1071.00,427.39 L 1089.20,437.33 L 1106.43,448.47 L 1122.63,460.82 L 1137.79,474.30 L 1151.97,488.81 L 1165.26,504.17 L 1177.78,520.14 L 1189.72,536.44 L 1201.27,552.78 L 1212.65,568.83 L 1224.09,584.27 L 1235.79,598.81 L 1247.96,612.23 L 1260.76,624.35 L 1274.31,635.06 L 1288.69,644.38 L 1303.91,652.37 L 1319.96,659.22 L 1336.75,665.17 L 1354.16,670.52 L 1372.04,675.64 L 1390.20,680.87 L 1408.47,686.60 L 1426.65,693.13 L 1444.55,700.76 L 1462.02,709.67 L 1478.93,719.99 L 1495.19,731.75 L 1510.75,744.88 L 1525.60,759.24 L 1539.75,774.60 L 1553.27,790.69 L 1566.25,807.21 L 1578.77,823.84 L 1590.96,840.29 L 1602.92,856.29 L 1614.76,871.63 L 1626.55,886.19 L 1638.36,899.89 L 1650.25,912.75 L 1662.22,924.88 L 1674.28,936.42 L 1686.42,947.60 L 1698.59,958.64 L 1710.77,969.80 L 1722.90,981.33 L 1734.97,993.44 L 1746.93,1006.30 L 1758.78,1020.02 L 1770.50,1034.66 L 1782.10,1050.19 L 1793.59,1066.56 L 1804.99,1083.62 L 1816.30,1101.22 L 1827.51,1119.17 L 1838.60,1137.27 L 1849.53,1155.35 L 1860.21,1173.26 L 1870.56,1190.87 L 1880.43,1208.14 L 1889.68,1225.04 L 1898.12,1241.62 L 1905.59,1257.95 L 1911.90,1274.15 L 1916.91,1290.35 L 1920.50,1306.70 L 1922.59,1323.31 L 1923.17,1340.28 L 1922.31,1357.65 L 1920.13,1375.43 L 1916.83,1393.55 L 1912.72,1411.89 L 1908.12,1430.27 L 1903.44,1448.48 L 1899.12,1466.25 L 1895.59,1483.32 L 1893.30,1499.42 L 1892.64,1514.31 L 1893.98,1527.77 L 1897.58,1539.67 L 1903.63,1549.90 L 1912.21,1558.45 L 1923.29,1565.37 L 1936.73,1570.79 L 1952.30,1574.89 L 1969.66,1577.89 L 1988.42,1580.04 L 2008.15,1581.62 L 2028.37,1582.87 L 2048.64,1584.02 L 2068.53,1585.25 L 2087.69,1586.71 L 2105.81,1588.44 L 2122.72,1590.47 L 2138.33,1592.72 L 2152.65,1595.09 L 2165.80,1597.41 L 2177.98,1599.48 L 2189.45,1601.11 L 2200.53,1602.08 Z"/>
</svg>